<?xml version="1.0" encoding="UTF-8" standalone="no"?>
<svg
   width="460.79999pt"
   height="355.49088pt"
   viewBox="0 0 460.8 355.49087"
   version="1.1"
   id="svg80"
   sodipodi:docname="_1 Temperature v Log(r).svg"
   inkscape:version="1.3 (0e150ed6c4, 2023-07-21)"
   xmlns:inkscape="http://www.inkscape.org/namespaces/inkscape"
   xmlns:sodipodi="http://sodipodi.sourceforge.net/DTD/sodipodi-0.dtd"
   xmlns:xlink="http://www.w3.org/1999/xlink"
   xmlns="http://www.w3.org/2000/svg"
   xmlns:svg="http://www.w3.org/2000/svg"
   xmlns:rdf="http://www.w3.org/1999/02/22-rdf-syntax-ns#"
   xmlns:cc="http://creativecommons.org/ns#"
   xmlns:dc="http://purl.org/dc/elements/1.1/">
  <sodipodi:namedview
     id="namedview80"
     pagecolor="#ffffff"
     bordercolor="#000000"
     borderopacity="0.25"
     inkscape:showpageshadow="2"
     inkscape:pageopacity="0.0"
     inkscape:pagecheckerboard="0"
     inkscape:deskcolor="#d1d1d1"
     inkscape:document-units="pt"
     inkscape:zoom="1.781684"
     inkscape:cx="307.29355"
     inkscape:cy="320.20269"
     inkscape:window-width="1920"
     inkscape:window-height="1017"
     inkscape:window-x="-8"
     inkscape:window-y="-8"
     inkscape:window-maximized="1"
     inkscape:current-layer="svg80" />
  <metadata
     id="metadata1">
    <rdf:RDF>
      <cc:Work>
        <dc:type
           rdf:resource="http://purl.org/dc/dcmitype/StillImage" />
        <dc:date>2023-12-14T21:35:49.149125</dc:date>
        <dc:format>image/svg+xml</dc:format>
        <dc:creator>
          <cc:Agent>
            <dc:title>Matplotlib v3.7.2, https://matplotlib.org/</dc:title>
          </cc:Agent>
        </dc:creator>
      </cc:Work>
    </rdf:RDF>
  </metadata>
  <defs
     id="defs1">
    <style
       type="text/css"
       id="style1">*{stroke-linejoin: round; stroke-linecap: butt}</style>
  </defs>
  <g
     id="figure_1">
    <g
       id="patch_1">
      <path
         d="M 0,345.6 H 460.8 V 0 H 0 Z"
         style="fill:none"
         id="path1" />
    </g>
    <g
       id="axes_1">
      <g
         id="patch_2">
        <path
           d="M 57.6,307.584 H 414.72 V 41.472 H 57.6 Z"
           style="fill:none"
           id="path2" />
      </g>
      <g
         id="matplotlib.axis_1">
        <g
           id="xtick_1">
          <g
             id="line2d_1">
            <defs
               id="defs2">
              <path
                 id="m7c11bcc1cb"
                 d="M 0,0 V 3.5"
                 style="stroke:#000000;stroke-width:0.8" />
            </defs>
            <g
               id="g2">
              <use
                 xlink:href="#m7c11bcc1cb"
                 x="90.892601"
                 y="307.58401"
                 style="stroke:#000000;stroke-width:0.8"
                 id="use2" />
            </g>
          </g>
          <g
             id="text_1">
            <!-- 1 -->
            <g
               style="fill:#ffffff"
               transform="matrix(0.16,0,0,-0.16,85.802601,326.7415)"
               id="g3">
              <defs
                 id="defs3">
                <path
                   id="DejaVuSerif-31"
                   d="m 909,0 v 331 h 813 V 4213 L 781,3603 v 410 l 1138,737 h 431 V 331 h 813 V 0 Z"
                   transform="scale(0.015625)" />
              </defs>
              <use
                 xlink:href="#DejaVuSerif-31"
                 id="use3" />
            </g>
          </g>
        </g>
        <g
           id="xtick_2">
          <g
             id="line2d_2">
            <g
               id="g4">
              <use
                 xlink:href="#m7c11bcc1cb"
                 x="167.79128"
                 y="307.58401"
                 style="stroke:#000000;stroke-width:0.8"
                 id="use4" />
            </g>
          </g>
          <g
             id="text_2">
            <!-- 2 -->
            <g
               style="fill:#ffffff"
               transform="matrix(0.16,0,0,-0.16,162.70127,326.7415)"
               id="g5">
              <defs
                 id="defs4">
                <path
                   id="DejaVuSerif-32"
                   d="M 819,3553 H 469 v 831 q 334,179 673,272 339,94 664,94 728,0 1150,-353 422,-353 422,-959 0,-685 -956,-1638 -75,-72 -113,-109 L 1131,513 h 1947 v 575 h 366 V 0 H 434 v 341 l 1416,1412 q 469,469 669,861 200,392 200,824 0,471 -246,737 -245,266 -676,266 -447,0 -691,-222 -243,-222 -287,-666 z"
                   transform="scale(0.015625)" />
              </defs>
              <use
                 xlink:href="#DejaVuSerif-32"
                 id="use5" />
            </g>
          </g>
        </g>
        <g
           id="xtick_3">
          <g
             id="line2d_3">
            <g
               id="g6">
              <use
                 xlink:href="#m7c11bcc1cb"
                 x="244.68994"
                 y="307.58401"
                 style="stroke:#000000;stroke-width:0.8"
                 id="use6" />
            </g>
          </g>
          <g
             id="text_3">
            <!-- 3 -->
            <g
               style="fill:#ffffff"
               transform="matrix(0.16,0,0,-0.16,239.59994,326.7415)"
               id="g7">
              <defs
                 id="defs6">
                <path
                   id="DejaVuSerif-33"
                   d="m 622,4469 q 366,137 701,209 336,72 630,72 685,0 1069,-296 384,-295 384,-820 0,-421 -266,-704 -265,-283 -752,-383 575,-81 892,-417 317,-336 317,-871 0,-653 -439,-1002 -439,-348 -1264,-348 -366,0 -715,79 -348,78 -691,237 v 906 h 350 q 31,-450 303,-681 272,-231 765,-231 478,0 755,276 277,277 277,758 0,550 -285,833 -284,283 -834,283 h -297 v 319 h 156 q 547,0 820,226 274,227 274,683 0,409 -225,626 -225,218 -647,218 -422,0 -655,-200 -232,-200 -273,-594 H 622 Z"
                   transform="scale(0.015625)" />
              </defs>
              <use
                 xlink:href="#DejaVuSerif-33"
                 id="use7" />
            </g>
          </g>
        </g>
        <g
           id="xtick_4">
          <g
             id="line2d_4">
            <g
               id="g8">
              <use
                 xlink:href="#m7c11bcc1cb"
                 x="321.58859"
                 y="307.58401"
                 style="stroke:#000000;stroke-width:0.8"
                 id="use8" />
            </g>
          </g>
          <g
             id="text_4">
            <!-- 4 -->
            <g
               style="fill:#ffffff"
               transform="matrix(0.16,0,0,-0.16,316.4986,326.7415)"
               id="g9">
              <defs
                 id="defs8">
                <path
                   id="DejaVuSerif-34"
                   d="M 2234,1581 V 4063 L 641,1581 Z M 3609,0 H 1484 v 331 h 750 v 916 H 197 v 341 l 2044,3162 h 618 V 1581 h 891 V 1247 H 2859 V 331 h 750 z"
                   transform="scale(0.015625)" />
              </defs>
              <use
                 xlink:href="#DejaVuSerif-34"
                 id="use9" />
            </g>
          </g>
        </g>
        <g
           id="xtick_5">
          <g
             id="line2d_5">
            <g
               id="g10">
              <use
                 xlink:href="#m7c11bcc1cb"
                 x="398.48727"
                 y="307.58401"
                 style="stroke:#000000;stroke-width:0.8"
                 id="use10" />
            </g>
          </g>
          <g
             id="text_5">
            <!-- 5 -->
            <g
               style="fill:#ffffff"
               transform="matrix(0.16,0,0,-0.16,393.39727,326.7415)"
               id="g11">
              <defs
                 id="defs10">
                <path
                   id="DejaVuSerif-35"
                   d="M 3219,4666 V 4153 H 1081 V 2816 q 163,112 380,168 217,57 486,57 756,0 1193,-419 438,-419 438,-1144 0,-740 -442,-1155 -442,-414 -1242,-414 -322,0 -660,79 -337,78 -690,237 v 906 h 353 q 28,-443 282,-678 255,-234 715,-234 494,0 759,325 266,325 266,934 0,606 -264,929 -264,324 -761,324 -281,0 -496,-100 -214,-100 -379,-309 H 750 v 2344 z"
                   transform="scale(0.015625)" />
              </defs>
              <use
                 xlink:href="#DejaVuSerif-35"
                 id="use11" />
            </g>
          </g>
        </g>
        <g
           id="text_6">
          <!-- Log$_{10}$(Radius / $R_g$) -->
          <g
             style="fill:#ffffff"
             transform="matrix(0.2,0,0,-0.2,143.36,349.269)"
             id="g29">
            <defs
               id="defs11">
              <path
                 id="DejaVuSerif-4c"
                 d="M 353,0 V 331 H 947 V 4331 H 353 v 335 H 2175 V 4331 H 1581 V 384 h 2132 v 782 h 384 V 0 Z"
                 transform="scale(0.015625)" />
              <path
                 id="DejaVuSerif-6f"
                 d="m 1925,219 q 463,0 698,365 236,366 236,1079 0,712 -236,1076 -235,364 -698,364 -462,0 -698,-364 Q 991,2375 991,1663 991,950 1228,584 1466,219 1925,219 Z m 0,-310 q -725,0 -1166,480 -440,480 -440,1274 0,793 439,1271 439,479 1167,479 728,0 1167,-479 439,-478 439,-1271 Q 3531,869 3092,389 2653,-91 1925,-91 Z"
                 transform="scale(0.015625)" />
              <path
                 id="DejaVuSerif-67"
                 d="M 3359,2988 V 72 q 0,-716 -394,-1105 -393,-389 -1121,-389 -328,0 -628,60 -300,59 -575,178 v 696 h 300 q 56,-325 265,-475 210,-150 600,-150 507,0 742,286 236,286 236,899 V 519 Q 2616,206 2355,57 2094,-91 1709,-91 1097,-91 708,395 319,881 319,1663 q 0,781 387,1265 388,485 1003,485 385,0 646,-149 261,-148 429,-461 v 519 H 3909 V 2988 Z M 2784,1825 q 0,597 -230,912 -229,316 -666,316 -444,0 -671,-350 -226,-350 -226,-1040 0,-688 226,-1041 227,-353 671,-353 437,0 666,314 230,314 230,914 z"
                 transform="scale(0.015625)" />
              <path
                 id="DejaVuSerif-30"
                 d="m 2034,219 q 479,0 716,525 238,525 238,1584 0,1063 -238,1588 -237,525 -716,525 -478,0 -716,-525 -237,-525 -237,-1588 0,-1059 237,-1584 238,-525 716,-525 z m 0,-310 q -759,0 -1186,637 -426,638 -426,1782 0,1147 426,1784 427,638 1186,638 763,0 1188,-638 425,-637 425,-1784 Q 3647,1184 3222,546 2797,-91 2034,-91 Z"
                 transform="scale(0.015625)" />
              <path
                 id="DejaVuSerif-28"
                 d="M 2041,-997 Q 1281,-656 893,83 506,822 506,1931 q 0,1113 387,1852 388,739 1148,1080 v -307 q -482,-331 -691,-933 -209,-601 -209,-1692 0,-1087 209,-1689 209,-601 691,-933 z"
                 transform="scale(0.015625)" />
              <path
                 id="DejaVuSerif-52"
                 d="m 3066,2316 q 218,-60 376,-202 158,-142 283,-398 L 4403,331 h 569 V 0 H 3872 l -728,1484 q -210,432 -385,558 -175,127 -481,127 H 1581 V 331 h 660 V 0 H 353 V 331 H 947 V 4331 H 353 v 335 h 2366 q 681,0 1051,-325 371,-325 371,-922 0,-481 -271,-758 -270,-277 -804,-345 z m -1485,187 h 922 q 472,0 697,223 225,224 225,693 0,469 -225,690 -225,222 -697,222 h -922 z"
                 transform="scale(0.015625)" />
              <path
                 id="DejaVuSerif-61"
                 d="m 2547,1044 v 703 h -741 q -428,0 -638,-185 -209,-184 -209,-565 0,-347 212,-550 213,-203 576,-203 359,0 579,222 221,222 221,578 z m 575,1031 V 331 h 512 V 0 H 2547 V 359 Q 2356,128 2106,18 1856,-91 1522,-91 969,-91 644,203 319,497 319,997 q 0,516 372,800 372,284 1050,284 h 806 v 228 q 0,379 -230,586 -229,208 -645,208 -344,0 -547,-156 Q 922,2791 872,2484 H 575 v 672 q 300,128 583,192 283,65 551,65 691,0 1052,-343 361,-342 361,-995 z"
                 transform="scale(0.015625)" />
              <path
                 id="DejaVuSerif-64"
                 d="m 3359,331 h 550 V 0 H 2784 V 519 Q 2616,206 2355,57 2094,-91 1709,-91 1097,-91 708,395 319,881 319,1663 q 0,781 387,1265 388,485 1003,485 385,0 646,-149 261,-148 429,-461 v 1728 h -543 v 332 h 1118 z m -575,1166 v 328 q 0,597 -230,912 -229,316 -666,316 -444,0 -671,-350 -226,-350 -226,-1040 0,-688 226,-1041 227,-353 671,-353 437,0 666,314 230,314 230,914 z"
                 transform="scale(0.015625)" />
              <path
                 id="DejaVuSerif-69"
                 d="m 622,4353 q 0,144 104,250 105,106 252,106 144,0 248,-106 105,-106 105,-250 0,-147 -103,-250 -103,-103 -250,-103 -147,0 -252,103 -104,103 -104,250 z M 1356,331 h 544 V 0 H 231 V 331 H 781 V 2988 H 231 v 334 h 1125 z"
                 transform="scale(0.015625)" />
              <path
                 id="DejaVuSerif-75"
                 d="M 2266,3322 H 3341 V 331 h 543 V 0 H 2766 V 588 Q 2606,256 2353,82 2100,-91 1766,-91 1213,-91 952,223 691,538 691,1209 V 2988 H 172 v 334 H 1269 V 1388 q 0,-607 148,-832 149,-225 530,-225 400,0 609,294 210,294 210,853 v 1510 h -500 z"
                 transform="scale(0.015625)" />
              <path
                 id="DejaVuSerif-73"
                 d="m 359,184 v 775 h 332 q 12,-371 232,-556 221,-184 652,-184 388,0 591,145 203,145 203,424 0,218 -149,352 -148,135 -626,288 l -416,141 q -428,137 -620,343 -192,207 -192,526 0,456 334,715 334,260 925,260 263,0 553,-69 291,-69 600,-200 v -725 h -331 q -13,322 -226,503 -212,181 -577,181 -363,0 -549,-128 -186,-128 -186,-384 0,-210 141,-337 141,-126 563,-257 l 456,-141 q 472,-147 679,-367 208,-220 208,-567 0,-472 -361,-743 -361,-270 -995,-270 -322,0 -628,69 -306,69 -613,206 z"
                 transform="scale(0.015625)" />
              <path
                 id="DejaVuSerif-20"
                 transform="scale(0.015625)"
                 d="" />
              <path
                 id="DejaVuSerif-2f"
                 d="m 1656,4666 h 500 L 500,-594 H 0 Z"
                 transform="scale(0.015625)" />
              <path
                 id="DejaVuSerif-Italic-52"
                 d="m 3066,2316 q 206,-60 337,-202 131,-142 206,-398 L 4016,331 h 568 L 4522,0 H 3422 l -441,1484 q -125,432 -275,558 -150,127 -456,127 H 1553 L 1194,331 h 659 L 1791,0 H -97 l 63,331 h 593 l 779,4000 H 744 l 65,335 h 2366 q 681,0 989,-325 308,-325 192,-922 -93,-481 -418,-758 -325,-277 -872,-345 z m -1447,187 h 922 q 472,0 739,223 267,224 359,693 92,469 -91,690 -182,222 -654,222 h -922 z"
                 transform="scale(0.015625)" />
              <path
                 id="DejaVuSerif-Italic-67"
                 d="M 3822,3322 3188,72 q -144,-744 -607,-1103 -503,-391 -1200,-391 -328,0 -616,60 -287,59 -540,178 l 138,696 h 300 q -10,-325 171,-475 182,-150 572,-150 507,0 797,288 291,281 410,897 l 87,447 Q 2472,206 2181,57 1891,-91 1525,-91 975,-91 697,281 522,516 503,841 q -12,190 31,415 216,1103 982,1672 653,481 1415,485 700,3 891,-91 z m -638,-334 q -3,106 -340,106 -610,0 -1069,-469 -459,-472 -628,-1328 -47,-253 -34,-444 12,-194 90,-325 153,-259 553,-259 438,0 728,314 291,314 407,914 l 62,328 z"
                 transform="scale(0.015625)" />
              <path
                 id="DejaVuSerif-29"
                 d="m 453,-997 v 306 q 481,332 692,933 211,602 211,1689 0,1091 -211,1692 -211,602 -692,933 v 307 Q 1216,4522 1603,3783 1991,3044 1991,1931 1991,822 1603,83 1216,-656 453,-997 Z"
                 transform="scale(0.015625)" />
            </defs>
            <use
               xlink:href="#DejaVuSerif-4c"
               transform="translate(0,0.015625)"
               id="use12" />
            <use
               xlink:href="#DejaVuSerif-6f"
               transform="translate(66.40625,0.015625)"
               id="use13" />
            <use
               xlink:href="#DejaVuSerif-67"
               transform="translate(126.61133,0.015625)"
               id="use14" />
            <use
               xlink:href="#DejaVuSerif-31"
               transform="matrix(0.7,0,0,0.7,191.53336,-15.55625)"
               id="use15" />
            <use
               xlink:href="#DejaVuSerif-30"
               transform="matrix(0.7,0,0,0.7,236.06949,-15.55625)"
               id="use16" />
            <use
               xlink:href="#DejaVuSerif-28"
               transform="translate(283.20094,0.015625)"
               id="use17" />
            <use
               xlink:href="#DejaVuSerif-52"
               transform="translate(322.21461,0.015625)"
               id="use18" />
            <use
               xlink:href="#DejaVuSerif-61"
               transform="translate(397.50758,0.015625)"
               id="use19" />
            <use
               xlink:href="#DejaVuSerif-64"
               transform="translate(457.12672,0.015625)"
               id="use20" />
            <use
               xlink:href="#DejaVuSerif-69"
               transform="translate(521.14039,0.015625)"
               id="use21" />
            <use
               xlink:href="#DejaVuSerif-75"
               transform="translate(553.12281,0.015625)"
               id="use22" />
            <use
               xlink:href="#DejaVuSerif-73"
               transform="translate(617.52711,0.015625)"
               id="use23" />
            <use
               xlink:href="#DejaVuSerif-20"
               transform="translate(668.84547,0.015625)"
               id="use24" />
            <use
               xlink:href="#DejaVuSerif-2f"
               transform="translate(700.63258,0.015625)"
               id="use25" />
            <use
               xlink:href="#DejaVuSerif-20"
               transform="translate(734.32398,0.015625)"
               id="use26" />
            <use
               xlink:href="#DejaVuSerif-Italic-52"
               transform="translate(766.11109,0.015625)"
               id="use27" />
            <use
               xlink:href="#DejaVuSerif-Italic-67"
               transform="matrix(0.7,0,0,0.7,841.40406,-15.55625)"
               id="use28" />
            <use
               xlink:href="#DejaVuSerif-29"
               transform="translate(888.80894,0.015625)"
               id="use29" />
          </g>
        </g>
      </g>
      <g
         id="matplotlib.axis_2">
        <g
           id="ytick_1">
          <g
             id="line2d_6">
            <defs
               id="defs29">
              <path
                 id="mb5023e726e"
                 d="M 0,0 H -3.5"
                 style="stroke:#ffffff;stroke-width:0.8" />
            </defs>
            <g
               id="g30">
              <use
                 xlink:href="#mb5023e726e"
                 x="57.599998"
                 y="295.48801"
                 style="fill:#ffffff;stroke:#ffffff;stroke-width:0.8"
                 id="use30" />
            </g>
          </g>
          <g
             id="text_7">
            <!-- 0 -->
            <g
               style="fill:#ffffff"
               transform="matrix(0.16,0,0,-0.16,40.42,301.56675)"
               id="g31">
              <use
                 xlink:href="#DejaVuSerif-30"
                 id="use31" />
            </g>
          </g>
        </g>
        <g
           id="ytick_2">
          <g
             id="line2d_7">
            <g
               id="g32">
              <use
                 xlink:href="#mb5023e726e"
                 x="57.599998"
                 y="255.3793"
                 style="fill:#ffffff;stroke:#ffffff;stroke-width:0.8"
                 id="use32" />
            </g>
          </g>
          <g
             id="text_8">
            <!-- 1 -->
            <g
               style="fill:#ffffff"
               transform="matrix(0.16,0,0,-0.16,40.42,261.45805)"
               id="g33">
              <use
                 xlink:href="#DejaVuSerif-31"
                 id="use33" />
            </g>
          </g>
        </g>
        <g
           id="ytick_3">
          <g
             id="line2d_8">
            <g
               id="g34">
              <use
                 xlink:href="#mb5023e726e"
                 x="57.599998"
                 y="215.2706"
                 style="fill:#ffffff;stroke:#ffffff;stroke-width:0.8"
                 id="use34" />
            </g>
          </g>
          <g
             id="text_9">
            <!-- 2 -->
            <g
               style="fill:#ffffff"
               transform="matrix(0.16,0,0,-0.16,40.42,221.34935)"
               id="g35">
              <use
                 xlink:href="#DejaVuSerif-32"
                 id="use35" />
            </g>
          </g>
        </g>
        <g
           id="ytick_4">
          <g
             id="line2d_9">
            <g
               id="g36">
              <use
                 xlink:href="#mb5023e726e"
                 x="57.599998"
                 y="175.16191"
                 style="fill:#ffffff;stroke:#ffffff;stroke-width:0.8"
                 id="use36" />
            </g>
          </g>
          <g
             id="text_10">
            <!-- 3 -->
            <g
               style="fill:#ffffff"
               transform="matrix(0.16,0,0,-0.16,40.42,181.24065)"
               id="g37">
              <use
                 xlink:href="#DejaVuSerif-33"
                 id="use37" />
            </g>
          </g>
        </g>
        <g
           id="ytick_5">
          <g
             id="line2d_10">
            <g
               id="g38">
              <use
                 xlink:href="#mb5023e726e"
                 x="57.599998"
                 y="135.05321"
                 style="fill:#ffffff;stroke:#ffffff;stroke-width:0.8"
                 id="use38" />
            </g>
          </g>
          <g
             id="text_11">
            <!-- 4 -->
            <g
               style="fill:#ffffff"
               transform="matrix(0.16,0,0,-0.16,40.42,141.13195)"
               id="g39">
              <use
                 xlink:href="#DejaVuSerif-34"
                 id="use39" />
            </g>
          </g>
        </g>
        <g
           id="ytick_6">
          <g
             id="line2d_11">
            <g
               id="g40">
              <use
                 xlink:href="#mb5023e726e"
                 x="57.599998"
                 y="94.944504"
                 style="fill:#ffffff;stroke:#ffffff;stroke-width:0.8"
                 id="use40" />
            </g>
          </g>
          <g
             id="text_12">
            <!-- 5 -->
            <g
               style="fill:#ffffff"
               transform="matrix(0.16,0,0,-0.16,40.42,101.02326)"
               id="g41">
              <use
                 xlink:href="#DejaVuSerif-35"
                 id="use41" />
            </g>
          </g>
        </g>
        <g
           id="ytick_7">
          <g
             id="line2d_12">
            <g
               id="g42">
              <use
                 xlink:href="#mb5023e726e"
                 x="57.599998"
                 y="54.835808"
                 style="fill:#ffffff;stroke:#ffffff;stroke-width:0.8"
                 id="use42" />
            </g>
          </g>
          <g
             id="text_13">
            <!-- 6 -->
            <g
               style="fill:#ffffff"
               transform="matrix(0.16,0,0,-0.16,40.42,60.914558)"
               id="g43">
              <defs
                 id="defs42">
                <path
                   id="DejaVuSerif-36"
                   d="m 2094,219 q 440,0 677,323 238,324 238,930 0,606 -238,929 -237,324 -677,324 -447,0 -682,-313 -234,-312 -234,-903 0,-621 237,-956 238,-334 679,-334 z M 1075,2569 q 213,234 481,349 269,116 607,116 696,0 1101,-419 405,-418 405,-1143 0,-709 -436,-1136 -436,-427 -1164,-427 -791,0 -1216,589 -425,590 -425,1683 0,1225 503,1897 503,672 1419,672 247,0 519,-47 272,-47 556,-140 v -769 h -353 q -38,315 -241,481 -203,166 -547,166 -606,0 -903,-460 -297,-459 -306,-1412 z"
                   transform="scale(0.015625)" />
              </defs>
              <use
                 xlink:href="#DejaVuSerif-36"
                 id="use43" />
            </g>
          </g>
        </g>
        <g
           id="text_14">
          <!-- Temperature / $K$ -->
          <g
             style="fill:#ffffff"
             transform="matrix(0,-0.2,-0.2,0,32.22,258.028)"
             id="g58">
            <defs
               id="defs43">
              <path
                 id="DejaVuSerif-54"
                 d="m 1222,0 v 331 h 597 V 4294 H 447 V 3566 H 63 V 4666 H 4206 V 3566 h -384 v 728 H 2450 V 331 h 597 V 0 Z"
                 transform="scale(0.015625)" />
              <path
                 id="DejaVuSerif-65"
                 d="M 3469,1600 H 991 v -25 q 0,-672 253,-1014 253,-342 747,-342 378,0 620,198 242,199 339,589 h 463 Q 3275,459 2904,184 2534,-91 1931,-91 1203,-91 761,389 319,869 319,1663 q 0,787 434,1268 435,482 1141,482 753,0 1156,-465 403,-464 419,-1348 z m -678,331 q -19,582 -246,877 -226,295 -651,295 -397,0 -625,-297 -228,-297 -278,-875 z"
                 transform="scale(0.015625)" />
              <path
                 id="DejaVuSerif-6d"
                 d="m 3316,2675 q 165,366 423,552 258,186 602,186 522,0 778,-324 256,-323 256,-976 V 331 h 519 V 0 H 4300 v 331 h 500 v 1716 q 0,509 -150,725 -150,216 -497,216 -384,0 -586,-291 -201,-291 -201,-847 V 331 h 500 V 0 H 2291 v 331 h 500 v 1738 q 0,497 -150,708 -150,211 -497,211 -385,0 -587,-291 -201,-291 -201,-847 V 331 h 500 V 0 H 263 V 331 H 781 V 2994 H 231 v 328 h 1125 v -591 q 160,332 406,507 247,175 560,175 387,0 646,-193 260,-192 348,-545 z"
                 transform="scale(0.015625)" />
              <path
                 id="DejaVuSerif-70"
                 d="m 1313,1825 v -328 q 0,-600 229,-914 230,-314 667,-314 441,0 667,353 227,353 227,1041 0,690 -227,1040 -226,350 -667,350 -437,0 -667,-316 -229,-315 -229,-912 z M 738,2988 H 184 v 334 h 1129 v -519 q 168,313 429,461 261,149 646,149 612,0 999,-485 388,-484 388,-1265 0,-782 -388,-1268 -387,-486 -999,-486 -385,0 -646,148 -261,149 -429,462 V -997 h 543 v -334 H 184 v 334 h 554 z"
                 transform="scale(0.015625)" />
              <path
                 id="DejaVuSerif-72"
                 d="m 3059,3328 v -831 h -331 q -15,247 -137,369 -122,122 -357,122 -425,0 -652,-294 -226,-294 -226,-844 V 331 h 666 V 0 H 263 V 331 H 781 V 2994 H 231 v 328 h 1125 v -591 q 169,347 434,514 266,168 648,168 140,0 295,-22 155,-22 326,-63 z"
                 transform="scale(0.015625)" />
              <path
                 id="DejaVuSerif-74"
                 d="M 691,2988 H 184 v 334 h 507 v 1031 h 578 V 3322 H 2350 V 2988 H 1269 V 878 q 0,-422 81,-541 81,-118 300,-118 225,0 328,132 103,133 110,430 h 434 Q 2497,328 2275,118 2053,-91 1600,-91 1103,-91 897,129 691,350 691,878 Z"
                 transform="scale(0.015625)" />
              <path
                 id="DejaVuSerif-Italic-4b"
                 d="m -97,0 63,331 h 593 l 779,4000 H 744 l 65,335 h 1822 l -65,-335 H 1972 L 1628,2566 3981,4331 h -506 l 66,335 h 1550 l -66,-335 H 4500 L 2156,2572 3959,331 h 532 L 4428,0 H 3344 L 1563,2216 1194,331 h 594 L 1725,0 Z"
                 transform="scale(0.015625)" />
            </defs>
            <use
               xlink:href="#DejaVuSerif-54"
               transform="translate(0,0.09375)"
               id="use44" />
            <use
               xlink:href="#DejaVuSerif-65"
               transform="translate(66.699219,0.09375)"
               id="use45" />
            <use
               xlink:href="#DejaVuSerif-6d"
               transform="translate(125.87891,0.09375)"
               id="use46" />
            <use
               xlink:href="#DejaVuSerif-70"
               transform="translate(220.70312,0.09375)"
               id="use47" />
            <use
               xlink:href="#DejaVuSerif-65"
               transform="translate(284.7168,0.09375)"
               id="use48" />
            <use
               xlink:href="#DejaVuSerif-72"
               transform="translate(343.89648,0.09375)"
               id="use49" />
            <use
               xlink:href="#DejaVuSerif-61"
               transform="translate(391.69922,0.09375)"
               id="use50" />
            <use
               xlink:href="#DejaVuSerif-74"
               transform="translate(451.31836,0.09375)"
               id="use51" />
            <use
               xlink:href="#DejaVuSerif-75"
               transform="translate(491.50391,0.09375)"
               id="use52" />
            <use
               xlink:href="#DejaVuSerif-72"
               transform="translate(555.9082,0.09375)"
               id="use53" />
            <use
               xlink:href="#DejaVuSerif-65"
               transform="translate(603.71094,0.09375)"
               id="use54" />
            <use
               xlink:href="#DejaVuSerif-20"
               transform="translate(662.89062,0.09375)"
               id="use55" />
            <use
               xlink:href="#DejaVuSerif-2f"
               transform="translate(694.67773,0.09375)"
               id="use56" />
            <use
               xlink:href="#DejaVuSerif-20"
               transform="translate(728.36914,0.09375)"
               id="use57" />
            <use
               xlink:href="#DejaVuSerif-Italic-4b"
               transform="translate(760.15625,0.09375)"
               id="use58" />
          </g>
        </g>
        <g
           id="text_15">
          <!-- 1e6 -->
          <g
             style="fill:#ffffff"
             transform="matrix(0.16,0,0,-0.16,57.6,38.472)"
             id="g61">
            <use
               xlink:href="#DejaVuSerif-31"
               id="use59" />
            <use
               xlink:href="#DejaVuSerif-65"
               x="63.623047"
               id="use60" />
            <use
               xlink:href="#DejaVuSerif-36"
               x="122.80273"
               id="use61" />
          </g>
        </g>
      </g>
      <g
         id="line2d_13">
        <path
           d="m 73.832727,53.568 3.246546,17.008551 3.246545,15.814499 3.246546,14.70251 3.246545,13.66872 3.246546,12.70761 3.246545,11.81408 3.246545,10.98338 3.246546,10.2111 3.246549,9.4931 3.24654,8.82561 3.24655,8.20504 3.24654,7.6281 3.24655,7.09175 3.24654,6.59309 3.24655,6.1295 3.24655,5.69851 3.57119,5.80667 3.5712,5.35916 3.5712,4.94614 3.5712,4.56496 3.5712,4.21314 3.5712,3.88844 3.89586,3.90098 3.89585,3.57418 3.89586,3.27476 3.89585,3.00043 4.22051,2.96749 4.22051,2.69915 4.54516,2.63445 4.54517,2.37882 4.86982,2.29319 5.19447,2.18484 5.19447,1.94428 5.51913,1.83177 5.84378,1.70734 6.16844,1.57491 6.81774,1.50478 7.1424,1.34784 7.79171,1.24362 8.44102,1.12302 9.41498,1.02541 10.38895,0.90625 11.68756,0.79617 13.63549,0.6997 15.90807,0.58668 19.15462,0.47764 24.34909,0.37431 32.79011,0.26804 17.856,0.0814 v 0"
           clip-path="url(#pa82ce1a654)"
           style="fill:none;stroke:#fee28b;stroke-width:3;stroke-dasharray:11.1, 4.8;stroke-dashoffset:0"
           id="path61" />
      </g>
      <g
         id="line2d_14">
        <path
           d="m 73.832727,295.488 0.324655,-83.40608 0.324654,-15.00075 0.649309,-16.78549 0.64931,-10.29157 0.649309,-7.24491 0.649309,-5.41646 0.973963,-5.9131 0.973964,-4.12559 0.973964,-2.88667 0.973963,-1.97457 0.649309,-0.91773 0.649309,-0.65394 0.64931,-0.42682 0.649309,-0.22961 0.649309,-0.0572 0.973963,0.19293 0.973964,0.47739 0.973964,0.71605 1.298618,1.26277 1.623273,1.97733 1.947927,2.82188 2.272582,3.74331 2.921891,5.29188 4.220505,8.17503 13.6355,26.76244 4.86981,8.90354 4.54517,7.83367 4.2205,6.83399 4.22051,6.40205 4.22051,5.9734 3.89586,5.14254 3.89585,4.79836 3.89586,4.46853 3.89585,4.15447 4.22051,4.1655 4.22051,3.83778 4.22051,3.53141 4.22051,3.24593 4.22051,2.98067 4.54516,2.93548 4.54516,2.6732 4.86982,2.59755 4.86982,2.34594 5.19447,2.25077 5.51913,2.13486 5.51913,1.89784 5.84378,1.7792 6.16844,1.65026 6.81774,1.58518 7.1424,1.4271 7.79171,1.32307 8.44102,1.20024 9.09033,1.0664 10.06429,0.95638 11.36291,0.85261 12.98618,0.74461 14.93411,0.62866 17.856,0.52281 22.07651,0.41545 28.89425,0.30981 20.12858,0.12358 v 0"
           clip-path="url(#pa82ce1a654)"
           style="fill:none;stroke:#f98811;stroke-width:3;stroke-linecap:square"
           id="path62" />
      </g>
      <g
         id="patch_3">
        <path
           d="M 57.6,307.584 V 41.472"
           style="fill:none;stroke:#ffffff;stroke-width:3;stroke-linecap:square;stroke-linejoin:miter"
           id="path63" />
      </g>
      <g
         id="patch_4">
        <path
           d="M 57.6,307.584 H 414.72"
           style="fill:none;stroke:#ffffff;stroke-width:3;stroke-linecap:square;stroke-linejoin:miter"
           id="path64" />
      </g>
      <g
         id="legend_1">
        <g
           id="patch_5">
          <path
             d="M 194.66831,161.93565 H 366.408 q 3.6,0 3.6,-3.6 V 107.2944 q 0,-3.6 -3.6,-3.6 H 194.66831 q -3.6,0 -3.6,3.6 v 51.04125 q 0,3.6 3.6,3.6 z"
             style="opacity:0.2;fill:#ffffff;stroke:#cccccc;stroke-linejoin:miter"
             id="path65" />
        </g>
        <g
           id="line2d_15">
          <path
             d="m 198.26831,118.27159 h 18 18"
             style="fill:none;stroke:#fee28b;stroke-width:3;stroke-dasharray:11.1, 4.8;stroke-dashoffset:0"
             id="path66" />
        </g>
        <g
           id="text_16">
          <!-- Temp -->
          <g
             style="fill:#ffffff"
             transform="matrix(0.18,0,0,-0.18,248.66831,124.57159)"
             id="g69">
            <use
               xlink:href="#DejaVuSerif-54"
               id="use66" />
            <use
               xlink:href="#DejaVuSerif-65"
               x="58.949219"
               id="use67" />
            <use
               xlink:href="#DejaVuSerif-6d"
               x="118.12891"
               id="use68" />
            <use
               xlink:href="#DejaVuSerif-70"
               x="212.95312"
               id="use69" />
          </g>
        </g>
        <g
           id="line2d_16">
          <path
             d="m 198.26831,144.69221 h 18 18"
             style="fill:none;stroke:#f98811;stroke-width:3;stroke-linecap:square"
             id="path69" />
        </g>
        <g
           id="text_17">
          <!-- Temp + Visc -->
          <g
             style="fill:#ffffff"
             transform="matrix(0.18,0,0,-0.18,248.66831,150.99221)"
             id="g80">
            <defs
               id="defs69">
              <path
                 id="DejaVuSerif-2b"
                 d="M 2931,4013 V 2259 H 4684 V 1753 H 2931 V 0 H 2431 V 1753 H 678 v 506 h 1753 v 1754 z"
                 transform="scale(0.015625)" />
              <path
                 id="DejaVuSerif-56"
                 d="M 1119,4331 2497,750 3872,4331 h -525 v 335 H 4716 V 4331 H 4263 L 2597,0 H 2059 L 403,4331 H -63 v 335 h 1701 v -335 z"
                 transform="scale(0.015625)" />
              <path
                 id="DejaVuSerif-63"
                 d="M 3291,997 Q 3169,466 2822,187 2475,-91 1925,-91 1200,-91 759,389 319,869 319,1663 q 0,796 440,1273 441,477 1166,477 316,0 628,-74 313,-73 628,-223 v -850 h -334 q -66,437 -286,637 -220,200 -630,200 -465,0 -703,-361 -237,-361 -237,-1079 0,-719 236,-1082 236,-362 704,-362 372,0 594,193 222,194 303,585 z"
                 transform="scale(0.015625)" />
            </defs>
            <use
               xlink:href="#DejaVuSerif-54"
               id="use70" />
            <use
               xlink:href="#DejaVuSerif-65"
               x="58.949219"
               id="use71" />
            <use
               xlink:href="#DejaVuSerif-6d"
               x="118.12891"
               id="use72" />
            <use
               xlink:href="#DejaVuSerif-70"
               x="212.95312"
               id="use73" />
            <use
               xlink:href="#DejaVuSerif-20"
               x="276.9668"
               id="use74" />
            <use
               xlink:href="#DejaVuSerif-2b"
               x="308.75391"
               id="use75" />
            <use
               xlink:href="#DejaVuSerif-20"
               x="392.54297"
               id="use76" />
            <use
               xlink:href="#DejaVuSerif-56"
               x="424.33008"
               id="use77" />
            <use
               xlink:href="#DejaVuSerif-69"
               x="494.79688"
               id="use78" />
            <use
               xlink:href="#DejaVuSerif-73"
               x="526.7793"
               id="use79" />
            <use
               xlink:href="#DejaVuSerif-63"
               x="578.09766"
               id="use80" />
          </g>
        </g>
      </g>
    </g>
  </g>
  <defs
     id="defs80">
    <clipPath
       id="pa82ce1a654">
      <rect
         x="57.599998"
         y="41.472"
         width="357.12"
         height="266.112"
         id="rect80" />
    </clipPath>
  </defs>
</svg>
