<?xml version="1.0" encoding="UTF-8" standalone="no"?>
<svg
   width="480.54749pt"
   height="355.49088pt"
   viewBox="0 0 480.5475 355.49087"
   version="1.1"
   id="svg122"
   sodipodi:docname="_2-1 Log(Flux) v Log(r).svg"
   inkscape:version="1.3 (0e150ed6c4, 2023-07-21)"
   xmlns:inkscape="http://www.inkscape.org/namespaces/inkscape"
   xmlns:sodipodi="http://sodipodi.sourceforge.net/DTD/sodipodi-0.dtd"
   xmlns:xlink="http://www.w3.org/1999/xlink"
   xmlns="http://www.w3.org/2000/svg"
   xmlns:svg="http://www.w3.org/2000/svg"
   xmlns:rdf="http://www.w3.org/1999/02/22-rdf-syntax-ns#"
   xmlns:cc="http://creativecommons.org/ns#"
   xmlns:dc="http://purl.org/dc/elements/1.1/">
  <sodipodi:namedview
     id="namedview122"
     pagecolor="#ffffff"
     bordercolor="#000000"
     borderopacity="0.25"
     inkscape:showpageshadow="2"
     inkscape:pageopacity="0.0"
     inkscape:pagecheckerboard="0"
     inkscape:deskcolor="#d1d1d1"
     inkscape:document-units="pt"
     inkscape:zoom="1.781684"
     inkscape:cx="333.67309"
     inkscape:cy="230.4"
     inkscape:window-width="1920"
     inkscape:window-height="1017"
     inkscape:window-x="-8"
     inkscape:window-y="-8"
     inkscape:window-maximized="1"
     inkscape:current-layer="svg122" />
  <metadata
     id="metadata1">
    <rdf:RDF>
      <cc:Work>
        <dc:type
           rdf:resource="http://purl.org/dc/dcmitype/StillImage" />
        <dc:date>2023-12-14T21:31:28.246656</dc:date>
        <dc:format>image/svg+xml</dc:format>
        <dc:creator>
          <cc:Agent>
            <dc:title>Matplotlib v3.7.2, https://matplotlib.org/</dc:title>
          </cc:Agent>
        </dc:creator>
      </cc:Work>
    </rdf:RDF>
  </metadata>
  <defs
     id="defs1">
    <style
       type="text/css"
       id="style1">*{stroke-linejoin: round; stroke-linecap: butt}</style>
  </defs>
  <g
     id="figure_1"
     transform="translate(19.7475)">
    <g
       id="patch_1">
      <path
         d="M 0,345.6 H 460.8 V 0 H 0 Z"
         style="fill:none"
         id="path1" />
    </g>
    <g
       id="axes_1">
      <g
         id="patch_2">
        <path
           d="M 57.6,307.584 H 414.72 V 41.472 H 57.6 Z"
           style="fill:none"
           id="path2" />
      </g>
      <g
         id="matplotlib.axis_1">
        <g
           id="xtick_1">
          <g
             id="line2d_1">
            <defs
               id="defs2">
              <path
                 id="ma2365b717d"
                 d="M 0,0 V 3.5"
                 style="stroke:#000000;stroke-width:0.8" />
            </defs>
            <g
               id="g2">
              <use
                 xlink:href="#ma2365b717d"
                 x="90.892601"
                 y="307.58401"
                 style="stroke:#000000;stroke-width:0.8"
                 id="use2" />
            </g>
          </g>
          <g
             id="text_1">
            <!-- 1 -->
            <g
               style="fill:#ffffff"
               transform="matrix(0.16,0,0,-0.16,85.802601,326.7415)"
               id="g3">
              <defs
                 id="defs3">
                <path
                   id="DejaVuSerif-31"
                   d="m 909,0 v 331 h 813 V 4213 L 781,3603 v 410 l 1138,737 h 431 V 331 h 813 V 0 Z"
                   transform="scale(0.015625)" />
              </defs>
              <use
                 xlink:href="#DejaVuSerif-31"
                 id="use3" />
            </g>
          </g>
        </g>
        <g
           id="xtick_2">
          <g
             id="line2d_2">
            <g
               id="g4">
              <use
                 xlink:href="#ma2365b717d"
                 x="167.79128"
                 y="307.58401"
                 style="stroke:#000000;stroke-width:0.8"
                 id="use4" />
            </g>
          </g>
          <g
             id="text_2">
            <!-- 2 -->
            <g
               style="fill:#ffffff"
               transform="matrix(0.16,0,0,-0.16,162.70127,326.7415)"
               id="g5">
              <defs
                 id="defs4">
                <path
                   id="DejaVuSerif-32"
                   d="M 819,3553 H 469 v 831 q 334,179 673,272 339,94 664,94 728,0 1150,-353 422,-353 422,-959 0,-685 -956,-1638 -75,-72 -113,-109 L 1131,513 h 1947 v 575 h 366 V 0 H 434 v 341 l 1416,1412 q 469,469 669,861 200,392 200,824 0,471 -246,737 -245,266 -676,266 -447,0 -691,-222 -243,-222 -287,-666 z"
                   transform="scale(0.015625)" />
              </defs>
              <use
                 xlink:href="#DejaVuSerif-32"
                 id="use5" />
            </g>
          </g>
        </g>
        <g
           id="xtick_3">
          <g
             id="line2d_3">
            <g
               id="g6">
              <use
                 xlink:href="#ma2365b717d"
                 x="244.68994"
                 y="307.58401"
                 style="stroke:#000000;stroke-width:0.8"
                 id="use6" />
            </g>
          </g>
          <g
             id="text_3">
            <!-- 3 -->
            <g
               style="fill:#ffffff"
               transform="matrix(0.16,0,0,-0.16,239.59994,326.7415)"
               id="g7">
              <defs
                 id="defs6">
                <path
                   id="DejaVuSerif-33"
                   d="m 622,4469 q 366,137 701,209 336,72 630,72 685,0 1069,-296 384,-295 384,-820 0,-421 -266,-704 -265,-283 -752,-383 575,-81 892,-417 317,-336 317,-871 0,-653 -439,-1002 -439,-348 -1264,-348 -366,0 -715,79 -348,78 -691,237 v 906 h 350 q 31,-450 303,-681 272,-231 765,-231 478,0 755,276 277,277 277,758 0,550 -285,833 -284,283 -834,283 h -297 v 319 h 156 q 547,0 820,226 274,227 274,683 0,409 -225,626 -225,218 -647,218 -422,0 -655,-200 -232,-200 -273,-594 H 622 Z"
                   transform="scale(0.015625)" />
              </defs>
              <use
                 xlink:href="#DejaVuSerif-33"
                 id="use7" />
            </g>
          </g>
        </g>
        <g
           id="xtick_4">
          <g
             id="line2d_4">
            <g
               id="g8">
              <use
                 xlink:href="#ma2365b717d"
                 x="321.58859"
                 y="307.58401"
                 style="stroke:#000000;stroke-width:0.8"
                 id="use8" />
            </g>
          </g>
          <g
             id="text_4">
            <!-- 4 -->
            <g
               style="fill:#ffffff"
               transform="matrix(0.16,0,0,-0.16,316.4986,326.7415)"
               id="g9">
              <defs
                 id="defs8">
                <path
                   id="DejaVuSerif-34"
                   d="M 2234,1581 V 4063 L 641,1581 Z M 3609,0 H 1484 v 331 h 750 v 916 H 197 v 341 l 2044,3162 h 618 V 1581 h 891 V 1247 H 2859 V 331 h 750 z"
                   transform="scale(0.015625)" />
              </defs>
              <use
                 xlink:href="#DejaVuSerif-34"
                 id="use9" />
            </g>
          </g>
        </g>
        <g
           id="xtick_5">
          <g
             id="line2d_5">
            <g
               id="g10">
              <use
                 xlink:href="#ma2365b717d"
                 x="398.48727"
                 y="307.58401"
                 style="stroke:#000000;stroke-width:0.8"
                 id="use10" />
            </g>
          </g>
          <g
             id="text_5">
            <!-- 5 -->
            <g
               style="fill:#ffffff"
               transform="matrix(0.16,0,0,-0.16,393.39727,326.7415)"
               id="g11">
              <defs
                 id="defs10">
                <path
                   id="DejaVuSerif-35"
                   d="M 3219,4666 V 4153 H 1081 V 2816 q 163,112 380,168 217,57 486,57 756,0 1193,-419 438,-419 438,-1144 0,-740 -442,-1155 -442,-414 -1242,-414 -322,0 -660,79 -337,78 -690,237 v 906 h 353 q 28,-443 282,-678 255,-234 715,-234 494,0 759,325 266,325 266,934 0,606 -264,929 -264,324 -761,324 -281,0 -496,-100 -214,-100 -379,-309 H 750 v 2344 z"
                   transform="scale(0.015625)" />
              </defs>
              <use
                 xlink:href="#DejaVuSerif-35"
                 id="use11" />
            </g>
          </g>
        </g>
        <g
           id="text_6">
          <!-- Log$_{10}$(Radius / $R_g$) -->
          <g
             style="fill:#ffffff"
             transform="matrix(0.2,0,0,-0.2,143.36,349.269)"
             id="g29">
            <defs
               id="defs11">
              <path
                 id="DejaVuSerif-4c"
                 d="M 353,0 V 331 H 947 V 4331 H 353 v 335 H 2175 V 4331 H 1581 V 384 h 2132 v 782 h 384 V 0 Z"
                 transform="scale(0.015625)" />
              <path
                 id="DejaVuSerif-6f"
                 d="m 1925,219 q 463,0 698,365 236,366 236,1079 0,712 -236,1076 -235,364 -698,364 -462,0 -698,-364 Q 991,2375 991,1663 991,950 1228,584 1466,219 1925,219 Z m 0,-310 q -725,0 -1166,480 -440,480 -440,1274 0,793 439,1271 439,479 1167,479 728,0 1167,-479 439,-478 439,-1271 Q 3531,869 3092,389 2653,-91 1925,-91 Z"
                 transform="scale(0.015625)" />
              <path
                 id="DejaVuSerif-67"
                 d="M 3359,2988 V 72 q 0,-716 -394,-1105 -393,-389 -1121,-389 -328,0 -628,60 -300,59 -575,178 v 696 h 300 q 56,-325 265,-475 210,-150 600,-150 507,0 742,286 236,286 236,899 V 519 Q 2616,206 2355,57 2094,-91 1709,-91 1097,-91 708,395 319,881 319,1663 q 0,781 387,1265 388,485 1003,485 385,0 646,-149 261,-148 429,-461 v 519 H 3909 V 2988 Z M 2784,1825 q 0,597 -230,912 -229,316 -666,316 -444,0 -671,-350 -226,-350 -226,-1040 0,-688 226,-1041 227,-353 671,-353 437,0 666,314 230,314 230,914 z"
                 transform="scale(0.015625)" />
              <path
                 id="DejaVuSerif-30"
                 d="m 2034,219 q 479,0 716,525 238,525 238,1584 0,1063 -238,1588 -237,525 -716,525 -478,0 -716,-525 -237,-525 -237,-1588 0,-1059 237,-1584 238,-525 716,-525 z m 0,-310 q -759,0 -1186,637 -426,638 -426,1782 0,1147 426,1784 427,638 1186,638 763,0 1188,-638 425,-637 425,-1784 Q 3647,1184 3222,546 2797,-91 2034,-91 Z"
                 transform="scale(0.015625)" />
              <path
                 id="DejaVuSerif-28"
                 d="M 2041,-997 Q 1281,-656 893,83 506,822 506,1931 q 0,1113 387,1852 388,739 1148,1080 v -307 q -482,-331 -691,-933 -209,-601 -209,-1692 0,-1087 209,-1689 209,-601 691,-933 z"
                 transform="scale(0.015625)" />
              <path
                 id="DejaVuSerif-52"
                 d="m 3066,2316 q 218,-60 376,-202 158,-142 283,-398 L 4403,331 h 569 V 0 H 3872 l -728,1484 q -210,432 -385,558 -175,127 -481,127 H 1581 V 331 h 660 V 0 H 353 V 331 H 947 V 4331 H 353 v 335 h 2366 q 681,0 1051,-325 371,-325 371,-922 0,-481 -271,-758 -270,-277 -804,-345 z m -1485,187 h 922 q 472,0 697,223 225,224 225,693 0,469 -225,690 -225,222 -697,222 h -922 z"
                 transform="scale(0.015625)" />
              <path
                 id="DejaVuSerif-61"
                 d="m 2547,1044 v 703 h -741 q -428,0 -638,-185 -209,-184 -209,-565 0,-347 212,-550 213,-203 576,-203 359,0 579,222 221,222 221,578 z m 575,1031 V 331 h 512 V 0 H 2547 V 359 Q 2356,128 2106,18 1856,-91 1522,-91 969,-91 644,203 319,497 319,997 q 0,516 372,800 372,284 1050,284 h 806 v 228 q 0,379 -230,586 -229,208 -645,208 -344,0 -547,-156 Q 922,2791 872,2484 H 575 v 672 q 300,128 583,192 283,65 551,65 691,0 1052,-343 361,-342 361,-995 z"
                 transform="scale(0.015625)" />
              <path
                 id="DejaVuSerif-64"
                 d="m 3359,331 h 550 V 0 H 2784 V 519 Q 2616,206 2355,57 2094,-91 1709,-91 1097,-91 708,395 319,881 319,1663 q 0,781 387,1265 388,485 1003,485 385,0 646,-149 261,-148 429,-461 v 1728 h -543 v 332 h 1118 z m -575,1166 v 328 q 0,597 -230,912 -229,316 -666,316 -444,0 -671,-350 -226,-350 -226,-1040 0,-688 226,-1041 227,-353 671,-353 437,0 666,314 230,314 230,914 z"
                 transform="scale(0.015625)" />
              <path
                 id="DejaVuSerif-69"
                 d="m 622,4353 q 0,144 104,250 105,106 252,106 144,0 248,-106 105,-106 105,-250 0,-147 -103,-250 -103,-103 -250,-103 -147,0 -252,103 -104,103 -104,250 z M 1356,331 h 544 V 0 H 231 V 331 H 781 V 2988 H 231 v 334 h 1125 z"
                 transform="scale(0.015625)" />
              <path
                 id="DejaVuSerif-75"
                 d="M 2266,3322 H 3341 V 331 h 543 V 0 H 2766 V 588 Q 2606,256 2353,82 2100,-91 1766,-91 1213,-91 952,223 691,538 691,1209 V 2988 H 172 v 334 H 1269 V 1388 q 0,-607 148,-832 149,-225 530,-225 400,0 609,294 210,294 210,853 v 1510 h -500 z"
                 transform="scale(0.015625)" />
              <path
                 id="DejaVuSerif-73"
                 d="m 359,184 v 775 h 332 q 12,-371 232,-556 221,-184 652,-184 388,0 591,145 203,145 203,424 0,218 -149,352 -148,135 -626,288 l -416,141 q -428,137 -620,343 -192,207 -192,526 0,456 334,715 334,260 925,260 263,0 553,-69 291,-69 600,-200 v -725 h -331 q -13,322 -226,503 -212,181 -577,181 -363,0 -549,-128 -186,-128 -186,-384 0,-210 141,-337 141,-126 563,-257 l 456,-141 q 472,-147 679,-367 208,-220 208,-567 0,-472 -361,-743 -361,-270 -995,-270 -322,0 -628,69 -306,69 -613,206 z"
                 transform="scale(0.015625)" />
              <path
                 id="DejaVuSerif-20"
                 transform="scale(0.015625)"
                 d="" />
              <path
                 id="DejaVuSerif-2f"
                 d="m 1656,4666 h 500 L 500,-594 H 0 Z"
                 transform="scale(0.015625)" />
              <path
                 id="DejaVuSerif-Italic-52"
                 d="m 3066,2316 q 206,-60 337,-202 131,-142 206,-398 L 4016,331 h 568 L 4522,0 H 3422 l -441,1484 q -125,432 -275,558 -150,127 -456,127 H 1553 L 1194,331 h 659 L 1791,0 H -97 l 63,331 h 593 l 779,4000 H 744 l 65,335 h 2366 q 681,0 989,-325 308,-325 192,-922 -93,-481 -418,-758 -325,-277 -872,-345 z m -1447,187 h 922 q 472,0 739,223 267,224 359,693 92,469 -91,690 -182,222 -654,222 h -922 z"
                 transform="scale(0.015625)" />
              <path
                 id="DejaVuSerif-Italic-67"
                 d="M 3822,3322 3188,72 q -144,-744 -607,-1103 -503,-391 -1200,-391 -328,0 -616,60 -287,59 -540,178 l 138,696 h 300 q -10,-325 171,-475 182,-150 572,-150 507,0 797,288 291,281 410,897 l 87,447 Q 2472,206 2181,57 1891,-91 1525,-91 975,-91 697,281 522,516 503,841 q -12,190 31,415 216,1103 982,1672 653,481 1415,485 700,3 891,-91 z m -638,-334 q -3,106 -340,106 -610,0 -1069,-469 -459,-472 -628,-1328 -47,-253 -34,-444 12,-194 90,-325 153,-259 553,-259 438,0 728,314 291,314 407,914 l 62,328 z"
                 transform="scale(0.015625)" />
              <path
                 id="DejaVuSerif-29"
                 d="m 453,-997 v 306 q 481,332 692,933 211,602 211,1689 0,1091 -211,1692 -211,602 -692,933 v 307 Q 1216,4522 1603,3783 1991,3044 1991,1931 1991,822 1603,83 1216,-656 453,-997 Z"
                 transform="scale(0.015625)" />
            </defs>
            <use
               xlink:href="#DejaVuSerif-4c"
               transform="translate(0,0.015625)"
               id="use12" />
            <use
               xlink:href="#DejaVuSerif-6f"
               transform="translate(66.40625,0.015625)"
               id="use13" />
            <use
               xlink:href="#DejaVuSerif-67"
               transform="translate(126.61133,0.015625)"
               id="use14" />
            <use
               xlink:href="#DejaVuSerif-31"
               transform="matrix(0.7,0,0,0.7,191.53336,-15.55625)"
               id="use15" />
            <use
               xlink:href="#DejaVuSerif-30"
               transform="matrix(0.7,0,0,0.7,236.06949,-15.55625)"
               id="use16" />
            <use
               xlink:href="#DejaVuSerif-28"
               transform="translate(283.20094,0.015625)"
               id="use17" />
            <use
               xlink:href="#DejaVuSerif-52"
               transform="translate(322.21461,0.015625)"
               id="use18" />
            <use
               xlink:href="#DejaVuSerif-61"
               transform="translate(397.50758,0.015625)"
               id="use19" />
            <use
               xlink:href="#DejaVuSerif-64"
               transform="translate(457.12672,0.015625)"
               id="use20" />
            <use
               xlink:href="#DejaVuSerif-69"
               transform="translate(521.14039,0.015625)"
               id="use21" />
            <use
               xlink:href="#DejaVuSerif-75"
               transform="translate(553.12281,0.015625)"
               id="use22" />
            <use
               xlink:href="#DejaVuSerif-73"
               transform="translate(617.52711,0.015625)"
               id="use23" />
            <use
               xlink:href="#DejaVuSerif-20"
               transform="translate(668.84547,0.015625)"
               id="use24" />
            <use
               xlink:href="#DejaVuSerif-2f"
               transform="translate(700.63258,0.015625)"
               id="use25" />
            <use
               xlink:href="#DejaVuSerif-20"
               transform="translate(734.32398,0.015625)"
               id="use26" />
            <use
               xlink:href="#DejaVuSerif-Italic-52"
               transform="translate(766.11109,0.015625)"
               id="use27" />
            <use
               xlink:href="#DejaVuSerif-Italic-67"
               transform="matrix(0.7,0,0,0.7,841.40406,-15.55625)"
               id="use28" />
            <use
               xlink:href="#DejaVuSerif-29"
               transform="translate(888.80894,0.015625)"
               id="use29" />
          </g>
        </g>
      </g>
      <g
         id="matplotlib.axis_2">
        <g
           id="ytick_1">
          <g
             id="line2d_6">
            <defs
               id="defs29">
              <path
                 id="mdb3e4ecdc4"
                 d="M 0,0 H -3.5"
                 style="stroke:#ffffff;stroke-width:0.8" />
            </defs>
            <g
               id="g30">
              <use
                 xlink:href="#mdb3e4ecdc4"
                 x="57.599998"
                 y="290.56113"
                 style="fill:#ffffff;stroke:#ffffff;stroke-width:0.8"
                 id="use30" />
            </g>
          </g>
          <g
             id="text_7">
            <!-- −300 -->
            <g
               style="fill:#ffffff"
               transform="matrix(0.16,0,0,-0.16,6.6525,296.63988)"
               id="g34">
              <defs
                 id="defs30">
                <path
                   id="DejaVuSerif-2212"
                   d="M 678,2259 H 4684 V 1753 H 678 Z"
                   transform="scale(0.015625)" />
              </defs>
              <use
                 xlink:href="#DejaVuSerif-2212"
                 id="use31" />
              <use
                 xlink:href="#DejaVuSerif-33"
                 x="83.789062"
                 id="use32" />
              <use
                 xlink:href="#DejaVuSerif-30"
                 x="147.41211"
                 id="use33" />
              <use
                 xlink:href="#DejaVuSerif-30"
                 x="211.03516"
                 id="use34" />
            </g>
          </g>
        </g>
        <g
           id="ytick_2">
          <g
             id="line2d_7">
            <g
               id="g35">
              <use
                 xlink:href="#mdb3e4ecdc4"
                 x="57.599998"
                 y="251.22957"
                 style="fill:#ffffff;stroke:#ffffff;stroke-width:0.8"
                 id="use35" />
            </g>
          </g>
          <g
             id="text_8">
            <!-- −250 -->
            <g
               style="fill:#ffffff"
               transform="matrix(0.16,0,0,-0.16,6.6525,257.30832)"
               id="g39">
              <use
                 xlink:href="#DejaVuSerif-2212"
                 id="use36" />
              <use
                 xlink:href="#DejaVuSerif-32"
                 x="83.789062"
                 id="use37" />
              <use
                 xlink:href="#DejaVuSerif-35"
                 x="147.41211"
                 id="use38" />
              <use
                 xlink:href="#DejaVuSerif-30"
                 x="211.03516"
                 id="use39" />
            </g>
          </g>
        </g>
        <g
           id="ytick_3">
          <g
             id="line2d_8">
            <g
               id="g40">
              <use
                 xlink:href="#mdb3e4ecdc4"
                 x="57.599998"
                 y="211.89803"
                 style="fill:#ffffff;stroke:#ffffff;stroke-width:0.8"
                 id="use40" />
            </g>
          </g>
          <g
             id="text_9">
            <!-- −200 -->
            <g
               style="fill:#ffffff"
               transform="matrix(0.16,0,0,-0.16,6.6525,217.97677)"
               id="g44">
              <use
                 xlink:href="#DejaVuSerif-2212"
                 id="use41" />
              <use
                 xlink:href="#DejaVuSerif-32"
                 x="83.789062"
                 id="use42" />
              <use
                 xlink:href="#DejaVuSerif-30"
                 x="147.41211"
                 id="use43" />
              <use
                 xlink:href="#DejaVuSerif-30"
                 x="211.03516"
                 id="use44" />
            </g>
          </g>
        </g>
        <g
           id="ytick_4">
          <g
             id="line2d_9">
            <g
               id="g45">
              <use
                 xlink:href="#mdb3e4ecdc4"
                 x="57.599998"
                 y="172.56647"
                 style="fill:#ffffff;stroke:#ffffff;stroke-width:0.8"
                 id="use45" />
            </g>
          </g>
          <g
             id="text_10">
            <!-- −150 -->
            <g
               style="fill:#ffffff"
               transform="matrix(0.16,0,0,-0.16,6.6525,178.64522)"
               id="g49">
              <use
                 xlink:href="#DejaVuSerif-2212"
                 id="use46" />
              <use
                 xlink:href="#DejaVuSerif-31"
                 x="83.789062"
                 id="use47" />
              <use
                 xlink:href="#DejaVuSerif-35"
                 x="147.41211"
                 id="use48" />
              <use
                 xlink:href="#DejaVuSerif-30"
                 x="211.03516"
                 id="use49" />
            </g>
          </g>
        </g>
        <g
           id="ytick_5">
          <g
             id="line2d_10">
            <g
               id="g50">
              <use
                 xlink:href="#mdb3e4ecdc4"
                 x="57.599998"
                 y="133.23492"
                 style="fill:#ffffff;stroke:#ffffff;stroke-width:0.8"
                 id="use50" />
            </g>
          </g>
          <g
             id="text_11">
            <!-- −100 -->
            <g
               style="fill:#ffffff"
               transform="matrix(0.16,0,0,-0.16,6.6525,139.31367)"
               id="g54">
              <use
                 xlink:href="#DejaVuSerif-2212"
                 id="use51" />
              <use
                 xlink:href="#DejaVuSerif-31"
                 x="83.789062"
                 id="use52" />
              <use
                 xlink:href="#DejaVuSerif-30"
                 x="147.41211"
                 id="use53" />
              <use
                 xlink:href="#DejaVuSerif-30"
                 x="211.03516"
                 id="use54" />
            </g>
          </g>
        </g>
        <g
           id="ytick_6">
          <g
             id="line2d_11">
            <g
               id="g55">
              <use
                 xlink:href="#mdb3e4ecdc4"
                 x="57.599998"
                 y="93.903374"
                 style="fill:#ffffff;stroke:#ffffff;stroke-width:0.8"
                 id="use55" />
            </g>
          </g>
          <g
             id="text_12">
            <!-- −50 -->
            <g
               style="fill:#ffffff"
               transform="matrix(0.16,0,0,-0.16,16.8325,99.982121)"
               id="g58">
              <use
                 xlink:href="#DejaVuSerif-2212"
                 id="use56" />
              <use
                 xlink:href="#DejaVuSerif-35"
                 x="83.789062"
                 id="use57" />
              <use
                 xlink:href="#DejaVuSerif-30"
                 x="147.41211"
                 id="use58" />
            </g>
          </g>
        </g>
        <g
           id="ytick_7">
          <g
             id="line2d_12">
            <g
               id="g59">
              <use
                 xlink:href="#mdb3e4ecdc4"
                 x="57.599998"
                 y="54.571819"
                 style="fill:#ffffff;stroke:#ffffff;stroke-width:0.8"
                 id="use59" />
            </g>
          </g>
          <g
             id="text_13">
            <!-- 0 -->
            <g
               style="fill:#ffffff"
               transform="matrix(0.16,0,0,-0.16,40.42,60.65057)"
               id="g60">
              <use
                 xlink:href="#DejaVuSerif-30"
                 id="use60" />
            </g>
          </g>
        </g>
        <g
           id="text_14">
          <!-- Log$_{10}$(Flux / $W m^{-2}$) -->
          <g
             style="fill:#ffffff"
             transform="matrix(0,-0.2,-0.2,0,-1.9475,273.428)"
             id="g78">
            <defs
               id="defs60">
              <path
                 id="DejaVuSerif-46"
                 d="M 353,0 V 331 H 947 V 4331 H 353 v 335 H 4172 V 3628 h -384 v 653 H 1581 V 2719 h 1594 v 584 h 384 V 1753 h -384 v 585 H 1581 V 331 h 747 V 0 Z"
                 transform="scale(0.015625)" />
              <path
                 id="DejaVuSerif-6c"
                 d="m 1313,331 h 543 V 0 H 184 V 331 H 738 V 4531 H 184 v 332 h 1129 z"
                 transform="scale(0.015625)" />
              <path
                 id="DejaVuSerif-78"
                 d="m 1863,2028 696,960 h -446 v 334 H 3391 V 2988 H 2950 L 2059,1759 3097,331 h 434 V 0 H 1997 v 331 h 422 L 1697,1325 972,331 h 431 V 0 H 141 V 331 H 581 L 1497,1594 488,2988 H 78 v 334 h 1485 v -334 h -397 z"
                 transform="scale(0.015625)" />
              <path
                 id="DejaVuSerif-Italic-57"
                 d="M 4425,0 H 3913 L 3581,3794 1775,0 H 1263 L 881,4331 H 419 l 65,335 h 1704 l -66,-335 H 1541 L 1844,884 3641,4666 h 506 L 4484,844 6141,4331 h -538 l 66,335 h 1344 l -66,-335 h -459 z"
                 transform="scale(0.015625)" />
              <path
                 id="DejaVuSerif-Italic-6d"
                 d="m 3503,2675 q 238,366 531,552 294,186 638,186 522,0 716,-325 115,-194 115,-510 0,-206 -50,-465 L 5106,331 h 519 L 5563,0 H 4469 l 397,2047 q 47,244 47,419 0,193 -57,306 -106,216 -453,216 -384,0 -642,-291 -258,-291 -367,-847 L 3034,0 h -575 l 404,2069 q 43,234 43,403 0,194 -56,303 -109,213 -456,213 -385,0 -643,-291 -257,-291 -367,-847 L 1025,0 H 450 l 581,2994 H 481 l 63,328 h 1125 l -113,-591 q 222,332 503,507 282,175 594,175 388,0 609,-193 222,-192 241,-545 z"
                 transform="scale(0.015625)" />
            </defs>
            <use
               xlink:href="#DejaVuSerif-4c"
               transform="translate(0,0.7125)"
               id="use61" />
            <use
               xlink:href="#DejaVuSerif-6f"
               transform="translate(66.40625,0.7125)"
               id="use62" />
            <use
               xlink:href="#DejaVuSerif-67"
               transform="translate(126.61133,0.7125)"
               id="use63" />
            <use
               xlink:href="#DejaVuSerif-31"
               transform="matrix(0.7,0,0,0.7,191.53336,-14.859375)"
               id="use64" />
            <use
               xlink:href="#DejaVuSerif-30"
               transform="matrix(0.7,0,0,0.7,236.06949,-14.859375)"
               id="use65" />
            <use
               xlink:href="#DejaVuSerif-28"
               transform="translate(283.20094,0.7125)"
               id="use66" />
            <use
               xlink:href="#DejaVuSerif-46"
               transform="translate(322.21461,0.7125)"
               id="use67" />
            <use
               xlink:href="#DejaVuSerif-6c"
               transform="translate(391.59937,0.7125)"
               id="use68" />
            <use
               xlink:href="#DejaVuSerif-75"
               transform="translate(423.5818,0.7125)"
               id="use69" />
            <use
               xlink:href="#DejaVuSerif-78"
               transform="translate(487.98609,0.7125)"
               id="use70" />
            <use
               xlink:href="#DejaVuSerif-20"
               transform="translate(544.38258,0.7125)"
               id="use71" />
            <use
               xlink:href="#DejaVuSerif-2f"
               transform="translate(576.16969,0.7125)"
               id="use72" />
            <use
               xlink:href="#DejaVuSerif-20"
               transform="translate(609.86109,0.7125)"
               id="use73" />
            <use
               xlink:href="#DejaVuSerif-Italic-57"
               transform="translate(641.6482,0.7125)"
               id="use74" />
            <use
               xlink:href="#DejaVuSerif-Italic-6d"
               transform="translate(744.43141,0.7125)"
               id="use75" />
            <use
               xlink:href="#DejaVuSerif-2212"
               transform="matrix(0.7,0,0,0.7,843.6937,37.046875)"
               id="use76" />
            <use
               xlink:href="#DejaVuSerif-32"
               transform="matrix(0.7,0,0,0.7,902.34604,37.046875)"
               id="use77" />
            <use
               xlink:href="#DejaVuSerif-29"
               transform="translate(949.47749,0.7125)"
               id="use78" />
          </g>
        </g>
      </g>
      <g
         id="line2d_13">
        <path
           d="m 73.832727,58.8441 0.324655,-0.57675 1.298618,-0.126789 4.545164,-0.07632 16.232727,0.02442 59.087129,0.376444 186.35171,1.44405 56.81454,0.554567 v 0"
           clip-path="url(#p78b346aef5)"
           style="fill:none;stroke:#a02a00;stroke-width:3;stroke-linecap:square"
           id="path78" />
      </g>
      <g
         id="line2d_14">
        <path
           d="m 73.832727,57.290152 0.324655,-0.592508 1.298618,-0.127892 4.545164,-0.07682 16.232727,0.02456 58.113159,0.373597 118.82357,0.974856 49.67214,0.59849 28.24495,0.549705 19.80393,0.599291 15.58341,0.686161 12.01222,0.717176 v 0"
           clip-path="url(#p78b346aef5)"
           style="fill:none;stroke:#ce4f01;stroke-width:3;stroke-linecap:square"
           id="path79" />
      </g>
      <g
         id="line2d_15">
        <path
           d="m 73.832727,55.929334 0.324655,-0.768722 1.298618,-0.139277 4.220509,-0.0798 14.934109,0.0165 48.048872,0.326027 61.35971,0.609598 34.08873,0.542699 22.40116,0.567517 17.20669,0.652481 13.96015,0.743959 12.01222,0.854695 10.71359,0.982759 9.41499,1.081694 8.44101,1.184367 7.79172,1.311289 7.14239,1.420937 6.81775,1.586156 6.16844,1.65989 5.84378,1.799271 5.51913,1.930248 5.19447,2.048636 4.86982,2.150088 4.86981,2.398426 4.54517,2.487851 4.22051,2.548822 3.24654,2.131705 v 0"
           clip-path="url(#p78b346aef5)"
           style="fill:none;stroke:#e16904;stroke-width:3;stroke-linecap:square"
           id="path80" />
      </g>
      <g
         id="line2d_16">
        <path
           d="m 73.832727,57.505297 0.324655,-3.491196 0.649309,-0.207013 1.623273,-0.141478 4.545163,-0.08874 12.661528,0.03181 26.621675,0.301504 25.64771,0.495738 19.47927,0.590164 15.58342,0.687759 12.98618,0.785518 11.36291,0.901037 10.06429,1.013186 9.09033,1.133045 8.11636,1.225723 7.46705,1.342006 7.1424,1.511363 6.49309,1.600104 6.16844,1.751349 5.84378,1.897813 5.51913,2.035399 5.19447,2.15971 4.86982,2.266179 4.54517,2.350225 4.54516,2.60221 4.22051,2.665573 4.22051,2.930044 3.89585,2.962075 3.89586,3.232418 3.89585,3.527461 3.89585,3.849465 3.5712,3.836632 3.57121,4.15654 3.57119,4.50315 3.57121,4.8787 3.57119,5.28558 3.24655,5.18667 3.24655,5.57853 3.24654,5.99999 3.24655,6.45332 3.24654,6.94094 3.24655,7.4654 3.24654,8.02954 3.24655,8.63633 3.24654,9.28899 3.24655,9.991 3.24654,10.74609 3.24655,11.55829 3.24655,12.43188 3.24654,13.37155 3.24655,14.38227 3.24654,15.4694 3.24655,16.63876 0.97396,5.2327 v 0"
           clip-path="url(#p78b346aef5)"
           style="fill:none;stroke:#f98811;stroke-width:3;stroke-linecap:square"
           id="path81" />
      </g>
      <g
         id="line2d_17">
        <path
           d="m 73.832727,93.340002 0.324655,-34.554034 0.324654,-1.201868 0.649309,-0.97376 0.64931,-0.468206 0.973963,-0.391688 1.623273,-0.332308 2.272582,-0.20365 3.5712,-0.07933 5.519127,0.117665 7.791709,0.405892 8.765671,0.679067 9.09033,0.929725 8.44102,1.084706 7.79171,1.218031 7.46705,1.394519 6.81775,1.499231 6.49309,1.660181 5.84378,1.71667 5.51913,1.841739 5.19447,1.954275 5.19447,2.195099 4.86982,2.302733 4.54516,2.387397 4.54517,2.642458 4.22051,2.70583 4.2205,2.973221 3.89586,3.004656 3.89585,3.277759 3.89586,3.575718 3.89585,3.900809 3.5712,3.886571 3.5712,4.20939 3.5712,4.55908 3.5712,4.9379 3.5712,5.34825 3.24655,5.24685 3.24654,5.64192 3.24655,6.06682 3.24654,6.52377 3.24655,7.01523 3.24655,7.5438 3.24654,8.11226 3.24655,8.72366 3.24654,9.38124 3.24655,10.08846 3.24654,10.84913 3.24655,11.66723 3.24655,12.54715 3.24654,13.49354 3.24655,14.51144 3.24654,15.60623 3.24655,16.78376 0.32465,1.74651 v 0"
           clip-path="url(#p78b346aef5)"
           style="fill:none;stroke:#ffac2b;stroke-width:3;stroke-linecap:square"
           id="path82" />
      </g>
      <g
         id="line2d_18">
        <path
           d="m 74.157382,127.38573 0.324654,-12.01868 0.324655,-5.96308 0.649309,-6.444 0.649309,-3.594063 0.649309,-2.335393 0.649309,-1.638744 0.649309,-1.20142 0.973964,-1.270905 0.973964,-0.847977 0.973963,-0.561614 1.298618,-0.43677 1.298619,-0.179804 1.623272,0.03706 1.623273,0.255829 1.947927,0.528772 2.272582,0.859216 2.597237,1.242089 2.92189,1.677934 2.921891,1.941517 3.246544,2.443925 3.24655,2.734928 3.24654,3.02406 3.24655,3.31779 3.24654,3.62082 3.24655,3.93691 3.24655,4.26914 3.24654,4.62028 3.24654,4.99293 3.24655,5.38959 3.24655,5.81275 3.24654,6.26492 3.24655,6.74875 3.24654,7.26693 3.24655,7.82236 3.24654,8.41806 3.24655,9.05728 3.24654,9.74343 3.24655,10.48021 3.24654,11.27155 3.24655,12.12166 3.24655,13.03507 3.24654,14.01663 3.24655,15.07153 3.24654,16.20539 0.32466,1.68612 v 0"
           clip-path="url(#p78b346aef5)"
           style="fill:none;stroke:#ffcb58;stroke-width:3;stroke-linecap:square"
           id="path83" />
      </g>
      <g
         id="patch_3">
        <path
           d="M 57.6,307.584 V 41.472"
           style="fill:none;stroke:#ffffff;stroke-width:3;stroke-linecap:square;stroke-linejoin:miter"
           id="path84" />
      </g>
      <g
         id="patch_4">
        <path
           d="M 57.6,307.584 H 414.72"
           style="fill:none;stroke:#ffffff;stroke-width:3;stroke-linecap:square;stroke-linejoin:miter"
           id="path85" />
      </g>
      <g
         id="legend_1">
        <g
           id="patch_5">
          <path
             d="m 68.1,300.084 h 108.45 q 3,0 3,-3 V 166.48087 q 0,-3 -3,-3 H 68.1 q -3,0 -3,3 V 297.084 q 0,3 3,3 z"
             style="opacity:0.2;fill:#ffffff;stroke:#cccccc;stroke-linejoin:miter"
             id="path86" />
        </g>
        <g
           id="line2d_19">
          <path
             d="m 71.1,175.62853 h 15 15"
             style="fill:none;stroke:#a02a00;stroke-width:3;stroke-linecap:square"
             id="path87" />
        </g>
        <g
           id="text_15">
          <!-- $\nu = 10^{14}$ -->
          <g
             style="fill:#ffffff"
             transform="matrix(0.15,0,0,-0.15,113.1,180.87853)"
             id="g92">
            <defs
               id="defs87">
              <path
                 id="DejaVuSerif-Italic-3bd"
                 d="m 1103,363 q 413,150 894,512 294,219 694,763 259,337 343,650 82,287 -9,506 -119,303 -334,344 l 34,184 h 350 q 325,-153 509,-494 144,-262 82,-581 -44,-231 -172,-422 -94,-137 -378,-459 Q 2738,950 2297,663 1494,138 1034,0 H 456 l 585,2988 H 491 l 62,334 h 1125 z"
                 transform="scale(0.015625)" />
              <path
                 id="DejaVuSerif-3d"
                 d="M 678,2894 H 4684 V 2394 H 678 Z m 0,-1275 H 4684 V 1119 H 678 Z"
                 transform="scale(0.015625)" />
            </defs>
            <use
               xlink:href="#DejaVuSerif-Italic-3bd"
               transform="translate(0,0.7125)"
               id="use87" />
            <use
               xlink:href="#DejaVuSerif-3d"
               transform="translate(79.755859,0.7125)"
               id="use88" />
            <use
               xlink:href="#DejaVuSerif-31"
               transform="translate(182.50977,0.7125)"
               id="use89" />
            <use
               xlink:href="#DejaVuSerif-30"
               transform="translate(246.13281,0.7125)"
               id="use90" />
            <use
               xlink:href="#DejaVuSerif-31"
               transform="matrix(0.7,0,0,0.7,310.66422,37.046875)"
               id="use91" />
            <use
               xlink:href="#DejaVuSerif-34"
               transform="matrix(0.7,0,0,0.7,355.20035,37.046875)"
               id="use92" />
          </g>
        </g>
        <g
           id="line2d_20">
          <path
             d="m 71.1,197.64572 h 15 15"
             style="fill:none;stroke:#ce4f01;stroke-width:3;stroke-linecap:square"
             id="path92" />
        </g>
        <g
           id="text_16">
          <!-- $\nu = 10^{15}$ -->
          <g
             style="fill:#ffffff"
             transform="matrix(0.15,0,0,-0.15,113.1,202.89572)"
             id="g98">
            <use
               xlink:href="#DejaVuSerif-Italic-3bd"
               transform="translate(0,0.7125)"
               id="use93" />
            <use
               xlink:href="#DejaVuSerif-3d"
               transform="translate(79.755859,0.7125)"
               id="use94" />
            <use
               xlink:href="#DejaVuSerif-31"
               transform="translate(182.50977,0.7125)"
               id="use95" />
            <use
               xlink:href="#DejaVuSerif-30"
               transform="translate(246.13281,0.7125)"
               id="use96" />
            <use
               xlink:href="#DejaVuSerif-31"
               transform="matrix(0.7,0,0,0.7,310.66422,37.046875)"
               id="use97" />
            <use
               xlink:href="#DejaVuSerif-35"
               transform="matrix(0.7,0,0,0.7,355.20035,37.046875)"
               id="use98" />
          </g>
        </g>
        <g
           id="line2d_21">
          <path
             d="m 71.1,219.66291 h 15 15"
             style="fill:none;stroke:#e16904;stroke-width:3;stroke-linecap:square"
             id="path98" />
        </g>
        <g
           id="text_17">
          <!-- $\nu = 10^{16}$ -->
          <g
             style="fill:#ffffff"
             transform="matrix(0.15,0,0,-0.15,113.1,224.91291)"
             id="g104">
            <defs
               id="defs98">
              <path
                 id="DejaVuSerif-36"
                 d="m 2094,219 q 440,0 677,323 238,324 238,930 0,606 -238,929 -237,324 -677,324 -447,0 -682,-313 -234,-312 -234,-903 0,-621 237,-956 238,-334 679,-334 z M 1075,2569 q 213,234 481,349 269,116 607,116 696,0 1101,-419 405,-418 405,-1143 0,-709 -436,-1136 -436,-427 -1164,-427 -791,0 -1216,589 -425,590 -425,1683 0,1225 503,1897 503,672 1419,672 247,0 519,-47 272,-47 556,-140 v -769 h -353 q -38,315 -241,481 -203,166 -547,166 -606,0 -903,-460 -297,-459 -306,-1412 z"
                 transform="scale(0.015625)" />
            </defs>
            <use
               xlink:href="#DejaVuSerif-Italic-3bd"
               transform="translate(0,0.7125)"
               id="use99" />
            <use
               xlink:href="#DejaVuSerif-3d"
               transform="translate(79.755859,0.7125)"
               id="use100" />
            <use
               xlink:href="#DejaVuSerif-31"
               transform="translate(182.50977,0.7125)"
               id="use101" />
            <use
               xlink:href="#DejaVuSerif-30"
               transform="translate(246.13281,0.7125)"
               id="use102" />
            <use
               xlink:href="#DejaVuSerif-31"
               transform="matrix(0.7,0,0,0.7,310.66422,37.046875)"
               id="use103" />
            <use
               xlink:href="#DejaVuSerif-36"
               transform="matrix(0.7,0,0,0.7,355.20035,37.046875)"
               id="use104" />
          </g>
        </g>
        <g
           id="line2d_22">
          <path
             d="m 71.1,241.68009 h 15 15"
             style="fill:none;stroke:#f98811;stroke-width:3;stroke-linecap:square"
             id="path104" />
        </g>
        <g
           id="text_18">
          <!-- $\nu = 10^{17}$ -->
          <g
             style="fill:#ffffff"
             transform="matrix(0.15,0,0,-0.15,113.1,246.93009)"
             id="g110">
            <defs
               id="defs104">
              <path
                 id="DejaVuSerif-37"
                 d="M 3609,4347 1784,0 H 1319 L 3059,4153 H 903 V 3578 H 538 v 1088 h 3071 z"
                 transform="scale(0.015625)" />
            </defs>
            <use
               xlink:href="#DejaVuSerif-Italic-3bd"
               transform="translate(0,0.7125)"
               id="use105" />
            <use
               xlink:href="#DejaVuSerif-3d"
               transform="translate(79.755859,0.7125)"
               id="use106" />
            <use
               xlink:href="#DejaVuSerif-31"
               transform="translate(182.50977,0.7125)"
               id="use107" />
            <use
               xlink:href="#DejaVuSerif-30"
               transform="translate(246.13281,0.7125)"
               id="use108" />
            <use
               xlink:href="#DejaVuSerif-31"
               transform="matrix(0.7,0,0,0.7,310.66422,37.046875)"
               id="use109" />
            <use
               xlink:href="#DejaVuSerif-37"
               transform="matrix(0.7,0,0,0.7,355.20035,37.046875)"
               id="use110" />
          </g>
        </g>
        <g
           id="line2d_23">
          <path
             d="m 71.1,263.69728 h 15 15"
             style="fill:none;stroke:#ffac2b;stroke-width:3;stroke-linecap:square"
             id="path110" />
        </g>
        <g
           id="text_19">
          <!-- $\nu = 10^{18}$ -->
          <g
             style="fill:#ffffff"
             transform="matrix(0.15,0,0,-0.15,113.1,268.94728)"
             id="g116">
            <defs
               id="defs110">
              <path
                 id="DejaVuSerif-38"
                 d="m 2981,1275 q 0,500 -249,776 -248,277 -698,277 -450,0 -698,-277 -248,-276 -248,-776 0,-503 248,-780 248,-276 698,-276 450,0 698,276 249,277 249,780 z m -128,2266 q 0,425 -216,662 -215,238 -603,238 -384,0 -601,-238 -217,-237 -217,-662 0,-428 217,-666 217,-237 601,-237 388,0 603,237 216,238 216,666 z M 2516,2484 q 531,-71 828,-392 297,-320 297,-817 Q 3641,619 3225,264 2809,-91 2034,-91 1263,-91 845,264 428,619 428,1275 q 0,497 297,817 297,321 831,392 -472,85 -724,358 -251,274 -251,699 0,562 387,885 388,324 1066,324 679,0 1066,-324 388,-323 388,-885 0,-425 -252,-699 -252,-273 -720,-358 z"
                 transform="scale(0.015625)" />
            </defs>
            <use
               xlink:href="#DejaVuSerif-Italic-3bd"
               transform="translate(0,0.7125)"
               id="use111" />
            <use
               xlink:href="#DejaVuSerif-3d"
               transform="translate(79.755859,0.7125)"
               id="use112" />
            <use
               xlink:href="#DejaVuSerif-31"
               transform="translate(182.50977,0.7125)"
               id="use113" />
            <use
               xlink:href="#DejaVuSerif-30"
               transform="translate(246.13281,0.7125)"
               id="use114" />
            <use
               xlink:href="#DejaVuSerif-31"
               transform="matrix(0.7,0,0,0.7,310.66422,37.046875)"
               id="use115" />
            <use
               xlink:href="#DejaVuSerif-38"
               transform="matrix(0.7,0,0,0.7,355.20035,37.046875)"
               id="use116" />
          </g>
        </g>
        <g
           id="line2d_24">
          <path
             d="m 71.1,285.71447 h 15 15"
             style="fill:none;stroke:#ffcb58;stroke-width:3;stroke-linecap:square"
             id="path116" />
        </g>
        <g
           id="text_20">
          <!-- $\nu = 10^{19}$ -->
          <g
             style="fill:#ffffff"
             transform="matrix(0.15,0,0,-0.15,113.1,290.96447)"
             id="g122">
            <defs
               id="defs116">
              <path
                 id="DejaVuSerif-39"
                 d="m 2994,2091 q -210,-235 -482,-351 -271,-115 -612,-115 -694,0 -1096,419 -401,419 -401,1144 0,709 436,1135 436,427 1164,427 791,0 1214,-589 424,-589 424,-1683 Q 3641,1253 3137,581 2634,-91 1722,-91 1475,-91 1203,-44 931,3 647,97 v 775 h 350 q 41,-316 244,-485 203,-168 543,-168 607,0 903,457 297,458 307,1415 z M 1978,4441 q -444,0 -680,-324 -235,-323 -235,-929 0,-607 235,-932 236,-325 680,-325 444,0 680,314 236,314 236,905 0,622 -238,956 -237,335 -678,335 z"
                 transform="scale(0.015625)" />
            </defs>
            <use
               xlink:href="#DejaVuSerif-Italic-3bd"
               transform="translate(0,0.7125)"
               id="use117" />
            <use
               xlink:href="#DejaVuSerif-3d"
               transform="translate(79.755859,0.7125)"
               id="use118" />
            <use
               xlink:href="#DejaVuSerif-31"
               transform="translate(182.50977,0.7125)"
               id="use119" />
            <use
               xlink:href="#DejaVuSerif-30"
               transform="translate(246.13281,0.7125)"
               id="use120" />
            <use
               xlink:href="#DejaVuSerif-31"
               transform="matrix(0.7,0,0,0.7,310.66422,37.046875)"
               id="use121" />
            <use
               xlink:href="#DejaVuSerif-39"
               transform="matrix(0.7,0,0,0.7,355.20035,37.046875)"
               id="use122" />
          </g>
        </g>
      </g>
    </g>
  </g>
  <defs
     id="defs122">
    <clipPath
       id="p78b346aef5">
      <rect
         x="57.599998"
         y="41.472"
         width="357.12"
         height="266.112"
         id="rect122" />
    </clipPath>
  </defs>
</svg>
