<?xml version="1.0" encoding="UTF-8" standalone="no"?>
<svg
   width="480.54749pt"
   height="353.36588pt"
   viewBox="0 0 480.5475 353.36587"
   version="1.1"
   id="svg133"
   sodipodi:docname="_2-2 Log(Flux) v Log(Temperature).svg"
   inkscape:version="1.3 (0e150ed6c4, 2023-07-21)"
   xmlns:inkscape="http://www.inkscape.org/namespaces/inkscape"
   xmlns:sodipodi="http://sodipodi.sourceforge.net/DTD/sodipodi-0.dtd"
   xmlns:xlink="http://www.w3.org/1999/xlink"
   xmlns="http://www.w3.org/2000/svg"
   xmlns:svg="http://www.w3.org/2000/svg"
   xmlns:rdf="http://www.w3.org/1999/02/22-rdf-syntax-ns#"
   xmlns:cc="http://creativecommons.org/ns#"
   xmlns:dc="http://purl.org/dc/elements/1.1/">
  <sodipodi:namedview
     id="namedview133"
     pagecolor="#ffffff"
     bordercolor="#000000"
     borderopacity="0.25"
     inkscape:showpageshadow="2"
     inkscape:pageopacity="0.0"
     inkscape:pagecheckerboard="0"
     inkscape:deskcolor="#d1d1d1"
     inkscape:document-units="pt"
     inkscape:zoom="1.781684"
     inkscape:cx="333.67309"
     inkscape:cy="230.4"
     inkscape:window-width="1920"
     inkscape:window-height="1017"
     inkscape:window-x="-8"
     inkscape:window-y="-8"
     inkscape:window-maximized="1"
     inkscape:current-layer="svg133" />
  <metadata
     id="metadata1">
    <rdf:RDF>
      <cc:Work>
        <dc:type
           rdf:resource="http://purl.org/dc/dcmitype/StillImage" />
        <dc:date>2023-12-14T21:31:28.641298</dc:date>
        <dc:format>image/svg+xml</dc:format>
        <dc:creator>
          <cc:Agent>
            <dc:title>Matplotlib v3.7.2, https://matplotlib.org/</dc:title>
          </cc:Agent>
        </dc:creator>
      </cc:Work>
    </rdf:RDF>
  </metadata>
  <defs
     id="defs1">
    <style
       type="text/css"
       id="style1">*{stroke-linejoin: round; stroke-linecap: butt}</style>
  </defs>
  <g
     id="figure_1"
     transform="translate(19.7475)">
    <g
       id="patch_1">
      <path
         d="M 0,345.6 H 460.8 V 0 H 0 Z"
         style="fill:none"
         id="path1" />
    </g>
    <g
       id="axes_1">
      <g
         id="patch_2">
        <path
           d="M 57.6,307.584 H 414.72 V 41.472 H 57.6 Z"
           style="fill:none"
           id="path2" />
      </g>
      <g
         id="matplotlib.axis_1">
        <g
           id="xtick_1">
          <g
             id="line2d_1">
            <defs
               id="defs2">
              <path
                 id="m5d84d35182"
                 d="M 0,0 V 3.5"
                 style="stroke:#000000;stroke-width:0.8" />
            </defs>
            <g
               id="g2">
              <use
                 xlink:href="#m5d84d35182"
                 x="104.24809"
                 y="307.58401"
                 style="stroke:#000000;stroke-width:0.8"
                 id="use2" />
            </g>
          </g>
          <g
             id="text_1">
            <!-- 4.0 -->
            <g
               style="fill:#ffffff"
               transform="matrix(0.16,0,0,-0.16,91.525589,326.7415)"
               id="g5">
              <defs
                 id="defs3">
                <path
                   id="DejaVuSerif-34"
                   d="M 2234,1581 V 4063 L 641,1581 Z M 3609,0 H 1484 v 331 h 750 v 916 H 197 v 341 l 2044,3162 h 618 V 1581 h 891 V 1247 H 2859 V 331 h 750 z"
                   transform="scale(0.015625)" />
                <path
                   id="DejaVuSerif-2e"
                   d="m 603,325 q 0,175 119,297 119,122 297,122 172,0 293,-122 Q 1434,500 1434,325 1434,153 1312,31 1191,-91 1019,-91 841,-91 722,29 603,150 603,325 Z"
                   transform="scale(0.015625)" />
                <path
                   id="DejaVuSerif-30"
                   d="m 2034,219 q 479,0 716,525 238,525 238,1584 0,1063 -238,1588 -237,525 -716,525 -478,0 -716,-525 -237,-525 -237,-1588 0,-1059 237,-1584 238,-525 716,-525 z m 0,-310 q -759,0 -1186,637 -426,638 -426,1782 0,1147 426,1784 427,638 1186,638 763,0 1188,-638 425,-637 425,-1784 Q 3647,1184 3222,546 2797,-91 2034,-91 Z"
                   transform="scale(0.015625)" />
              </defs>
              <use
                 xlink:href="#DejaVuSerif-34"
                 id="use3" />
              <use
                 xlink:href="#DejaVuSerif-2e"
                 x="63.623047"
                 id="use4" />
              <use
                 xlink:href="#DejaVuSerif-30"
                 x="95.410156"
                 id="use5" />
            </g>
          </g>
        </g>
        <g
           id="xtick_2">
          <g
             id="line2d_2">
            <g
               id="g6">
              <use
                 xlink:href="#m5d84d35182"
                 x="161.09633"
                 y="307.58401"
                 style="stroke:#000000;stroke-width:0.8"
                 id="use6" />
            </g>
          </g>
          <g
             id="text_2">
            <!-- 4.5 -->
            <g
               style="fill:#ffffff"
               transform="matrix(0.16,0,0,-0.16,148.37383,326.7415)"
               id="g9">
              <defs
                 id="defs6">
                <path
                   id="DejaVuSerif-35"
                   d="M 3219,4666 V 4153 H 1081 V 2816 q 163,112 380,168 217,57 486,57 756,0 1193,-419 438,-419 438,-1144 0,-740 -442,-1155 -442,-414 -1242,-414 -322,0 -660,79 -337,78 -690,237 v 906 h 353 q 28,-443 282,-678 255,-234 715,-234 494,0 759,325 266,325 266,934 0,606 -264,929 -264,324 -761,324 -281,0 -496,-100 -214,-100 -379,-309 H 750 v 2344 z"
                   transform="scale(0.015625)" />
              </defs>
              <use
                 xlink:href="#DejaVuSerif-34"
                 id="use7" />
              <use
                 xlink:href="#DejaVuSerif-2e"
                 x="63.623047"
                 id="use8" />
              <use
                 xlink:href="#DejaVuSerif-35"
                 x="95.410156"
                 id="use9" />
            </g>
          </g>
        </g>
        <g
           id="xtick_3">
          <g
             id="line2d_3">
            <g
               id="g10">
              <use
                 xlink:href="#m5d84d35182"
                 x="217.94456"
                 y="307.58401"
                 style="stroke:#000000;stroke-width:0.8"
                 id="use10" />
            </g>
          </g>
          <g
             id="text_3">
            <!-- 5.0 -->
            <g
               style="fill:#ffffff"
               transform="matrix(0.16,0,0,-0.16,205.22207,326.7415)"
               id="g13">
              <use
                 xlink:href="#DejaVuSerif-35"
                 id="use11" />
              <use
                 xlink:href="#DejaVuSerif-2e"
                 x="63.623047"
                 id="use12" />
              <use
                 xlink:href="#DejaVuSerif-30"
                 x="95.410156"
                 id="use13" />
            </g>
          </g>
        </g>
        <g
           id="xtick_4">
          <g
             id="line2d_4">
            <g
               id="g14">
              <use
                 xlink:href="#m5d84d35182"
                 x="274.79282"
                 y="307.58401"
                 style="stroke:#000000;stroke-width:0.8"
                 id="use14" />
            </g>
          </g>
          <g
             id="text_4">
            <!-- 5.5 -->
            <g
               style="fill:#ffffff"
               transform="matrix(0.16,0,0,-0.16,262.07031,326.7415)"
               id="g17">
              <use
                 xlink:href="#DejaVuSerif-35"
                 id="use15" />
              <use
                 xlink:href="#DejaVuSerif-2e"
                 x="63.623047"
                 id="use16" />
              <use
                 xlink:href="#DejaVuSerif-35"
                 x="95.410156"
                 id="use17" />
            </g>
          </g>
        </g>
        <g
           id="xtick_5">
          <g
             id="line2d_5">
            <g
               id="g18">
              <use
                 xlink:href="#m5d84d35182"
                 x="331.64105"
                 y="307.58401"
                 style="stroke:#000000;stroke-width:0.8"
                 id="use18" />
            </g>
          </g>
          <g
             id="text_5">
            <!-- 6.0 -->
            <g
               style="fill:#ffffff"
               transform="matrix(0.16,0,0,-0.16,318.91854,326.7415)"
               id="g21">
              <defs
                 id="defs18">
                <path
                   id="DejaVuSerif-36"
                   d="m 2094,219 q 440,0 677,323 238,324 238,930 0,606 -238,929 -237,324 -677,324 -447,0 -682,-313 -234,-312 -234,-903 0,-621 237,-956 238,-334 679,-334 z M 1075,2569 q 213,234 481,349 269,116 607,116 696,0 1101,-419 405,-418 405,-1143 0,-709 -436,-1136 -436,-427 -1164,-427 -791,0 -1216,589 -425,590 -425,1683 0,1225 503,1897 503,672 1419,672 247,0 519,-47 272,-47 556,-140 v -769 h -353 q -38,315 -241,481 -203,166 -547,166 -606,0 -903,-460 -297,-459 -306,-1412 z"
                   transform="scale(0.015625)" />
              </defs>
              <use
                 xlink:href="#DejaVuSerif-36"
                 id="use19" />
              <use
                 xlink:href="#DejaVuSerif-2e"
                 x="63.623047"
                 id="use20" />
              <use
                 xlink:href="#DejaVuSerif-30"
                 x="95.410156"
                 id="use21" />
            </g>
          </g>
        </g>
        <g
           id="xtick_6">
          <g
             id="line2d_6">
            <g
               id="g22">
              <use
                 xlink:href="#m5d84d35182"
                 x="388.48929"
                 y="307.58401"
                 style="stroke:#000000;stroke-width:0.8"
                 id="use22" />
            </g>
          </g>
          <g
             id="text_6">
            <!-- 6.5 -->
            <g
               style="fill:#ffffff"
               transform="matrix(0.16,0,0,-0.16,375.76678,326.7415)"
               id="g25">
              <use
                 xlink:href="#DejaVuSerif-36"
                 id="use23" />
              <use
                 xlink:href="#DejaVuSerif-2e"
                 x="63.623047"
                 id="use24" />
              <use
                 xlink:href="#DejaVuSerif-35"
                 x="95.410156"
                 id="use25" />
            </g>
          </g>
        </g>
        <g
           id="text_7">
          <!-- Temperature / $K$ -->
          <g
             style="fill:#ffffff"
             transform="matrix(0.2,0,0,-0.2,152.66,349.22525)"
             id="g40">
            <defs
               id="defs25">
              <path
                 id="DejaVuSerif-54"
                 d="m 1222,0 v 331 h 597 V 4294 H 447 V 3566 H 63 V 4666 H 4206 V 3566 h -384 v 728 H 2450 V 331 h 597 V 0 Z"
                 transform="scale(0.015625)" />
              <path
                 id="DejaVuSerif-65"
                 d="M 3469,1600 H 991 v -25 q 0,-672 253,-1014 253,-342 747,-342 378,0 620,198 242,199 339,589 h 463 Q 3275,459 2904,184 2534,-91 1931,-91 1203,-91 761,389 319,869 319,1663 q 0,787 434,1268 435,482 1141,482 753,0 1156,-465 403,-464 419,-1348 z m -678,331 q -19,582 -246,877 -226,295 -651,295 -397,0 -625,-297 -228,-297 -278,-875 z"
                 transform="scale(0.015625)" />
              <path
                 id="DejaVuSerif-6d"
                 d="m 3316,2675 q 165,366 423,552 258,186 602,186 522,0 778,-324 256,-323 256,-976 V 331 h 519 V 0 H 4300 v 331 h 500 v 1716 q 0,509 -150,725 -150,216 -497,216 -384,0 -586,-291 -201,-291 -201,-847 V 331 h 500 V 0 H 2291 v 331 h 500 v 1738 q 0,497 -150,708 -150,211 -497,211 -385,0 -587,-291 -201,-291 -201,-847 V 331 h 500 V 0 H 263 V 331 H 781 V 2994 H 231 v 328 h 1125 v -591 q 160,332 406,507 247,175 560,175 387,0 646,-193 260,-192 348,-545 z"
                 transform="scale(0.015625)" />
              <path
                 id="DejaVuSerif-70"
                 d="m 1313,1825 v -328 q 0,-600 229,-914 230,-314 667,-314 441,0 667,353 227,353 227,1041 0,690 -227,1040 -226,350 -667,350 -437,0 -667,-316 -229,-315 -229,-912 z M 738,2988 H 184 v 334 h 1129 v -519 q 168,313 429,461 261,149 646,149 612,0 999,-485 388,-484 388,-1265 0,-782 -388,-1268 -387,-486 -999,-486 -385,0 -646,148 -261,149 -429,462 V -997 h 543 v -334 H 184 v 334 h 554 z"
                 transform="scale(0.015625)" />
              <path
                 id="DejaVuSerif-72"
                 d="m 3059,3328 v -831 h -331 q -15,247 -137,369 -122,122 -357,122 -425,0 -652,-294 -226,-294 -226,-844 V 331 h 666 V 0 H 263 V 331 H 781 V 2994 H 231 v 328 h 1125 v -591 q 169,347 434,514 266,168 648,168 140,0 295,-22 155,-22 326,-63 z"
                 transform="scale(0.015625)" />
              <path
                 id="DejaVuSerif-61"
                 d="m 2547,1044 v 703 h -741 q -428,0 -638,-185 -209,-184 -209,-565 0,-347 212,-550 213,-203 576,-203 359,0 579,222 221,222 221,578 z m 575,1031 V 331 h 512 V 0 H 2547 V 359 Q 2356,128 2106,18 1856,-91 1522,-91 969,-91 644,203 319,497 319,997 q 0,516 372,800 372,284 1050,284 h 806 v 228 q 0,379 -230,586 -229,208 -645,208 -344,0 -547,-156 Q 922,2791 872,2484 H 575 v 672 q 300,128 583,192 283,65 551,65 691,0 1052,-343 361,-342 361,-995 z"
                 transform="scale(0.015625)" />
              <path
                 id="DejaVuSerif-74"
                 d="M 691,2988 H 184 v 334 h 507 v 1031 h 578 V 3322 H 2350 V 2988 H 1269 V 878 q 0,-422 81,-541 81,-118 300,-118 225,0 328,132 103,133 110,430 h 434 Q 2497,328 2275,118 2053,-91 1600,-91 1103,-91 897,129 691,350 691,878 Z"
                 transform="scale(0.015625)" />
              <path
                 id="DejaVuSerif-75"
                 d="M 2266,3322 H 3341 V 331 h 543 V 0 H 2766 V 588 Q 2606,256 2353,82 2100,-91 1766,-91 1213,-91 952,223 691,538 691,1209 V 2988 H 172 v 334 H 1269 V 1388 q 0,-607 148,-832 149,-225 530,-225 400,0 609,294 210,294 210,853 v 1510 h -500 z"
                 transform="scale(0.015625)" />
              <path
                 id="DejaVuSerif-20"
                 transform="scale(0.015625)"
                 d="" />
              <path
                 id="DejaVuSerif-2f"
                 d="m 1656,4666 h 500 L 500,-594 H 0 Z"
                 transform="scale(0.015625)" />
              <path
                 id="DejaVuSerif-Italic-4b"
                 d="m -97,0 63,331 h 593 l 779,4000 H 744 l 65,335 h 1822 l -65,-335 H 1972 L 1628,2566 3981,4331 h -506 l 66,335 h 1550 l -66,-335 H 4500 L 2156,2572 3959,331 h 532 L 4428,0 H 3344 L 1563,2216 1194,331 h 594 L 1725,0 Z"
                 transform="scale(0.015625)" />
            </defs>
            <use
               xlink:href="#DejaVuSerif-54"
               transform="translate(0,0.09375)"
               id="use26" />
            <use
               xlink:href="#DejaVuSerif-65"
               transform="translate(66.699219,0.09375)"
               id="use27" />
            <use
               xlink:href="#DejaVuSerif-6d"
               transform="translate(125.87891,0.09375)"
               id="use28" />
            <use
               xlink:href="#DejaVuSerif-70"
               transform="translate(220.70312,0.09375)"
               id="use29" />
            <use
               xlink:href="#DejaVuSerif-65"
               transform="translate(284.7168,0.09375)"
               id="use30" />
            <use
               xlink:href="#DejaVuSerif-72"
               transform="translate(343.89648,0.09375)"
               id="use31" />
            <use
               xlink:href="#DejaVuSerif-61"
               transform="translate(391.69922,0.09375)"
               id="use32" />
            <use
               xlink:href="#DejaVuSerif-74"
               transform="translate(451.31836,0.09375)"
               id="use33" />
            <use
               xlink:href="#DejaVuSerif-75"
               transform="translate(491.50391,0.09375)"
               id="use34" />
            <use
               xlink:href="#DejaVuSerif-72"
               transform="translate(555.9082,0.09375)"
               id="use35" />
            <use
               xlink:href="#DejaVuSerif-65"
               transform="translate(603.71094,0.09375)"
               id="use36" />
            <use
               xlink:href="#DejaVuSerif-20"
               transform="translate(662.89062,0.09375)"
               id="use37" />
            <use
               xlink:href="#DejaVuSerif-2f"
               transform="translate(694.67773,0.09375)"
               id="use38" />
            <use
               xlink:href="#DejaVuSerif-20"
               transform="translate(728.36914,0.09375)"
               id="use39" />
            <use
               xlink:href="#DejaVuSerif-Italic-4b"
               transform="translate(760.15625,0.09375)"
               id="use40" />
          </g>
        </g>
      </g>
      <g
         id="matplotlib.axis_2">
        <g
           id="ytick_1">
          <g
             id="line2d_7">
            <defs
               id="defs40">
              <path
                 id="m33b98fd17c"
                 d="M 0,0 H -3.5"
                 style="stroke:#ffffff;stroke-width:0.8" />
            </defs>
            <g
               id="g41">
              <use
                 xlink:href="#m33b98fd17c"
                 x="57.599998"
                 y="290.56113"
                 style="fill:#ffffff;stroke:#ffffff;stroke-width:0.8"
                 id="use41" />
            </g>
          </g>
          <g
             id="text_8">
            <!-- −300 -->
            <g
               style="fill:#ffffff"
               transform="matrix(0.16,0,0,-0.16,6.6525,296.63987)"
               id="g45">
              <defs
                 id="defs41">
                <path
                   id="DejaVuSerif-2212"
                   d="M 678,2259 H 4684 V 1753 H 678 Z"
                   transform="scale(0.015625)" />
                <path
                   id="DejaVuSerif-33"
                   d="m 622,4469 q 366,137 701,209 336,72 630,72 685,0 1069,-296 384,-295 384,-820 0,-421 -266,-704 -265,-283 -752,-383 575,-81 892,-417 317,-336 317,-871 0,-653 -439,-1002 -439,-348 -1264,-348 -366,0 -715,79 -348,78 -691,237 v 906 h 350 q 31,-450 303,-681 272,-231 765,-231 478,0 755,276 277,277 277,758 0,550 -285,833 -284,283 -834,283 h -297 v 319 h 156 q 547,0 820,226 274,227 274,683 0,409 -225,626 -225,218 -647,218 -422,0 -655,-200 -232,-200 -273,-594 H 622 Z"
                   transform="scale(0.015625)" />
              </defs>
              <use
                 xlink:href="#DejaVuSerif-2212"
                 id="use42" />
              <use
                 xlink:href="#DejaVuSerif-33"
                 x="83.789062"
                 id="use43" />
              <use
                 xlink:href="#DejaVuSerif-30"
                 x="147.41211"
                 id="use44" />
              <use
                 xlink:href="#DejaVuSerif-30"
                 x="211.03516"
                 id="use45" />
            </g>
          </g>
        </g>
        <g
           id="ytick_2">
          <g
             id="line2d_8">
            <g
               id="g46">
              <use
                 xlink:href="#m33b98fd17c"
                 x="57.599998"
                 y="251.22955"
                 style="fill:#ffffff;stroke:#ffffff;stroke-width:0.8"
                 id="use46" />
            </g>
          </g>
          <g
             id="text_9">
            <!-- −250 -->
            <g
               style="fill:#ffffff"
               transform="matrix(0.16,0,0,-0.16,6.6525,257.3083)"
               id="g50">
              <defs
                 id="defs46">
                <path
                   id="DejaVuSerif-32"
                   d="M 819,3553 H 469 v 831 q 334,179 673,272 339,94 664,94 728,0 1150,-353 422,-353 422,-959 0,-685 -956,-1638 -75,-72 -113,-109 L 1131,513 h 1947 v 575 h 366 V 0 H 434 v 341 l 1416,1412 q 469,469 669,861 200,392 200,824 0,471 -246,737 -245,266 -676,266 -447,0 -691,-222 -243,-222 -287,-666 z"
                   transform="scale(0.015625)" />
              </defs>
              <use
                 xlink:href="#DejaVuSerif-2212"
                 id="use47" />
              <use
                 xlink:href="#DejaVuSerif-32"
                 x="83.789062"
                 id="use48" />
              <use
                 xlink:href="#DejaVuSerif-35"
                 x="147.41211"
                 id="use49" />
              <use
                 xlink:href="#DejaVuSerif-30"
                 x="211.03516"
                 id="use50" />
            </g>
          </g>
        </g>
        <g
           id="ytick_3">
          <g
             id="line2d_9">
            <g
               id="g51">
              <use
                 xlink:href="#m33b98fd17c"
                 x="57.599998"
                 y="211.89798"
                 style="fill:#ffffff;stroke:#ffffff;stroke-width:0.8"
                 id="use51" />
            </g>
          </g>
          <g
             id="text_10">
            <!-- −200 -->
            <g
               style="fill:#ffffff"
               transform="matrix(0.16,0,0,-0.16,6.6525,217.97673)"
               id="g55">
              <use
                 xlink:href="#DejaVuSerif-2212"
                 id="use52" />
              <use
                 xlink:href="#DejaVuSerif-32"
                 x="83.789062"
                 id="use53" />
              <use
                 xlink:href="#DejaVuSerif-30"
                 x="147.41211"
                 id="use54" />
              <use
                 xlink:href="#DejaVuSerif-30"
                 x="211.03516"
                 id="use55" />
            </g>
          </g>
        </g>
        <g
           id="ytick_4">
          <g
             id="line2d_10">
            <g
               id="g56">
              <use
                 xlink:href="#m33b98fd17c"
                 x="57.599998"
                 y="172.56642"
                 style="fill:#ffffff;stroke:#ffffff;stroke-width:0.8"
                 id="use56" />
            </g>
          </g>
          <g
             id="text_11">
            <!-- −150 -->
            <g
               style="fill:#ffffff"
               transform="matrix(0.16,0,0,-0.16,6.6525,178.64516)"
               id="g60">
              <defs
                 id="defs56">
                <path
                   id="DejaVuSerif-31"
                   d="m 909,0 v 331 h 813 V 4213 L 781,3603 v 410 l 1138,737 h 431 V 331 h 813 V 0 Z"
                   transform="scale(0.015625)" />
              </defs>
              <use
                 xlink:href="#DejaVuSerif-2212"
                 id="use57" />
              <use
                 xlink:href="#DejaVuSerif-31"
                 x="83.789062"
                 id="use58" />
              <use
                 xlink:href="#DejaVuSerif-35"
                 x="147.41211"
                 id="use59" />
              <use
                 xlink:href="#DejaVuSerif-30"
                 x="211.03516"
                 id="use60" />
            </g>
          </g>
        </g>
        <g
           id="ytick_5">
          <g
             id="line2d_11">
            <g
               id="g61">
              <use
                 xlink:href="#m33b98fd17c"
                 x="57.599998"
                 y="133.23485"
                 style="fill:#ffffff;stroke:#ffffff;stroke-width:0.8"
                 id="use61" />
            </g>
          </g>
          <g
             id="text_12">
            <!-- −100 -->
            <g
               style="fill:#ffffff"
               transform="matrix(0.16,0,0,-0.16,6.6525,139.3136)"
               id="g65">
              <use
                 xlink:href="#DejaVuSerif-2212"
                 id="use62" />
              <use
                 xlink:href="#DejaVuSerif-31"
                 x="83.789062"
                 id="use63" />
              <use
                 xlink:href="#DejaVuSerif-30"
                 x="147.41211"
                 id="use64" />
              <use
                 xlink:href="#DejaVuSerif-30"
                 x="211.03516"
                 id="use65" />
            </g>
          </g>
        </g>
        <g
           id="ytick_6">
          <g
             id="line2d_12">
            <g
               id="g66">
              <use
                 xlink:href="#m33b98fd17c"
                 x="57.599998"
                 y="93.903275"
                 style="fill:#ffffff;stroke:#ffffff;stroke-width:0.8"
                 id="use66" />
            </g>
          </g>
          <g
             id="text_13">
            <!-- −50 -->
            <g
               style="fill:#ffffff"
               transform="matrix(0.16,0,0,-0.16,16.8325,99.982027)"
               id="g69">
              <use
                 xlink:href="#DejaVuSerif-2212"
                 id="use67" />
              <use
                 xlink:href="#DejaVuSerif-35"
                 x="83.789062"
                 id="use68" />
              <use
                 xlink:href="#DejaVuSerif-30"
                 x="147.41211"
                 id="use69" />
            </g>
          </g>
        </g>
        <g
           id="ytick_7">
          <g
             id="line2d_13">
            <g
               id="g70">
              <use
                 xlink:href="#m33b98fd17c"
                 x="57.599998"
                 y="54.571709"
                 style="fill:#ffffff;stroke:#ffffff;stroke-width:0.8"
                 id="use70" />
            </g>
          </g>
          <g
             id="text_14">
            <!-- 0 -->
            <g
               style="fill:#ffffff"
               transform="matrix(0.16,0,0,-0.16,40.42,60.650458)"
               id="g71">
              <use
                 xlink:href="#DejaVuSerif-30"
                 id="use71" />
            </g>
          </g>
        </g>
        <g
           id="text_15">
          <!-- Log$_{10}$(Flux / $W m^{-2}$) -->
          <g
             style="fill:#ffffff"
             transform="matrix(0,-0.2,-0.2,0,-1.9475,273.428)"
             id="g89">
            <defs
               id="defs71">
              <path
                 id="DejaVuSerif-4c"
                 d="M 353,0 V 331 H 947 V 4331 H 353 v 335 H 2175 V 4331 H 1581 V 384 h 2132 v 782 h 384 V 0 Z"
                 transform="scale(0.015625)" />
              <path
                 id="DejaVuSerif-6f"
                 d="m 1925,219 q 463,0 698,365 236,366 236,1079 0,712 -236,1076 -235,364 -698,364 -462,0 -698,-364 Q 991,2375 991,1663 991,950 1228,584 1466,219 1925,219 Z m 0,-310 q -725,0 -1166,480 -440,480 -440,1274 0,793 439,1271 439,479 1167,479 728,0 1167,-479 439,-478 439,-1271 Q 3531,869 3092,389 2653,-91 1925,-91 Z"
                 transform="scale(0.015625)" />
              <path
                 id="DejaVuSerif-67"
                 d="M 3359,2988 V 72 q 0,-716 -394,-1105 -393,-389 -1121,-389 -328,0 -628,60 -300,59 -575,178 v 696 h 300 q 56,-325 265,-475 210,-150 600,-150 507,0 742,286 236,286 236,899 V 519 Q 2616,206 2355,57 2094,-91 1709,-91 1097,-91 708,395 319,881 319,1663 q 0,781 387,1265 388,485 1003,485 385,0 646,-149 261,-148 429,-461 v 519 H 3909 V 2988 Z M 2784,1825 q 0,597 -230,912 -229,316 -666,316 -444,0 -671,-350 -226,-350 -226,-1040 0,-688 226,-1041 227,-353 671,-353 437,0 666,314 230,314 230,914 z"
                 transform="scale(0.015625)" />
              <path
                 id="DejaVuSerif-28"
                 d="M 2041,-997 Q 1281,-656 893,83 506,822 506,1931 q 0,1113 387,1852 388,739 1148,1080 v -307 q -482,-331 -691,-933 -209,-601 -209,-1692 0,-1087 209,-1689 209,-601 691,-933 z"
                 transform="scale(0.015625)" />
              <path
                 id="DejaVuSerif-46"
                 d="M 353,0 V 331 H 947 V 4331 H 353 v 335 H 4172 V 3628 h -384 v 653 H 1581 V 2719 h 1594 v 584 h 384 V 1753 h -384 v 585 H 1581 V 331 h 747 V 0 Z"
                 transform="scale(0.015625)" />
              <path
                 id="DejaVuSerif-6c"
                 d="m 1313,331 h 543 V 0 H 184 V 331 H 738 V 4531 H 184 v 332 h 1129 z"
                 transform="scale(0.015625)" />
              <path
                 id="DejaVuSerif-78"
                 d="m 1863,2028 696,960 h -446 v 334 H 3391 V 2988 H 2950 L 2059,1759 3097,331 h 434 V 0 H 1997 v 331 h 422 L 1697,1325 972,331 h 431 V 0 H 141 V 331 H 581 L 1497,1594 488,2988 H 78 v 334 h 1485 v -334 h -397 z"
                 transform="scale(0.015625)" />
              <path
                 id="DejaVuSerif-Italic-57"
                 d="M 4425,0 H 3913 L 3581,3794 1775,0 H 1263 L 881,4331 H 419 l 65,335 h 1704 l -66,-335 H 1541 L 1844,884 3641,4666 h 506 L 4484,844 6141,4331 h -538 l 66,335 h 1344 l -66,-335 h -459 z"
                 transform="scale(0.015625)" />
              <path
                 id="DejaVuSerif-Italic-6d"
                 d="m 3503,2675 q 238,366 531,552 294,186 638,186 522,0 716,-325 115,-194 115,-510 0,-206 -50,-465 L 5106,331 h 519 L 5563,0 H 4469 l 397,2047 q 47,244 47,419 0,193 -57,306 -106,216 -453,216 -384,0 -642,-291 -258,-291 -367,-847 L 3034,0 h -575 l 404,2069 q 43,234 43,403 0,194 -56,303 -109,213 -456,213 -385,0 -643,-291 -257,-291 -367,-847 L 1025,0 H 450 l 581,2994 H 481 l 63,328 h 1125 l -113,-591 q 222,332 503,507 282,175 594,175 388,0 609,-193 222,-192 241,-545 z"
                 transform="scale(0.015625)" />
              <path
                 id="DejaVuSerif-29"
                 d="m 453,-997 v 306 q 481,332 692,933 211,602 211,1689 0,1091 -211,1692 -211,602 -692,933 v 307 Q 1216,4522 1603,3783 1991,3044 1991,1931 1991,822 1603,83 1216,-656 453,-997 Z"
                 transform="scale(0.015625)" />
            </defs>
            <use
               xlink:href="#DejaVuSerif-4c"
               transform="translate(0,0.7125)"
               id="use72" />
            <use
               xlink:href="#DejaVuSerif-6f"
               transform="translate(66.40625,0.7125)"
               id="use73" />
            <use
               xlink:href="#DejaVuSerif-67"
               transform="translate(126.61133,0.7125)"
               id="use74" />
            <use
               xlink:href="#DejaVuSerif-31"
               transform="matrix(0.7,0,0,0.7,191.53336,-14.859375)"
               id="use75" />
            <use
               xlink:href="#DejaVuSerif-30"
               transform="matrix(0.7,0,0,0.7,236.06949,-14.859375)"
               id="use76" />
            <use
               xlink:href="#DejaVuSerif-28"
               transform="translate(283.20094,0.7125)"
               id="use77" />
            <use
               xlink:href="#DejaVuSerif-46"
               transform="translate(322.21461,0.7125)"
               id="use78" />
            <use
               xlink:href="#DejaVuSerif-6c"
               transform="translate(391.59937,0.7125)"
               id="use79" />
            <use
               xlink:href="#DejaVuSerif-75"
               transform="translate(423.5818,0.7125)"
               id="use80" />
            <use
               xlink:href="#DejaVuSerif-78"
               transform="translate(487.98609,0.7125)"
               id="use81" />
            <use
               xlink:href="#DejaVuSerif-20"
               transform="translate(544.38258,0.7125)"
               id="use82" />
            <use
               xlink:href="#DejaVuSerif-2f"
               transform="translate(576.16969,0.7125)"
               id="use83" />
            <use
               xlink:href="#DejaVuSerif-20"
               transform="translate(609.86109,0.7125)"
               id="use84" />
            <use
               xlink:href="#DejaVuSerif-Italic-57"
               transform="translate(641.6482,0.7125)"
               id="use85" />
            <use
               xlink:href="#DejaVuSerif-Italic-6d"
               transform="translate(744.43141,0.7125)"
               id="use86" />
            <use
               xlink:href="#DejaVuSerif-2212"
               transform="matrix(0.7,0,0,0.7,843.6937,37.046875)"
               id="use87" />
            <use
               xlink:href="#DejaVuSerif-32"
               transform="matrix(0.7,0,0,0.7,902.34604,37.046875)"
               id="use88" />
            <use
               xlink:href="#DejaVuSerif-29"
               transform="translate(949.47749,0.7125)"
               id="use89" />
          </g>
        </g>
      </g>
      <g
         id="line2d_14">
        <path
           d="M 398.48727,58.054685 91.087715,60.293862 73.832727,60.463604 v 0"
           clip-path="url(#pab048aea16)"
           style="fill:none;stroke:#a02a00;stroke-width:3;stroke-linecap:square"
           id="path89" />
      </g>
      <g
         id="line2d_15">
        <path
           d="m 398.48727,56.483329 -197.30503,1.484529 -49.40965,0.579969 -29.06952,0.548761 -21.19362,0.615463 -16.89165,0.708773 -10.785073,0.595841 v 0"
           clip-path="url(#pab048aea16)"
           style="fill:none;stroke:#ce4f01;stroke-width:3;stroke-linecap:square"
           id="path90" />
      </g>
      <g
         id="line2d_16">
        <path
           d="m 398.48727,54.929338 -100.68477,0.850705 -41.46695,0.554778 -26.2666,0.560917 -19.60238,0.631867 -16.07505,0.735193 -13.59458,0.837426 -11.81802,0.940766 -10.7519,1.07521 -9.68248,1.190409 -8.61064,1.273639 -7.896,1.380136 -7.53942,1.540606 -6.82314,1.612219 -6.46544,1.747593 -6.10739,1.874806 -5.749066,1.98979 -5.390509,2.088325 -5.391191,2.329527 -5.032349,2.41638 -4.673357,2.475598 -4.673773,2.721601 -0.359538,0.220229 v 0"
           clip-path="url(#pab048aea16)"
           style="fill:none;stroke:#e16904;stroke-width:3;stroke-linecap:square"
           id="path91" />
      </g>
      <g
         id="line2d_17">
        <path
           d="m 398.48727,53.568 -36.0114,0.544208 -24.22639,0.578145 -18.66588,0.663283 -15.17745,0.753844 -13.23205,0.874765 -11.56279,0.981803 -10.20562,1.079717 -9.53282,1.231392 -8.49503,1.316684 -7.80245,1.426051 -7.45983,1.591157 -6.75839,1.664487 -6.40979,1.803664 -6.05943,1.934403 -5.70763,2.052526 -5.35466,2.153693 -5.35801,2.401961 -5.0036,2.491064 -4.64843,2.551705 -4.65045,2.804867 -4.2944,2.835515 -4.2959,3.094293 -4.29731,3.376717 -3.94037,3.365423 -3.94143,3.646013 -3.94242,3.95 -3.94337,4.27939 -3.94425,4.63624 -3.58642,4.54946 -3.58709,4.89313 -3.58771,5.26279 -3.58831,5.66037 -3.58887,6.08804 -3.58942,6.54803 -3.58993,7.0428 -3.59042,7.57497 -3.59089,8.14739 -3.59132,8.76308 -3.23256,8.4516 -3.23288,9.02434 -3.23319,9.63592 -3.23349,10.28895 -3.23377,10.98628 -3.23405,11.73088 -3.234307,12.52596 -3.234555,13.37496 -3.234794,14.28152 -3.235021,15.24956 -0.35946,1.75696 v 0"
           clip-path="url(#pab048aea16)"
           style="fill:none;stroke:#f98811;stroke-width:3;stroke-linecap:square"
           id="path92" />
      </g>
      <g
         id="line2d_18">
        <path
           d="m 398.48727,55.135852 -10.7745,1.032531 -9.94022,1.174545 -9.03219,1.292926 -8.17342,1.392319 -7.42223,1.480361 -6.89829,1.590361 -6.65676,1.76037 -6.05146,1.819829 -5.75999,1.952129 -5.45559,2.071224 -5.48492,2.326324 -5.16573,2.440306 -4.83979,2.529977 -4.85587,2.800242 -4.52209,2.867387 -4.53358,3.150746 -4.19422,3.184071 -4.20251,3.473502 -4.2102,3.789283 -3.8656,3.775435 -3.87119,4.08901 -3.8764,4.42867 -3.88128,4.79663 -3.5324,4.7056 -3.53596,5.05984 -3.53931,5.44079 -3.54246,5.85051 -3.54545,6.29114 -3.54827,6.76504 -3.55092,7.27471 -3.55343,7.82286 -3.55582,8.4124 -3.55805,9.04647 -3.56019,9.72842 -3.20589,9.38114 -3.20744,10.01542 -3.20891,10.69267 -3.21033,11.41581 -3.21166,12.18792 -3.21294,13.01234 -3.21416,13.89262 -3.21531,14.83255 -1.42939,6.91045 v 0"
           clip-path="url(#pab048aea16)"
           style="fill:none;stroke:#ffac2b;stroke-width:3;stroke-linecap:square"
           id="path93" />
      </g>
      <g
         id="line2d_19">
        <path
           d="m 398.48727,90.885617 -3.87708,3.458816 -3.92887,3.79334 -3.74382,3.906617 -3.76061,4.23395 -3.66601,4.44977 -3.79841,4.97254 -3.60221,5.08253 -3.67914,5.58833 -3.4302,5.59897 -3.47796,6.08827 -3.51981,6.61402 -3.55675,7.17996 -3.58954,7.78998 -3.28871,7.65165 -3.3106,8.23494 -3.33052,8.86074 -3.34866,9.53244 -3.36525,10.25364 -3.38048,11.02818 -3.39447,11.8602 -3.40735,12.75413 -3.41926,13.71471 -3.43026,14.74704 -3.44046,15.8566 -1.37888,6.67173 v 0"
           clip-path="url(#pab048aea16)"
           style="fill:none;stroke:#ffcb58;stroke-width:3;stroke-linecap:square"
           id="path94" />
      </g>
      <g
         id="patch_3">
        <path
           d="M 57.6,307.584 V 41.472"
           style="fill:none;stroke:#ffffff;stroke-width:3;stroke-linecap:square;stroke-linejoin:miter"
           id="path95" />
      </g>
      <g
         id="patch_4">
        <path
           d="M 57.6,307.584 H 414.72"
           style="fill:none;stroke:#ffffff;stroke-width:3;stroke-linecap:square;stroke-linejoin:miter"
           id="path96" />
      </g>
      <g
         id="legend_1">
        <g
           id="patch_5">
          <path
             d="m 295.77,300.084 h 108.45 q 3,0 3,-3 V 166.48087 q 0,-3 -3,-3 H 295.77 q -3,0 -3,3 V 297.084 q 0,3 3,3 z"
             style="opacity:0.2;fill:#ffffff;stroke:#cccccc;stroke-linejoin:miter"
             id="path97" />
        </g>
        <g
           id="line2d_20">
          <path
             d="m 298.77,175.62853 h 15 15"
             style="fill:none;stroke:#a02a00;stroke-width:3;stroke-linecap:square"
             id="path98" />
        </g>
        <g
           id="text_16">
          <!-- $\nu = 10^{14}$ -->
          <g
             style="fill:#ffffff"
             transform="matrix(0.15,0,0,-0.15,340.77,180.87853)"
             id="g103">
            <defs
               id="defs98">
              <path
                 id="DejaVuSerif-Italic-3bd"
                 d="m 1103,363 q 413,150 894,512 294,219 694,763 259,337 343,650 82,287 -9,506 -119,303 -334,344 l 34,184 h 350 q 325,-153 509,-494 144,-262 82,-581 -44,-231 -172,-422 -94,-137 -378,-459 Q 2738,950 2297,663 1494,138 1034,0 H 456 l 585,2988 H 491 l 62,334 h 1125 z"
                 transform="scale(0.015625)" />
              <path
                 id="DejaVuSerif-3d"
                 d="M 678,2894 H 4684 V 2394 H 678 Z m 0,-1275 H 4684 V 1119 H 678 Z"
                 transform="scale(0.015625)" />
            </defs>
            <use
               xlink:href="#DejaVuSerif-Italic-3bd"
               transform="translate(0,0.7125)"
               id="use98" />
            <use
               xlink:href="#DejaVuSerif-3d"
               transform="translate(79.755859,0.7125)"
               id="use99" />
            <use
               xlink:href="#DejaVuSerif-31"
               transform="translate(182.50977,0.7125)"
               id="use100" />
            <use
               xlink:href="#DejaVuSerif-30"
               transform="translate(246.13281,0.7125)"
               id="use101" />
            <use
               xlink:href="#DejaVuSerif-31"
               transform="matrix(0.7,0,0,0.7,310.66422,37.046875)"
               id="use102" />
            <use
               xlink:href="#DejaVuSerif-34"
               transform="matrix(0.7,0,0,0.7,355.20035,37.046875)"
               id="use103" />
          </g>
        </g>
        <g
           id="line2d_21">
          <path
             d="m 298.77,197.64572 h 15 15"
             style="fill:none;stroke:#ce4f01;stroke-width:3;stroke-linecap:square"
             id="path103" />
        </g>
        <g
           id="text_17">
          <!-- $\nu = 10^{15}$ -->
          <g
             style="fill:#ffffff"
             transform="matrix(0.15,0,0,-0.15,340.77,202.89572)"
             id="g109">
            <use
               xlink:href="#DejaVuSerif-Italic-3bd"
               transform="translate(0,0.7125)"
               id="use104" />
            <use
               xlink:href="#DejaVuSerif-3d"
               transform="translate(79.755859,0.7125)"
               id="use105" />
            <use
               xlink:href="#DejaVuSerif-31"
               transform="translate(182.50977,0.7125)"
               id="use106" />
            <use
               xlink:href="#DejaVuSerif-30"
               transform="translate(246.13281,0.7125)"
               id="use107" />
            <use
               xlink:href="#DejaVuSerif-31"
               transform="matrix(0.7,0,0,0.7,310.66422,37.046875)"
               id="use108" />
            <use
               xlink:href="#DejaVuSerif-35"
               transform="matrix(0.7,0,0,0.7,355.20035,37.046875)"
               id="use109" />
          </g>
        </g>
        <g
           id="line2d_22">
          <path
             d="m 298.77,219.66291 h 15 15"
             style="fill:none;stroke:#e16904;stroke-width:3;stroke-linecap:square"
             id="path109" />
        </g>
        <g
           id="text_18">
          <!-- $\nu = 10^{16}$ -->
          <g
             style="fill:#ffffff"
             transform="matrix(0.15,0,0,-0.15,340.77,224.91291)"
             id="g115">
            <use
               xlink:href="#DejaVuSerif-Italic-3bd"
               transform="translate(0,0.7125)"
               id="use110" />
            <use
               xlink:href="#DejaVuSerif-3d"
               transform="translate(79.755859,0.7125)"
               id="use111" />
            <use
               xlink:href="#DejaVuSerif-31"
               transform="translate(182.50977,0.7125)"
               id="use112" />
            <use
               xlink:href="#DejaVuSerif-30"
               transform="translate(246.13281,0.7125)"
               id="use113" />
            <use
               xlink:href="#DejaVuSerif-31"
               transform="matrix(0.7,0,0,0.7,310.66422,37.046875)"
               id="use114" />
            <use
               xlink:href="#DejaVuSerif-36"
               transform="matrix(0.7,0,0,0.7,355.20035,37.046875)"
               id="use115" />
          </g>
        </g>
        <g
           id="line2d_23">
          <path
             d="m 298.77,241.68009 h 15 15"
             style="fill:none;stroke:#f98811;stroke-width:3;stroke-linecap:square"
             id="path115" />
        </g>
        <g
           id="text_19">
          <!-- $\nu = 10^{17}$ -->
          <g
             style="fill:#ffffff"
             transform="matrix(0.15,0,0,-0.15,340.77,246.93009)"
             id="g121">
            <defs
               id="defs115">
              <path
                 id="DejaVuSerif-37"
                 d="M 3609,4347 1784,0 H 1319 L 3059,4153 H 903 V 3578 H 538 v 1088 h 3071 z"
                 transform="scale(0.015625)" />
            </defs>
            <use
               xlink:href="#DejaVuSerif-Italic-3bd"
               transform="translate(0,0.7125)"
               id="use116" />
            <use
               xlink:href="#DejaVuSerif-3d"
               transform="translate(79.755859,0.7125)"
               id="use117" />
            <use
               xlink:href="#DejaVuSerif-31"
               transform="translate(182.50977,0.7125)"
               id="use118" />
            <use
               xlink:href="#DejaVuSerif-30"
               transform="translate(246.13281,0.7125)"
               id="use119" />
            <use
               xlink:href="#DejaVuSerif-31"
               transform="matrix(0.7,0,0,0.7,310.66422,37.046875)"
               id="use120" />
            <use
               xlink:href="#DejaVuSerif-37"
               transform="matrix(0.7,0,0,0.7,355.20035,37.046875)"
               id="use121" />
          </g>
        </g>
        <g
           id="line2d_24">
          <path
             d="m 298.77,263.69728 h 15 15"
             style="fill:none;stroke:#ffac2b;stroke-width:3;stroke-linecap:square"
             id="path121" />
        </g>
        <g
           id="text_20">
          <!-- $\nu = 10^{18}$ -->
          <g
             style="fill:#ffffff"
             transform="matrix(0.15,0,0,-0.15,340.77,268.94728)"
             id="g127">
            <defs
               id="defs121">
              <path
                 id="DejaVuSerif-38"
                 d="m 2981,1275 q 0,500 -249,776 -248,277 -698,277 -450,0 -698,-277 -248,-276 -248,-776 0,-503 248,-780 248,-276 698,-276 450,0 698,276 249,277 249,780 z m -128,2266 q 0,425 -216,662 -215,238 -603,238 -384,0 -601,-238 -217,-237 -217,-662 0,-428 217,-666 217,-237 601,-237 388,0 603,237 216,238 216,666 z M 2516,2484 q 531,-71 828,-392 297,-320 297,-817 Q 3641,619 3225,264 2809,-91 2034,-91 1263,-91 845,264 428,619 428,1275 q 0,497 297,817 297,321 831,392 -472,85 -724,358 -251,274 -251,699 0,562 387,885 388,324 1066,324 679,0 1066,-324 388,-323 388,-885 0,-425 -252,-699 -252,-273 -720,-358 z"
                 transform="scale(0.015625)" />
            </defs>
            <use
               xlink:href="#DejaVuSerif-Italic-3bd"
               transform="translate(0,0.7125)"
               id="use122" />
            <use
               xlink:href="#DejaVuSerif-3d"
               transform="translate(79.755859,0.7125)"
               id="use123" />
            <use
               xlink:href="#DejaVuSerif-31"
               transform="translate(182.50977,0.7125)"
               id="use124" />
            <use
               xlink:href="#DejaVuSerif-30"
               transform="translate(246.13281,0.7125)"
               id="use125" />
            <use
               xlink:href="#DejaVuSerif-31"
               transform="matrix(0.7,0,0,0.7,310.66422,37.046875)"
               id="use126" />
            <use
               xlink:href="#DejaVuSerif-38"
               transform="matrix(0.7,0,0,0.7,355.20035,37.046875)"
               id="use127" />
          </g>
        </g>
        <g
           id="line2d_25">
          <path
             d="m 298.77,285.71447 h 15 15"
             style="fill:none;stroke:#ffcb58;stroke-width:3;stroke-linecap:square"
             id="path127" />
        </g>
        <g
           id="text_21">
          <!-- $\nu = 10^{19}$ -->
          <g
             style="fill:#ffffff"
             transform="matrix(0.15,0,0,-0.15,340.77,290.96447)"
             id="g133">
            <defs
               id="defs127">
              <path
                 id="DejaVuSerif-39"
                 d="m 2994,2091 q -210,-235 -482,-351 -271,-115 -612,-115 -694,0 -1096,419 -401,419 -401,1144 0,709 436,1135 436,427 1164,427 791,0 1214,-589 424,-589 424,-1683 Q 3641,1253 3137,581 2634,-91 1722,-91 1475,-91 1203,-44 931,3 647,97 v 775 h 350 q 41,-316 244,-485 203,-168 543,-168 607,0 903,457 297,458 307,1415 z M 1978,4441 q -444,0 -680,-324 -235,-323 -235,-929 0,-607 235,-932 236,-325 680,-325 444,0 680,314 236,314 236,905 0,622 -238,956 -237,335 -678,335 z"
                 transform="scale(0.015625)" />
            </defs>
            <use
               xlink:href="#DejaVuSerif-Italic-3bd"
               transform="translate(0,0.7125)"
               id="use128" />
            <use
               xlink:href="#DejaVuSerif-3d"
               transform="translate(79.755859,0.7125)"
               id="use129" />
            <use
               xlink:href="#DejaVuSerif-31"
               transform="translate(182.50977,0.7125)"
               id="use130" />
            <use
               xlink:href="#DejaVuSerif-30"
               transform="translate(246.13281,0.7125)"
               id="use131" />
            <use
               xlink:href="#DejaVuSerif-31"
               transform="matrix(0.7,0,0,0.7,310.66422,37.046875)"
               id="use132" />
            <use
               xlink:href="#DejaVuSerif-39"
               transform="matrix(0.7,0,0,0.7,355.20035,37.046875)"
               id="use133" />
          </g>
        </g>
      </g>
    </g>
  </g>
  <defs
     id="defs133">
    <clipPath
       id="pab048aea16">
      <rect
         x="57.599998"
         y="41.472"
         width="357.12"
         height="266.112"
         id="rect133" />
    </clipPath>
  </defs>
</svg>
