<?xml version="1.0" encoding="utf-8" standalone="no"?>
<!DOCTYPE svg PUBLIC "-//W3C//DTD SVG 1.1//EN"
  "http://www.w3.org/Graphics/SVG/1.1/DTD/svg11.dtd">
<svg xmlns:xlink="http://www.w3.org/1999/xlink" width="460.8pt" height="345.6pt" viewBox="0 0 460.8 345.6" xmlns="http://www.w3.org/2000/svg" version="1.1">
 <metadata>
  <rdf:RDF xmlns:dc="http://purl.org/dc/elements/1.1/" xmlns:cc="http://creativecommons.org/ns#" xmlns:rdf="http://www.w3.org/1999/02/22-rdf-syntax-ns#">
   <cc:Work>
    <dc:type rdf:resource="http://purl.org/dc/dcmitype/StillImage"/>
    <dc:date>2023-12-14T21:31:28.641298</dc:date>
    <dc:format>image/svg+xml</dc:format>
    <dc:creator>
     <cc:Agent>
      <dc:title>Matplotlib v3.7.2, https://matplotlib.org/</dc:title>
     </cc:Agent>
    </dc:creator>
   </cc:Work>
  </rdf:RDF>
 </metadata>
 <defs>
  <style type="text/css">*{stroke-linejoin: round; stroke-linecap: butt}</style>
 </defs>
 <g id="figure_1">
  <g id="patch_1">
   <path d="M 0 345.6 
L 460.8 345.6 
L 460.8 0 
L 0 0 
L 0 345.6 
z
" style="fill: none"/>
  </g>
  <g id="axes_1">
   <g id="patch_2">
    <path d="M 57.6 307.584 
L 414.72 307.584 
L 414.72 41.472 
L 57.6 41.472 
L 57.6 307.584 
z
" style="fill: none"/>
   </g>
   <g id="matplotlib.axis_1">
    <g id="xtick_1">
     <g id="line2d_1">
      <defs>
       <path id="m5d84d35182" d="M 0 0 
L 0 3.5 
" style="stroke: #000000; stroke-width: 0.8"/>
      </defs>
      <g>
       <use xlink:href="#m5d84d35182" x="104.248089" y="307.584" style="stroke: #000000; stroke-width: 0.8"/>
      </g>
     </g>
     <g id="text_1">
      <!-- 4.0 -->
      <g style="fill: #ffffff" transform="translate(91.525589 326.7415) scale(0.16 -0.16)">
       <defs>
        <path id="DejaVuSerif-34" d="M 2234 1581 
L 2234 4063 
L 641 1581 
L 2234 1581 
z
M 3609 0 
L 1484 0 
L 1484 331 
L 2234 331 
L 2234 1247 
L 197 1247 
L 197 1588 
L 2241 4750 
L 2859 4750 
L 2859 1581 
L 3750 1581 
L 3750 1247 
L 2859 1247 
L 2859 331 
L 3609 331 
L 3609 0 
z
" transform="scale(0.015625)"/>
        <path id="DejaVuSerif-2e" d="M 603 325 
Q 603 500 722 622 
Q 841 744 1019 744 
Q 1191 744 1312 622 
Q 1434 500 1434 325 
Q 1434 153 1312 31 
Q 1191 -91 1019 -91 
Q 841 -91 722 29 
Q 603 150 603 325 
z
" transform="scale(0.015625)"/>
        <path id="DejaVuSerif-30" d="M 2034 219 
Q 2513 219 2750 744 
Q 2988 1269 2988 2328 
Q 2988 3391 2750 3916 
Q 2513 4441 2034 4441 
Q 1556 4441 1318 3916 
Q 1081 3391 1081 2328 
Q 1081 1269 1318 744 
Q 1556 219 2034 219 
z
M 2034 -91 
Q 1275 -91 848 546 
Q 422 1184 422 2328 
Q 422 3475 848 4112 
Q 1275 4750 2034 4750 
Q 2797 4750 3222 4112 
Q 3647 3475 3647 2328 
Q 3647 1184 3222 546 
Q 2797 -91 2034 -91 
z
" transform="scale(0.015625)"/>
       </defs>
       <use xlink:href="#DejaVuSerif-34"/>
       <use xlink:href="#DejaVuSerif-2e" x="63.623047"/>
       <use xlink:href="#DejaVuSerif-30" x="95.410156"/>
      </g>
     </g>
    </g>
    <g id="xtick_2">
     <g id="line2d_2">
      <g>
       <use xlink:href="#m5d84d35182" x="161.096328" y="307.584" style="stroke: #000000; stroke-width: 0.8"/>
      </g>
     </g>
     <g id="text_2">
      <!-- 4.5 -->
      <g style="fill: #ffffff" transform="translate(148.373828 326.7415) scale(0.16 -0.16)">
       <defs>
        <path id="DejaVuSerif-35" d="M 3219 4666 
L 3219 4153 
L 1081 4153 
L 1081 2816 
Q 1244 2928 1461 2984 
Q 1678 3041 1947 3041 
Q 2703 3041 3140 2622 
Q 3578 2203 3578 1478 
Q 3578 738 3136 323 
Q 2694 -91 1894 -91 
Q 1572 -91 1234 -12 
Q 897 66 544 225 
L 544 1131 
L 897 1131 
Q 925 688 1179 453 
Q 1434 219 1894 219 
Q 2388 219 2653 544 
Q 2919 869 2919 1478 
Q 2919 2084 2655 2407 
Q 2391 2731 1894 2731 
Q 1613 2731 1398 2631 
Q 1184 2531 1019 2322 
L 750 2322 
L 750 4666 
L 3219 4666 
z
" transform="scale(0.015625)"/>
       </defs>
       <use xlink:href="#DejaVuSerif-34"/>
       <use xlink:href="#DejaVuSerif-2e" x="63.623047"/>
       <use xlink:href="#DejaVuSerif-35" x="95.410156"/>
      </g>
     </g>
    </g>
    <g id="xtick_3">
     <g id="line2d_3">
      <g>
       <use xlink:href="#m5d84d35182" x="217.944567" y="307.584" style="stroke: #000000; stroke-width: 0.8"/>
      </g>
     </g>
     <g id="text_3">
      <!-- 5.0 -->
      <g style="fill: #ffffff" transform="translate(205.222067 326.7415) scale(0.16 -0.16)">
       <use xlink:href="#DejaVuSerif-35"/>
       <use xlink:href="#DejaVuSerif-2e" x="63.623047"/>
       <use xlink:href="#DejaVuSerif-30" x="95.410156"/>
      </g>
     </g>
    </g>
    <g id="xtick_4">
     <g id="line2d_4">
      <g>
       <use xlink:href="#m5d84d35182" x="274.792805" y="307.584" style="stroke: #000000; stroke-width: 0.8"/>
      </g>
     </g>
     <g id="text_4">
      <!-- 5.5 -->
      <g style="fill: #ffffff" transform="translate(262.070305 326.7415) scale(0.16 -0.16)">
       <use xlink:href="#DejaVuSerif-35"/>
       <use xlink:href="#DejaVuSerif-2e" x="63.623047"/>
       <use xlink:href="#DejaVuSerif-35" x="95.410156"/>
      </g>
     </g>
    </g>
    <g id="xtick_5">
     <g id="line2d_5">
      <g>
       <use xlink:href="#m5d84d35182" x="331.641044" y="307.584" style="stroke: #000000; stroke-width: 0.8"/>
      </g>
     </g>
     <g id="text_5">
      <!-- 6.0 -->
      <g style="fill: #ffffff" transform="translate(318.918544 326.7415) scale(0.16 -0.16)">
       <defs>
        <path id="DejaVuSerif-36" d="M 2094 219 
Q 2534 219 2771 542 
Q 3009 866 3009 1472 
Q 3009 2078 2771 2401 
Q 2534 2725 2094 2725 
Q 1647 2725 1412 2412 
Q 1178 2100 1178 1509 
Q 1178 888 1415 553 
Q 1653 219 2094 219 
z
M 1075 2569 
Q 1288 2803 1556 2918 
Q 1825 3034 2163 3034 
Q 2859 3034 3264 2615 
Q 3669 2197 3669 1472 
Q 3669 763 3233 336 
Q 2797 -91 2069 -91 
Q 1278 -91 853 498 
Q 428 1088 428 2181 
Q 428 3406 931 4078 
Q 1434 4750 2350 4750 
Q 2597 4750 2869 4703 
Q 3141 4656 3425 4563 
L 3425 3794 
L 3072 3794 
Q 3034 4109 2831 4275 
Q 2628 4441 2284 4441 
Q 1678 4441 1381 3981 
Q 1084 3522 1075 2569 
z
" transform="scale(0.015625)"/>
       </defs>
       <use xlink:href="#DejaVuSerif-36"/>
       <use xlink:href="#DejaVuSerif-2e" x="63.623047"/>
       <use xlink:href="#DejaVuSerif-30" x="95.410156"/>
      </g>
     </g>
    </g>
    <g id="xtick_6">
     <g id="line2d_6">
      <g>
       <use xlink:href="#m5d84d35182" x="388.489283" y="307.584" style="stroke: #000000; stroke-width: 0.8"/>
      </g>
     </g>
     <g id="text_6">
      <!-- 6.5 -->
      <g style="fill: #ffffff" transform="translate(375.766783 326.7415) scale(0.16 -0.16)">
       <use xlink:href="#DejaVuSerif-36"/>
       <use xlink:href="#DejaVuSerif-2e" x="63.623047"/>
       <use xlink:href="#DejaVuSerif-35" x="95.410156"/>
      </g>
     </g>
    </g>
    <g id="text_7">
     <!-- Temperature / $K$ -->
     <g style="fill: #ffffff" transform="translate(152.66 349.22525) scale(0.2 -0.2)">
      <defs>
       <path id="DejaVuSerif-54" d="M 1222 0 
L 1222 331 
L 1819 331 
L 1819 4294 
L 447 4294 
L 447 3566 
L 63 3566 
L 63 4666 
L 4206 4666 
L 4206 3566 
L 3822 3566 
L 3822 4294 
L 2450 4294 
L 2450 331 
L 3047 331 
L 3047 0 
L 1222 0 
z
" transform="scale(0.015625)"/>
       <path id="DejaVuSerif-65" d="M 3469 1600 
L 991 1600 
L 991 1575 
Q 991 903 1244 561 
Q 1497 219 1991 219 
Q 2369 219 2611 417 
Q 2853 616 2950 1006 
L 3413 1006 
Q 3275 459 2904 184 
Q 2534 -91 1931 -91 
Q 1203 -91 761 389 
Q 319 869 319 1663 
Q 319 2450 753 2931 
Q 1188 3413 1894 3413 
Q 2647 3413 3050 2948 
Q 3453 2484 3469 1600 
z
M 2791 1931 
Q 2772 2513 2545 2808 
Q 2319 3103 1894 3103 
Q 1497 3103 1269 2806 
Q 1041 2509 991 1931 
L 2791 1931 
z
" transform="scale(0.015625)"/>
       <path id="DejaVuSerif-6d" d="M 3316 2675 
Q 3481 3041 3739 3227 
Q 3997 3413 4341 3413 
Q 4863 3413 5119 3089 
Q 5375 2766 5375 2113 
L 5375 331 
L 5894 331 
L 5894 0 
L 4300 0 
L 4300 331 
L 4800 331 
L 4800 2047 
Q 4800 2556 4650 2772 
Q 4500 2988 4153 2988 
Q 3769 2988 3567 2697 
Q 3366 2406 3366 1850 
L 3366 331 
L 3866 331 
L 3866 0 
L 2291 0 
L 2291 331 
L 2791 331 
L 2791 2069 
Q 2791 2566 2641 2777 
Q 2491 2988 2144 2988 
Q 1759 2988 1557 2697 
Q 1356 2406 1356 1850 
L 1356 331 
L 1856 331 
L 1856 0 
L 263 0 
L 263 331 
L 781 331 
L 781 2994 
L 231 2994 
L 231 3322 
L 1356 3322 
L 1356 2731 
Q 1516 3063 1762 3238 
Q 2009 3413 2322 3413 
Q 2709 3413 2968 3220 
Q 3228 3028 3316 2675 
z
" transform="scale(0.015625)"/>
       <path id="DejaVuSerif-70" d="M 1313 1825 
L 1313 1497 
Q 1313 897 1542 583 
Q 1772 269 2209 269 
Q 2650 269 2876 622 
Q 3103 975 3103 1663 
Q 3103 2353 2876 2703 
Q 2650 3053 2209 3053 
Q 1772 3053 1542 2737 
Q 1313 2422 1313 1825 
z
M 738 2988 
L 184 2988 
L 184 3322 
L 1313 3322 
L 1313 2803 
Q 1481 3116 1742 3264 
Q 2003 3413 2388 3413 
Q 3000 3413 3387 2928 
Q 3775 2444 3775 1663 
Q 3775 881 3387 395 
Q 3000 -91 2388 -91 
Q 2003 -91 1742 57 
Q 1481 206 1313 519 
L 1313 -997 
L 1856 -997 
L 1856 -1331 
L 184 -1331 
L 184 -997 
L 738 -997 
L 738 2988 
z
" transform="scale(0.015625)"/>
       <path id="DejaVuSerif-72" d="M 3059 3328 
L 3059 2497 
L 2728 2497 
Q 2713 2744 2591 2866 
Q 2469 2988 2234 2988 
Q 1809 2988 1582 2694 
Q 1356 2400 1356 1850 
L 1356 331 
L 2022 331 
L 2022 0 
L 263 0 
L 263 331 
L 781 331 
L 781 2994 
L 231 2994 
L 231 3322 
L 1356 3322 
L 1356 2731 
Q 1525 3078 1790 3245 
Q 2056 3413 2438 3413 
Q 2578 3413 2733 3391 
Q 2888 3369 3059 3328 
z
" transform="scale(0.015625)"/>
       <path id="DejaVuSerif-61" d="M 2547 1044 
L 2547 1747 
L 1806 1747 
Q 1378 1747 1168 1562 
Q 959 1378 959 997 
Q 959 650 1171 447 
Q 1384 244 1747 244 
Q 2106 244 2326 466 
Q 2547 688 2547 1044 
z
M 3122 2075 
L 3122 331 
L 3634 331 
L 3634 0 
L 2547 0 
L 2547 359 
Q 2356 128 2106 18 
Q 1856 -91 1522 -91 
Q 969 -91 644 203 
Q 319 497 319 997 
Q 319 1513 691 1797 
Q 1063 2081 1741 2081 
L 2547 2081 
L 2547 2309 
Q 2547 2688 2317 2895 
Q 2088 3103 1672 3103 
Q 1328 3103 1125 2947 
Q 922 2791 872 2484 
L 575 2484 
L 575 3156 
Q 875 3284 1158 3348 
Q 1441 3413 1709 3413 
Q 2400 3413 2761 3070 
Q 3122 2728 3122 2075 
z
" transform="scale(0.015625)"/>
       <path id="DejaVuSerif-74" d="M 691 2988 
L 184 2988 
L 184 3322 
L 691 3322 
L 691 4353 
L 1269 4353 
L 1269 3322 
L 2350 3322 
L 2350 2988 
L 1269 2988 
L 1269 878 
Q 1269 456 1350 337 
Q 1431 219 1650 219 
Q 1875 219 1978 351 
Q 2081 484 2088 781 
L 2522 781 
Q 2497 328 2275 118 
Q 2053 -91 1600 -91 
Q 1103 -91 897 129 
Q 691 350 691 878 
L 691 2988 
z
" transform="scale(0.015625)"/>
       <path id="DejaVuSerif-75" d="M 2266 3322 
L 3341 3322 
L 3341 331 
L 3884 331 
L 3884 0 
L 2766 0 
L 2766 588 
Q 2606 256 2353 82 
Q 2100 -91 1766 -91 
Q 1213 -91 952 223 
Q 691 538 691 1209 
L 691 2988 
L 172 2988 
L 172 3322 
L 1269 3322 
L 1269 1388 
Q 1269 781 1417 556 
Q 1566 331 1947 331 
Q 2347 331 2556 625 
Q 2766 919 2766 1478 
L 2766 2988 
L 2266 2988 
L 2266 3322 
z
" transform="scale(0.015625)"/>
       <path id="DejaVuSerif-20" transform="scale(0.015625)"/>
       <path id="DejaVuSerif-2f" d="M 1656 4666 
L 2156 4666 
L 500 -594 
L 0 -594 
L 1656 4666 
z
" transform="scale(0.015625)"/>
       <path id="DejaVuSerif-Italic-4b" d="M -97 0 
L -34 331 
L 559 331 
L 1338 4331 
L 744 4331 
L 809 4666 
L 2631 4666 
L 2566 4331 
L 1972 4331 
L 1628 2566 
L 3981 4331 
L 3475 4331 
L 3541 4666 
L 5091 4666 
L 5025 4331 
L 4500 4331 
L 2156 2572 
L 3959 331 
L 4491 331 
L 4428 0 
L 3344 0 
L 1563 2216 
L 1194 331 
L 1788 331 
L 1725 0 
L -97 0 
z
" transform="scale(0.015625)"/>
      </defs>
      <use xlink:href="#DejaVuSerif-54" transform="translate(0 0.09375)"/>
      <use xlink:href="#DejaVuSerif-65" transform="translate(66.699219 0.09375)"/>
      <use xlink:href="#DejaVuSerif-6d" transform="translate(125.878906 0.09375)"/>
      <use xlink:href="#DejaVuSerif-70" transform="translate(220.703125 0.09375)"/>
      <use xlink:href="#DejaVuSerif-65" transform="translate(284.716797 0.09375)"/>
      <use xlink:href="#DejaVuSerif-72" transform="translate(343.896484 0.09375)"/>
      <use xlink:href="#DejaVuSerif-61" transform="translate(391.699219 0.09375)"/>
      <use xlink:href="#DejaVuSerif-74" transform="translate(451.318359 0.09375)"/>
      <use xlink:href="#DejaVuSerif-75" transform="translate(491.503906 0.09375)"/>
      <use xlink:href="#DejaVuSerif-72" transform="translate(555.908203 0.09375)"/>
      <use xlink:href="#DejaVuSerif-65" transform="translate(603.710938 0.09375)"/>
      <use xlink:href="#DejaVuSerif-20" transform="translate(662.890625 0.09375)"/>
      <use xlink:href="#DejaVuSerif-2f" transform="translate(694.677734 0.09375)"/>
      <use xlink:href="#DejaVuSerif-20" transform="translate(728.369141 0.09375)"/>
      <use xlink:href="#DejaVuSerif-Italic-4b" transform="translate(760.15625 0.09375)"/>
     </g>
    </g>
   </g>
   <g id="matplotlib.axis_2">
    <g id="ytick_1">
     <g id="line2d_7">
      <defs>
       <path id="m33b98fd17c" d="M 0 0 
L -3.5 0 
" style="stroke: #ffffff; stroke-width: 0.8"/>
      </defs>
      <g>
       <use xlink:href="#m33b98fd17c" x="57.6" y="290.561123" style="fill: #ffffff; stroke: #ffffff; stroke-width: 0.8"/>
      </g>
     </g>
     <g id="text_8">
      <!-- −300 -->
      <g style="fill: #ffffff" transform="translate(6.6525 296.639873) scale(0.16 -0.16)">
       <defs>
        <path id="DejaVuSerif-2212" d="M 678 2259 
L 4684 2259 
L 4684 1753 
L 678 1753 
L 678 2259 
z
" transform="scale(0.015625)"/>
        <path id="DejaVuSerif-33" d="M 622 4469 
Q 988 4606 1323 4678 
Q 1659 4750 1953 4750 
Q 2638 4750 3022 4454 
Q 3406 4159 3406 3634 
Q 3406 3213 3140 2930 
Q 2875 2647 2388 2547 
Q 2963 2466 3280 2130 
Q 3597 1794 3597 1259 
Q 3597 606 3158 257 
Q 2719 -91 1894 -91 
Q 1528 -91 1179 -12 
Q 831 66 488 225 
L 488 1131 
L 838 1131 
Q 869 681 1141 450 
Q 1413 219 1906 219 
Q 2384 219 2661 495 
Q 2938 772 2938 1253 
Q 2938 1803 2653 2086 
Q 2369 2369 1819 2369 
L 1522 2369 
L 1522 2688 
L 1678 2688 
Q 2225 2688 2498 2914 
Q 2772 3141 2772 3597 
Q 2772 4006 2547 4223 
Q 2322 4441 1900 4441 
Q 1478 4441 1245 4241 
Q 1013 4041 972 3647 
L 622 3647 
L 622 4469 
z
" transform="scale(0.015625)"/>
       </defs>
       <use xlink:href="#DejaVuSerif-2212"/>
       <use xlink:href="#DejaVuSerif-33" x="83.789062"/>
       <use xlink:href="#DejaVuSerif-30" x="147.412109"/>
       <use xlink:href="#DejaVuSerif-30" x="211.035156"/>
      </g>
     </g>
    </g>
    <g id="ytick_2">
     <g id="line2d_8">
      <g>
       <use xlink:href="#m33b98fd17c" x="57.6" y="251.229554" style="fill: #ffffff; stroke: #ffffff; stroke-width: 0.8"/>
      </g>
     </g>
     <g id="text_9">
      <!-- −250 -->
      <g style="fill: #ffffff" transform="translate(6.6525 257.308304) scale(0.16 -0.16)">
       <defs>
        <path id="DejaVuSerif-32" d="M 819 3553 
L 469 3553 
L 469 4384 
Q 803 4563 1142 4656 
Q 1481 4750 1806 4750 
Q 2534 4750 2956 4397 
Q 3378 4044 3378 3438 
Q 3378 2753 2422 1800 
Q 2347 1728 2309 1691 
L 1131 513 
L 3078 513 
L 3078 1088 
L 3444 1088 
L 3444 0 
L 434 0 
L 434 341 
L 1850 1753 
Q 2319 2222 2519 2614 
Q 2719 3006 2719 3438 
Q 2719 3909 2473 4175 
Q 2228 4441 1797 4441 
Q 1350 4441 1106 4219 
Q 863 3997 819 3553 
z
" transform="scale(0.015625)"/>
       </defs>
       <use xlink:href="#DejaVuSerif-2212"/>
       <use xlink:href="#DejaVuSerif-32" x="83.789062"/>
       <use xlink:href="#DejaVuSerif-35" x="147.412109"/>
       <use xlink:href="#DejaVuSerif-30" x="211.035156"/>
      </g>
     </g>
    </g>
    <g id="ytick_3">
     <g id="line2d_9">
      <g>
       <use xlink:href="#m33b98fd17c" x="57.6" y="211.897984" style="fill: #ffffff; stroke: #ffffff; stroke-width: 0.8"/>
      </g>
     </g>
     <g id="text_10">
      <!-- −200 -->
      <g style="fill: #ffffff" transform="translate(6.6525 217.976734) scale(0.16 -0.16)">
       <use xlink:href="#DejaVuSerif-2212"/>
       <use xlink:href="#DejaVuSerif-32" x="83.789062"/>
       <use xlink:href="#DejaVuSerif-30" x="147.412109"/>
       <use xlink:href="#DejaVuSerif-30" x="211.035156"/>
      </g>
     </g>
    </g>
    <g id="ytick_4">
     <g id="line2d_10">
      <g>
       <use xlink:href="#m33b98fd17c" x="57.6" y="172.566415" style="fill: #ffffff; stroke: #ffffff; stroke-width: 0.8"/>
      </g>
     </g>
     <g id="text_11">
      <!-- −150 -->
      <g style="fill: #ffffff" transform="translate(6.6525 178.645165) scale(0.16 -0.16)">
       <defs>
        <path id="DejaVuSerif-31" d="M 909 0 
L 909 331 
L 1722 331 
L 1722 4213 
L 781 3603 
L 781 4013 
L 1919 4750 
L 2350 4750 
L 2350 331 
L 3163 331 
L 3163 0 
L 909 0 
z
" transform="scale(0.015625)"/>
       </defs>
       <use xlink:href="#DejaVuSerif-2212"/>
       <use xlink:href="#DejaVuSerif-31" x="83.789062"/>
       <use xlink:href="#DejaVuSerif-35" x="147.412109"/>
       <use xlink:href="#DejaVuSerif-30" x="211.035156"/>
      </g>
     </g>
    </g>
    <g id="ytick_5">
     <g id="line2d_11">
      <g>
       <use xlink:href="#m33b98fd17c" x="57.6" y="133.234846" style="fill: #ffffff; stroke: #ffffff; stroke-width: 0.8"/>
      </g>
     </g>
     <g id="text_12">
      <!-- −100 -->
      <g style="fill: #ffffff" transform="translate(6.6525 139.313596) scale(0.16 -0.16)">
       <use xlink:href="#DejaVuSerif-2212"/>
       <use xlink:href="#DejaVuSerif-31" x="83.789062"/>
       <use xlink:href="#DejaVuSerif-30" x="147.412109"/>
       <use xlink:href="#DejaVuSerif-30" x="211.035156"/>
      </g>
     </g>
    </g>
    <g id="ytick_6">
     <g id="line2d_12">
      <g>
       <use xlink:href="#m33b98fd17c" x="57.6" y="93.903277" style="fill: #ffffff; stroke: #ffffff; stroke-width: 0.8"/>
      </g>
     </g>
     <g id="text_13">
      <!-- −50 -->
      <g style="fill: #ffffff" transform="translate(16.8325 99.982027) scale(0.16 -0.16)">
       <use xlink:href="#DejaVuSerif-2212"/>
       <use xlink:href="#DejaVuSerif-35" x="83.789062"/>
       <use xlink:href="#DejaVuSerif-30" x="147.412109"/>
      </g>
     </g>
    </g>
    <g id="ytick_7">
     <g id="line2d_13">
      <g>
       <use xlink:href="#m33b98fd17c" x="57.6" y="54.571708" style="fill: #ffffff; stroke: #ffffff; stroke-width: 0.8"/>
      </g>
     </g>
     <g id="text_14">
      <!-- 0 -->
      <g style="fill: #ffffff" transform="translate(40.42 60.650458) scale(0.16 -0.16)">
       <use xlink:href="#DejaVuSerif-30"/>
      </g>
     </g>
    </g>
    <g id="text_15">
     <!-- Log$_{10}$(Flux / $W m^{-2}$) -->
     <g style="fill: #ffffff" transform="translate(-1.9475 273.428) rotate(-90) scale(0.2 -0.2)">
      <defs>
       <path id="DejaVuSerif-4c" d="M 353 0 
L 353 331 
L 947 331 
L 947 4331 
L 353 4331 
L 353 4666 
L 2175 4666 
L 2175 4331 
L 1581 4331 
L 1581 384 
L 3713 384 
L 3713 1166 
L 4097 1166 
L 4097 0 
L 353 0 
z
" transform="scale(0.015625)"/>
       <path id="DejaVuSerif-6f" d="M 1925 219 
Q 2388 219 2623 584 
Q 2859 950 2859 1663 
Q 2859 2375 2623 2739 
Q 2388 3103 1925 3103 
Q 1463 3103 1227 2739 
Q 991 2375 991 1663 
Q 991 950 1228 584 
Q 1466 219 1925 219 
z
M 1925 -91 
Q 1200 -91 759 389 
Q 319 869 319 1663 
Q 319 2456 758 2934 
Q 1197 3413 1925 3413 
Q 2653 3413 3092 2934 
Q 3531 2456 3531 1663 
Q 3531 869 3092 389 
Q 2653 -91 1925 -91 
z
" transform="scale(0.015625)"/>
       <path id="DejaVuSerif-67" d="M 3359 2988 
L 3359 72 
Q 3359 -644 2965 -1033 
Q 2572 -1422 1844 -1422 
Q 1516 -1422 1216 -1362 
Q 916 -1303 641 -1184 
L 641 -488 
L 941 -488 
Q 997 -813 1206 -963 
Q 1416 -1113 1806 -1113 
Q 2313 -1113 2548 -827 
Q 2784 -541 2784 72 
L 2784 519 
Q 2616 206 2355 57 
Q 2094 -91 1709 -91 
Q 1097 -91 708 395 
Q 319 881 319 1663 
Q 319 2444 706 2928 
Q 1094 3413 1709 3413 
Q 2094 3413 2355 3264 
Q 2616 3116 2784 2803 
L 2784 3322 
L 3909 3322 
L 3909 2988 
L 3359 2988 
z
M 2784 1825 
Q 2784 2422 2554 2737 
Q 2325 3053 1888 3053 
Q 1444 3053 1217 2703 
Q 991 2353 991 1663 
Q 991 975 1217 622 
Q 1444 269 1888 269 
Q 2325 269 2554 583 
Q 2784 897 2784 1497 
L 2784 1825 
z
" transform="scale(0.015625)"/>
       <path id="DejaVuSerif-28" d="M 2041 -997 
Q 1281 -656 893 83 
Q 506 822 506 1931 
Q 506 3044 893 3783 
Q 1281 4522 2041 4863 
L 2041 4556 
Q 1559 4225 1350 3623 
Q 1141 3022 1141 1931 
Q 1141 844 1350 242 
Q 1559 -359 2041 -691 
L 2041 -997 
z
" transform="scale(0.015625)"/>
       <path id="DejaVuSerif-46" d="M 353 0 
L 353 331 
L 947 331 
L 947 4331 
L 353 4331 
L 353 4666 
L 4172 4666 
L 4172 3628 
L 3788 3628 
L 3788 4281 
L 1581 4281 
L 1581 2719 
L 3175 2719 
L 3175 3303 
L 3559 3303 
L 3559 1753 
L 3175 1753 
L 3175 2338 
L 1581 2338 
L 1581 331 
L 2328 331 
L 2328 0 
L 353 0 
z
" transform="scale(0.015625)"/>
       <path id="DejaVuSerif-6c" d="M 1313 331 
L 1856 331 
L 1856 0 
L 184 0 
L 184 331 
L 738 331 
L 738 4531 
L 184 4531 
L 184 4863 
L 1313 4863 
L 1313 331 
z
" transform="scale(0.015625)"/>
       <path id="DejaVuSerif-78" d="M 1863 2028 
L 2559 2988 
L 2113 2988 
L 2113 3322 
L 3391 3322 
L 3391 2988 
L 2950 2988 
L 2059 1759 
L 3097 331 
L 3531 331 
L 3531 0 
L 1997 0 
L 1997 331 
L 2419 331 
L 1697 1325 
L 972 331 
L 1403 331 
L 1403 0 
L 141 0 
L 141 331 
L 581 331 
L 1497 1594 
L 488 2988 
L 78 2988 
L 78 3322 
L 1563 3322 
L 1563 2988 
L 1166 2988 
L 1863 2028 
z
" transform="scale(0.015625)"/>
       <path id="DejaVuSerif-Italic-57" d="M 4425 0 
L 3913 0 
L 3581 3794 
L 1775 0 
L 1263 0 
L 881 4331 
L 419 4331 
L 484 4666 
L 2188 4666 
L 2122 4331 
L 1541 4331 
L 1844 884 
L 3641 4666 
L 4147 4666 
L 4484 844 
L 6141 4331 
L 5603 4331 
L 5669 4666 
L 7013 4666 
L 6947 4331 
L 6488 4331 
L 4425 0 
z
" transform="scale(0.015625)"/>
       <path id="DejaVuSerif-Italic-6d" d="M 3503 2675 
Q 3741 3041 4034 3227 
Q 4328 3413 4672 3413 
Q 5194 3413 5388 3088 
Q 5503 2894 5503 2578 
Q 5503 2372 5453 2113 
L 5106 331 
L 5625 331 
L 5563 0 
L 4469 0 
L 4866 2047 
Q 4913 2291 4913 2466 
Q 4913 2659 4856 2772 
Q 4750 2988 4403 2988 
Q 4019 2988 3761 2697 
Q 3503 2406 3394 1850 
L 3034 0 
L 2459 0 
L 2863 2069 
Q 2906 2303 2906 2472 
Q 2906 2666 2850 2775 
Q 2741 2988 2394 2988 
Q 2009 2988 1751 2697 
Q 1494 2406 1384 1850 
L 1025 0 
L 450 0 
L 1031 2994 
L 481 2994 
L 544 3322 
L 1669 3322 
L 1556 2731 
Q 1778 3063 2059 3238 
Q 2341 3413 2653 3413 
Q 3041 3413 3262 3220 
Q 3484 3028 3503 2675 
z
" transform="scale(0.015625)"/>
       <path id="DejaVuSerif-29" d="M 453 -997 
L 453 -691 
Q 934 -359 1145 242 
Q 1356 844 1356 1931 
Q 1356 3022 1145 3623 
Q 934 4225 453 4556 
L 453 4863 
Q 1216 4522 1603 3783 
Q 1991 3044 1991 1931 
Q 1991 822 1603 83 
Q 1216 -656 453 -997 
z
" transform="scale(0.015625)"/>
      </defs>
      <use xlink:href="#DejaVuSerif-4c" transform="translate(0 0.7125)"/>
      <use xlink:href="#DejaVuSerif-6f" transform="translate(66.40625 0.7125)"/>
      <use xlink:href="#DejaVuSerif-67" transform="translate(126.611328 0.7125)"/>
      <use xlink:href="#DejaVuSerif-31" transform="translate(191.533359 -14.859375) scale(0.7)"/>
      <use xlink:href="#DejaVuSerif-30" transform="translate(236.069492 -14.859375) scale(0.7)"/>
      <use xlink:href="#DejaVuSerif-28" transform="translate(283.200938 0.7125)"/>
      <use xlink:href="#DejaVuSerif-46" transform="translate(322.214609 0.7125)"/>
      <use xlink:href="#DejaVuSerif-6c" transform="translate(391.599375 0.7125)"/>
      <use xlink:href="#DejaVuSerif-75" transform="translate(423.581797 0.7125)"/>
      <use xlink:href="#DejaVuSerif-78" transform="translate(487.986094 0.7125)"/>
      <use xlink:href="#DejaVuSerif-20" transform="translate(544.382578 0.7125)"/>
      <use xlink:href="#DejaVuSerif-2f" transform="translate(576.169688 0.7125)"/>
      <use xlink:href="#DejaVuSerif-20" transform="translate(609.861094 0.7125)"/>
      <use xlink:href="#DejaVuSerif-Italic-57" transform="translate(641.648203 0.7125)"/>
      <use xlink:href="#DejaVuSerif-Italic-6d" transform="translate(744.431406 0.7125)"/>
      <use xlink:href="#DejaVuSerif-2212" transform="translate(843.693698 37.046875) scale(0.7)"/>
      <use xlink:href="#DejaVuSerif-32" transform="translate(902.346042 37.046875) scale(0.7)"/>
      <use xlink:href="#DejaVuSerif-29" transform="translate(949.477487 0.7125)"/>
     </g>
    </g>
   </g>
   <g id="line2d_14">
    <path d="M 398.487273 58.054685 
L 91.087715 60.293862 
L 73.832727 60.463604 
L 73.832727 60.463604 
" clip-path="url(#pab048aea16)" style="fill: none; stroke: #a02a00; stroke-width: 3; stroke-linecap: square"/>
   </g>
   <g id="line2d_15">
    <path d="M 398.487273 56.483329 
L 201.182237 57.967858 
L 151.772591 58.547827 
L 122.703071 59.096588 
L 101.509446 59.712051 
L 84.6178 60.420824 
L 73.832727 61.016665 
L 73.832727 61.016665 
" clip-path="url(#pab048aea16)" style="fill: none; stroke: #ce4f01; stroke-width: 3; stroke-linecap: square"/>
   </g>
   <g id="line2d_16">
    <path d="M 398.487273 54.929338 
L 297.802496 55.780043 
L 256.335548 56.334821 
L 230.068953 56.895738 
L 210.466567 57.527605 
L 194.391525 58.262798 
L 180.796936 59.100224 
L 168.978922 60.04099 
L 158.227017 61.1162 
L 148.544541 62.306609 
L 139.933903 63.580248 
L 132.0379 64.960384 
L 124.49848 66.50099 
L 117.675336 68.113209 
L 111.209901 69.860802 
L 105.102511 71.735608 
L 99.353444 73.725398 
L 93.962935 75.813723 
L 88.571744 78.14325 
L 83.539395 80.55963 
L 78.866038 83.035228 
L 74.192265 85.756829 
L 73.832727 85.977058 
L 73.832727 85.977058 
" clip-path="url(#pab048aea16)" style="fill: none; stroke: #e16904; stroke-width: 3; stroke-linecap: square"/>
   </g>
   <g id="line2d_17">
    <path d="M 398.487273 53.568 
L 362.475875 54.112208 
L 338.249481 54.690353 
L 319.5836 55.353636 
L 304.406155 56.10748 
L 291.174098 56.982245 
L 279.61131 57.964048 
L 269.405691 59.043765 
L 259.872869 60.275157 
L 251.377844 61.591841 
L 243.575395 63.017892 
L 236.11556 64.609049 
L 229.357167 66.273536 
L 222.947383 68.0772 
L 216.887955 70.011603 
L 211.180319 72.064129 
L 205.825658 74.217822 
L 200.467652 76.619783 
L 195.464055 79.110847 
L 190.815617 81.662552 
L 186.165167 84.467419 
L 181.870773 87.302934 
L 177.574875 90.397227 
L 173.277563 93.773944 
L 169.33719 97.139367 
L 165.395764 100.785376 
L 161.45334 104.735385 
L 157.509974 109.014768 
L 153.565716 113.651014 
L 149.979296 118.200474 
L 146.392214 123.093605 
L 142.804503 128.356386 
L 139.216194 134.016765 
L 135.627317 140.104802 
L 132.0379 146.65283 
L 128.447968 153.695626 
L 124.857548 161.2706 
L 121.266663 169.417988 
L 117.675336 178.181071 
L 114.442781 186.632669 
L 111.209901 195.65701 
L 107.976709 205.292927 
L 104.74322 215.581884 
L 101.509446 226.56816 
L 98.2754 238.299036 
L 95.041093 250.824999 
L 91.806538 264.199959 
L 88.571744 278.481482 
L 85.336723 293.73104 
L 84.977263 295.488 
L 84.977263 295.488 
" clip-path="url(#pab048aea16)" style="fill: none; stroke: #f98811; stroke-width: 3; stroke-linecap: square"/>
   </g>
   <g id="line2d_18">
    <path d="M 398.487273 55.135852 
L 387.712766 56.168383 
L 377.772548 57.342928 
L 368.740358 58.635854 
L 360.566941 60.028173 
L 353.144708 61.508534 
L 346.246421 63.098895 
L 339.589658 64.859265 
L 333.538196 66.679094 
L 327.778215 68.631223 
L 322.322618 70.702447 
L 316.8377 73.028771 
L 311.671972 75.469077 
L 306.832177 77.999054 
L 301.976313 80.799296 
L 297.454222 83.666683 
L 292.920639 86.817429 
L 288.726421 90.0015 
L 284.523907 93.475002 
L 280.313715 97.264285 
L 276.448108 101.03972 
L 272.576921 105.128725 
L 268.700519 109.557402 
L 264.81924 114.354029 
L 261.286837 119.059632 
L 257.75088 124.119468 
L 254.211573 129.560265 
L 250.669107 135.410773 
L 247.123659 141.701914 
L 243.575395 148.466951 
L 240.024472 155.741659 
L 236.471037 163.564519 
L 232.915225 171.976923 
L 229.357167 181.023391 
L 225.796983 190.75181 
L 222.591095 200.132946 
L 219.383655 210.14837 
L 216.174738 220.841045 
L 212.964415 232.256848 
L 209.752752 244.444767 
L 206.539812 257.457111 
L 203.325655 271.349735 
L 200.110339 286.182282 
L 198.680952 293.092732 
L 198.680952 293.092732 
" clip-path="url(#pab048aea16)" style="fill: none; stroke: #ffac2b; stroke-width: 3; stroke-linecap: square"/>
   </g>
   <g id="line2d_19">
    <path d="M 398.487273 90.885617 
L 394.610194 94.344433 
L 390.681323 98.137773 
L 386.937497 102.044392 
L 383.176894 106.278343 
L 379.510881 110.728107 
L 375.712471 115.700646 
L 372.110258 120.783184 
L 368.431125 126.371511 
L 365.000919 131.970477 
L 361.522962 138.058752 
L 358.003149 144.672774 
L 354.4464 151.852729 
L 350.856857 159.642711 
L 347.568153 167.294358 
L 344.257547 175.529297 
L 340.927035 184.390042 
L 337.578374 193.922485 
L 334.213116 204.176121 
L 330.832638 215.204301 
L 327.438171 227.064502 
L 324.030816 239.81863 
L 320.611561 253.533339 
L 317.181299 268.280381 
L 313.740838 284.136982 
L 312.361963 290.808708 
L 312.361963 290.808708 
" clip-path="url(#pab048aea16)" style="fill: none; stroke: #ffcb58; stroke-width: 3; stroke-linecap: square"/>
   </g>
   <g id="patch_3">
    <path d="M 57.6 307.584 
L 57.6 41.472 
" style="fill: none; stroke: #ffffff; stroke-width: 3; stroke-linejoin: miter; stroke-linecap: square"/>
   </g>
   <g id="patch_4">
    <path d="M 57.6 307.584 
L 414.72 307.584 
" style="fill: none; stroke: #ffffff; stroke-width: 3; stroke-linejoin: miter; stroke-linecap: square"/>
   </g>
   <g id="legend_1">
    <g id="patch_5">
     <path d="M 295.77 300.084 
L 404.22 300.084 
Q 407.22 300.084 407.22 297.084 
L 407.22 166.480875 
Q 407.22 163.480875 404.22 163.480875 
L 295.77 163.480875 
Q 292.77 163.480875 292.77 166.480875 
L 292.77 297.084 
Q 292.77 300.084 295.77 300.084 
z
" style="fill: #ffffff; opacity: 0.2; stroke: #cccccc; stroke-linejoin: miter"/>
    </g>
    <g id="line2d_20">
     <path d="M 298.77 175.628531 
L 313.77 175.628531 
L 328.77 175.628531 
" style="fill: none; stroke: #a02a00; stroke-width: 3; stroke-linecap: square"/>
    </g>
    <g id="text_16">
     <!-- $\nu = 10^{14}$ -->
     <g style="fill: #ffffff" transform="translate(340.77 180.878531) scale(0.15 -0.15)">
      <defs>
       <path id="DejaVuSerif-Italic-3bd" d="M 1103 363 
Q 1516 513 1997 875 
Q 2291 1094 2691 1638 
Q 2950 1975 3034 2288 
Q 3116 2575 3025 2794 
Q 2906 3097 2691 3138 
L 2725 3322 
L 3075 3322 
Q 3400 3169 3584 2828 
Q 3728 2566 3666 2247 
Q 3622 2016 3494 1825 
Q 3400 1688 3116 1366 
Q 2738 950 2297 663 
Q 1494 138 1034 0 
L 456 0 
L 1041 2988 
L 491 2988 
L 553 3322 
L 1678 3322 
L 1103 363 
z
" transform="scale(0.015625)"/>
       <path id="DejaVuSerif-3d" d="M 678 2894 
L 4684 2894 
L 4684 2394 
L 678 2394 
L 678 2894 
z
M 678 1619 
L 4684 1619 
L 4684 1119 
L 678 1119 
L 678 1619 
z
" transform="scale(0.015625)"/>
      </defs>
      <use xlink:href="#DejaVuSerif-Italic-3bd" transform="translate(0 0.7125)"/>
      <use xlink:href="#DejaVuSerif-3d" transform="translate(79.755859 0.7125)"/>
      <use xlink:href="#DejaVuSerif-31" transform="translate(182.509766 0.7125)"/>
      <use xlink:href="#DejaVuSerif-30" transform="translate(246.132812 0.7125)"/>
      <use xlink:href="#DejaVuSerif-31" transform="translate(310.664219 37.046875) scale(0.7)"/>
      <use xlink:href="#DejaVuSerif-34" transform="translate(355.200352 37.046875) scale(0.7)"/>
     </g>
    </g>
    <g id="line2d_21">
     <path d="M 298.77 197.645719 
L 313.77 197.645719 
L 328.77 197.645719 
" style="fill: none; stroke: #ce4f01; stroke-width: 3; stroke-linecap: square"/>
    </g>
    <g id="text_17">
     <!-- $\nu = 10^{15}$ -->
     <g style="fill: #ffffff" transform="translate(340.77 202.895719) scale(0.15 -0.15)">
      <use xlink:href="#DejaVuSerif-Italic-3bd" transform="translate(0 0.7125)"/>
      <use xlink:href="#DejaVuSerif-3d" transform="translate(79.755859 0.7125)"/>
      <use xlink:href="#DejaVuSerif-31" transform="translate(182.509766 0.7125)"/>
      <use xlink:href="#DejaVuSerif-30" transform="translate(246.132812 0.7125)"/>
      <use xlink:href="#DejaVuSerif-31" transform="translate(310.664219 37.046875) scale(0.7)"/>
      <use xlink:href="#DejaVuSerif-35" transform="translate(355.200352 37.046875) scale(0.7)"/>
     </g>
    </g>
    <g id="line2d_22">
     <path d="M 298.77 219.662906 
L 313.77 219.662906 
L 328.77 219.662906 
" style="fill: none; stroke: #e16904; stroke-width: 3; stroke-linecap: square"/>
    </g>
    <g id="text_18">
     <!-- $\nu = 10^{16}$ -->
     <g style="fill: #ffffff" transform="translate(340.77 224.912906) scale(0.15 -0.15)">
      <use xlink:href="#DejaVuSerif-Italic-3bd" transform="translate(0 0.7125)"/>
      <use xlink:href="#DejaVuSerif-3d" transform="translate(79.755859 0.7125)"/>
      <use xlink:href="#DejaVuSerif-31" transform="translate(182.509766 0.7125)"/>
      <use xlink:href="#DejaVuSerif-30" transform="translate(246.132812 0.7125)"/>
      <use xlink:href="#DejaVuSerif-31" transform="translate(310.664219 37.046875) scale(0.7)"/>
      <use xlink:href="#DejaVuSerif-36" transform="translate(355.200352 37.046875) scale(0.7)"/>
     </g>
    </g>
    <g id="line2d_23">
     <path d="M 298.77 241.680094 
L 313.77 241.680094 
L 328.77 241.680094 
" style="fill: none; stroke: #f98811; stroke-width: 3; stroke-linecap: square"/>
    </g>
    <g id="text_19">
     <!-- $\nu = 10^{17}$ -->
     <g style="fill: #ffffff" transform="translate(340.77 246.930094) scale(0.15 -0.15)">
      <defs>
       <path id="DejaVuSerif-37" d="M 3609 4347 
L 1784 0 
L 1319 0 
L 3059 4153 
L 903 4153 
L 903 3578 
L 538 3578 
L 538 4666 
L 3609 4666 
L 3609 4347 
z
" transform="scale(0.015625)"/>
      </defs>
      <use xlink:href="#DejaVuSerif-Italic-3bd" transform="translate(0 0.7125)"/>
      <use xlink:href="#DejaVuSerif-3d" transform="translate(79.755859 0.7125)"/>
      <use xlink:href="#DejaVuSerif-31" transform="translate(182.509766 0.7125)"/>
      <use xlink:href="#DejaVuSerif-30" transform="translate(246.132812 0.7125)"/>
      <use xlink:href="#DejaVuSerif-31" transform="translate(310.664219 37.046875) scale(0.7)"/>
      <use xlink:href="#DejaVuSerif-37" transform="translate(355.200352 37.046875) scale(0.7)"/>
     </g>
    </g>
    <g id="line2d_24">
     <path d="M 298.77 263.697281 
L 313.77 263.697281 
L 328.77 263.697281 
" style="fill: none; stroke: #ffac2b; stroke-width: 3; stroke-linecap: square"/>
    </g>
    <g id="text_20">
     <!-- $\nu = 10^{18}$ -->
     <g style="fill: #ffffff" transform="translate(340.77 268.947281) scale(0.15 -0.15)">
      <defs>
       <path id="DejaVuSerif-38" d="M 2981 1275 
Q 2981 1775 2732 2051 
Q 2484 2328 2034 2328 
Q 1584 2328 1336 2051 
Q 1088 1775 1088 1275 
Q 1088 772 1336 495 
Q 1584 219 2034 219 
Q 2484 219 2732 495 
Q 2981 772 2981 1275 
z
M 2853 3541 
Q 2853 3966 2637 4203 
Q 2422 4441 2034 4441 
Q 1650 4441 1433 4203 
Q 1216 3966 1216 3541 
Q 1216 3113 1433 2875 
Q 1650 2638 2034 2638 
Q 2422 2638 2637 2875 
Q 2853 3113 2853 3541 
z
M 2516 2484 
Q 3047 2413 3344 2092 
Q 3641 1772 3641 1275 
Q 3641 619 3225 264 
Q 2809 -91 2034 -91 
Q 1263 -91 845 264 
Q 428 619 428 1275 
Q 428 1772 725 2092 
Q 1022 2413 1556 2484 
Q 1084 2569 832 2842 
Q 581 3116 581 3541 
Q 581 4103 968 4426 
Q 1356 4750 2034 4750 
Q 2713 4750 3100 4426 
Q 3488 4103 3488 3541 
Q 3488 3116 3236 2842 
Q 2984 2569 2516 2484 
z
" transform="scale(0.015625)"/>
      </defs>
      <use xlink:href="#DejaVuSerif-Italic-3bd" transform="translate(0 0.7125)"/>
      <use xlink:href="#DejaVuSerif-3d" transform="translate(79.755859 0.7125)"/>
      <use xlink:href="#DejaVuSerif-31" transform="translate(182.509766 0.7125)"/>
      <use xlink:href="#DejaVuSerif-30" transform="translate(246.132812 0.7125)"/>
      <use xlink:href="#DejaVuSerif-31" transform="translate(310.664219 37.046875) scale(0.7)"/>
      <use xlink:href="#DejaVuSerif-38" transform="translate(355.200352 37.046875) scale(0.7)"/>
     </g>
    </g>
    <g id="line2d_25">
     <path d="M 298.77 285.714469 
L 313.77 285.714469 
L 328.77 285.714469 
" style="fill: none; stroke: #ffcb58; stroke-width: 3; stroke-linecap: square"/>
    </g>
    <g id="text_21">
     <!-- $\nu = 10^{19}$ -->
     <g style="fill: #ffffff" transform="translate(340.77 290.964469) scale(0.15 -0.15)">
      <defs>
       <path id="DejaVuSerif-39" d="M 2994 2091 
Q 2784 1856 2512 1740 
Q 2241 1625 1900 1625 
Q 1206 1625 804 2044 
Q 403 2463 403 3188 
Q 403 3897 839 4323 
Q 1275 4750 2003 4750 
Q 2794 4750 3217 4161 
Q 3641 3572 3641 2478 
Q 3641 1253 3137 581 
Q 2634 -91 1722 -91 
Q 1475 -91 1203 -44 
Q 931 3 647 97 
L 647 872 
L 997 872 
Q 1038 556 1241 387 
Q 1444 219 1784 219 
Q 2391 219 2687 676 
Q 2984 1134 2994 2091 
z
M 1978 4441 
Q 1534 4441 1298 4117 
Q 1063 3794 1063 3188 
Q 1063 2581 1298 2256 
Q 1534 1931 1978 1931 
Q 2422 1931 2658 2245 
Q 2894 2559 2894 3150 
Q 2894 3772 2656 4106 
Q 2419 4441 1978 4441 
z
" transform="scale(0.015625)"/>
      </defs>
      <use xlink:href="#DejaVuSerif-Italic-3bd" transform="translate(0 0.7125)"/>
      <use xlink:href="#DejaVuSerif-3d" transform="translate(79.755859 0.7125)"/>
      <use xlink:href="#DejaVuSerif-31" transform="translate(182.509766 0.7125)"/>
      <use xlink:href="#DejaVuSerif-30" transform="translate(246.132812 0.7125)"/>
      <use xlink:href="#DejaVuSerif-31" transform="translate(310.664219 37.046875) scale(0.7)"/>
      <use xlink:href="#DejaVuSerif-39" transform="translate(355.200352 37.046875) scale(0.7)"/>
     </g>
    </g>
   </g>
  </g>
 </g>
 <defs>
  <clipPath id="pab048aea16">
   <rect x="57.6" y="41.472" width="357.12" height="266.112"/>
  </clipPath>
 </defs>
</svg>
