<?xml version="1.0" encoding="UTF-8" standalone="no"?>
<svg
   width="460.79999pt"
   height="353.36588pt"
   viewBox="0 0 460.8 353.36587"
   version="1.1"
   id="svg94"
   sodipodi:docname="_2-3 Log(Flux) v Temperature.svg"
   inkscape:version="1.3 (0e150ed6c4, 2023-07-21)"
   xmlns:inkscape="http://www.inkscape.org/namespaces/inkscape"
   xmlns:sodipodi="http://sodipodi.sourceforge.net/DTD/sodipodi-0.dtd"
   xmlns:xlink="http://www.w3.org/1999/xlink"
   xmlns="http://www.w3.org/2000/svg"
   xmlns:svg="http://www.w3.org/2000/svg"
   xmlns:rdf="http://www.w3.org/1999/02/22-rdf-syntax-ns#"
   xmlns:cc="http://creativecommons.org/ns#"
   xmlns:dc="http://purl.org/dc/elements/1.1/">
  <sodipodi:namedview
     id="namedview94"
     pagecolor="#ffffff"
     bordercolor="#000000"
     borderopacity="0.25"
     inkscape:showpageshadow="2"
     inkscape:pageopacity="0.0"
     inkscape:pagecheckerboard="0"
     inkscape:deskcolor="#d1d1d1"
     inkscape:document-units="pt"
     inkscape:zoom="1.781684"
     inkscape:cx="307.29355"
     inkscape:cy="230.4"
     inkscape:window-width="1920"
     inkscape:window-height="1017"
     inkscape:window-x="-8"
     inkscape:window-y="-8"
     inkscape:window-maximized="1"
     inkscape:current-layer="svg94" />
  <metadata
     id="metadata1">
    <rdf:RDF>
      <cc:Work>
        <dc:type
           rdf:resource="http://purl.org/dc/dcmitype/StillImage" />
        <dc:date>2023-12-14T21:31:28.933644</dc:date>
        <dc:format>image/svg+xml</dc:format>
        <dc:creator>
          <cc:Agent>
            <dc:title>Matplotlib v3.7.2, https://matplotlib.org/</dc:title>
          </cc:Agent>
        </dc:creator>
      </cc:Work>
    </rdf:RDF>
  </metadata>
  <defs
     id="defs1">
    <style
       type="text/css"
       id="style1">*{stroke-linejoin: round; stroke-linecap: butt}</style>
  </defs>
  <g
     id="figure_1">
    <g
       id="patch_1">
      <path
         d="M 0,345.6 H 460.8 V 0 H 0 Z"
         style="fill:none"
         id="path1" />
    </g>
    <g
       id="axes_1">
      <g
         id="patch_2">
        <path
           d="M 57.6,307.584 H 414.72 V 41.472 H 57.6 Z"
           style="fill:none"
           id="path2" />
      </g>
      <g
         id="matplotlib.axis_1">
        <g
           id="xtick_1">
          <g
             id="line2d_1">
            <defs
               id="defs2">
              <path
                 id="md01ff19513"
                 d="M 0,0 V 3.5"
                 style="stroke:#000000;stroke-width:0.8" />
            </defs>
            <g
               id="g2">
              <use
                 xlink:href="#md01ff19513"
                 x="73.379227"
                 y="307.58401"
                 style="stroke:#000000;stroke-width:0.8"
                 id="use2" />
            </g>
          </g>
          <g
             id="text_1">
            <!-- 0 -->
            <g
               style="fill:#ffffff"
               transform="matrix(0.16,0,0,-0.16,68.289226,326.7415)"
               id="g3">
              <defs
                 id="defs3">
                <path
                   id="DejaVuSerif-30"
                   d="m 2034,219 q 479,0 716,525 238,525 238,1584 0,1063 -238,1588 -237,525 -716,525 -478,0 -716,-525 -237,-525 -237,-1588 0,-1059 237,-1584 238,-525 716,-525 z m 0,-310 q -759,0 -1186,637 -426,638 -426,1782 0,1147 426,1784 427,638 1186,638 763,0 1188,-638 425,-637 425,-1784 Q 3647,1184 3222,546 2797,-91 2034,-91 Z"
                   transform="scale(0.015625)" />
              </defs>
              <use
                 xlink:href="#DejaVuSerif-30"
                 id="use3" />
            </g>
          </g>
        </g>
        <g
           id="xtick_2">
          <g
             id="line2d_2">
            <g
               id="g4">
              <use
                 xlink:href="#md01ff19513"
                 x="157.343"
                 y="307.58401"
                 style="stroke:#000000;stroke-width:0.8"
                 id="use4" />
            </g>
          </g>
          <g
             id="text_2">
            <!-- 1 -->
            <g
               style="fill:#ffffff"
               transform="matrix(0.16,0,0,-0.16,152.25299,326.7415)"
               id="g5">
              <defs
                 id="defs4">
                <path
                   id="DejaVuSerif-31"
                   d="m 909,0 v 331 h 813 V 4213 L 781,3603 v 410 l 1138,737 h 431 V 331 h 813 V 0 Z"
                   transform="scale(0.015625)" />
              </defs>
              <use
                 xlink:href="#DejaVuSerif-31"
                 id="use5" />
            </g>
          </g>
        </g>
        <g
           id="xtick_3">
          <g
             id="line2d_3">
            <g
               id="g6">
              <use
                 xlink:href="#md01ff19513"
                 x="241.30676"
                 y="307.58401"
                 style="stroke:#000000;stroke-width:0.8"
                 id="use6" />
            </g>
          </g>
          <g
             id="text_3">
            <!-- 2 -->
            <g
               style="fill:#ffffff"
               transform="matrix(0.16,0,0,-0.16,236.21676,326.7415)"
               id="g7">
              <defs
                 id="defs6">
                <path
                   id="DejaVuSerif-32"
                   d="M 819,3553 H 469 v 831 q 334,179 673,272 339,94 664,94 728,0 1150,-353 422,-353 422,-959 0,-685 -956,-1638 -75,-72 -113,-109 L 1131,513 h 1947 v 575 h 366 V 0 H 434 v 341 l 1416,1412 q 469,469 669,861 200,392 200,824 0,471 -246,737 -245,266 -676,266 -447,0 -691,-222 -243,-222 -287,-666 z"
                   transform="scale(0.015625)" />
              </defs>
              <use
                 xlink:href="#DejaVuSerif-32"
                 id="use7" />
            </g>
          </g>
        </g>
        <g
           id="xtick_4">
          <g
             id="line2d_4">
            <g
               id="g8">
              <use
                 xlink:href="#md01ff19513"
                 x="325.27054"
                 y="307.58401"
                 style="stroke:#000000;stroke-width:0.8"
                 id="use8" />
            </g>
          </g>
          <g
             id="text_4">
            <!-- 3 -->
            <g
               style="fill:#ffffff"
               transform="matrix(0.16,0,0,-0.16,320.18053,326.7415)"
               id="g9">
              <defs
                 id="defs8">
                <path
                   id="DejaVuSerif-33"
                   d="m 622,4469 q 366,137 701,209 336,72 630,72 685,0 1069,-296 384,-295 384,-820 0,-421 -266,-704 -265,-283 -752,-383 575,-81 892,-417 317,-336 317,-871 0,-653 -439,-1002 -439,-348 -1264,-348 -366,0 -715,79 -348,78 -691,237 v 906 h 350 q 31,-450 303,-681 272,-231 765,-231 478,0 755,276 277,277 277,758 0,550 -285,833 -284,283 -834,283 h -297 v 319 h 156 q 547,0 820,226 274,227 274,683 0,409 -225,626 -225,218 -647,218 -422,0 -655,-200 -232,-200 -273,-594 H 622 Z"
                   transform="scale(0.015625)" />
              </defs>
              <use
                 xlink:href="#DejaVuSerif-33"
                 id="use9" />
            </g>
          </g>
        </g>
        <g
           id="xtick_5">
          <g
             id="line2d_5">
            <g
               id="g10">
              <use
                 xlink:href="#md01ff19513"
                 x="409.23431"
                 y="307.58401"
                 style="stroke:#000000;stroke-width:0.8"
                 id="use10" />
            </g>
          </g>
          <g
             id="text_5">
            <!-- 4 -->
            <g
               style="fill:#ffffff"
               transform="matrix(0.16,0,0,-0.16,404.1443,326.7415)"
               id="g11">
              <defs
                 id="defs10">
                <path
                   id="DejaVuSerif-34"
                   d="M 2234,1581 V 4063 L 641,1581 Z M 3609,0 H 1484 v 331 h 750 v 916 H 197 v 341 l 2044,3162 h 618 V 1581 h 891 V 1247 H 2859 V 331 h 750 z"
                   transform="scale(0.015625)" />
              </defs>
              <use
                 xlink:href="#DejaVuSerif-34"
                 id="use11" />
            </g>
          </g>
        </g>
        <g
           id="text_6">
          <!-- Temperature / $K$ -->
          <g
             style="fill:#ffffff"
             transform="matrix(0.2,0,0,-0.2,152.66,349.22525)"
             id="g26">
            <defs
               id="defs11">
              <path
                 id="DejaVuSerif-54"
                 d="m 1222,0 v 331 h 597 V 4294 H 447 V 3566 H 63 V 4666 H 4206 V 3566 h -384 v 728 H 2450 V 331 h 597 V 0 Z"
                 transform="scale(0.015625)" />
              <path
                 id="DejaVuSerif-65"
                 d="M 3469,1600 H 991 v -25 q 0,-672 253,-1014 253,-342 747,-342 378,0 620,198 242,199 339,589 h 463 Q 3275,459 2904,184 2534,-91 1931,-91 1203,-91 761,389 319,869 319,1663 q 0,787 434,1268 435,482 1141,482 753,0 1156,-465 403,-464 419,-1348 z m -678,331 q -19,582 -246,877 -226,295 -651,295 -397,0 -625,-297 -228,-297 -278,-875 z"
                 transform="scale(0.015625)" />
              <path
                 id="DejaVuSerif-6d"
                 d="m 3316,2675 q 165,366 423,552 258,186 602,186 522,0 778,-324 256,-323 256,-976 V 331 h 519 V 0 H 4300 v 331 h 500 v 1716 q 0,509 -150,725 -150,216 -497,216 -384,0 -586,-291 -201,-291 -201,-847 V 331 h 500 V 0 H 2291 v 331 h 500 v 1738 q 0,497 -150,708 -150,211 -497,211 -385,0 -587,-291 -201,-291 -201,-847 V 331 h 500 V 0 H 263 V 331 H 781 V 2994 H 231 v 328 h 1125 v -591 q 160,332 406,507 247,175 560,175 387,0 646,-193 260,-192 348,-545 z"
                 transform="scale(0.015625)" />
              <path
                 id="DejaVuSerif-70"
                 d="m 1313,1825 v -328 q 0,-600 229,-914 230,-314 667,-314 441,0 667,353 227,353 227,1041 0,690 -227,1040 -226,350 -667,350 -437,0 -667,-316 -229,-315 -229,-912 z M 738,2988 H 184 v 334 h 1129 v -519 q 168,313 429,461 261,149 646,149 612,0 999,-485 388,-484 388,-1265 0,-782 -388,-1268 -387,-486 -999,-486 -385,0 -646,148 -261,149 -429,462 V -997 h 543 v -334 H 184 v 334 h 554 z"
                 transform="scale(0.015625)" />
              <path
                 id="DejaVuSerif-72"
                 d="m 3059,3328 v -831 h -331 q -15,247 -137,369 -122,122 -357,122 -425,0 -652,-294 -226,-294 -226,-844 V 331 h 666 V 0 H 263 V 331 H 781 V 2994 H 231 v 328 h 1125 v -591 q 169,347 434,514 266,168 648,168 140,0 295,-22 155,-22 326,-63 z"
                 transform="scale(0.015625)" />
              <path
                 id="DejaVuSerif-61"
                 d="m 2547,1044 v 703 h -741 q -428,0 -638,-185 -209,-184 -209,-565 0,-347 212,-550 213,-203 576,-203 359,0 579,222 221,222 221,578 z m 575,1031 V 331 h 512 V 0 H 2547 V 359 Q 2356,128 2106,18 1856,-91 1522,-91 969,-91 644,203 319,497 319,997 q 0,516 372,800 372,284 1050,284 h 806 v 228 q 0,379 -230,586 -229,208 -645,208 -344,0 -547,-156 Q 922,2791 872,2484 H 575 v 672 q 300,128 583,192 283,65 551,65 691,0 1052,-343 361,-342 361,-995 z"
                 transform="scale(0.015625)" />
              <path
                 id="DejaVuSerif-74"
                 d="M 691,2988 H 184 v 334 h 507 v 1031 h 578 V 3322 H 2350 V 2988 H 1269 V 878 q 0,-422 81,-541 81,-118 300,-118 225,0 328,132 103,133 110,430 h 434 Q 2497,328 2275,118 2053,-91 1600,-91 1103,-91 897,129 691,350 691,878 Z"
                 transform="scale(0.015625)" />
              <path
                 id="DejaVuSerif-75"
                 d="M 2266,3322 H 3341 V 331 h 543 V 0 H 2766 V 588 Q 2606,256 2353,82 2100,-91 1766,-91 1213,-91 952,223 691,538 691,1209 V 2988 H 172 v 334 H 1269 V 1388 q 0,-607 148,-832 149,-225 530,-225 400,0 609,294 210,294 210,853 v 1510 h -500 z"
                 transform="scale(0.015625)" />
              <path
                 id="DejaVuSerif-20"
                 transform="scale(0.015625)"
                 d="" />
              <path
                 id="DejaVuSerif-2f"
                 d="m 1656,4666 h 500 L 500,-594 H 0 Z"
                 transform="scale(0.015625)" />
              <path
                 id="DejaVuSerif-Italic-4b"
                 d="m -97,0 63,331 h 593 l 779,4000 H 744 l 65,335 h 1822 l -65,-335 H 1972 L 1628,2566 3981,4331 h -506 l 66,335 h 1550 l -66,-335 H 4500 L 2156,2572 3959,331 h 532 L 4428,0 H 3344 L 1563,2216 1194,331 h 594 L 1725,0 Z"
                 transform="scale(0.015625)" />
            </defs>
            <use
               xlink:href="#DejaVuSerif-54"
               transform="translate(0,0.09375)"
               id="use12" />
            <use
               xlink:href="#DejaVuSerif-65"
               transform="translate(66.699219,0.09375)"
               id="use13" />
            <use
               xlink:href="#DejaVuSerif-6d"
               transform="translate(125.87891,0.09375)"
               id="use14" />
            <use
               xlink:href="#DejaVuSerif-70"
               transform="translate(220.70312,0.09375)"
               id="use15" />
            <use
               xlink:href="#DejaVuSerif-65"
               transform="translate(284.7168,0.09375)"
               id="use16" />
            <use
               xlink:href="#DejaVuSerif-72"
               transform="translate(343.89648,0.09375)"
               id="use17" />
            <use
               xlink:href="#DejaVuSerif-61"
               transform="translate(391.69922,0.09375)"
               id="use18" />
            <use
               xlink:href="#DejaVuSerif-74"
               transform="translate(451.31836,0.09375)"
               id="use19" />
            <use
               xlink:href="#DejaVuSerif-75"
               transform="translate(491.50391,0.09375)"
               id="use20" />
            <use
               xlink:href="#DejaVuSerif-72"
               transform="translate(555.9082,0.09375)"
               id="use21" />
            <use
               xlink:href="#DejaVuSerif-65"
               transform="translate(603.71094,0.09375)"
               id="use22" />
            <use
               xlink:href="#DejaVuSerif-20"
               transform="translate(662.89062,0.09375)"
               id="use23" />
            <use
               xlink:href="#DejaVuSerif-2f"
               transform="translate(694.67773,0.09375)"
               id="use24" />
            <use
               xlink:href="#DejaVuSerif-20"
               transform="translate(728.36914,0.09375)"
               id="use25" />
            <use
               xlink:href="#DejaVuSerif-Italic-4b"
               transform="translate(760.15625,0.09375)"
               id="use26" />
          </g>
        </g>
        <g
           id="text_7">
          <!-- 1e6 -->
          <g
             transform="matrix(0.16,0,0,-0.16,384.89,345.2265)"
             id="g29">
            <defs
               id="defs26">
              <path
                 id="DejaVuSerif-36"
                 d="m 2094,219 q 440,0 677,323 238,324 238,930 0,606 -238,929 -237,324 -677,324 -447,0 -682,-313 -234,-312 -234,-903 0,-621 237,-956 238,-334 679,-334 z M 1075,2569 q 213,234 481,349 269,116 607,116 696,0 1101,-419 405,-418 405,-1143 0,-709 -436,-1136 -436,-427 -1164,-427 -791,0 -1216,589 -425,590 -425,1683 0,1225 503,1897 503,672 1419,672 247,0 519,-47 272,-47 556,-140 v -769 h -353 q -38,315 -241,481 -203,166 -547,166 -606,0 -903,-460 -297,-459 -306,-1412 z"
                 transform="scale(0.015625)" />
            </defs>
            <use
               xlink:href="#DejaVuSerif-31"
               id="use27" />
            <use
               xlink:href="#DejaVuSerif-65"
               x="63.623047"
               id="use28" />
            <use
               xlink:href="#DejaVuSerif-36"
               x="122.80273"
               id="use29" />
          </g>
        </g>
      </g>
      <g
         id="matplotlib.axis_2">
        <g
           id="ytick_1">
          <g
             id="line2d_6">
            <defs
               id="defs29">
              <path
                 id="m2719d6c673"
                 d="M 0,0 H -3.5"
                 style="stroke:#ffffff;stroke-width:0.8" />
            </defs>
            <g
               id="g30">
              <use
                 xlink:href="#m2719d6c673"
                 x="57.599998"
                 y="295.48801"
                 style="fill:#ffffff;stroke:#ffffff;stroke-width:0.8"
                 id="use30" />
            </g>
          </g>
          <g
             id="text_8">
            <!-- 0 -->
            <g
               style="fill:#ffffff"
               transform="matrix(0.16,0,0,-0.16,40.42,301.56675)"
               id="g31">
              <use
                 xlink:href="#DejaVuSerif-30"
                 id="use31" />
            </g>
          </g>
        </g>
        <g
           id="ytick_2">
          <g
             id="line2d_7">
            <g
               id="g32">
              <use
                 xlink:href="#m2719d6c673"
                 x="57.599998"
                 y="231.41354"
                 style="fill:#ffffff;stroke:#ffffff;stroke-width:0.8"
                 id="use32" />
            </g>
          </g>
          <g
             id="text_9">
            <!-- 5 -->
            <g
               style="fill:#ffffff"
               transform="matrix(0.16,0,0,-0.16,40.42,237.49229)"
               id="g33">
              <defs
                 id="defs32">
                <path
                   id="DejaVuSerif-35"
                   d="M 3219,4666 V 4153 H 1081 V 2816 q 163,112 380,168 217,57 486,57 756,0 1193,-419 438,-419 438,-1144 0,-740 -442,-1155 -442,-414 -1242,-414 -322,0 -660,79 -337,78 -690,237 v 906 h 353 q 28,-443 282,-678 255,-234 715,-234 494,0 759,325 266,325 266,934 0,606 -264,929 -264,324 -761,324 -281,0 -496,-100 -214,-100 -379,-309 H 750 v 2344 z"
                   transform="scale(0.015625)" />
              </defs>
              <use
                 xlink:href="#DejaVuSerif-35"
                 id="use33" />
            </g>
          </g>
        </g>
        <g
           id="ytick_3">
          <g
             id="line2d_8">
            <g
               id="g34">
              <use
                 xlink:href="#m2719d6c673"
                 x="57.599998"
                 y="167.33908"
                 style="fill:#ffffff;stroke:#ffffff;stroke-width:0.8"
                 id="use34" />
            </g>
          </g>
          <g
             id="text_10">
            <!-- 10 -->
            <g
               style="fill:#ffffff"
               transform="matrix(0.16,0,0,-0.16,30.24,173.41782)"
               id="g36">
              <use
                 xlink:href="#DejaVuSerif-31"
                 id="use35" />
              <use
                 xlink:href="#DejaVuSerif-30"
                 x="63.623047"
                 id="use36" />
            </g>
          </g>
        </g>
        <g
           id="ytick_4">
          <g
             id="line2d_9">
            <g
               id="g37">
              <use
                 xlink:href="#m2719d6c673"
                 x="57.599998"
                 y="103.26461"
                 style="fill:#ffffff;stroke:#ffffff;stroke-width:0.8"
                 id="use37" />
            </g>
          </g>
          <g
             id="text_11">
            <!-- 15 -->
            <g
               style="fill:#ffffff"
               transform="matrix(0.16,0,0,-0.16,30.24,109.34336)"
               id="g39">
              <use
                 xlink:href="#DejaVuSerif-31"
                 id="use38" />
              <use
                 xlink:href="#DejaVuSerif-35"
                 x="63.623047"
                 id="use39" />
            </g>
          </g>
        </g>
        <g
           id="text_12">
          <!-- Flux / $W m^{-2}$ -->
          <g
             style="fill:#ffffff"
             transform="matrix(0,-0.2,-0.2,0,22.080625,237.328)"
             id="g50">
            <defs
               id="defs39">
              <path
                 id="DejaVuSerif-46"
                 d="M 353,0 V 331 H 947 V 4331 H 353 v 335 H 4172 V 3628 h -384 v 653 H 1581 V 2719 h 1594 v 584 h 384 V 1753 h -384 v 585 H 1581 V 331 h 747 V 0 Z"
                 transform="scale(0.015625)" />
              <path
                 id="DejaVuSerif-6c"
                 d="m 1313,331 h 543 V 0 H 184 V 331 H 738 V 4531 H 184 v 332 h 1129 z"
                 transform="scale(0.015625)" />
              <path
                 id="DejaVuSerif-78"
                 d="m 1863,2028 696,960 h -446 v 334 H 3391 V 2988 H 2950 L 2059,1759 3097,331 h 434 V 0 H 1997 v 331 h 422 L 1697,1325 972,331 h 431 V 0 H 141 V 331 H 581 L 1497,1594 488,2988 H 78 v 334 h 1485 v -334 h -397 z"
                 transform="scale(0.015625)" />
              <path
                 id="DejaVuSerif-Italic-57"
                 d="M 4425,0 H 3913 L 3581,3794 1775,0 H 1263 L 881,4331 H 419 l 65,335 h 1704 l -66,-335 H 1541 L 1844,884 3641,4666 h 506 L 4484,844 6141,4331 h -538 l 66,335 h 1344 l -66,-335 h -459 z"
                 transform="scale(0.015625)" />
              <path
                 id="DejaVuSerif-Italic-6d"
                 d="m 3503,2675 q 238,366 531,552 294,186 638,186 522,0 716,-325 115,-194 115,-510 0,-206 -50,-465 L 5106,331 h 519 L 5563,0 H 4469 l 397,2047 q 47,244 47,419 0,193 -57,306 -106,216 -453,216 -384,0 -642,-291 -258,-291 -367,-847 L 3034,0 h -575 l 404,2069 q 43,234 43,403 0,194 -56,303 -109,213 -456,213 -385,0 -643,-291 -257,-291 -367,-847 L 1025,0 H 450 l 581,2994 H 481 l 63,328 h 1125 l -113,-591 q 222,332 503,507 282,175 594,175 388,0 609,-193 222,-192 241,-545 z"
                 transform="scale(0.015625)" />
              <path
                 id="DejaVuSerif-2212"
                 d="M 678,2259 H 4684 V 1753 H 678 Z"
                 transform="scale(0.015625)" />
            </defs>
            <use
               xlink:href="#DejaVuSerif-46"
               transform="translate(0,0.7125)"
               id="use40" />
            <use
               xlink:href="#DejaVuSerif-6c"
               transform="translate(69.384766,0.7125)"
               id="use41" />
            <use
               xlink:href="#DejaVuSerif-75"
               transform="translate(101.36719,0.7125)"
               id="use42" />
            <use
               xlink:href="#DejaVuSerif-78"
               transform="translate(165.77148,0.7125)"
               id="use43" />
            <use
               xlink:href="#DejaVuSerif-20"
               transform="translate(222.16797,0.7125)"
               id="use44" />
            <use
               xlink:href="#DejaVuSerif-2f"
               transform="translate(253.95508,0.7125)"
               id="use45" />
            <use
               xlink:href="#DejaVuSerif-20"
               transform="translate(287.64648,0.7125)"
               id="use46" />
            <use
               xlink:href="#DejaVuSerif-Italic-57"
               transform="translate(319.43359,0.7125)"
               id="use47" />
            <use
               xlink:href="#DejaVuSerif-Italic-6d"
               transform="translate(422.2168,0.7125)"
               id="use48" />
            <use
               xlink:href="#DejaVuSerif-2212"
               transform="matrix(0.7,0,0,0.7,521.47909,37.046875)"
               id="use49" />
            <use
               xlink:href="#DejaVuSerif-32"
               transform="matrix(0.7,0,0,0.7,580.13143,37.046875)"
               id="use50" />
          </g>
        </g>
      </g>
      <g
         id="line2d_10">
        <path
           d="M 398.48727,295.48752 73.832727,295.488 v 0"
           clip-path="url(#peb18a3fec9)"
           style="fill:none;stroke:#a02a00;stroke-width:3;stroke-linecap:square"
           id="path50" />
      </g>
      <g
         id="line2d_11">
        <path
           d="M 398.48727,295.4404 73.832727,295.488 v 0"
           clip-path="url(#peb18a3fec9)"
           style="fill:none;stroke:#ce4f01;stroke-width:3;stroke-linecap:square"
           id="path51" />
      </g>
      <g
         id="line2d_12">
        <path
           d="m 398.48727,290.98938 -310.690578,4.45998 -13.963965,0.0386 v 0"
           clip-path="url(#peb18a3fec9)"
           style="fill:none;stroke:#e16904;stroke-width:3;stroke-linecap:square"
           id="path52" />
      </g>
      <g
         id="line2d_13">
        <path
           d="m 398.48727,53.568 -17.68044,22.788764 -16.76467,21.273949 -15.77042,19.667657 -14.87595,18.19797 -13.53875,16.21805 -12.03112,14.09757 -11.7834,13.48146 -11.46651,12.76843 -9.88709,10.6969 -9.57515,10.05001 -9.24766,9.38428 -8.91062,8.70953 -8.56879,8.03394 -7.21639,6.48015 -6.95501,5.97535 -6.69619,5.48152 -6.44106,5.00139 -6.19051,4.53747 -5.94525,4.09194 -5.70582,3.66675 -5.47263,3.26365 -5.24601,2.8841 -5.02617,2.52931 -4.81323,2.20021 -5.2491,2.14537 -4.9906,1.78977 -4.74256,1.47391 -5.05175,1.32912 -4.76535,1.03216 -4.9761,0.85947 -5.1079,0.66815 -5.57441,0.51103 -6.59381,0.3651 -8.1072,0.20118 -13.37327,0.0632 -30.313653,0.001 v 0"
           clip-path="url(#peb18a3fec9)"
           style="fill:none;stroke:#f98811;stroke-width:3;stroke-linecap:square"
           id="path53" />
      </g>
      <g
         id="line2d_14">
        <path
           d="m 398.48727,293.03018 -8.73145,0.71204 -10.05254,0.5964 -11.8721,0.47312 -14.22063,0.33857 -18.85744,0.21803 -30.88643,0.1045 -114.56265,0.0152 H 73.832727 v 0"
           clip-path="url(#peb18a3fec9)"
           style="fill:none;stroke:#ffac2b;stroke-width:3;stroke-linecap:square"
           id="path54" />
      </g>
      <g
         id="line2d_15">
        <path
           d="M 398.48727,295.488 H 73.832727 v 0"
           clip-path="url(#peb18a3fec9)"
           style="fill:none;stroke:#ffcb58;stroke-width:3;stroke-linecap:square"
           id="path55" />
      </g>
      <g
         id="patch_3">
        <path
           d="M 57.6,307.584 V 41.472"
           style="fill:none;stroke:#ffffff;stroke-width:3;stroke-linecap:square;stroke-linejoin:miter"
           id="path56" />
      </g>
      <g
         id="patch_4">
        <path
           d="M 57.6,307.584 H 414.72"
           style="fill:none;stroke:#ffffff;stroke-width:3;stroke-linecap:square;stroke-linejoin:miter"
           id="path57" />
      </g>
      <g
         id="legend_1">
        <g
           id="patch_5">
          <path
             d="m 68.1,185.57513 h 108.45 q 3,0 3,-3 V 51.972 q 0,-3 -3,-3 H 68.1 q -3,0 -3,3 v 130.60313 q 0,3 3,3 z"
             style="opacity:0.2;fill:#ffffff;stroke:#cccccc;stroke-linejoin:miter"
             id="path58" />
        </g>
        <g
           id="line2d_16">
          <path
             d="m 71.1,61.119656 h 15 15"
             style="fill:none;stroke:#a02a00;stroke-width:3;stroke-linecap:square"
             id="path59" />
        </g>
        <g
           id="text_13">
          <!-- $\nu = 10^{14}$ -->
          <g
             style="fill:#ffffff"
             transform="matrix(0.15,0,0,-0.15,113.1,66.369656)"
             id="g64">
            <defs
               id="defs59">
              <path
                 id="DejaVuSerif-Italic-3bd"
                 d="m 1103,363 q 413,150 894,512 294,219 694,763 259,337 343,650 82,287 -9,506 -119,303 -334,344 l 34,184 h 350 q 325,-153 509,-494 144,-262 82,-581 -44,-231 -172,-422 -94,-137 -378,-459 Q 2738,950 2297,663 1494,138 1034,0 H 456 l 585,2988 H 491 l 62,334 h 1125 z"
                 transform="scale(0.015625)" />
              <path
                 id="DejaVuSerif-3d"
                 d="M 678,2894 H 4684 V 2394 H 678 Z m 0,-1275 H 4684 V 1119 H 678 Z"
                 transform="scale(0.015625)" />
            </defs>
            <use
               xlink:href="#DejaVuSerif-Italic-3bd"
               transform="translate(0,0.7125)"
               id="use59" />
            <use
               xlink:href="#DejaVuSerif-3d"
               transform="translate(79.755859,0.7125)"
               id="use60" />
            <use
               xlink:href="#DejaVuSerif-31"
               transform="translate(182.50977,0.7125)"
               id="use61" />
            <use
               xlink:href="#DejaVuSerif-30"
               transform="translate(246.13281,0.7125)"
               id="use62" />
            <use
               xlink:href="#DejaVuSerif-31"
               transform="matrix(0.7,0,0,0.7,310.66422,37.046875)"
               id="use63" />
            <use
               xlink:href="#DejaVuSerif-34"
               transform="matrix(0.7,0,0,0.7,355.20035,37.046875)"
               id="use64" />
          </g>
        </g>
        <g
           id="line2d_17">
          <path
             d="m 71.1,83.136844 h 15 15"
             style="fill:none;stroke:#ce4f01;stroke-width:3;stroke-linecap:square"
             id="path64" />
        </g>
        <g
           id="text_14">
          <!-- $\nu = 10^{15}$ -->
          <g
             style="fill:#ffffff"
             transform="matrix(0.15,0,0,-0.15,113.1,88.386844)"
             id="g70">
            <use
               xlink:href="#DejaVuSerif-Italic-3bd"
               transform="translate(0,0.7125)"
               id="use65" />
            <use
               xlink:href="#DejaVuSerif-3d"
               transform="translate(79.755859,0.7125)"
               id="use66" />
            <use
               xlink:href="#DejaVuSerif-31"
               transform="translate(182.50977,0.7125)"
               id="use67" />
            <use
               xlink:href="#DejaVuSerif-30"
               transform="translate(246.13281,0.7125)"
               id="use68" />
            <use
               xlink:href="#DejaVuSerif-31"
               transform="matrix(0.7,0,0,0.7,310.66422,37.046875)"
               id="use69" />
            <use
               xlink:href="#DejaVuSerif-35"
               transform="matrix(0.7,0,0,0.7,355.20035,37.046875)"
               id="use70" />
          </g>
        </g>
        <g
           id="line2d_18">
          <path
             d="m 71.1,105.15403 h 15 15"
             style="fill:none;stroke:#e16904;stroke-width:3;stroke-linecap:square"
             id="path70" />
        </g>
        <g
           id="text_15">
          <!-- $\nu = 10^{16}$ -->
          <g
             style="fill:#ffffff"
             transform="matrix(0.15,0,0,-0.15,113.1,110.40403)"
             id="g76">
            <use
               xlink:href="#DejaVuSerif-Italic-3bd"
               transform="translate(0,0.7125)"
               id="use71" />
            <use
               xlink:href="#DejaVuSerif-3d"
               transform="translate(79.755859,0.7125)"
               id="use72" />
            <use
               xlink:href="#DejaVuSerif-31"
               transform="translate(182.50977,0.7125)"
               id="use73" />
            <use
               xlink:href="#DejaVuSerif-30"
               transform="translate(246.13281,0.7125)"
               id="use74" />
            <use
               xlink:href="#DejaVuSerif-31"
               transform="matrix(0.7,0,0,0.7,310.66422,37.046875)"
               id="use75" />
            <use
               xlink:href="#DejaVuSerif-36"
               transform="matrix(0.7,0,0,0.7,355.20035,37.046875)"
               id="use76" />
          </g>
        </g>
        <g
           id="line2d_19">
          <path
             d="m 71.1,127.17122 h 15 15"
             style="fill:none;stroke:#f98811;stroke-width:3;stroke-linecap:square"
             id="path76" />
        </g>
        <g
           id="text_16">
          <!-- $\nu = 10^{17}$ -->
          <g
             style="fill:#ffffff"
             transform="matrix(0.15,0,0,-0.15,113.1,132.42122)"
             id="g82">
            <defs
               id="defs76">
              <path
                 id="DejaVuSerif-37"
                 d="M 3609,4347 1784,0 H 1319 L 3059,4153 H 903 V 3578 H 538 v 1088 h 3071 z"
                 transform="scale(0.015625)" />
            </defs>
            <use
               xlink:href="#DejaVuSerif-Italic-3bd"
               transform="translate(0,0.7125)"
               id="use77" />
            <use
               xlink:href="#DejaVuSerif-3d"
               transform="translate(79.755859,0.7125)"
               id="use78" />
            <use
               xlink:href="#DejaVuSerif-31"
               transform="translate(182.50977,0.7125)"
               id="use79" />
            <use
               xlink:href="#DejaVuSerif-30"
               transform="translate(246.13281,0.7125)"
               id="use80" />
            <use
               xlink:href="#DejaVuSerif-31"
               transform="matrix(0.7,0,0,0.7,310.66422,37.046875)"
               id="use81" />
            <use
               xlink:href="#DejaVuSerif-37"
               transform="matrix(0.7,0,0,0.7,355.20035,37.046875)"
               id="use82" />
          </g>
        </g>
        <g
           id="line2d_20">
          <path
             d="m 71.1,149.18841 h 15 15"
             style="fill:none;stroke:#ffac2b;stroke-width:3;stroke-linecap:square"
             id="path82" />
        </g>
        <g
           id="text_17">
          <!-- $\nu = 10^{18}$ -->
          <g
             style="fill:#ffffff"
             transform="matrix(0.15,0,0,-0.15,113.1,154.43841)"
             id="g88">
            <defs
               id="defs82">
              <path
                 id="DejaVuSerif-38"
                 d="m 2981,1275 q 0,500 -249,776 -248,277 -698,277 -450,0 -698,-277 -248,-276 -248,-776 0,-503 248,-780 248,-276 698,-276 450,0 698,276 249,277 249,780 z m -128,2266 q 0,425 -216,662 -215,238 -603,238 -384,0 -601,-238 -217,-237 -217,-662 0,-428 217,-666 217,-237 601,-237 388,0 603,237 216,238 216,666 z M 2516,2484 q 531,-71 828,-392 297,-320 297,-817 Q 3641,619 3225,264 2809,-91 2034,-91 1263,-91 845,264 428,619 428,1275 q 0,497 297,817 297,321 831,392 -472,85 -724,358 -251,274 -251,699 0,562 387,885 388,324 1066,324 679,0 1066,-324 388,-323 388,-885 0,-425 -252,-699 -252,-273 -720,-358 z"
                 transform="scale(0.015625)" />
            </defs>
            <use
               xlink:href="#DejaVuSerif-Italic-3bd"
               transform="translate(0,0.7125)"
               id="use83" />
            <use
               xlink:href="#DejaVuSerif-3d"
               transform="translate(79.755859,0.7125)"
               id="use84" />
            <use
               xlink:href="#DejaVuSerif-31"
               transform="translate(182.50977,0.7125)"
               id="use85" />
            <use
               xlink:href="#DejaVuSerif-30"
               transform="translate(246.13281,0.7125)"
               id="use86" />
            <use
               xlink:href="#DejaVuSerif-31"
               transform="matrix(0.7,0,0,0.7,310.66422,37.046875)"
               id="use87" />
            <use
               xlink:href="#DejaVuSerif-38"
               transform="matrix(0.7,0,0,0.7,355.20035,37.046875)"
               id="use88" />
          </g>
        </g>
        <g
           id="line2d_21">
          <path
             d="m 71.1,171.20559 h 15 15"
             style="fill:none;stroke:#ffcb58;stroke-width:3;stroke-linecap:square"
             id="path88" />
        </g>
        <g
           id="text_18">
          <!-- $\nu = 10^{19}$ -->
          <g
             style="fill:#ffffff"
             transform="matrix(0.15,0,0,-0.15,113.1,176.45559)"
             id="g94">
            <defs
               id="defs88">
              <path
                 id="DejaVuSerif-39"
                 d="m 2994,2091 q -210,-235 -482,-351 -271,-115 -612,-115 -694,0 -1096,419 -401,419 -401,1144 0,709 436,1135 436,427 1164,427 791,0 1214,-589 424,-589 424,-1683 Q 3641,1253 3137,581 2634,-91 1722,-91 1475,-91 1203,-44 931,3 647,97 v 775 h 350 q 41,-316 244,-485 203,-168 543,-168 607,0 903,457 297,458 307,1415 z M 1978,4441 q -444,0 -680,-324 -235,-323 -235,-929 0,-607 235,-932 236,-325 680,-325 444,0 680,314 236,314 236,905 0,622 -238,956 -237,335 -678,335 z"
                 transform="scale(0.015625)" />
            </defs>
            <use
               xlink:href="#DejaVuSerif-Italic-3bd"
               transform="translate(0,0.7125)"
               id="use89" />
            <use
               xlink:href="#DejaVuSerif-3d"
               transform="translate(79.755859,0.7125)"
               id="use90" />
            <use
               xlink:href="#DejaVuSerif-31"
               transform="translate(182.50977,0.7125)"
               id="use91" />
            <use
               xlink:href="#DejaVuSerif-30"
               transform="translate(246.13281,0.7125)"
               id="use92" />
            <use
               xlink:href="#DejaVuSerif-31"
               transform="matrix(0.7,0,0,0.7,310.66422,37.046875)"
               id="use93" />
            <use
               xlink:href="#DejaVuSerif-39"
               transform="matrix(0.7,0,0,0.7,355.20035,37.046875)"
               id="use94" />
          </g>
        </g>
      </g>
    </g>
  </g>
  <defs
     id="defs94">
    <clipPath
       id="peb18a3fec9">
      <rect
         x="57.599998"
         y="41.472"
         width="357.12"
         height="266.112"
         id="rect94" />
    </clipPath>
  </defs>
</svg>
