<?xml version="1.0" encoding="UTF-8" standalone="no"?>
<svg
   width="467.76749pt"
   height="353.70963pt"
   viewBox="0 0 467.7675 353.70962"
   version="1.1"
   id="svg65"
   sodipodi:docname="_4 Log(nu x Luminosity) v Log(nu).svg"
   inkscape:version="1.3 (0e150ed6c4, 2023-07-21)"
   xmlns:inkscape="http://www.inkscape.org/namespaces/inkscape"
   xmlns:sodipodi="http://sodipodi.sourceforge.net/DTD/sodipodi-0.dtd"
   xmlns:xlink="http://www.w3.org/1999/xlink"
   xmlns="http://www.w3.org/2000/svg"
   xmlns:svg="http://www.w3.org/2000/svg"
   xmlns:rdf="http://www.w3.org/1999/02/22-rdf-syntax-ns#"
   xmlns:cc="http://creativecommons.org/ns#"
   xmlns:dc="http://purl.org/dc/elements/1.1/">
  <sodipodi:namedview
     id="namedview65"
     pagecolor="#ffffff"
     bordercolor="#000000"
     borderopacity="0.25"
     inkscape:showpageshadow="2"
     inkscape:pageopacity="0.0"
     inkscape:pagecheckerboard="0"
     inkscape:deskcolor="#d1d1d1"
     inkscape:document-units="pt"
     inkscape:zoom="1.781684"
     inkscape:cx="316.83508"
     inkscape:cy="230.4"
     inkscape:window-width="1920"
     inkscape:window-height="1017"
     inkscape:window-x="-8"
     inkscape:window-y="-8"
     inkscape:window-maximized="1"
     inkscape:current-layer="svg65" />
  <metadata
     id="metadata1">
    <rdf:RDF>
      <cc:Work>
        <dc:type
           rdf:resource="http://purl.org/dc/dcmitype/StillImage" />
        <dc:date>2023-12-14T21:31:51.456224</dc:date>
        <dc:format>image/svg+xml</dc:format>
        <dc:creator>
          <cc:Agent>
            <dc:title>Matplotlib v3.7.2, https://matplotlib.org/</dc:title>
          </cc:Agent>
        </dc:creator>
      </cc:Work>
    </rdf:RDF>
  </metadata>
  <defs
     id="defs1">
    <style
       type="text/css"
       id="style1">*{stroke-linejoin: round; stroke-linecap: butt}</style>
  </defs>
  <g
     id="figure_1"
     transform="translate(6.9675)">
    <g
       id="patch_1">
      <path
         d="M 0,345.6 H 460.8 V 0 H 0 Z"
         style="fill:none"
         id="path1" />
    </g>
    <g
       id="axes_1">
      <g
         id="patch_2">
        <path
           d="M 57.6,307.584 H 414.72 V 41.472 H 57.6 Z"
           style="fill:none"
           id="path2" />
      </g>
      <g
         id="matplotlib.axis_1">
        <g
           id="xtick_1">
          <g
             id="line2d_1">
            <defs
               id="defs2">
              <path
                 id="m3df88d57a2"
                 d="M 0,0 V 3.5"
                 style="stroke:#000000;stroke-width:0.8" />
            </defs>
            <g
               id="g2">
              <use
                 xlink:href="#m3df88d57a2"
                 x="73.832726"
                 y="307.58401"
                 style="stroke:#000000;stroke-width:0.8"
                 id="use2" />
            </g>
          </g>
          <g
             id="text_1">
            <!-- 14 -->
            <g
               style="fill:#ffffff"
               transform="matrix(0.16,0,0,-0.16,63.652727,326.7415)"
               id="g4">
              <defs
                 id="defs3">
                <path
                   id="DejaVuSerif-31"
                   d="m 909,0 v 331 h 813 V 4213 L 781,3603 v 410 l 1138,737 h 431 V 331 h 813 V 0 Z"
                   transform="scale(0.015625)" />
                <path
                   id="DejaVuSerif-34"
                   d="M 2234,1581 V 4063 L 641,1581 Z M 3609,0 H 1484 v 331 h 750 v 916 H 197 v 341 l 2044,3162 h 618 V 1581 h 891 V 1247 H 2859 V 331 h 750 z"
                   transform="scale(0.015625)" />
              </defs>
              <use
                 xlink:href="#DejaVuSerif-31"
                 id="use3" />
              <use
                 xlink:href="#DejaVuSerif-34"
                 x="63.623047"
                 id="use4" />
            </g>
          </g>
        </g>
        <g
           id="xtick_2">
          <g
             id="line2d_2">
            <g
               id="g5">
              <use
                 xlink:href="#m3df88d57a2"
                 x="138.76364"
                 y="307.58401"
                 style="stroke:#000000;stroke-width:0.8"
                 id="use5" />
            </g>
          </g>
          <g
             id="text_2">
            <!-- 15 -->
            <g
               style="fill:#ffffff"
               transform="matrix(0.16,0,0,-0.16,128.58364,326.7415)"
               id="g7">
              <defs
                 id="defs5">
                <path
                   id="DejaVuSerif-35"
                   d="M 3219,4666 V 4153 H 1081 V 2816 q 163,112 380,168 217,57 486,57 756,0 1193,-419 438,-419 438,-1144 0,-740 -442,-1155 -442,-414 -1242,-414 -322,0 -660,79 -337,78 -690,237 v 906 h 353 q 28,-443 282,-678 255,-234 715,-234 494,0 759,325 266,325 266,934 0,606 -264,929 -264,324 -761,324 -281,0 -496,-100 -214,-100 -379,-309 H 750 v 2344 z"
                   transform="scale(0.015625)" />
              </defs>
              <use
                 xlink:href="#DejaVuSerif-31"
                 id="use6" />
              <use
                 xlink:href="#DejaVuSerif-35"
                 x="63.623047"
                 id="use7" />
            </g>
          </g>
        </g>
        <g
           id="xtick_3">
          <g
             id="line2d_3">
            <g
               id="g8">
              <use
                 xlink:href="#m3df88d57a2"
                 x="203.69455"
                 y="307.58401"
                 style="stroke:#000000;stroke-width:0.8"
                 id="use8" />
            </g>
          </g>
          <g
             id="text_3">
            <!-- 16 -->
            <g
               style="fill:#ffffff"
               transform="matrix(0.16,0,0,-0.16,193.51454,326.7415)"
               id="g10">
              <defs
                 id="defs8">
                <path
                   id="DejaVuSerif-36"
                   d="m 2094,219 q 440,0 677,323 238,324 238,930 0,606 -238,929 -237,324 -677,324 -447,0 -682,-313 -234,-312 -234,-903 0,-621 237,-956 238,-334 679,-334 z M 1075,2569 q 213,234 481,349 269,116 607,116 696,0 1101,-419 405,-418 405,-1143 0,-709 -436,-1136 -436,-427 -1164,-427 -791,0 -1216,589 -425,590 -425,1683 0,1225 503,1897 503,672 1419,672 247,0 519,-47 272,-47 556,-140 v -769 h -353 q -38,315 -241,481 -203,166 -547,166 -606,0 -903,-460 -297,-459 -306,-1412 z"
                   transform="scale(0.015625)" />
              </defs>
              <use
                 xlink:href="#DejaVuSerif-31"
                 id="use9" />
              <use
                 xlink:href="#DejaVuSerif-36"
                 x="63.623047"
                 id="use10" />
            </g>
          </g>
        </g>
        <g
           id="xtick_4">
          <g
             id="line2d_4">
            <g
               id="g11">
              <use
                 xlink:href="#m3df88d57a2"
                 x="268.62546"
                 y="307.58401"
                 style="stroke:#000000;stroke-width:0.8"
                 id="use11" />
            </g>
          </g>
          <g
             id="text_4">
            <!-- 17 -->
            <g
               style="fill:#ffffff"
               transform="matrix(0.16,0,0,-0.16,258.44545,326.7415)"
               id="g13">
              <defs
                 id="defs11">
                <path
                   id="DejaVuSerif-37"
                   d="M 3609,4347 1784,0 H 1319 L 3059,4153 H 903 V 3578 H 538 v 1088 h 3071 z"
                   transform="scale(0.015625)" />
              </defs>
              <use
                 xlink:href="#DejaVuSerif-31"
                 id="use12" />
              <use
                 xlink:href="#DejaVuSerif-37"
                 x="63.623047"
                 id="use13" />
            </g>
          </g>
        </g>
        <g
           id="xtick_5">
          <g
             id="line2d_5">
            <g
               id="g14">
              <use
                 xlink:href="#m3df88d57a2"
                 x="333.55637"
                 y="307.58401"
                 style="stroke:#000000;stroke-width:0.8"
                 id="use14" />
            </g>
          </g>
          <g
             id="text_5">
            <!-- 18 -->
            <g
               style="fill:#ffffff"
               transform="matrix(0.16,0,0,-0.16,323.37636,326.7415)"
               id="g16">
              <defs
                 id="defs14">
                <path
                   id="DejaVuSerif-38"
                   d="m 2981,1275 q 0,500 -249,776 -248,277 -698,277 -450,0 -698,-277 -248,-276 -248,-776 0,-503 248,-780 248,-276 698,-276 450,0 698,276 249,277 249,780 z m -128,2266 q 0,425 -216,662 -215,238 -603,238 -384,0 -601,-238 -217,-237 -217,-662 0,-428 217,-666 217,-237 601,-237 388,0 603,237 216,238 216,666 z M 2516,2484 q 531,-71 828,-392 297,-320 297,-817 Q 3641,619 3225,264 2809,-91 2034,-91 1263,-91 845,264 428,619 428,1275 q 0,497 297,817 297,321 831,392 -472,85 -724,358 -251,274 -251,699 0,562 387,885 388,324 1066,324 679,0 1066,-324 388,-323 388,-885 0,-425 -252,-699 -252,-273 -720,-358 z"
                   transform="scale(0.015625)" />
              </defs>
              <use
                 xlink:href="#DejaVuSerif-31"
                 id="use15" />
              <use
                 xlink:href="#DejaVuSerif-38"
                 x="63.623047"
                 id="use16" />
            </g>
          </g>
        </g>
        <g
           id="xtick_6">
          <g
             id="line2d_6">
            <g
               id="g17">
              <use
                 xlink:href="#m3df88d57a2"
                 x="398.48727"
                 y="307.58401"
                 style="stroke:#000000;stroke-width:0.8"
                 id="use17" />
            </g>
          </g>
          <g
             id="text_6">
            <!-- 19 -->
            <g
               style="fill:#ffffff"
               transform="matrix(0.16,0,0,-0.16,388.30727,326.7415)"
               id="g19">
              <defs
                 id="defs17">
                <path
                   id="DejaVuSerif-39"
                   d="m 2994,2091 q -210,-235 -482,-351 -271,-115 -612,-115 -694,0 -1096,419 -401,419 -401,1144 0,709 436,1135 436,427 1164,427 791,0 1214,-589 424,-589 424,-1683 Q 3641,1253 3137,581 2634,-91 1722,-91 1475,-91 1203,-44 931,3 647,97 v 775 h 350 q 41,-316 244,-485 203,-168 543,-168 607,0 903,457 297,458 307,1415 z M 1978,4441 q -444,0 -680,-324 -235,-323 -235,-929 0,-607 235,-932 236,-325 680,-325 444,0 680,314 236,314 236,905 0,622 -238,956 -237,335 -678,335 z"
                   transform="scale(0.015625)" />
              </defs>
              <use
                 xlink:href="#DejaVuSerif-31"
                 id="use18" />
              <use
                 xlink:href="#DejaVuSerif-39"
                 x="63.623047"
                 id="use19" />
            </g>
          </g>
        </g>
        <g
           id="text_7">
          <!-- Log$_{10}$($\nu$ / $Hz$) -->
          <g
             style="fill:#ffffff"
             transform="matrix(0.2,0,0,-0.2,170.16,349.269)"
             id="g32">
            <defs
               id="defs19">
              <path
                 id="DejaVuSerif-4c"
                 d="M 353,0 V 331 H 947 V 4331 H 353 v 335 H 2175 V 4331 H 1581 V 384 h 2132 v 782 h 384 V 0 Z"
                 transform="scale(0.015625)" />
              <path
                 id="DejaVuSerif-6f"
                 d="m 1925,219 q 463,0 698,365 236,366 236,1079 0,712 -236,1076 -235,364 -698,364 -462,0 -698,-364 Q 991,2375 991,1663 991,950 1228,584 1466,219 1925,219 Z m 0,-310 q -725,0 -1166,480 -440,480 -440,1274 0,793 439,1271 439,479 1167,479 728,0 1167,-479 439,-478 439,-1271 Q 3531,869 3092,389 2653,-91 1925,-91 Z"
                 transform="scale(0.015625)" />
              <path
                 id="DejaVuSerif-67"
                 d="M 3359,2988 V 72 q 0,-716 -394,-1105 -393,-389 -1121,-389 -328,0 -628,60 -300,59 -575,178 v 696 h 300 q 56,-325 265,-475 210,-150 600,-150 507,0 742,286 236,286 236,899 V 519 Q 2616,206 2355,57 2094,-91 1709,-91 1097,-91 708,395 319,881 319,1663 q 0,781 387,1265 388,485 1003,485 385,0 646,-149 261,-148 429,-461 v 519 H 3909 V 2988 Z M 2784,1825 q 0,597 -230,912 -229,316 -666,316 -444,0 -671,-350 -226,-350 -226,-1040 0,-688 226,-1041 227,-353 671,-353 437,0 666,314 230,314 230,914 z"
                 transform="scale(0.015625)" />
              <path
                 id="DejaVuSerif-30"
                 d="m 2034,219 q 479,0 716,525 238,525 238,1584 0,1063 -238,1588 -237,525 -716,525 -478,0 -716,-525 -237,-525 -237,-1588 0,-1059 237,-1584 238,-525 716,-525 z m 0,-310 q -759,0 -1186,637 -426,638 -426,1782 0,1147 426,1784 427,638 1186,638 763,0 1188,-638 425,-637 425,-1784 Q 3647,1184 3222,546 2797,-91 2034,-91 Z"
                 transform="scale(0.015625)" />
              <path
                 id="DejaVuSerif-28"
                 d="M 2041,-997 Q 1281,-656 893,83 506,822 506,1931 q 0,1113 387,1852 388,739 1148,1080 v -307 q -482,-331 -691,-933 -209,-601 -209,-1692 0,-1087 209,-1689 209,-601 691,-933 z"
                 transform="scale(0.015625)" />
              <path
                 id="DejaVuSerif-Italic-3bd"
                 d="m 1103,363 q 413,150 894,512 294,219 694,763 259,337 343,650 82,287 -9,506 -119,303 -334,344 l 34,184 h 350 q 325,-153 509,-494 144,-262 82,-581 -44,-231 -172,-422 -94,-137 -378,-459 Q 2738,950 2297,663 1494,138 1034,0 H 456 l 585,2988 H 491 l 62,334 h 1125 z"
                 transform="scale(0.015625)" />
              <path
                 id="DejaVuSerif-20"
                 transform="scale(0.015625)"
                 d="" />
              <path
                 id="DejaVuSerif-2f"
                 d="m 1656,4666 h 500 L 500,-594 H 0 Z"
                 transform="scale(0.015625)" />
              <path
                 id="DejaVuSerif-Italic-48"
                 d="m -97,0 63,331 h 593 l 779,4000 H 744 l 65,335 h 1822 l -65,-335 H 1972 L 1659,2719 h 2419 l 313,1612 h -594 l 66,335 h 1821 l -65,-335 H 5025 L 4247,331 h 594 L 4778,0 H 2956 l 63,331 h 597 l 387,2007 H 1584 L 1194,331 h 594 L 1725,0 Z"
                 transform="scale(0.015625)" />
              <path
                 id="DejaVuSerif-Italic-7a"
                 d="m 2550,3047 q 338,0 666,275 h 187 L 3353,3053 1081,684 q 32,-9 122,-37 106,-34 213,-103 l 153,-94 q 294,-178 506,-178 409,0 891,469 L 2891,363 Q 2356,-163 1950,-163 1703,-156 1356,59 1009,275 791,275 453,275 125,0 H -63 l 50,269 2276,2365 q -35,13 -125,41 -107,34 -213,103 l -153,94 q -294,178 -506,178 -410,0 -891,-469 l 75,378 q 534,525 941,525 247,-6 593,-222 347,-215 566,-215 z"
                 transform="scale(0.015625)" />
              <path
                 id="DejaVuSerif-29"
                 d="m 453,-997 v 306 q 481,332 692,933 211,602 211,1689 0,1091 -211,1692 -211,602 -692,933 v 307 Q 1216,4522 1603,3783 1991,3044 1991,1931 1991,822 1603,83 1216,-656 453,-997 Z"
                 transform="scale(0.015625)" />
            </defs>
            <use
               xlink:href="#DejaVuSerif-4c"
               transform="translate(0,0.015625)"
               id="use20" />
            <use
               xlink:href="#DejaVuSerif-6f"
               transform="translate(66.40625,0.015625)"
               id="use21" />
            <use
               xlink:href="#DejaVuSerif-67"
               transform="translate(126.61133,0.015625)"
               id="use22" />
            <use
               xlink:href="#DejaVuSerif-31"
               transform="matrix(0.7,0,0,0.7,191.53336,-15.55625)"
               id="use23" />
            <use
               xlink:href="#DejaVuSerif-30"
               transform="matrix(0.7,0,0,0.7,236.06949,-15.55625)"
               id="use24" />
            <use
               xlink:href="#DejaVuSerif-28"
               transform="translate(283.20094,0.015625)"
               id="use25" />
            <use
               xlink:href="#DejaVuSerif-Italic-3bd"
               transform="translate(322.21461,0.015625)"
               id="use26" />
            <use
               xlink:href="#DejaVuSerif-20"
               transform="translate(383.00562,0.015625)"
               id="use27" />
            <use
               xlink:href="#DejaVuSerif-2f"
               transform="translate(414.79273,0.015625)"
               id="use28" />
            <use
               xlink:href="#DejaVuSerif-20"
               transform="translate(448.48414,0.015625)"
               id="use29" />
            <use
               xlink:href="#DejaVuSerif-Italic-48"
               transform="translate(480.27125,0.015625)"
               id="use30" />
            <use
               xlink:href="#DejaVuSerif-Italic-7a"
               transform="translate(567.47828,0.015625)"
               id="use31" />
            <use
               xlink:href="#DejaVuSerif-29"
               transform="translate(620.16383,0.015625)"
               id="use32" />
          </g>
        </g>
      </g>
      <g
         id="matplotlib.axis_2">
        <g
           id="ytick_1">
          <g
             id="line2d_7">
            <defs
               id="defs32">
              <path
                 id="ma365a1038c"
                 d="M 0,0 H -3.5"
                 style="stroke:#ffffff;stroke-width:0.8" />
            </defs>
            <g
               id="g33">
              <use
                 xlink:href="#ma365a1038c"
                 x="57.599998"
                 y="261.05011"
                 style="fill:#ffffff;stroke:#ffffff;stroke-width:0.8"
                 id="use33" />
            </g>
          </g>
          <g
             id="text_8">
            <!-- −10 -->
            <g
               style="fill:#ffffff"
               transform="matrix(0.16,0,0,-0.16,16.8325,267.12886)"
               id="g36">
              <defs
                 id="defs33">
                <path
                   id="DejaVuSerif-2212"
                   d="M 678,2259 H 4684 V 1753 H 678 Z"
                   transform="scale(0.015625)" />
              </defs>
              <use
                 xlink:href="#DejaVuSerif-2212"
                 id="use34" />
              <use
                 xlink:href="#DejaVuSerif-31"
                 x="83.789062"
                 id="use35" />
              <use
                 xlink:href="#DejaVuSerif-30"
                 x="147.41211"
                 id="use36" />
            </g>
          </g>
        </g>
        <g
           id="ytick_2">
          <g
             id="line2d_8">
            <g
               id="g37">
              <use
                 xlink:href="#ma365a1038c"
                 x="57.599998"
                 y="209.89468"
                 style="fill:#ffffff;stroke:#ffffff;stroke-width:0.8"
                 id="use37" />
            </g>
          </g>
          <g
             id="text_9">
            <!-- 0 -->
            <g
               style="fill:#ffffff"
               transform="matrix(0.16,0,0,-0.16,40.42,215.97343)"
               id="g38">
              <use
                 xlink:href="#DejaVuSerif-30"
                 id="use38" />
            </g>
          </g>
        </g>
        <g
           id="ytick_3">
          <g
             id="line2d_9">
            <g
               id="g39">
              <use
                 xlink:href="#ma365a1038c"
                 x="57.599998"
                 y="158.73926"
                 style="fill:#ffffff;stroke:#ffffff;stroke-width:0.8"
                 id="use39" />
            </g>
          </g>
          <g
             id="text_10">
            <!-- 10 -->
            <g
               style="fill:#ffffff"
               transform="matrix(0.16,0,0,-0.16,30.24,164.81801)"
               id="g41">
              <use
                 xlink:href="#DejaVuSerif-31"
                 id="use40" />
              <use
                 xlink:href="#DejaVuSerif-30"
                 x="63.623047"
                 id="use41" />
            </g>
          </g>
        </g>
        <g
           id="ytick_4">
          <g
             id="line2d_10">
            <g
               id="g42">
              <use
                 xlink:href="#ma365a1038c"
                 x="57.599998"
                 y="107.58383"
                 style="fill:#ffffff;stroke:#ffffff;stroke-width:0.8"
                 id="use42" />
            </g>
          </g>
          <g
             id="text_11">
            <!-- 20 -->
            <g
               style="fill:#ffffff"
               transform="matrix(0.16,0,0,-0.16,30.24,113.66258)"
               id="g44">
              <defs
                 id="defs42">
                <path
                   id="DejaVuSerif-32"
                   d="M 819,3553 H 469 v 831 q 334,179 673,272 339,94 664,94 728,0 1150,-353 422,-353 422,-959 0,-685 -956,-1638 -75,-72 -113,-109 L 1131,513 h 1947 v 575 h 366 V 0 H 434 v 341 l 1416,1412 q 469,469 669,861 200,392 200,824 0,471 -246,737 -245,266 -676,266 -447,0 -691,-222 -243,-222 -287,-666 z"
                   transform="scale(0.015625)" />
              </defs>
              <use
                 xlink:href="#DejaVuSerif-32"
                 id="use43" />
              <use
                 xlink:href="#DejaVuSerif-30"
                 x="63.623047"
                 id="use44" />
            </g>
          </g>
        </g>
        <g
           id="ytick_5">
          <g
             id="line2d_11">
            <g
               id="g45">
              <use
                 xlink:href="#ma365a1038c"
                 x="57.599998"
                 y="56.428406"
                 style="fill:#ffffff;stroke:#ffffff;stroke-width:0.8"
                 id="use45" />
            </g>
          </g>
          <g
             id="text_12">
            <!-- 30 -->
            <g
               style="fill:#ffffff"
               transform="matrix(0.16,0,0,-0.16,30.24,62.507154)"
               id="g47">
              <defs
                 id="defs45">
                <path
                   id="DejaVuSerif-33"
                   d="m 622,4469 q 366,137 701,209 336,72 630,72 685,0 1069,-296 384,-295 384,-820 0,-421 -266,-704 -265,-283 -752,-383 575,-81 892,-417 317,-336 317,-871 0,-653 -439,-1002 -439,-348 -1264,-348 -366,0 -715,79 -348,78 -691,237 v 906 h 350 q 31,-450 303,-681 272,-231 765,-231 478,0 755,276 277,277 277,758 0,550 -285,833 -284,283 -834,283 h -297 v 319 h 156 q 547,0 820,226 274,227 274,683 0,409 -225,626 -225,218 -647,218 -422,0 -655,-200 -232,-200 -273,-594 H 622 Z"
                   transform="scale(0.015625)" />
              </defs>
              <use
                 xlink:href="#DejaVuSerif-33"
                 id="use46" />
              <use
                 xlink:href="#DejaVuSerif-30"
                 x="63.623047"
                 id="use47" />
            </g>
          </g>
        </g>
        <g
           id="text_13">
          <!-- Log$_{10}$($\nu L_{\nu}$ / $W Hz$) -->
          <g
             style="fill:#ffffff"
             transform="matrix(0,-0.2,-0.2,0,8.2325,261.928)"
             id="g63">
            <defs
               id="defs47">
              <path
                 id="DejaVuSerif-Italic-4c"
                 d="m -97,0 63,331 h 593 l 779,4000 H 744 l 65,335 h 1822 l -65,-335 H 1972 L 1206,384 h 2132 l 150,782 h 384 L 3647,0 Z"
                 transform="scale(0.015625)" />
              <path
                 id="DejaVuSerif-Italic-57"
                 d="M 4425,0 H 3913 L 3581,3794 1775,0 H 1263 L 881,4331 H 419 l 65,335 h 1704 l -66,-335 H 1541 L 1844,884 3641,4666 h 506 L 4484,844 6141,4331 h -538 l 66,335 h 1344 l -66,-335 h -459 z"
                 transform="scale(0.015625)" />
            </defs>
            <use
               xlink:href="#DejaVuSerif-4c"
               transform="translate(0,0.015625)"
               id="use48" />
            <use
               xlink:href="#DejaVuSerif-6f"
               transform="translate(66.40625,0.015625)"
               id="use49" />
            <use
               xlink:href="#DejaVuSerif-67"
               transform="translate(126.61133,0.015625)"
               id="use50" />
            <use
               xlink:href="#DejaVuSerif-31"
               transform="matrix(0.7,0,0,0.7,191.53336,-15.55625)"
               id="use51" />
            <use
               xlink:href="#DejaVuSerif-30"
               transform="matrix(0.7,0,0,0.7,236.06949,-15.55625)"
               id="use52" />
            <use
               xlink:href="#DejaVuSerif-28"
               transform="translate(283.20094,0.015625)"
               id="use53" />
            <use
               xlink:href="#DejaVuSerif-Italic-3bd"
               transform="translate(322.21461,0.015625)"
               id="use54" />
            <use
               xlink:href="#DejaVuSerif-Italic-4c"
               transform="translate(383.00562,0.015625)"
               id="use55" />
            <use
               xlink:href="#DejaVuSerif-Italic-3bd"
               transform="matrix(0.7,0,0,0.7,449.41187,-15.55625)"
               id="use56" />
            <use
               xlink:href="#DejaVuSerif-20"
               transform="translate(494.5609,0.015625)"
               id="use57" />
            <use
               xlink:href="#DejaVuSerif-2f"
               transform="translate(526.34801,0.015625)"
               id="use58" />
            <use
               xlink:href="#DejaVuSerif-20"
               transform="translate(560.03941,0.015625)"
               id="use59" />
            <use
               xlink:href="#DejaVuSerif-Italic-57"
               transform="translate(591.82652,0.015625)"
               id="use60" />
            <use
               xlink:href="#DejaVuSerif-Italic-48"
               transform="translate(694.60973,0.015625)"
               id="use61" />
            <use
               xlink:href="#DejaVuSerif-Italic-7a"
               transform="translate(781.81676,0.015625)"
               id="use62" />
            <use
               xlink:href="#DejaVuSerif-29"
               transform="translate(834.5023,0.015625)"
               id="use63" />
          </g>
        </g>
      </g>
      <g
         id="line2d_12">
        <path
           d="m 73.832727,77.205447 14.934109,-3.073707 11.687564,-2.18961 10.06429,-1.669116 9.73964,-1.389472 10.7136,-1.295747 19.15461,-2.038526 63.6323,-6.511444 28.5696,-2.721846 17.20669,-1.433981 12.33687,-0.813457 9.09033,-0.390675 7.46705,-0.10949 6.16844,0.118085 5.51912,0.323408 4.86982,0.506608 4.22051,0.648008 3.89586,0.805835 3.89585,1.041406 3.5712,1.195667 3.24655,1.317049 3.24654,1.566241 2.92189,1.649448 2.9219,1.90382 2.92188,2.1872 2.59724,2.207928 2.59724,2.481894 2.59723,2.782964 2.59724,3.113703 2.59724,3.476923 2.59723,3.875714 2.59724,4.313468 2.59724,4.793902 2.59723,5.321098 2.59724,5.899535 2.59724,6.53412 2.59723,7.23026 2.27258,6.95039 2.27259,7.58414 2.27258,8.27126 2.27258,9.01618 2.27258,9.82378 2.27258,10.69927 2.27259,11.64837 2.27258,12.67724 2.59723,15.85933 2.59724,17.45703 2.59723,19.20898 2.59724,21.1301 2.59724,23.23665 0.32465,3.06262 v 0"
           clip-path="url(#pcc179425ec)"
           style="fill:none;stroke:#f98811;stroke-width:3;stroke-linecap:square"
           id="path63" />
      </g>
      <g
         id="patch_3">
        <path
           d="M 57.6,307.584 V 41.472"
           style="fill:none;stroke:#ffffff;stroke-width:3;stroke-linecap:square;stroke-linejoin:miter"
           id="path64" />
      </g>
      <g
         id="patch_4">
        <path
           d="M 57.6,307.584 H 414.72"
           style="fill:none;stroke:#ffffff;stroke-width:3;stroke-linecap:square;stroke-linejoin:miter"
           id="path65" />
      </g>
    </g>
  </g>
  <defs
     id="defs65">
    <clipPath
       id="pcc179425ec">
      <rect
         x="57.599998"
         y="41.472"
         width="357.12"
         height="266.112"
         id="rect65" />
    </clipPath>
  </defs>
</svg>
