<?xml version="1.0" encoding="utf-8" standalone="no"?>
<!DOCTYPE svg PUBLIC "-//W3C//DTD SVG 1.1//EN"
  "http://www.w3.org/Graphics/SVG/1.1/DTD/svg11.dtd">
<svg xmlns:xlink="http://www.w3.org/1999/xlink" width="460.8pt" height="345.6pt" viewBox="0 0 460.8 345.6" xmlns="http://www.w3.org/2000/svg" version="1.1">
 <metadata>
  <rdf:RDF xmlns:dc="http://purl.org/dc/elements/1.1/" xmlns:cc="http://creativecommons.org/ns#" xmlns:rdf="http://www.w3.org/1999/02/22-rdf-syntax-ns#">
   <cc:Work>
    <dc:type rdf:resource="http://purl.org/dc/dcmitype/StillImage"/>
    <dc:date>2023-12-08T23:50:25.358602</dc:date>
    <dc:format>image/svg+xml</dc:format>
    <dc:creator>
     <cc:Agent>
      <dc:title>Matplotlib v3.7.2, https://matplotlib.org/</dc:title>
     </cc:Agent>
    </dc:creator>
   </cc:Work>
  </rdf:RDF>
 </metadata>
 <defs>
  <style type="text/css">*{stroke-linejoin: round; stroke-linecap: butt}</style>
 </defs>
 <g id="figure_1">
  <g id="patch_1">
   <path d="M 0 345.6 
L 460.8 345.6 
L 460.8 0 
L 0 0 
L 0 345.6 
z
" style="fill: none"/>
  </g>
  <g id="axes_1">
   <g id="patch_2">
    <path d="M 57.6 307.584 
L 414.72 307.584 
L 414.72 41.472 
L 57.6 41.472 
L 57.6 307.584 
z
" style="fill: none"/>
   </g>
   <g id="matplotlib.axis_1">
    <g id="xtick_1">
     <g id="line2d_1">
      <defs>
       <path id="me93405f5c9" d="M 0 0 
L 0 3.5 
" style="stroke: #000000; stroke-width: 0.8"/>
      </defs>
      <g>
       <use xlink:href="#me93405f5c9" x="73.832727" y="307.584" style="stroke: #000000; stroke-width: 0.8"/>
      </g>
     </g>
     <g id="text_1">
      <!-- 14 -->
      <g style="fill: #ffffff" transform="translate(63.652727 326.7415) scale(0.16 -0.16)">
       <defs>
        <path id="DejaVuSerif-31" d="M 909 0 
L 909 331 
L 1722 331 
L 1722 4213 
L 781 3603 
L 781 4013 
L 1919 4750 
L 2350 4750 
L 2350 331 
L 3163 331 
L 3163 0 
L 909 0 
z
" transform="scale(0.015625)"/>
        <path id="DejaVuSerif-34" d="M 2234 1581 
L 2234 4063 
L 641 1581 
L 2234 1581 
z
M 3609 0 
L 1484 0 
L 1484 331 
L 2234 331 
L 2234 1247 
L 197 1247 
L 197 1588 
L 2241 4750 
L 2859 4750 
L 2859 1581 
L 3750 1581 
L 3750 1247 
L 2859 1247 
L 2859 331 
L 3609 331 
L 3609 0 
z
" transform="scale(0.015625)"/>
       </defs>
       <use xlink:href="#DejaVuSerif-31"/>
       <use xlink:href="#DejaVuSerif-34" x="63.623047"/>
      </g>
     </g>
    </g>
    <g id="xtick_2">
     <g id="line2d_2">
      <g>
       <use xlink:href="#me93405f5c9" x="138.763636" y="307.584" style="stroke: #000000; stroke-width: 0.8"/>
      </g>
     </g>
     <g id="text_2">
      <!-- 15 -->
      <g style="fill: #ffffff" transform="translate(128.583636 326.7415) scale(0.16 -0.16)">
       <defs>
        <path id="DejaVuSerif-35" d="M 3219 4666 
L 3219 4153 
L 1081 4153 
L 1081 2816 
Q 1244 2928 1461 2984 
Q 1678 3041 1947 3041 
Q 2703 3041 3140 2622 
Q 3578 2203 3578 1478 
Q 3578 738 3136 323 
Q 2694 -91 1894 -91 
Q 1572 -91 1234 -12 
Q 897 66 544 225 
L 544 1131 
L 897 1131 
Q 925 688 1179 453 
Q 1434 219 1894 219 
Q 2388 219 2653 544 
Q 2919 869 2919 1478 
Q 2919 2084 2655 2407 
Q 2391 2731 1894 2731 
Q 1613 2731 1398 2631 
Q 1184 2531 1019 2322 
L 750 2322 
L 750 4666 
L 3219 4666 
z
" transform="scale(0.015625)"/>
       </defs>
       <use xlink:href="#DejaVuSerif-31"/>
       <use xlink:href="#DejaVuSerif-35" x="63.623047"/>
      </g>
     </g>
    </g>
    <g id="xtick_3">
     <g id="line2d_3">
      <g>
       <use xlink:href="#me93405f5c9" x="203.694545" y="307.584" style="stroke: #000000; stroke-width: 0.8"/>
      </g>
     </g>
     <g id="text_3">
      <!-- 16 -->
      <g style="fill: #ffffff" transform="translate(193.514545 326.7415) scale(0.16 -0.16)">
       <defs>
        <path id="DejaVuSerif-36" d="M 2094 219 
Q 2534 219 2771 542 
Q 3009 866 3009 1472 
Q 3009 2078 2771 2401 
Q 2534 2725 2094 2725 
Q 1647 2725 1412 2412 
Q 1178 2100 1178 1509 
Q 1178 888 1415 553 
Q 1653 219 2094 219 
z
M 1075 2569 
Q 1288 2803 1556 2918 
Q 1825 3034 2163 3034 
Q 2859 3034 3264 2615 
Q 3669 2197 3669 1472 
Q 3669 763 3233 336 
Q 2797 -91 2069 -91 
Q 1278 -91 853 498 
Q 428 1088 428 2181 
Q 428 3406 931 4078 
Q 1434 4750 2350 4750 
Q 2597 4750 2869 4703 
Q 3141 4656 3425 4563 
L 3425 3794 
L 3072 3794 
Q 3034 4109 2831 4275 
Q 2628 4441 2284 4441 
Q 1678 4441 1381 3981 
Q 1084 3522 1075 2569 
z
" transform="scale(0.015625)"/>
       </defs>
       <use xlink:href="#DejaVuSerif-31"/>
       <use xlink:href="#DejaVuSerif-36" x="63.623047"/>
      </g>
     </g>
    </g>
    <g id="xtick_4">
     <g id="line2d_4">
      <g>
       <use xlink:href="#me93405f5c9" x="268.625455" y="307.584" style="stroke: #000000; stroke-width: 0.8"/>
      </g>
     </g>
     <g id="text_4">
      <!-- 17 -->
      <g style="fill: #ffffff" transform="translate(258.445455 326.7415) scale(0.16 -0.16)">
       <defs>
        <path id="DejaVuSerif-37" d="M 3609 4347 
L 1784 0 
L 1319 0 
L 3059 4153 
L 903 4153 
L 903 3578 
L 538 3578 
L 538 4666 
L 3609 4666 
L 3609 4347 
z
" transform="scale(0.015625)"/>
       </defs>
       <use xlink:href="#DejaVuSerif-31"/>
       <use xlink:href="#DejaVuSerif-37" x="63.623047"/>
      </g>
     </g>
    </g>
    <g id="xtick_5">
     <g id="line2d_5">
      <g>
       <use xlink:href="#me93405f5c9" x="333.556364" y="307.584" style="stroke: #000000; stroke-width: 0.8"/>
      </g>
     </g>
     <g id="text_5">
      <!-- 18 -->
      <g style="fill: #ffffff" transform="translate(323.376364 326.7415) scale(0.16 -0.16)">
       <defs>
        <path id="DejaVuSerif-38" d="M 2981 1275 
Q 2981 1775 2732 2051 
Q 2484 2328 2034 2328 
Q 1584 2328 1336 2051 
Q 1088 1775 1088 1275 
Q 1088 772 1336 495 
Q 1584 219 2034 219 
Q 2484 219 2732 495 
Q 2981 772 2981 1275 
z
M 2853 3541 
Q 2853 3966 2637 4203 
Q 2422 4441 2034 4441 
Q 1650 4441 1433 4203 
Q 1216 3966 1216 3541 
Q 1216 3113 1433 2875 
Q 1650 2638 2034 2638 
Q 2422 2638 2637 2875 
Q 2853 3113 2853 3541 
z
M 2516 2484 
Q 3047 2413 3344 2092 
Q 3641 1772 3641 1275 
Q 3641 619 3225 264 
Q 2809 -91 2034 -91 
Q 1263 -91 845 264 
Q 428 619 428 1275 
Q 428 1772 725 2092 
Q 1022 2413 1556 2484 
Q 1084 2569 832 2842 
Q 581 3116 581 3541 
Q 581 4103 968 4426 
Q 1356 4750 2034 4750 
Q 2713 4750 3100 4426 
Q 3488 4103 3488 3541 
Q 3488 3116 3236 2842 
Q 2984 2569 2516 2484 
z
" transform="scale(0.015625)"/>
       </defs>
       <use xlink:href="#DejaVuSerif-31"/>
       <use xlink:href="#DejaVuSerif-38" x="63.623047"/>
      </g>
     </g>
    </g>
    <g id="xtick_6">
     <g id="line2d_6">
      <g>
       <use xlink:href="#me93405f5c9" x="398.487273" y="307.584" style="stroke: #000000; stroke-width: 0.8"/>
      </g>
     </g>
     <g id="text_6">
      <!-- 19 -->
      <g style="fill: #ffffff" transform="translate(388.307273 326.7415) scale(0.16 -0.16)">
       <defs>
        <path id="DejaVuSerif-39" d="M 2994 2091 
Q 2784 1856 2512 1740 
Q 2241 1625 1900 1625 
Q 1206 1625 804 2044 
Q 403 2463 403 3188 
Q 403 3897 839 4323 
Q 1275 4750 2003 4750 
Q 2794 4750 3217 4161 
Q 3641 3572 3641 2478 
Q 3641 1253 3137 581 
Q 2634 -91 1722 -91 
Q 1475 -91 1203 -44 
Q 931 3 647 97 
L 647 872 
L 997 872 
Q 1038 556 1241 387 
Q 1444 219 1784 219 
Q 2391 219 2687 676 
Q 2984 1134 2994 2091 
z
M 1978 4441 
Q 1534 4441 1298 4117 
Q 1063 3794 1063 3188 
Q 1063 2581 1298 2256 
Q 1534 1931 1978 1931 
Q 2422 1931 2658 2245 
Q 2894 2559 2894 3150 
Q 2894 3772 2656 4106 
Q 2419 4441 1978 4441 
z
" transform="scale(0.015625)"/>
       </defs>
       <use xlink:href="#DejaVuSerif-31"/>
       <use xlink:href="#DejaVuSerif-39" x="63.623047"/>
      </g>
     </g>
    </g>
    <g id="text_7">
     <!-- Log($\nu$ / $Hz$) -->
     <g style="fill: #ffffff" transform="translate(179.46 349.269) scale(0.2 -0.2)">
      <defs>
       <path id="DejaVuSerif-4c" d="M 353 0 
L 353 331 
L 947 331 
L 947 4331 
L 353 4331 
L 353 4666 
L 2175 4666 
L 2175 4331 
L 1581 4331 
L 1581 384 
L 3713 384 
L 3713 1166 
L 4097 1166 
L 4097 0 
L 353 0 
z
" transform="scale(0.015625)"/>
       <path id="DejaVuSerif-6f" d="M 1925 219 
Q 2388 219 2623 584 
Q 2859 950 2859 1663 
Q 2859 2375 2623 2739 
Q 2388 3103 1925 3103 
Q 1463 3103 1227 2739 
Q 991 2375 991 1663 
Q 991 950 1228 584 
Q 1466 219 1925 219 
z
M 1925 -91 
Q 1200 -91 759 389 
Q 319 869 319 1663 
Q 319 2456 758 2934 
Q 1197 3413 1925 3413 
Q 2653 3413 3092 2934 
Q 3531 2456 3531 1663 
Q 3531 869 3092 389 
Q 2653 -91 1925 -91 
z
" transform="scale(0.015625)"/>
       <path id="DejaVuSerif-67" d="M 3359 2988 
L 3359 72 
Q 3359 -644 2965 -1033 
Q 2572 -1422 1844 -1422 
Q 1516 -1422 1216 -1362 
Q 916 -1303 641 -1184 
L 641 -488 
L 941 -488 
Q 997 -813 1206 -963 
Q 1416 -1113 1806 -1113 
Q 2313 -1113 2548 -827 
Q 2784 -541 2784 72 
L 2784 519 
Q 2616 206 2355 57 
Q 2094 -91 1709 -91 
Q 1097 -91 708 395 
Q 319 881 319 1663 
Q 319 2444 706 2928 
Q 1094 3413 1709 3413 
Q 2094 3413 2355 3264 
Q 2616 3116 2784 2803 
L 2784 3322 
L 3909 3322 
L 3909 2988 
L 3359 2988 
z
M 2784 1825 
Q 2784 2422 2554 2737 
Q 2325 3053 1888 3053 
Q 1444 3053 1217 2703 
Q 991 2353 991 1663 
Q 991 975 1217 622 
Q 1444 269 1888 269 
Q 2325 269 2554 583 
Q 2784 897 2784 1497 
L 2784 1825 
z
" transform="scale(0.015625)"/>
       <path id="DejaVuSerif-28" d="M 2041 -997 
Q 1281 -656 893 83 
Q 506 822 506 1931 
Q 506 3044 893 3783 
Q 1281 4522 2041 4863 
L 2041 4556 
Q 1559 4225 1350 3623 
Q 1141 3022 1141 1931 
Q 1141 844 1350 242 
Q 1559 -359 2041 -691 
L 2041 -997 
z
" transform="scale(0.015625)"/>
       <path id="DejaVuSerif-Italic-3bd" d="M 1103 363 
Q 1516 513 1997 875 
Q 2291 1094 2691 1638 
Q 2950 1975 3034 2288 
Q 3116 2575 3025 2794 
Q 2906 3097 2691 3138 
L 2725 3322 
L 3075 3322 
Q 3400 3169 3584 2828 
Q 3728 2566 3666 2247 
Q 3622 2016 3494 1825 
Q 3400 1688 3116 1366 
Q 2738 950 2297 663 
Q 1494 138 1034 0 
L 456 0 
L 1041 2988 
L 491 2988 
L 553 3322 
L 1678 3322 
L 1103 363 
z
" transform="scale(0.015625)"/>
       <path id="DejaVuSerif-20" transform="scale(0.015625)"/>
       <path id="DejaVuSerif-2f" d="M 1656 4666 
L 2156 4666 
L 500 -594 
L 0 -594 
L 1656 4666 
z
" transform="scale(0.015625)"/>
       <path id="DejaVuSerif-Italic-48" d="M -97 0 
L -34 331 
L 559 331 
L 1338 4331 
L 744 4331 
L 809 4666 
L 2631 4666 
L 2566 4331 
L 1972 4331 
L 1659 2719 
L 4078 2719 
L 4391 4331 
L 3797 4331 
L 3863 4666 
L 5684 4666 
L 5619 4331 
L 5025 4331 
L 4247 331 
L 4841 331 
L 4778 0 
L 2956 0 
L 3019 331 
L 3616 331 
L 4003 2338 
L 1584 2338 
L 1194 331 
L 1788 331 
L 1725 0 
L -97 0 
z
" transform="scale(0.015625)"/>
       <path id="DejaVuSerif-Italic-7a" d="M 2550 3047 
Q 2888 3047 3216 3322 
L 3403 3322 
L 3353 3053 
L 1081 684 
Q 1113 675 1203 647 
Q 1309 613 1416 544 
L 1569 450 
Q 1863 272 2075 272 
Q 2484 272 2966 741 
L 2891 363 
Q 2356 -163 1950 -163 
Q 1703 -156 1356 59 
Q 1009 275 791 275 
Q 453 275 125 0 
L -63 0 
L -13 269 
L 2263 2634 
Q 2228 2647 2138 2675 
Q 2031 2709 1925 2778 
L 1772 2872 
Q 1478 3050 1266 3050 
Q 856 3050 375 2581 
L 450 2959 
Q 984 3484 1391 3484 
Q 1638 3478 1984 3262 
Q 2331 3047 2550 3047 
z
" transform="scale(0.015625)"/>
       <path id="DejaVuSerif-29" d="M 453 -997 
L 453 -691 
Q 934 -359 1145 242 
Q 1356 844 1356 1931 
Q 1356 3022 1145 3623 
Q 934 4225 453 4556 
L 453 4863 
Q 1216 4522 1603 3783 
Q 1991 3044 1991 1931 
Q 1991 822 1603 83 
Q 1216 -656 453 -997 
z
" transform="scale(0.015625)"/>
      </defs>
      <use xlink:href="#DejaVuSerif-4c" transform="translate(0 0.015625)"/>
      <use xlink:href="#DejaVuSerif-6f" transform="translate(66.40625 0.015625)"/>
      <use xlink:href="#DejaVuSerif-67" transform="translate(126.611328 0.015625)"/>
      <use xlink:href="#DejaVuSerif-28" transform="translate(190.625 0.015625)"/>
      <use xlink:href="#DejaVuSerif-Italic-3bd" transform="translate(229.638672 0.015625)"/>
      <use xlink:href="#DejaVuSerif-20" transform="translate(290.429688 0.015625)"/>
      <use xlink:href="#DejaVuSerif-2f" transform="translate(322.216797 0.015625)"/>
      <use xlink:href="#DejaVuSerif-20" transform="translate(355.908203 0.015625)"/>
      <use xlink:href="#DejaVuSerif-Italic-48" transform="translate(387.695312 0.015625)"/>
      <use xlink:href="#DejaVuSerif-Italic-7a" transform="translate(474.902344 0.015625)"/>
      <use xlink:href="#DejaVuSerif-29" transform="translate(527.587891 0.015625)"/>
     </g>
    </g>
   </g>
   <g id="matplotlib.axis_2">
    <g id="ytick_1">
     <g id="line2d_7">
      <defs>
       <path id="m145a8f016c" d="M 0 0 
L -3.5 0 
" style="stroke: #ffffff; stroke-width: 0.8"/>
      </defs>
      <g>
       <use xlink:href="#m145a8f016c" x="57.6" y="289.672158" style="fill: #ffffff; stroke: #ffffff; stroke-width: 0.8"/>
      </g>
     </g>
     <g id="text_8">
      <!-- 0.0000 -->
      <g style="fill: #ffffff" transform="translate(-5.385 295.750908) scale(0.16 -0.16)">
       <defs>
        <path id="DejaVuSerif-30" d="M 2034 219 
Q 2513 219 2750 744 
Q 2988 1269 2988 2328 
Q 2988 3391 2750 3916 
Q 2513 4441 2034 4441 
Q 1556 4441 1318 3916 
Q 1081 3391 1081 2328 
Q 1081 1269 1318 744 
Q 1556 219 2034 219 
z
M 2034 -91 
Q 1275 -91 848 546 
Q 422 1184 422 2328 
Q 422 3475 848 4112 
Q 1275 4750 2034 4750 
Q 2797 4750 3222 4112 
Q 3647 3475 3647 2328 
Q 3647 1184 3222 546 
Q 2797 -91 2034 -91 
z
" transform="scale(0.015625)"/>
        <path id="DejaVuSerif-2e" d="M 603 325 
Q 603 500 722 622 
Q 841 744 1019 744 
Q 1191 744 1312 622 
Q 1434 500 1434 325 
Q 1434 153 1312 31 
Q 1191 -91 1019 -91 
Q 841 -91 722 29 
Q 603 150 603 325 
z
" transform="scale(0.015625)"/>
       </defs>
       <use xlink:href="#DejaVuSerif-30"/>
       <use xlink:href="#DejaVuSerif-2e" x="63.623047"/>
       <use xlink:href="#DejaVuSerif-30" x="95.410156"/>
       <use xlink:href="#DejaVuSerif-30" x="159.033203"/>
       <use xlink:href="#DejaVuSerif-30" x="222.65625"/>
       <use xlink:href="#DejaVuSerif-30" x="286.279297"/>
      </g>
     </g>
    </g>
    <g id="ytick_2">
     <g id="line2d_8">
      <g>
       <use xlink:href="#m145a8f016c" x="57.6" y="255.352459" style="fill: #ffffff; stroke: #ffffff; stroke-width: 0.8"/>
      </g>
     </g>
     <g id="text_9">
      <!-- 0.0001 -->
      <g style="fill: #ffffff" transform="translate(-5.385 261.431209) scale(0.16 -0.16)">
       <use xlink:href="#DejaVuSerif-30"/>
       <use xlink:href="#DejaVuSerif-2e" x="63.623047"/>
       <use xlink:href="#DejaVuSerif-30" x="95.410156"/>
       <use xlink:href="#DejaVuSerif-30" x="159.033203"/>
       <use xlink:href="#DejaVuSerif-30" x="222.65625"/>
       <use xlink:href="#DejaVuSerif-31" x="286.279297"/>
      </g>
     </g>
    </g>
    <g id="ytick_3">
     <g id="line2d_9">
      <g>
       <use xlink:href="#m145a8f016c" x="57.6" y="221.032759" style="fill: #ffffff; stroke: #ffffff; stroke-width: 0.8"/>
      </g>
     </g>
     <g id="text_10">
      <!-- 0.0002 -->
      <g style="fill: #ffffff" transform="translate(-5.385 227.111509) scale(0.16 -0.16)">
       <defs>
        <path id="DejaVuSerif-32" d="M 819 3553 
L 469 3553 
L 469 4384 
Q 803 4563 1142 4656 
Q 1481 4750 1806 4750 
Q 2534 4750 2956 4397 
Q 3378 4044 3378 3438 
Q 3378 2753 2422 1800 
Q 2347 1728 2309 1691 
L 1131 513 
L 3078 513 
L 3078 1088 
L 3444 1088 
L 3444 0 
L 434 0 
L 434 341 
L 1850 1753 
Q 2319 2222 2519 2614 
Q 2719 3006 2719 3438 
Q 2719 3909 2473 4175 
Q 2228 4441 1797 4441 
Q 1350 4441 1106 4219 
Q 863 3997 819 3553 
z
" transform="scale(0.015625)"/>
       </defs>
       <use xlink:href="#DejaVuSerif-30"/>
       <use xlink:href="#DejaVuSerif-2e" x="63.623047"/>
       <use xlink:href="#DejaVuSerif-30" x="95.410156"/>
       <use xlink:href="#DejaVuSerif-30" x="159.033203"/>
       <use xlink:href="#DejaVuSerif-30" x="222.65625"/>
       <use xlink:href="#DejaVuSerif-32" x="286.279297"/>
      </g>
     </g>
    </g>
    <g id="ytick_4">
     <g id="line2d_10">
      <g>
       <use xlink:href="#m145a8f016c" x="57.6" y="186.71306" style="fill: #ffffff; stroke: #ffffff; stroke-width: 0.8"/>
      </g>
     </g>
     <g id="text_11">
      <!-- 0.0003 -->
      <g style="fill: #ffffff" transform="translate(-5.385 192.79181) scale(0.16 -0.16)">
       <defs>
        <path id="DejaVuSerif-33" d="M 622 4469 
Q 988 4606 1323 4678 
Q 1659 4750 1953 4750 
Q 2638 4750 3022 4454 
Q 3406 4159 3406 3634 
Q 3406 3213 3140 2930 
Q 2875 2647 2388 2547 
Q 2963 2466 3280 2130 
Q 3597 1794 3597 1259 
Q 3597 606 3158 257 
Q 2719 -91 1894 -91 
Q 1528 -91 1179 -12 
Q 831 66 488 225 
L 488 1131 
L 838 1131 
Q 869 681 1141 450 
Q 1413 219 1906 219 
Q 2384 219 2661 495 
Q 2938 772 2938 1253 
Q 2938 1803 2653 2086 
Q 2369 2369 1819 2369 
L 1522 2369 
L 1522 2688 
L 1678 2688 
Q 2225 2688 2498 2914 
Q 2772 3141 2772 3597 
Q 2772 4006 2547 4223 
Q 2322 4441 1900 4441 
Q 1478 4441 1245 4241 
Q 1013 4041 972 3647 
L 622 3647 
L 622 4469 
z
" transform="scale(0.015625)"/>
       </defs>
       <use xlink:href="#DejaVuSerif-30"/>
       <use xlink:href="#DejaVuSerif-2e" x="63.623047"/>
       <use xlink:href="#DejaVuSerif-30" x="95.410156"/>
       <use xlink:href="#DejaVuSerif-30" x="159.033203"/>
       <use xlink:href="#DejaVuSerif-30" x="222.65625"/>
       <use xlink:href="#DejaVuSerif-33" x="286.279297"/>
      </g>
     </g>
    </g>
    <g id="ytick_5">
     <g id="line2d_11">
      <g>
       <use xlink:href="#m145a8f016c" x="57.6" y="152.393361" style="fill: #ffffff; stroke: #ffffff; stroke-width: 0.8"/>
      </g>
     </g>
     <g id="text_12">
      <!-- 0.0004 -->
      <g style="fill: #ffffff" transform="translate(-5.385 158.472111) scale(0.16 -0.16)">
       <use xlink:href="#DejaVuSerif-30"/>
       <use xlink:href="#DejaVuSerif-2e" x="63.623047"/>
       <use xlink:href="#DejaVuSerif-30" x="95.410156"/>
       <use xlink:href="#DejaVuSerif-30" x="159.033203"/>
       <use xlink:href="#DejaVuSerif-30" x="222.65625"/>
       <use xlink:href="#DejaVuSerif-34" x="286.279297"/>
      </g>
     </g>
    </g>
    <g id="ytick_6">
     <g id="line2d_12">
      <g>
       <use xlink:href="#m145a8f016c" x="57.6" y="118.073661" style="fill: #ffffff; stroke: #ffffff; stroke-width: 0.8"/>
      </g>
     </g>
     <g id="text_13">
      <!-- 0.0005 -->
      <g style="fill: #ffffff" transform="translate(-5.385 124.152411) scale(0.16 -0.16)">
       <use xlink:href="#DejaVuSerif-30"/>
       <use xlink:href="#DejaVuSerif-2e" x="63.623047"/>
       <use xlink:href="#DejaVuSerif-30" x="95.410156"/>
       <use xlink:href="#DejaVuSerif-30" x="159.033203"/>
       <use xlink:href="#DejaVuSerif-30" x="222.65625"/>
       <use xlink:href="#DejaVuSerif-35" x="286.279297"/>
      </g>
     </g>
    </g>
    <g id="ytick_7">
     <g id="line2d_13">
      <g>
       <use xlink:href="#m145a8f016c" x="57.6" y="83.753962" style="fill: #ffffff; stroke: #ffffff; stroke-width: 0.8"/>
      </g>
     </g>
     <g id="text_14">
      <!-- 0.0006 -->
      <g style="fill: #ffffff" transform="translate(-5.385 89.832712) scale(0.16 -0.16)">
       <use xlink:href="#DejaVuSerif-30"/>
       <use xlink:href="#DejaVuSerif-2e" x="63.623047"/>
       <use xlink:href="#DejaVuSerif-30" x="95.410156"/>
       <use xlink:href="#DejaVuSerif-30" x="159.033203"/>
       <use xlink:href="#DejaVuSerif-30" x="222.65625"/>
       <use xlink:href="#DejaVuSerif-36" x="286.279297"/>
      </g>
     </g>
    </g>
    <g id="ytick_8">
     <g id="line2d_14">
      <g>
       <use xlink:href="#m145a8f016c" x="57.6" y="49.434262" style="fill: #ffffff; stroke: #ffffff; stroke-width: 0.8"/>
      </g>
     </g>
     <g id="text_15">
      <!-- 0.0007 -->
      <g style="fill: #ffffff" transform="translate(-5.385 55.513012) scale(0.16 -0.16)">
       <use xlink:href="#DejaVuSerif-30"/>
       <use xlink:href="#DejaVuSerif-2e" x="63.623047"/>
       <use xlink:href="#DejaVuSerif-30" x="95.410156"/>
       <use xlink:href="#DejaVuSerif-30" x="159.033203"/>
       <use xlink:href="#DejaVuSerif-30" x="222.65625"/>
       <use xlink:href="#DejaVuSerif-37" x="286.279297"/>
      </g>
     </g>
    </g>
    <g id="text_16">
     <!-- Residuals $\frac{L_{\nu}}{L_{\nu, ref}}$ -->
     <g style="fill: #ffffff" transform="translate(-21.385 245.228) rotate(-90) scale(0.2 -0.2)">
      <defs>
       <path id="DejaVuSerif-52" d="M 3066 2316 
Q 3284 2256 3442 2114 
Q 3600 1972 3725 1716 
L 4403 331 
L 4972 331 
L 4972 0 
L 3872 0 
L 3144 1484 
Q 2934 1916 2759 2042 
Q 2584 2169 2278 2169 
L 1581 2169 
L 1581 331 
L 2241 331 
L 2241 0 
L 353 0 
L 353 331 
L 947 331 
L 947 4331 
L 353 4331 
L 353 4666 
L 2719 4666 
Q 3400 4666 3770 4341 
Q 4141 4016 4141 3419 
Q 4141 2938 3870 2661 
Q 3600 2384 3066 2316 
z
M 1581 2503 
L 2503 2503 
Q 2975 2503 3200 2726 
Q 3425 2950 3425 3419 
Q 3425 3888 3200 4109 
Q 2975 4331 2503 4331 
L 1581 4331 
L 1581 2503 
z
" transform="scale(0.015625)"/>
       <path id="DejaVuSerif-65" d="M 3469 1600 
L 991 1600 
L 991 1575 
Q 991 903 1244 561 
Q 1497 219 1991 219 
Q 2369 219 2611 417 
Q 2853 616 2950 1006 
L 3413 1006 
Q 3275 459 2904 184 
Q 2534 -91 1931 -91 
Q 1203 -91 761 389 
Q 319 869 319 1663 
Q 319 2450 753 2931 
Q 1188 3413 1894 3413 
Q 2647 3413 3050 2948 
Q 3453 2484 3469 1600 
z
M 2791 1931 
Q 2772 2513 2545 2808 
Q 2319 3103 1894 3103 
Q 1497 3103 1269 2806 
Q 1041 2509 991 1931 
L 2791 1931 
z
" transform="scale(0.015625)"/>
       <path id="DejaVuSerif-73" d="M 359 184 
L 359 959 
L 691 959 
Q 703 588 923 403 
Q 1144 219 1575 219 
Q 1963 219 2166 364 
Q 2369 509 2369 788 
Q 2369 1006 2220 1140 
Q 2072 1275 1594 1428 
L 1178 1569 
Q 750 1706 558 1912 
Q 366 2119 366 2438 
Q 366 2894 700 3153 
Q 1034 3413 1625 3413 
Q 1888 3413 2178 3344 
Q 2469 3275 2778 3144 
L 2778 2419 
L 2447 2419 
Q 2434 2741 2221 2922 
Q 2009 3103 1644 3103 
Q 1281 3103 1095 2975 
Q 909 2847 909 2591 
Q 909 2381 1050 2254 
Q 1191 2128 1613 1997 
L 2069 1856 
Q 2541 1709 2748 1489 
Q 2956 1269 2956 922 
Q 2956 450 2595 179 
Q 2234 -91 1600 -91 
Q 1278 -91 972 -22 
Q 666 47 359 184 
z
" transform="scale(0.015625)"/>
       <path id="DejaVuSerif-69" d="M 622 4353 
Q 622 4497 726 4603 
Q 831 4709 978 4709 
Q 1122 4709 1226 4603 
Q 1331 4497 1331 4353 
Q 1331 4206 1228 4103 
Q 1125 4000 978 4000 
Q 831 4000 726 4103 
Q 622 4206 622 4353 
z
M 1356 331 
L 1900 331 
L 1900 0 
L 231 0 
L 231 331 
L 781 331 
L 781 2988 
L 231 2988 
L 231 3322 
L 1356 3322 
L 1356 331 
z
" transform="scale(0.015625)"/>
       <path id="DejaVuSerif-64" d="M 3359 331 
L 3909 331 
L 3909 0 
L 2784 0 
L 2784 519 
Q 2616 206 2355 57 
Q 2094 -91 1709 -91 
Q 1097 -91 708 395 
Q 319 881 319 1663 
Q 319 2444 706 2928 
Q 1094 3413 1709 3413 
Q 2094 3413 2355 3264 
Q 2616 3116 2784 2803 
L 2784 4531 
L 2241 4531 
L 2241 4863 
L 3359 4863 
L 3359 331 
z
M 2784 1497 
L 2784 1825 
Q 2784 2422 2554 2737 
Q 2325 3053 1888 3053 
Q 1444 3053 1217 2703 
Q 991 2353 991 1663 
Q 991 975 1217 622 
Q 1444 269 1888 269 
Q 2325 269 2554 583 
Q 2784 897 2784 1497 
z
" transform="scale(0.015625)"/>
       <path id="DejaVuSerif-75" d="M 2266 3322 
L 3341 3322 
L 3341 331 
L 3884 331 
L 3884 0 
L 2766 0 
L 2766 588 
Q 2606 256 2353 82 
Q 2100 -91 1766 -91 
Q 1213 -91 952 223 
Q 691 538 691 1209 
L 691 2988 
L 172 2988 
L 172 3322 
L 1269 3322 
L 1269 1388 
Q 1269 781 1417 556 
Q 1566 331 1947 331 
Q 2347 331 2556 625 
Q 2766 919 2766 1478 
L 2766 2988 
L 2266 2988 
L 2266 3322 
z
" transform="scale(0.015625)"/>
       <path id="DejaVuSerif-61" d="M 2547 1044 
L 2547 1747 
L 1806 1747 
Q 1378 1747 1168 1562 
Q 959 1378 959 997 
Q 959 650 1171 447 
Q 1384 244 1747 244 
Q 2106 244 2326 466 
Q 2547 688 2547 1044 
z
M 3122 2075 
L 3122 331 
L 3634 331 
L 3634 0 
L 2547 0 
L 2547 359 
Q 2356 128 2106 18 
Q 1856 -91 1522 -91 
Q 969 -91 644 203 
Q 319 497 319 997 
Q 319 1513 691 1797 
Q 1063 2081 1741 2081 
L 2547 2081 
L 2547 2309 
Q 2547 2688 2317 2895 
Q 2088 3103 1672 3103 
Q 1328 3103 1125 2947 
Q 922 2791 872 2484 
L 575 2484 
L 575 3156 
Q 875 3284 1158 3348 
Q 1441 3413 1709 3413 
Q 2400 3413 2761 3070 
Q 3122 2728 3122 2075 
z
" transform="scale(0.015625)"/>
       <path id="DejaVuSerif-6c" d="M 1313 331 
L 1856 331 
L 1856 0 
L 184 0 
L 184 331 
L 738 331 
L 738 4531 
L 184 4531 
L 184 4863 
L 1313 4863 
L 1313 331 
z
" transform="scale(0.015625)"/>
       <path id="DejaVuSerif-Italic-4c" d="M -97 0 
L -34 331 
L 559 331 
L 1338 4331 
L 744 4331 
L 809 4666 
L 2631 4666 
L 2566 4331 
L 1972 4331 
L 1206 384 
L 3338 384 
L 3488 1166 
L 3872 1166 
L 3647 0 
L -97 0 
z
" transform="scale(0.015625)"/>
       <path id="DejaVuSerif-2c" d="M 231 -622 
Q 525 -406 662 -114 
Q 800 178 800 594 
L 800 709 
L 1416 709 
Q 1391 175 1164 -208 
Q 938 -591 481 -872 
L 231 -622 
z
" transform="scale(0.015625)"/>
       <path id="DejaVuSerif-Italic-72" d="M 3375 3328 
L 3213 2497 
L 2881 2497 
Q 2891 2559 2891 2613 
Q 2891 2775 2816 2866 
Q 2719 2988 2484 2988 
Q 2059 2988 1775 2694 
Q 1491 2400 1384 1850 
L 1025 0 
L 450 0 
L 1031 2994 
L 481 2994 
L 544 3322 
L 1669 3322 
L 1556 2731 
Q 1791 3078 2089 3245 
Q 2388 3413 2769 3413 
Q 2909 3413 3059 3391 
Q 3209 3369 3375 3328 
z
" transform="scale(0.015625)"/>
       <path id="DejaVuSerif-Italic-65" d="M 938 1275 
Q 925 1156 925 1050 
Q 925 756 1031 563 
Q 1216 219 1709 219 
Q 2072 219 2250 328 
Q 2569 525 2644 778 
L 3066 778 
Q 2941 381 2475 103 
Q 2150 -91 1506 -91 
Q 863 -91 516 388 
Q 272 722 272 1206 
Q 272 1419 319 1659 
Q 472 2450 1000 2931 
Q 1528 3413 2278 3413 
Q 3500 3413 3500 2547 
Q 3500 1913 2859 1603 
Q 2206 1288 938 1275 
z
M 2541 1975 
Q 2891 2181 2891 2569 
Q 2891 3103 2181 3103 
Q 1763 3103 1472 2784 
Q 1181 2466 1003 1606 
Q 2006 1653 2541 1975 
z
" transform="scale(0.015625)"/>
       <path id="DejaVuSerif-Italic-66" d="M 3191 4078 
L 2888 4078 
Q 2900 4144 2900 4203 
Q 2900 4347 2825 4434 
Q 2719 4556 2472 4556 
Q 2150 4556 1984 4379 
Q 1819 4203 1731 3750 
L 1647 3322 
L 2575 3322 
L 2509 2988 
L 1581 2988 
L 963 -206 
Q 853 -763 509 -1047 
Q 166 -1331 -394 -1331 
L -356 -1025 
Q -28 -1025 131 -850 
Q 297 -663 388 -206 
L 1006 2988 
L 456 2988 
L 522 3322 
L 1072 3322 
L 1153 3738 
Q 1263 4297 1606 4578 
Q 1950 4863 2509 4863 
Q 2719 4863 2920 4825 
Q 3122 4788 3316 4709 
L 3191 4078 
z
" transform="scale(0.015625)"/>
      </defs>
      <use xlink:href="#DejaVuSerif-52" transform="translate(0 0.21375)"/>
      <use xlink:href="#DejaVuSerif-65" transform="translate(75.292969 0.21375)"/>
      <use xlink:href="#DejaVuSerif-73" transform="translate(134.472656 0.21375)"/>
      <use xlink:href="#DejaVuSerif-69" transform="translate(185.791016 0.21375)"/>
      <use xlink:href="#DejaVuSerif-64" transform="translate(217.773438 0.21375)"/>
      <use xlink:href="#DejaVuSerif-75" transform="translate(281.787109 0.21375)"/>
      <use xlink:href="#DejaVuSerif-61" transform="translate(346.191406 0.21375)"/>
      <use xlink:href="#DejaVuSerif-6c" transform="translate(405.810547 0.21375)"/>
      <use xlink:href="#DejaVuSerif-73" transform="translate(437.792969 0.21375)"/>
      <use xlink:href="#DejaVuSerif-20" transform="translate(489.111328 0.21375)"/>
      <use xlink:href="#DejaVuSerif-Italic-4c" transform="translate(568.898438 54.965625) scale(0.7)"/>
      <use xlink:href="#DejaVuSerif-Italic-3bd" transform="translate(615.382812 44.065313) scale(0.49)"/>
      <use xlink:href="#DejaVuSerif-Italic-4c" transform="translate(520.898438 -38.219063) scale(0.7)"/>
      <use xlink:href="#DejaVuSerif-Italic-3bd" transform="translate(567.382812 -49.119375) scale(0.49)"/>
      <use xlink:href="#DejaVuSerif-2c" transform="translate(597.17041 -49.119375) scale(0.49)"/>
      <use xlink:href="#DejaVuSerif-Italic-72" transform="translate(622.038867 -49.119375) scale(0.49)"/>
      <use xlink:href="#DejaVuSerif-Italic-65" transform="translate(645.462207 -49.119375) scale(0.49)"/>
      <use xlink:href="#DejaVuSerif-Italic-66" transform="translate(674.460254 -49.119375) scale(0.49)"/>
      <path d="M 520.898438 19.065313 
L 520.898438 25.315313 
L 694.412715 25.315313 
L 694.412715 19.065313 
L 520.898438 19.065313 
z
"/>
     </g>
    </g>
    <g id="text_17">
     <!-- +1 -->
     <g style="fill: #ffffff" transform="translate(57.6 38.472) scale(0.16 -0.16)">
      <defs>
       <path id="DejaVuSerif-2b" d="M 2931 4013 
L 2931 2259 
L 4684 2259 
L 4684 1753 
L 2931 1753 
L 2931 0 
L 2431 0 
L 2431 1753 
L 678 1753 
L 678 2259 
L 2431 2259 
L 2431 4013 
L 2931 4013 
z
" transform="scale(0.015625)"/>
      </defs>
      <use xlink:href="#DejaVuSerif-2b"/>
      <use xlink:href="#DejaVuSerif-31" x="83.789062"/>
     </g>
    </g>
   </g>
   <g id="line2d_15">
    <path d="M 73.832727 295.488 
L 76.429964 291.729782 
L 79.0272 287.600032 
L 81.624436 283.06622 
L 84.221673 278.095011 
L 86.818909 272.653151 
L 89.416145 266.708764 
L 92.013382 260.23315 
L 94.610618 253.203217 
L 97.532509 244.614594 
L 100.4544 235.306001 
L 103.700945 224.154724 
L 107.272145 211.02131 
L 111.817309 193.375084 
L 119.284364 164.306513 
L 122.206255 153.866635 
L 124.478836 146.458324 
L 126.751418 139.830701 
L 128.699345 134.854177 
L 130.322618 131.236224 
L 131.945891 128.108088 
L 133.569164 125.46221 
L 135.192436 123.276576 
L 136.815709 121.516457 
L 138.438982 120.137149 
L 140.062255 119.087406 
L 141.685527 118.313163 
L 143.633455 117.672915 
L 145.581382 117.26835 
L 148.178618 116.974113 
L 151.749818 116.823543 
L 158.567564 116.816434 
L 174.150982 117.050783 
L 185.189236 117.416471 
L 193.630255 117.912791 
L 200.123345 118.50411 
L 205.642473 119.216388 
L 210.512291 120.061365 
L 214.7328 121.003784 
L 218.628655 122.085694 
L 222.199855 123.287915 
L 225.771055 124.719927 
L 229.342255 126.406297 
L 232.5888 128.175092 
L 236.16 130.385785 
L 239.7312 132.862895 
L 243.951709 136.081942 
L 256.288582 145.739535 
L 258.561164 147.12315 
L 260.509091 148.066129 
L 262.132364 148.632498 
L 263.755636 148.95688 
L 265.054255 149.013774 
L 266.352873 148.866317 
L 267.651491 148.491801 
L 268.950109 147.867675 
L 270.248727 146.972079 
L 271.547345 145.784469 
L 272.845964 144.286334 
L 274.144582 142.462007 
L 275.4432 140.299542 
L 277.066473 137.110382 
L 278.689745 133.380352 
L 280.313018 129.124614 
L 282.260945 123.374129 
L 284.533527 115.911586 
L 287.780073 104.336503 
L 292.000582 89.311 
L 293.948509 83.131883 
L 295.571782 78.674723 
L 296.8704 75.694115 
L 298.169018 73.32816 
L 299.142982 72.004022 
L 300.116945 71.097431 
L 300.766255 70.736718 
L 301.415564 70.57761 
L 302.064873 70.624523 
L 302.714182 70.880631 
L 303.363491 71.34781 
L 304.0128 72.026576 
L 304.986764 73.439108 
L 305.960727 75.316258 
L 306.934691 77.641473 
L 308.233309 81.396188 
L 309.531927 85.826884 
L 311.1552 92.163375 
L 313.427782 102.091247 
L 318.622255 125.422995 
L 320.245527 131.694942 
L 321.544145 136.021839 
L 322.842764 139.607359 
L 323.816727 141.753317 
L 324.790691 143.400821 
L 325.764655 144.530704 
L 326.413964 144.991558 
L 327.063273 145.218156 
L 327.712582 145.212602 
L 328.361891 144.979126 
L 329.0112 144.524065 
L 329.660509 143.855813 
L 330.634473 142.476946 
L 331.608436 140.685155 
L 332.907055 137.744068 
L 334.530327 133.384339 
L 337.127564 125.584044 
L 339.7248 117.967898 
L 341.348073 113.869165 
L 342.646691 111.164875 
L 343.620655 109.534958 
L 344.594618 108.276816 
L 345.568582 107.405391 
L 346.542545 106.923822 
L 347.191855 106.815583 
L 347.841164 106.871639 
L 348.815127 107.246735 
L 349.789091 107.940227 
L 350.763055 108.909225 
L 352.061673 110.541712 
L 354.0096 113.441328 
L 356.931491 117.83447 
L 358.230109 119.45005 
L 359.528727 120.697521 
L 360.502691 121.342938 
L 361.476655 121.715111 
L 362.450618 121.804245 
L 363.424582 121.61238 
L 364.398545 121.15348 
L 365.372509 120.45311 
L 366.671127 119.208104 
L 368.619055 116.912758 
L 371.216291 113.811279 
L 372.514909 112.593587 
L 373.488873 111.947893 
L 374.462836 111.590591 
L 375.112145 111.533778 
L 375.761455 111.633175 
L 376.410764 111.894948 
L 377.384727 112.597301 
L 378.358691 113.664628 
L 379.332655 115.070957 
L 380.631273 117.388538 
L 382.5792 121.436393 
L 384.527127 125.378882 
L 385.501091 126.960829 
L 386.475055 128.069728 
L 387.124364 128.462718 
L 387.773673 128.519757 
L 388.422982 128.191083 
L 389.072291 127.428621 
L 389.7216 126.186975 
L 390.370909 124.424495 
L 391.020218 122.104384 
L 391.994182 117.513271 
L 392.968145 111.52783 
L 393.942109 104.12203 
L 395.240727 92.098917 
L 396.539345 77.86807 
L 398.487273 53.568 
L 398.487273 53.568 
" clip-path="url(#pfb177835e4)" style="fill: none; stroke: #a02a00; stroke-width: 3; stroke-linecap: square"/>
   </g>
   <g id="line2d_16">
    <path d="M 73.832727 293.708413 
L 76.754618 290.754266 
L 79.676509 287.470042 
L 82.5984 283.823409 
L 85.520291 279.781366 
L 88.442182 275.311515 
L 91.364073 270.383941 
L 94.285964 264.973901 
L 97.207855 259.065493 
L 100.129745 252.656439 
L 103.376291 244.969963 
L 106.947491 235.902508 
L 111.492655 223.687858 
L 119.284364 202.615039 
L 122.206255 195.366474 
L 124.803491 189.530212 
L 127.076073 185.012894 
L 129.024 181.636642 
L 130.971927 178.744839 
L 132.5952 176.7083 
L 134.218473 175.001699 
L 135.841745 173.606037 
L 137.465018 172.494174 
L 139.088291 171.632946 
L 141.036218 170.878572 
L 142.984145 170.367541 
L 145.256727 169.997998 
L 148.178618 169.757305 
L 152.723782 169.645263 
L 163.112727 169.689133 
L 179.670109 169.95262 
L 190.383709 170.329001 
L 198.500073 170.823836 
L 204.993164 171.428389 
L 210.512291 172.151321 
L 215.382109 173.000776 
L 219.927273 174.017895 
L 224.147782 175.193899 
L 228.043636 176.504841 
L 231.939491 178.050304 
L 235.835345 179.835232 
L 240.055855 182.020943 
L 245.250327 184.981275 
L 253.042036 189.451395 
L 255.963927 190.880295 
L 258.236509 191.783802 
L 260.184436 192.357405 
L 262.132364 192.695383 
L 263.755636 192.760038 
L 265.378909 192.594386 
L 267.002182 192.167077 
L 268.3008 191.616187 
L 269.599418 190.863341 
L 270.898036 189.895005 
L 272.521309 188.364017 
L 274.144582 186.461188 
L 275.767855 184.177584 
L 277.391127 181.514599 
L 279.339055 177.838731 
L 281.286982 173.688927 
L 283.884218 167.571331 
L 291.675927 148.625242 
L 293.2992 145.397755 
L 294.597818 143.198241 
L 295.896436 141.405715 
L 296.8704 140.361818 
L 297.844364 139.598002 
L 298.818327 139.13091 
L 299.792291 138.97331 
L 300.766255 139.133652 
L 301.740218 139.615691 
L 302.714182 140.418197 
L 303.688145 141.534759 
L 304.662109 142.953699 
L 305.960727 145.285989 
L 307.259345 148.071025 
L 308.882618 152.082481 
L 311.1552 158.388542 
L 316.349673 173.126058 
L 317.972945 177.036023 
L 319.271564 179.711512 
L 320.570182 181.910037 
L 321.544145 183.214807 
L 322.518109 184.208351 
L 323.492073 184.883168 
L 324.466036 185.238575 
L 325.44 185.280744 
L 326.413964 185.022561 
L 327.387927 184.483316 
L 328.361891 183.688215 
L 329.660509 182.283396 
L 331.283782 180.093747 
L 333.556364 176.554129 
L 336.802909 171.498201 
L 338.426182 169.352104 
L 339.7248 167.940345 
L 341.023418 166.846531 
L 342.322036 166.09239 
L 343.296 165.751166 
L 344.269964 165.595279 
L 345.568582 165.653276 
L 346.8672 165.97441 
L 348.490473 166.659987 
L 350.763055 167.922583 
L 354.0096 169.706385 
L 355.632873 170.359139 
L 357.256145 170.765817 
L 358.879418 170.907201 
L 360.502691 170.80098 
L 362.450618 170.418544 
L 368.943709 168.837804 
L 370.891636 168.745167 
L 372.839564 168.9156 
L 375.112145 169.366636 
L 379.008 170.206657 
L 380.631273 170.346843 
L 382.254545 170.26802 
L 383.877818 169.954527 
L 385.825745 169.323937 
L 389.396945 168.065977 
L 390.695564 167.857541 
L 391.669527 167.883106 
L 392.643491 168.105102 
L 393.617455 168.551921 
L 394.591418 169.240661 
L 395.565382 170.173413 
L 396.864 171.76479 
L 398.487273 174.155026 
L 398.487273 174.155026 
" clip-path="url(#pfb177835e4)" style="fill: none; stroke: #ce4f01; stroke-width: 3; stroke-linecap: square"/>
   </g>
   <g id="line2d_17">
    <path d="M 73.832727 292.636534 
L 77.079273 290.210272 
L 80.325818 287.481397 
L 83.247709 284.739639 
L 86.1696 281.702026 
L 89.091491 278.34503 
L 92.013382 274.647335 
L 94.935273 270.591958 
L 97.857164 266.169119 
L 101.103709 260.825746 
L 104.350255 255.054801 
L 108.246109 247.647775 
L 114.089891 235.953802 
L 119.284364 225.71313 
L 122.206255 220.388291 
L 124.803491 216.100977 
L 127.076073 212.782594 
L 129.024 210.302468 
L 130.971927 208.178256 
L 132.919855 206.412593 
L 134.867782 204.992387 
L 136.815709 203.890304 
L 138.763636 203.067859 
L 140.711564 202.479664 
L 142.984145 202.026069 
L 145.906036 201.70245 
L 149.801891 201.532559 
L 156.944291 201.499617 
L 176.098909 201.681217 
L 189.085091 201.998821 
L 198.500073 202.441111 
L 205.967127 203.012157 
L 212.135564 203.704515 
L 217.330036 204.497375 
L 222.199855 205.459646 
L 226.745018 206.583186 
L 231.290182 207.948118 
L 235.835345 209.560311 
L 240.705164 211.533858 
L 254.989964 217.547756 
L 257.5872 218.303305 
L 259.859782 218.747678 
L 261.807709 218.921293 
L 263.755636 218.862121 
L 265.378909 218.605849 
L 267.002182 218.136795 
L 268.625455 217.433161 
L 270.248727 216.475546 
L 271.872 215.248263 
L 273.495273 213.740832 
L 275.118545 211.949579 
L 277.066473 209.432853 
L 279.0144 206.542462 
L 281.286982 202.768649 
L 284.533527 196.88367 
L 289.078691 188.670168 
L 291.026618 185.589637 
L 292.649891 183.40159 
L 293.948509 181.965906 
L 295.247127 180.855997 
L 296.221091 180.259169 
L 297.195055 179.878047 
L 298.169018 179.721833 
L 299.142982 179.796429 
L 300.116945 180.104163 
L 301.090909 180.643573 
L 302.064873 181.409285 
L 303.363491 182.765559 
L 304.662109 184.474222 
L 306.285382 187.036729 
L 308.233309 190.589927 
L 312.129164 198.364675 
L 314.401745 202.663942 
L 316.025018 205.361733 
L 317.648291 207.618669 
L 318.946909 209.048576 
L 320.245527 210.11268 
L 321.219491 210.661748 
L 322.193455 210.996607 
L 323.167418 211.121742 
L 324.141382 211.046258 
L 325.115345 210.783598 
L 326.413964 210.172755 
L 327.712582 209.310786 
L 329.335855 207.969767 
L 332.257745 205.196821 
L 334.854982 202.83005 
L 336.802909 201.375513 
L 338.426182 200.465558 
L 339.7248 199.957859 
L 341.023418 199.646802 
L 342.646691 199.515509 
L 344.269964 199.627555 
L 346.217891 199.99492 
L 354.0096 201.759646 
L 356.282182 201.894367 
L 358.879418 201.808731 
L 368.2944 201.223272 
L 372.514909 201.389302 
L 377.384727 201.531532 
L 381.605236 201.40317 
L 386.475055 201.285999 
L 390.046255 201.446912 
L 394.591418 201.655776 
L 396.864 201.517336 
L 398.487273 201.272794 
L 398.487273 201.272794 
" clip-path="url(#pfb177835e4)" style="fill: none; stroke: #e16904; stroke-width: 3; stroke-linecap: square"/>
   </g>
   <g id="line2d_18">
    <path d="M 73.832727 291.941289 
L 77.403927 289.885494 
L 80.650473 287.771586 
L 83.897018 285.398394 
L 87.143564 282.740542 
L 90.390109 279.773842 
L 93.636655 276.477451 
L 96.8832 272.836996 
L 100.129745 268.848828 
L 103.700945 264.075841 
L 107.5968 258.465482 
L 112.791273 250.551295 
L 119.284364 240.704321 
L 122.530909 236.197924 
L 125.128145 232.962536 
L 127.400727 230.470357 
L 129.673309 228.333965 
L 131.621236 226.799715 
L 133.569164 225.537952 
L 135.517091 224.53483 
L 137.465018 223.766264 
L 139.7376 223.123617 
L 142.334836 222.654356 
L 145.256727 222.364714 
L 149.477236 222.200618 
L 157.5936 222.173731 
L 179.0208 222.362958 
L 192.331636 222.683805 
L 201.746618 223.121779 
L 209.213673 223.683778 
L 215.382109 224.359204 
L 220.901236 225.178641 
L 226.095709 226.176704 
L 230.965527 227.337619 
L 235.835345 228.721054 
L 241.679127 230.630561 
L 252.717382 234.332004 
L 255.963927 235.152743 
L 258.561164 235.598166 
L 260.833745 235.777562 
L 262.781673 235.736741 
L 264.7296 235.483255 
L 266.677527 234.986433 
L 268.3008 234.366084 
L 269.924073 233.543248 
L 271.547345 232.50748 
L 273.495273 230.975707 
L 275.4432 229.130704 
L 277.391127 226.989365 
L 279.663709 224.164641 
L 282.5856 220.162736 
L 288.104727 212.513059 
L 290.052655 210.188767 
L 291.675927 208.554693 
L 292.974545 207.496262 
L 294.273164 206.693293 
L 295.571782 206.171752 
L 296.545745 205.977106 
L 297.519709 205.9569 
L 298.493673 206.11356 
L 299.467636 206.446569 
L 300.766255 207.158288 
L 302.064873 208.159806 
L 303.363491 209.42455 
L 304.986764 211.320775 
L 306.934691 213.942559 
L 313.752436 223.527628 
L 315.375709 225.320492 
L 316.998982 226.7523 
L 318.2976 227.6061 
L 319.596218 228.187794 
L 320.894836 228.497522 
L 322.193455 228.546495 
L 323.492073 228.356191 
L 324.790691 227.957048 
L 326.413964 227.222272 
L 328.686545 225.905758 
L 333.556364 222.975988 
L 335.504291 222.093499 
L 337.452218 221.481988 
L 339.075491 221.188384 
L 341.023418 221.072666 
L 343.296 221.192524 
L 346.8672 221.663991 
L 351.087709 222.166799 
L 354.334255 222.303105 
L 358.554764 222.210804 
L 365.697164 222.038214 
L 398.487273 222.067325 
L 398.487273 222.067325 
" clip-path="url(#pfb177835e4)" style="fill: none; stroke: #f98811; stroke-width: 3; stroke-linecap: square"/>
   </g>
   <g id="line2d_19">
    <path d="M 73.832727 291.1241 
L 78.053236 289.550228 
L 81.949091 287.868633 
L 85.844945 285.938711 
L 89.416145 283.927907 
L 92.987345 281.666328 
L 96.558545 279.14015 
L 100.129745 276.344751 
L 104.0256 273.000488 
L 108.246109 269.079873 
L 115.388509 262.071035 
L 120.258327 257.439911 
L 123.504873 254.645085 
L 126.102109 252.669228 
L 128.699345 250.974448 
L 130.971927 249.743387 
L 133.244509 248.751152 
L 135.517091 247.986637 
L 138.114327 247.361062 
L 141.036218 246.914533 
L 144.607418 246.629577 
L 149.477236 246.494839 
L 160.190836 246.487572 
L 184.215273 246.681962 
L 197.850764 247.001729 
L 207.5904 247.446387 
L 215.382109 248.022696 
L 221.8752 248.716075 
L 228.043636 249.598772 
L 233.887418 250.654489 
L 240.705164 252.121105 
L 252.068073 254.606726 
L 255.639273 255.145909 
L 258.561164 255.38612 
L 261.1584 255.391551 
L 263.430982 255.196238 
L 265.703564 254.781257 
L 267.976145 254.118782 
L 270.248727 253.188032 
L 272.521309 251.979423 
L 274.793891 250.499119 
L 277.391127 248.509537 
L 280.637673 245.695559 
L 286.481455 240.533755 
L 288.754036 238.856971 
L 290.701964 237.721793 
L 292.325236 237.044978 
L 293.948509 236.648532 
L 295.247127 236.548302 
L 296.545745 236.64666 
L 297.844364 236.942441 
L 299.467636 237.577626 
L 301.090909 238.480088 
L 303.038836 239.853736 
L 305.636073 242.013327 
L 310.505891 246.160912 
L 312.453818 247.532882 
L 314.077091 248.451412 
L 315.700364 249.132988 
L 317.323636 249.56484 
L 318.946909 249.751447 
L 320.570182 249.713347 
L 322.518109 249.419787 
L 324.790691 248.834612 
L 332.5824 246.591611 
L 335.179636 246.202955 
L 337.776873 246.050679 
L 341.023418 246.100992 
L 352.061673 246.479153 
L 398.487273 246.426687 
L 398.487273 246.426687 
" clip-path="url(#pfb177835e4)" style="fill: none; stroke: #ffac2b; stroke-width: 3; stroke-linecap: square"/>
   </g>
   <g id="line2d_20">
    <path d="M 73.832727 290.680361 
L 78.702545 289.403878 
L 83.247709 287.992944 
L 87.468218 286.465397 
L 91.688727 284.704341 
L 95.909236 282.690977 
L 100.129745 280.416872 
L 104.350255 277.89207 
L 109.220073 274.719996 
L 122.206255 266.098099 
L 125.4528 264.302057 
L 128.374691 262.93515 
L 130.971927 261.944694 
L 133.569164 261.170535 
L 136.491055 260.542074 
L 139.7376 260.098348 
L 143.633455 259.822093 
L 149.152582 259.692684 
L 162.463418 259.692819 
L 188.111127 259.880511 
L 202.071273 260.189065 
L 212.135564 260.62474 
L 220.251927 261.191937 
L 227.394327 261.906386 
L 234.536727 262.845261 
L 244.276364 264.38573 
L 251.418764 265.435024 
L 255.639273 265.839299 
L 258.885818 265.947062 
L 261.807709 265.834686 
L 264.404945 265.528731 
L 267.002182 264.998275 
L 269.599418 264.222552 
L 272.196655 263.194945 
L 274.793891 261.929243 
L 278.040436 260.076061 
L 286.481455 255.050674 
L 288.754036 254.052302 
L 290.701964 253.446687 
L 292.325236 253.150829 
L 293.948509 253.061741 
L 295.571782 253.185284 
L 297.195055 253.516582 
L 299.142982 254.165062 
L 301.415564 255.205052 
L 304.337455 256.821716 
L 308.882618 259.353209 
L 311.1552 260.36595 
L 313.103127 261.010258 
L 315.051055 261.421935 
L 316.998982 261.601998 
L 318.946909 261.574297 
L 321.544145 261.288496 
L 325.764655 260.528542 
L 329.985164 259.845087 
L 333.231709 259.551915 
L 336.802909 259.464108 
L 343.296 259.590942 
L 351.412364 259.657258 
L 398.487273 259.640917 
L 398.487273 259.640917 
" clip-path="url(#pfb177835e4)" style="fill: none; stroke: #ffcb58; stroke-width: 3; stroke-linecap: square"/>
   </g>
   <g id="line2d_21">
    <path d="M 73.832727 290.239222 
L 80.325818 289.252361 
L 86.1696 288.146052 
L 91.688727 286.877661 
L 96.8832 285.462972 
L 102.077673 283.827165 
L 107.921455 281.749601 
L 124.154182 275.787952 
L 128.050036 274.711179 
L 131.621236 273.955803 
L 135.192436 273.427463 
L 139.088291 273.077231 
L 143.958109 272.874516 
L 152.074473 272.801807 
L 182.267345 272.881279 
L 202.395927 273.114409 
L 215.057455 273.473555 
L 225.121745 273.977103 
L 234.536727 274.669422 
L 253.691345 276.185894 
L 258.236509 276.25026 
L 262.132364 276.078375 
L 265.703564 275.685193 
L 268.950109 275.107071 
L 272.521309 274.229151 
L 276.741818 272.929351 
L 284.533527 270.444877 
L 287.455418 269.792961 
L 289.728 269.492766 
L 292.000582 269.405995 
L 294.273164 269.541464 
L 296.8704 269.948918 
L 299.792291 270.657039 
L 308.882618 273.084845 
L 311.479855 273.466529 
L 314.077091 273.63709 
L 316.998982 273.609256 
L 321.219491 273.320054 
L 328.361891 272.824402 
L 333.556364 272.72539 
L 396.214691 272.779892 
L 398.487273 272.779892 
L 398.487273 272.779892 
" clip-path="url(#pfb177835e4)" style="fill: none; stroke: #fee28b; stroke-width: 3; stroke-linecap: square"/>
   </g>
   <g id="patch_3">
    <path d="M 57.6 307.584 
L 57.6 41.472 
" style="fill: none; stroke: #ffffff; stroke-width: 3; stroke-linejoin: miter; stroke-linecap: square"/>
   </g>
   <g id="patch_4">
    <path d="M 57.6 307.584 
L 414.72 307.584 
" style="fill: none; stroke: #ffffff; stroke-width: 3; stroke-linejoin: miter; stroke-linecap: square"/>
   </g>
   <g id="text_18">
    <!-- Luminosity residuals varyied w/ radial bins, reference of 1001 bins. Method 2 -->
    <g style="fill: #ffffff" transform="translate(-0.591562 20.3145) scale(0.12 -0.12)">
     <defs>
      <path id="DejaVuSerif-6d" d="M 3316 2675 
Q 3481 3041 3739 3227 
Q 3997 3413 4341 3413 
Q 4863 3413 5119 3089 
Q 5375 2766 5375 2113 
L 5375 331 
L 5894 331 
L 5894 0 
L 4300 0 
L 4300 331 
L 4800 331 
L 4800 2047 
Q 4800 2556 4650 2772 
Q 4500 2988 4153 2988 
Q 3769 2988 3567 2697 
Q 3366 2406 3366 1850 
L 3366 331 
L 3866 331 
L 3866 0 
L 2291 0 
L 2291 331 
L 2791 331 
L 2791 2069 
Q 2791 2566 2641 2777 
Q 2491 2988 2144 2988 
Q 1759 2988 1557 2697 
Q 1356 2406 1356 1850 
L 1356 331 
L 1856 331 
L 1856 0 
L 263 0 
L 263 331 
L 781 331 
L 781 2994 
L 231 2994 
L 231 3322 
L 1356 3322 
L 1356 2731 
Q 1516 3063 1762 3238 
Q 2009 3413 2322 3413 
Q 2709 3413 2968 3220 
Q 3228 3028 3316 2675 
z
" transform="scale(0.015625)"/>
      <path id="DejaVuSerif-6e" d="M 263 0 
L 263 331 
L 781 331 
L 781 2988 
L 231 2988 
L 231 3322 
L 1356 3322 
L 1356 2731 
Q 1516 3069 1770 3241 
Q 2025 3413 2363 3413 
Q 2913 3413 3172 3097 
Q 3431 2781 3431 2113 
L 3431 331 
L 3944 331 
L 3944 0 
L 2356 0 
L 2356 331 
L 2853 331 
L 2853 1931 
Q 2853 2541 2703 2767 
Q 2553 2994 2175 2994 
Q 1775 2994 1565 2701 
Q 1356 2409 1356 1850 
L 1356 331 
L 1856 331 
L 1856 0 
L 263 0 
z
" transform="scale(0.015625)"/>
      <path id="DejaVuSerif-74" d="M 691 2988 
L 184 2988 
L 184 3322 
L 691 3322 
L 691 4353 
L 1269 4353 
L 1269 3322 
L 2350 3322 
L 2350 2988 
L 1269 2988 
L 1269 878 
Q 1269 456 1350 337 
Q 1431 219 1650 219 
Q 1875 219 1978 351 
Q 2081 484 2088 781 
L 2522 781 
Q 2497 328 2275 118 
Q 2053 -91 1600 -91 
Q 1103 -91 897 129 
Q 691 350 691 878 
L 691 2988 
z
" transform="scale(0.015625)"/>
      <path id="DejaVuSerif-79" d="M 1381 -609 
L 1600 -56 
L 359 2988 
L -19 2988 
L -19 3322 
L 1509 3322 
L 1509 2988 
L 978 2988 
L 1913 703 
L 2847 2988 
L 2350 2988 
L 2350 3322 
L 3597 3322 
L 3597 2988 
L 3225 2988 
L 1703 -750 
Q 1547 -1138 1356 -1280 
Q 1166 -1422 819 -1422 
Q 672 -1422 517 -1397 
Q 363 -1372 206 -1325 
L 206 -691 
L 500 -691 
Q 519 -903 608 -995 
Q 697 -1088 884 -1088 
Q 1056 -1088 1161 -992 
Q 1266 -897 1381 -609 
z
" transform="scale(0.015625)"/>
      <path id="DejaVuSerif-72" d="M 3059 3328 
L 3059 2497 
L 2728 2497 
Q 2713 2744 2591 2866 
Q 2469 2988 2234 2988 
Q 1809 2988 1582 2694 
Q 1356 2400 1356 1850 
L 1356 331 
L 2022 331 
L 2022 0 
L 263 0 
L 263 331 
L 781 331 
L 781 2994 
L 231 2994 
L 231 3322 
L 1356 3322 
L 1356 2731 
Q 1525 3078 1790 3245 
Q 2056 3413 2438 3413 
Q 2578 3413 2733 3391 
Q 2888 3369 3059 3328 
z
" transform="scale(0.015625)"/>
      <path id="DejaVuSerif-76" d="M 1581 0 
L 359 2988 
L -19 2988 
L -19 3322 
L 1509 3322 
L 1509 2988 
L 978 2988 
L 1913 703 
L 2847 2988 
L 2350 2988 
L 2350 3322 
L 3597 3322 
L 3597 2988 
L 3225 2988 
L 2003 0 
L 1581 0 
z
" transform="scale(0.015625)"/>
      <path id="DejaVuSerif-77" d="M 3072 3322 
L 3922 728 
L 4672 2988 
L 4191 2988 
L 4191 3322 
L 5394 3322 
L 5394 2988 
L 5025 2988 
L 4038 0 
L 3559 0 
L 2741 2484 
L 1919 0 
L 1459 0 
L 475 2988 
L 103 2988 
L 103 3322 
L 1606 3322 
L 1606 2988 
L 1069 2988 
L 1813 728 
L 2669 3322 
L 3072 3322 
z
" transform="scale(0.015625)"/>
      <path id="DejaVuSerif-62" d="M 738 331 
L 738 4531 
L 184 4531 
L 184 4863 
L 1313 4863 
L 1313 2803 
Q 1481 3116 1742 3264 
Q 2003 3413 2388 3413 
Q 3000 3413 3387 2928 
Q 3775 2444 3775 1663 
Q 3775 881 3387 395 
Q 3000 -91 2388 -91 
Q 2003 -91 1742 57 
Q 1481 206 1313 519 
L 1313 0 
L 184 0 
L 184 331 
L 738 331 
z
M 1313 1497 
Q 1313 897 1542 583 
Q 1772 269 2209 269 
Q 2650 269 2876 622 
Q 3103 975 3103 1663 
Q 3103 2353 2876 2703 
Q 2650 3053 2209 3053 
Q 1772 3053 1542 2737 
Q 1313 2422 1313 1825 
L 1313 1497 
z
" transform="scale(0.015625)"/>
      <path id="DejaVuSerif-66" d="M 2753 4078 
L 2450 4078 
Q 2447 4313 2317 4434 
Q 2188 4556 1941 4556 
Q 1619 4556 1487 4379 
Q 1356 4203 1356 3750 
L 1356 3322 
L 2284 3322 
L 2284 2988 
L 1356 2988 
L 1356 331 
L 2094 331 
L 2094 0 
L 231 0 
L 231 331 
L 781 331 
L 781 2988 
L 231 2988 
L 231 3322 
L 781 3322 
L 781 3738 
Q 781 4294 1070 4578 
Q 1359 4863 1919 4863 
Q 2128 4863 2337 4825 
Q 2547 4788 2753 4709 
L 2753 4078 
z
" transform="scale(0.015625)"/>
      <path id="DejaVuSerif-63" d="M 3291 997 
Q 3169 466 2822 187 
Q 2475 -91 1925 -91 
Q 1200 -91 759 389 
Q 319 869 319 1663 
Q 319 2459 759 2936 
Q 1200 3413 1925 3413 
Q 2241 3413 2553 3339 
Q 2866 3266 3181 3116 
L 3181 2266 
L 2847 2266 
Q 2781 2703 2561 2903 
Q 2341 3103 1931 3103 
Q 1466 3103 1228 2742 
Q 991 2381 991 1663 
Q 991 944 1227 581 
Q 1463 219 1931 219 
Q 2303 219 2525 412 
Q 2747 606 2828 997 
L 3291 997 
z
" transform="scale(0.015625)"/>
      <path id="DejaVuSerif-4d" d="M 353 0 
L 353 331 
L 947 331 
L 947 4331 
L 319 4331 
L 319 4666 
L 1678 4666 
L 3316 1344 
L 4953 4666 
L 6228 4666 
L 6228 4331 
L 5606 4331 
L 5606 331 
L 6203 331 
L 6203 0 
L 4378 0 
L 4378 331 
L 4972 331 
L 4972 3938 
L 3372 684 
L 2931 684 
L 1331 3938 
L 1331 331 
L 1925 331 
L 1925 0 
L 353 0 
z
" transform="scale(0.015625)"/>
      <path id="DejaVuSerif-68" d="M 263 0 
L 263 331 
L 781 331 
L 781 4531 
L 231 4531 
L 231 4863 
L 1356 4863 
L 1356 2731 
Q 1516 3069 1770 3241 
Q 2025 3413 2363 3413 
Q 2913 3413 3172 3097 
Q 3431 2781 3431 2113 
L 3431 331 
L 3944 331 
L 3944 0 
L 2356 0 
L 2356 331 
L 2853 331 
L 2853 1931 
Q 2853 2541 2704 2764 
Q 2556 2988 2175 2988 
Q 1775 2988 1565 2697 
Q 1356 2406 1356 1850 
L 1356 331 
L 1856 331 
L 1856 0 
L 263 0 
z
" transform="scale(0.015625)"/>
     </defs>
     <use xlink:href="#DejaVuSerif-4c"/>
     <use xlink:href="#DejaVuSerif-75" x="66.40625"/>
     <use xlink:href="#DejaVuSerif-6d" x="130.810547"/>
     <use xlink:href="#DejaVuSerif-69" x="225.634766"/>
     <use xlink:href="#DejaVuSerif-6e" x="257.617188"/>
     <use xlink:href="#DejaVuSerif-6f" x="322.021484"/>
     <use xlink:href="#DejaVuSerif-73" x="382.226562"/>
     <use xlink:href="#DejaVuSerif-69" x="433.544922"/>
     <use xlink:href="#DejaVuSerif-74" x="465.527344"/>
     <use xlink:href="#DejaVuSerif-79" x="505.712891"/>
     <use xlink:href="#DejaVuSerif-20" x="562.207031"/>
     <use xlink:href="#DejaVuSerif-72" x="593.994141"/>
     <use xlink:href="#DejaVuSerif-65" x="641.796875"/>
     <use xlink:href="#DejaVuSerif-73" x="700.976562"/>
     <use xlink:href="#DejaVuSerif-69" x="752.294922"/>
     <use xlink:href="#DejaVuSerif-64" x="784.277344"/>
     <use xlink:href="#DejaVuSerif-75" x="848.291016"/>
     <use xlink:href="#DejaVuSerif-61" x="912.695312"/>
     <use xlink:href="#DejaVuSerif-6c" x="972.314453"/>
     <use xlink:href="#DejaVuSerif-73" x="1004.296875"/>
     <use xlink:href="#DejaVuSerif-20" x="1055.615234"/>
     <use xlink:href="#DejaVuSerif-76" x="1087.402344"/>
     <use xlink:href="#DejaVuSerif-61" x="1143.896484"/>
     <use xlink:href="#DejaVuSerif-72" x="1203.515625"/>
     <use xlink:href="#DejaVuSerif-79" x="1251.318359"/>
     <use xlink:href="#DejaVuSerif-69" x="1307.8125"/>
     <use xlink:href="#DejaVuSerif-65" x="1339.794922"/>
     <use xlink:href="#DejaVuSerif-64" x="1398.974609"/>
     <use xlink:href="#DejaVuSerif-20" x="1462.988281"/>
     <use xlink:href="#DejaVuSerif-77" x="1494.775391"/>
     <use xlink:href="#DejaVuSerif-2f" x="1580.371094"/>
     <use xlink:href="#DejaVuSerif-20" x="1614.0625"/>
     <use xlink:href="#DejaVuSerif-72" x="1645.849609"/>
     <use xlink:href="#DejaVuSerif-61" x="1693.652344"/>
     <use xlink:href="#DejaVuSerif-64" x="1753.271484"/>
     <use xlink:href="#DejaVuSerif-69" x="1817.285156"/>
     <use xlink:href="#DejaVuSerif-61" x="1849.267578"/>
     <use xlink:href="#DejaVuSerif-6c" x="1908.886719"/>
     <use xlink:href="#DejaVuSerif-20" x="1940.869141"/>
     <use xlink:href="#DejaVuSerif-62" x="1972.65625"/>
     <use xlink:href="#DejaVuSerif-69" x="2036.669922"/>
     <use xlink:href="#DejaVuSerif-6e" x="2068.652344"/>
     <use xlink:href="#DejaVuSerif-73" x="2133.056641"/>
     <use xlink:href="#DejaVuSerif-2c" x="2184.375"/>
     <use xlink:href="#DejaVuSerif-20" x="2216.162109"/>
     <use xlink:href="#DejaVuSerif-72" x="2247.949219"/>
     <use xlink:href="#DejaVuSerif-65" x="2295.751953"/>
     <use xlink:href="#DejaVuSerif-66" x="2354.931641"/>
     <use xlink:href="#DejaVuSerif-65" x="2391.943359"/>
     <use xlink:href="#DejaVuSerif-72" x="2451.123047"/>
     <use xlink:href="#DejaVuSerif-65" x="2498.925781"/>
     <use xlink:href="#DejaVuSerif-6e" x="2558.105469"/>
     <use xlink:href="#DejaVuSerif-63" x="2622.509766"/>
     <use xlink:href="#DejaVuSerif-65" x="2678.515625"/>
     <use xlink:href="#DejaVuSerif-20" x="2737.695312"/>
     <use xlink:href="#DejaVuSerif-6f" x="2769.482422"/>
     <use xlink:href="#DejaVuSerif-66" x="2829.6875"/>
     <use xlink:href="#DejaVuSerif-20" x="2866.699219"/>
     <use xlink:href="#DejaVuSerif-31" x="2898.486328"/>
     <use xlink:href="#DejaVuSerif-30" x="2962.109375"/>
     <use xlink:href="#DejaVuSerif-30" x="3025.732422"/>
     <use xlink:href="#DejaVuSerif-31" x="3089.355469"/>
     <use xlink:href="#DejaVuSerif-20" x="3152.978516"/>
     <use xlink:href="#DejaVuSerif-62" x="3184.765625"/>
     <use xlink:href="#DejaVuSerif-69" x="3248.779297"/>
     <use xlink:href="#DejaVuSerif-6e" x="3280.761719"/>
     <use xlink:href="#DejaVuSerif-73" x="3345.166016"/>
     <use xlink:href="#DejaVuSerif-2e" x="3396.484375"/>
     <use xlink:href="#DejaVuSerif-20" x="3428.271484"/>
     <use xlink:href="#DejaVuSerif-4d" x="3460.058594"/>
     <use xlink:href="#DejaVuSerif-65" x="3562.451172"/>
     <use xlink:href="#DejaVuSerif-74" x="3621.630859"/>
     <use xlink:href="#DejaVuSerif-68" x="3661.816406"/>
     <use xlink:href="#DejaVuSerif-6f" x="3726.220703"/>
     <use xlink:href="#DejaVuSerif-64" x="3786.425781"/>
     <use xlink:href="#DejaVuSerif-20" x="3850.439453"/>
     <use xlink:href="#DejaVuSerif-32" x="3882.226562"/>
    </g>
   </g>
  </g>
 </g>
 <defs>
  <clipPath id="pfb177835e4">
   <rect x="57.6" y="41.472" width="357.12" height="266.112"/>
  </clipPath>
 </defs>
</svg>
