<?xml version="1.0" encoding="utf-8" standalone="no"?>
<!DOCTYPE svg PUBLIC "-//W3C//DTD SVG 1.1//EN"
  "http://www.w3.org/Graphics/SVG/1.1/DTD/svg11.dtd">
<svg xmlns:xlink="http://www.w3.org/1999/xlink" width="460.8pt" height="345.6pt" viewBox="0 0 460.8 345.6" xmlns="http://www.w3.org/2000/svg" version="1.1">
 <metadata>
  <rdf:RDF xmlns:dc="http://purl.org/dc/elements/1.1/" xmlns:cc="http://creativecommons.org/ns#" xmlns:rdf="http://www.w3.org/1999/02/22-rdf-syntax-ns#">
   <cc:Work>
    <dc:type rdf:resource="http://purl.org/dc/dcmitype/StillImage"/>
    <dc:date>2023-12-08T23:47:39.934389</dc:date>
    <dc:format>image/svg+xml</dc:format>
    <dc:creator>
     <cc:Agent>
      <dc:title>Matplotlib v3.7.2, https://matplotlib.org/</dc:title>
     </cc:Agent>
    </dc:creator>
   </cc:Work>
  </rdf:RDF>
 </metadata>
 <defs>
  <style type="text/css">*{stroke-linejoin: round; stroke-linecap: butt}</style>
 </defs>
 <g id="figure_1">
  <g id="patch_1">
   <path d="M 0 345.6 
L 460.8 345.6 
L 460.8 0 
L 0 0 
L 0 345.6 
z
" style="fill: none"/>
  </g>
  <g id="axes_1">
   <g id="patch_2">
    <path d="M 57.6 307.584 
L 414.72 307.584 
L 414.72 41.472 
L 57.6 41.472 
L 57.6 307.584 
z
" style="fill: none"/>
   </g>
   <g id="matplotlib.axis_1">
    <g id="xtick_1">
     <g id="line2d_1">
      <defs>
       <path id="m9ba66dc80f" d="M 0 0 
L 0 3.5 
" style="stroke: #000000; stroke-width: 0.8"/>
      </defs>
      <g>
       <use xlink:href="#m9ba66dc80f" x="73.832727" y="307.584" style="stroke: #000000; stroke-width: 0.8"/>
      </g>
     </g>
     <g id="text_1">
      <!-- 14 -->
      <g style="fill: #ffffff" transform="translate(63.652727 326.7415) scale(0.16 -0.16)">
       <defs>
        <path id="DejaVuSerif-31" d="M 909 0 
L 909 331 
L 1722 331 
L 1722 4213 
L 781 3603 
L 781 4013 
L 1919 4750 
L 2350 4750 
L 2350 331 
L 3163 331 
L 3163 0 
L 909 0 
z
" transform="scale(0.015625)"/>
        <path id="DejaVuSerif-34" d="M 2234 1581 
L 2234 4063 
L 641 1581 
L 2234 1581 
z
M 3609 0 
L 1484 0 
L 1484 331 
L 2234 331 
L 2234 1247 
L 197 1247 
L 197 1588 
L 2241 4750 
L 2859 4750 
L 2859 1581 
L 3750 1581 
L 3750 1247 
L 2859 1247 
L 2859 331 
L 3609 331 
L 3609 0 
z
" transform="scale(0.015625)"/>
       </defs>
       <use xlink:href="#DejaVuSerif-31"/>
       <use xlink:href="#DejaVuSerif-34" x="63.623047"/>
      </g>
     </g>
    </g>
    <g id="xtick_2">
     <g id="line2d_2">
      <g>
       <use xlink:href="#m9ba66dc80f" x="138.763636" y="307.584" style="stroke: #000000; stroke-width: 0.8"/>
      </g>
     </g>
     <g id="text_2">
      <!-- 15 -->
      <g style="fill: #ffffff" transform="translate(128.583636 326.7415) scale(0.16 -0.16)">
       <defs>
        <path id="DejaVuSerif-35" d="M 3219 4666 
L 3219 4153 
L 1081 4153 
L 1081 2816 
Q 1244 2928 1461 2984 
Q 1678 3041 1947 3041 
Q 2703 3041 3140 2622 
Q 3578 2203 3578 1478 
Q 3578 738 3136 323 
Q 2694 -91 1894 -91 
Q 1572 -91 1234 -12 
Q 897 66 544 225 
L 544 1131 
L 897 1131 
Q 925 688 1179 453 
Q 1434 219 1894 219 
Q 2388 219 2653 544 
Q 2919 869 2919 1478 
Q 2919 2084 2655 2407 
Q 2391 2731 1894 2731 
Q 1613 2731 1398 2631 
Q 1184 2531 1019 2322 
L 750 2322 
L 750 4666 
L 3219 4666 
z
" transform="scale(0.015625)"/>
       </defs>
       <use xlink:href="#DejaVuSerif-31"/>
       <use xlink:href="#DejaVuSerif-35" x="63.623047"/>
      </g>
     </g>
    </g>
    <g id="xtick_3">
     <g id="line2d_3">
      <g>
       <use xlink:href="#m9ba66dc80f" x="203.694545" y="307.584" style="stroke: #000000; stroke-width: 0.8"/>
      </g>
     </g>
     <g id="text_3">
      <!-- 16 -->
      <g style="fill: #ffffff" transform="translate(193.514545 326.7415) scale(0.16 -0.16)">
       <defs>
        <path id="DejaVuSerif-36" d="M 2094 219 
Q 2534 219 2771 542 
Q 3009 866 3009 1472 
Q 3009 2078 2771 2401 
Q 2534 2725 2094 2725 
Q 1647 2725 1412 2412 
Q 1178 2100 1178 1509 
Q 1178 888 1415 553 
Q 1653 219 2094 219 
z
M 1075 2569 
Q 1288 2803 1556 2918 
Q 1825 3034 2163 3034 
Q 2859 3034 3264 2615 
Q 3669 2197 3669 1472 
Q 3669 763 3233 336 
Q 2797 -91 2069 -91 
Q 1278 -91 853 498 
Q 428 1088 428 2181 
Q 428 3406 931 4078 
Q 1434 4750 2350 4750 
Q 2597 4750 2869 4703 
Q 3141 4656 3425 4563 
L 3425 3794 
L 3072 3794 
Q 3034 4109 2831 4275 
Q 2628 4441 2284 4441 
Q 1678 4441 1381 3981 
Q 1084 3522 1075 2569 
z
" transform="scale(0.015625)"/>
       </defs>
       <use xlink:href="#DejaVuSerif-31"/>
       <use xlink:href="#DejaVuSerif-36" x="63.623047"/>
      </g>
     </g>
    </g>
    <g id="xtick_4">
     <g id="line2d_4">
      <g>
       <use xlink:href="#m9ba66dc80f" x="268.625455" y="307.584" style="stroke: #000000; stroke-width: 0.8"/>
      </g>
     </g>
     <g id="text_4">
      <!-- 17 -->
      <g style="fill: #ffffff" transform="translate(258.445455 326.7415) scale(0.16 -0.16)">
       <defs>
        <path id="DejaVuSerif-37" d="M 3609 4347 
L 1784 0 
L 1319 0 
L 3059 4153 
L 903 4153 
L 903 3578 
L 538 3578 
L 538 4666 
L 3609 4666 
L 3609 4347 
z
" transform="scale(0.015625)"/>
       </defs>
       <use xlink:href="#DejaVuSerif-31"/>
       <use xlink:href="#DejaVuSerif-37" x="63.623047"/>
      </g>
     </g>
    </g>
    <g id="xtick_5">
     <g id="line2d_5">
      <g>
       <use xlink:href="#m9ba66dc80f" x="333.556364" y="307.584" style="stroke: #000000; stroke-width: 0.8"/>
      </g>
     </g>
     <g id="text_5">
      <!-- 18 -->
      <g style="fill: #ffffff" transform="translate(323.376364 326.7415) scale(0.16 -0.16)">
       <defs>
        <path id="DejaVuSerif-38" d="M 2981 1275 
Q 2981 1775 2732 2051 
Q 2484 2328 2034 2328 
Q 1584 2328 1336 2051 
Q 1088 1775 1088 1275 
Q 1088 772 1336 495 
Q 1584 219 2034 219 
Q 2484 219 2732 495 
Q 2981 772 2981 1275 
z
M 2853 3541 
Q 2853 3966 2637 4203 
Q 2422 4441 2034 4441 
Q 1650 4441 1433 4203 
Q 1216 3966 1216 3541 
Q 1216 3113 1433 2875 
Q 1650 2638 2034 2638 
Q 2422 2638 2637 2875 
Q 2853 3113 2853 3541 
z
M 2516 2484 
Q 3047 2413 3344 2092 
Q 3641 1772 3641 1275 
Q 3641 619 3225 264 
Q 2809 -91 2034 -91 
Q 1263 -91 845 264 
Q 428 619 428 1275 
Q 428 1772 725 2092 
Q 1022 2413 1556 2484 
Q 1084 2569 832 2842 
Q 581 3116 581 3541 
Q 581 4103 968 4426 
Q 1356 4750 2034 4750 
Q 2713 4750 3100 4426 
Q 3488 4103 3488 3541 
Q 3488 3116 3236 2842 
Q 2984 2569 2516 2484 
z
" transform="scale(0.015625)"/>
       </defs>
       <use xlink:href="#DejaVuSerif-31"/>
       <use xlink:href="#DejaVuSerif-38" x="63.623047"/>
      </g>
     </g>
    </g>
    <g id="xtick_6">
     <g id="line2d_6">
      <g>
       <use xlink:href="#m9ba66dc80f" x="398.487273" y="307.584" style="stroke: #000000; stroke-width: 0.8"/>
      </g>
     </g>
     <g id="text_6">
      <!-- 19 -->
      <g style="fill: #ffffff" transform="translate(388.307273 326.7415) scale(0.16 -0.16)">
       <defs>
        <path id="DejaVuSerif-39" d="M 2994 2091 
Q 2784 1856 2512 1740 
Q 2241 1625 1900 1625 
Q 1206 1625 804 2044 
Q 403 2463 403 3188 
Q 403 3897 839 4323 
Q 1275 4750 2003 4750 
Q 2794 4750 3217 4161 
Q 3641 3572 3641 2478 
Q 3641 1253 3137 581 
Q 2634 -91 1722 -91 
Q 1475 -91 1203 -44 
Q 931 3 647 97 
L 647 872 
L 997 872 
Q 1038 556 1241 387 
Q 1444 219 1784 219 
Q 2391 219 2687 676 
Q 2984 1134 2994 2091 
z
M 1978 4441 
Q 1534 4441 1298 4117 
Q 1063 3794 1063 3188 
Q 1063 2581 1298 2256 
Q 1534 1931 1978 1931 
Q 2422 1931 2658 2245 
Q 2894 2559 2894 3150 
Q 2894 3772 2656 4106 
Q 2419 4441 1978 4441 
z
" transform="scale(0.015625)"/>
       </defs>
       <use xlink:href="#DejaVuSerif-31"/>
       <use xlink:href="#DejaVuSerif-39" x="63.623047"/>
      </g>
     </g>
    </g>
    <g id="text_7">
     <!-- Log($\nu$ / $Hz$) -->
     <g style="fill: #ffffff" transform="translate(179.46 349.269) scale(0.2 -0.2)">
      <defs>
       <path id="DejaVuSerif-4c" d="M 353 0 
L 353 331 
L 947 331 
L 947 4331 
L 353 4331 
L 353 4666 
L 2175 4666 
L 2175 4331 
L 1581 4331 
L 1581 384 
L 3713 384 
L 3713 1166 
L 4097 1166 
L 4097 0 
L 353 0 
z
" transform="scale(0.015625)"/>
       <path id="DejaVuSerif-6f" d="M 1925 219 
Q 2388 219 2623 584 
Q 2859 950 2859 1663 
Q 2859 2375 2623 2739 
Q 2388 3103 1925 3103 
Q 1463 3103 1227 2739 
Q 991 2375 991 1663 
Q 991 950 1228 584 
Q 1466 219 1925 219 
z
M 1925 -91 
Q 1200 -91 759 389 
Q 319 869 319 1663 
Q 319 2456 758 2934 
Q 1197 3413 1925 3413 
Q 2653 3413 3092 2934 
Q 3531 2456 3531 1663 
Q 3531 869 3092 389 
Q 2653 -91 1925 -91 
z
" transform="scale(0.015625)"/>
       <path id="DejaVuSerif-67" d="M 3359 2988 
L 3359 72 
Q 3359 -644 2965 -1033 
Q 2572 -1422 1844 -1422 
Q 1516 -1422 1216 -1362 
Q 916 -1303 641 -1184 
L 641 -488 
L 941 -488 
Q 997 -813 1206 -963 
Q 1416 -1113 1806 -1113 
Q 2313 -1113 2548 -827 
Q 2784 -541 2784 72 
L 2784 519 
Q 2616 206 2355 57 
Q 2094 -91 1709 -91 
Q 1097 -91 708 395 
Q 319 881 319 1663 
Q 319 2444 706 2928 
Q 1094 3413 1709 3413 
Q 2094 3413 2355 3264 
Q 2616 3116 2784 2803 
L 2784 3322 
L 3909 3322 
L 3909 2988 
L 3359 2988 
z
M 2784 1825 
Q 2784 2422 2554 2737 
Q 2325 3053 1888 3053 
Q 1444 3053 1217 2703 
Q 991 2353 991 1663 
Q 991 975 1217 622 
Q 1444 269 1888 269 
Q 2325 269 2554 583 
Q 2784 897 2784 1497 
L 2784 1825 
z
" transform="scale(0.015625)"/>
       <path id="DejaVuSerif-28" d="M 2041 -997 
Q 1281 -656 893 83 
Q 506 822 506 1931 
Q 506 3044 893 3783 
Q 1281 4522 2041 4863 
L 2041 4556 
Q 1559 4225 1350 3623 
Q 1141 3022 1141 1931 
Q 1141 844 1350 242 
Q 1559 -359 2041 -691 
L 2041 -997 
z
" transform="scale(0.015625)"/>
       <path id="DejaVuSerif-Italic-3bd" d="M 1103 363 
Q 1516 513 1997 875 
Q 2291 1094 2691 1638 
Q 2950 1975 3034 2288 
Q 3116 2575 3025 2794 
Q 2906 3097 2691 3138 
L 2725 3322 
L 3075 3322 
Q 3400 3169 3584 2828 
Q 3728 2566 3666 2247 
Q 3622 2016 3494 1825 
Q 3400 1688 3116 1366 
Q 2738 950 2297 663 
Q 1494 138 1034 0 
L 456 0 
L 1041 2988 
L 491 2988 
L 553 3322 
L 1678 3322 
L 1103 363 
z
" transform="scale(0.015625)"/>
       <path id="DejaVuSerif-20" transform="scale(0.015625)"/>
       <path id="DejaVuSerif-2f" d="M 1656 4666 
L 2156 4666 
L 500 -594 
L 0 -594 
L 1656 4666 
z
" transform="scale(0.015625)"/>
       <path id="DejaVuSerif-Italic-48" d="M -97 0 
L -34 331 
L 559 331 
L 1338 4331 
L 744 4331 
L 809 4666 
L 2631 4666 
L 2566 4331 
L 1972 4331 
L 1659 2719 
L 4078 2719 
L 4391 4331 
L 3797 4331 
L 3863 4666 
L 5684 4666 
L 5619 4331 
L 5025 4331 
L 4247 331 
L 4841 331 
L 4778 0 
L 2956 0 
L 3019 331 
L 3616 331 
L 4003 2338 
L 1584 2338 
L 1194 331 
L 1788 331 
L 1725 0 
L -97 0 
z
" transform="scale(0.015625)"/>
       <path id="DejaVuSerif-Italic-7a" d="M 2550 3047 
Q 2888 3047 3216 3322 
L 3403 3322 
L 3353 3053 
L 1081 684 
Q 1113 675 1203 647 
Q 1309 613 1416 544 
L 1569 450 
Q 1863 272 2075 272 
Q 2484 272 2966 741 
L 2891 363 
Q 2356 -163 1950 -163 
Q 1703 -156 1356 59 
Q 1009 275 791 275 
Q 453 275 125 0 
L -63 0 
L -13 269 
L 2263 2634 
Q 2228 2647 2138 2675 
Q 2031 2709 1925 2778 
L 1772 2872 
Q 1478 3050 1266 3050 
Q 856 3050 375 2581 
L 450 2959 
Q 984 3484 1391 3484 
Q 1638 3478 1984 3262 
Q 2331 3047 2550 3047 
z
" transform="scale(0.015625)"/>
       <path id="DejaVuSerif-29" d="M 453 -997 
L 453 -691 
Q 934 -359 1145 242 
Q 1356 844 1356 1931 
Q 1356 3022 1145 3623 
Q 934 4225 453 4556 
L 453 4863 
Q 1216 4522 1603 3783 
Q 1991 3044 1991 1931 
Q 1991 822 1603 83 
Q 1216 -656 453 -997 
z
" transform="scale(0.015625)"/>
      </defs>
      <use xlink:href="#DejaVuSerif-4c" transform="translate(0 0.015625)"/>
      <use xlink:href="#DejaVuSerif-6f" transform="translate(66.40625 0.015625)"/>
      <use xlink:href="#DejaVuSerif-67" transform="translate(126.611328 0.015625)"/>
      <use xlink:href="#DejaVuSerif-28" transform="translate(190.625 0.015625)"/>
      <use xlink:href="#DejaVuSerif-Italic-3bd" transform="translate(229.638672 0.015625)"/>
      <use xlink:href="#DejaVuSerif-20" transform="translate(290.429688 0.015625)"/>
      <use xlink:href="#DejaVuSerif-2f" transform="translate(322.216797 0.015625)"/>
      <use xlink:href="#DejaVuSerif-20" transform="translate(355.908203 0.015625)"/>
      <use xlink:href="#DejaVuSerif-Italic-48" transform="translate(387.695312 0.015625)"/>
      <use xlink:href="#DejaVuSerif-Italic-7a" transform="translate(474.902344 0.015625)"/>
      <use xlink:href="#DejaVuSerif-29" transform="translate(527.587891 0.015625)"/>
     </g>
    </g>
   </g>
   <g id="matplotlib.axis_2">
    <g id="ytick_1">
     <g id="line2d_7">
      <defs>
       <path id="mcf213a8532" d="M 0 0 
L -3.5 0 
" style="stroke: #ffffff; stroke-width: 0.8"/>
      </defs>
      <g>
       <use xlink:href="#mcf213a8532" x="57.6" y="306.777396" style="fill: #ffffff; stroke: #ffffff; stroke-width: 0.8"/>
      </g>
     </g>
     <g id="text_8">
      <!-- −3 -->
      <g style="fill: #ffffff" transform="translate(27.0125 312.856146) scale(0.16 -0.16)">
       <defs>
        <path id="DejaVuSerif-2212" d="M 678 2259 
L 4684 2259 
L 4684 1753 
L 678 1753 
L 678 2259 
z
" transform="scale(0.015625)"/>
        <path id="DejaVuSerif-33" d="M 622 4469 
Q 988 4606 1323 4678 
Q 1659 4750 1953 4750 
Q 2638 4750 3022 4454 
Q 3406 4159 3406 3634 
Q 3406 3213 3140 2930 
Q 2875 2647 2388 2547 
Q 2963 2466 3280 2130 
Q 3597 1794 3597 1259 
Q 3597 606 3158 257 
Q 2719 -91 1894 -91 
Q 1528 -91 1179 -12 
Q 831 66 488 225 
L 488 1131 
L 838 1131 
Q 869 681 1141 450 
Q 1413 219 1906 219 
Q 2384 219 2661 495 
Q 2938 772 2938 1253 
Q 2938 1803 2653 2086 
Q 2369 2369 1819 2369 
L 1522 2369 
L 1522 2688 
L 1678 2688 
Q 2225 2688 2498 2914 
Q 2772 3141 2772 3597 
Q 2772 4006 2547 4223 
Q 2322 4441 1900 4441 
Q 1478 4441 1245 4241 
Q 1013 4041 972 3647 
L 622 3647 
L 622 4469 
z
" transform="scale(0.015625)"/>
       </defs>
       <use xlink:href="#DejaVuSerif-2212"/>
       <use xlink:href="#DejaVuSerif-33" x="83.789062"/>
      </g>
     </g>
    </g>
    <g id="ytick_2">
     <g id="line2d_8">
      <g>
       <use xlink:href="#mcf213a8532" x="57.6" y="264.864051" style="fill: #ffffff; stroke: #ffffff; stroke-width: 0.8"/>
      </g>
     </g>
     <g id="text_9">
      <!-- −2 -->
      <g style="fill: #ffffff" transform="translate(27.0125 270.942801) scale(0.16 -0.16)">
       <defs>
        <path id="DejaVuSerif-32" d="M 819 3553 
L 469 3553 
L 469 4384 
Q 803 4563 1142 4656 
Q 1481 4750 1806 4750 
Q 2534 4750 2956 4397 
Q 3378 4044 3378 3438 
Q 3378 2753 2422 1800 
Q 2347 1728 2309 1691 
L 1131 513 
L 3078 513 
L 3078 1088 
L 3444 1088 
L 3444 0 
L 434 0 
L 434 341 
L 1850 1753 
Q 2319 2222 2519 2614 
Q 2719 3006 2719 3438 
Q 2719 3909 2473 4175 
Q 2228 4441 1797 4441 
Q 1350 4441 1106 4219 
Q 863 3997 819 3553 
z
" transform="scale(0.015625)"/>
       </defs>
       <use xlink:href="#DejaVuSerif-2212"/>
       <use xlink:href="#DejaVuSerif-32" x="83.789062"/>
      </g>
     </g>
    </g>
    <g id="ytick_3">
     <g id="line2d_9">
      <g>
       <use xlink:href="#mcf213a8532" x="57.6" y="222.950706" style="fill: #ffffff; stroke: #ffffff; stroke-width: 0.8"/>
      </g>
     </g>
     <g id="text_10">
      <!-- −1 -->
      <g style="fill: #ffffff" transform="translate(27.0125 229.029456) scale(0.16 -0.16)">
       <use xlink:href="#DejaVuSerif-2212"/>
       <use xlink:href="#DejaVuSerif-31" x="83.789062"/>
      </g>
     </g>
    </g>
    <g id="ytick_4">
     <g id="line2d_10">
      <g>
       <use xlink:href="#mcf213a8532" x="57.6" y="181.037362" style="fill: #ffffff; stroke: #ffffff; stroke-width: 0.8"/>
      </g>
     </g>
     <g id="text_11">
      <!-- 0 -->
      <g style="fill: #ffffff" transform="translate(40.42 187.116112) scale(0.16 -0.16)">
       <defs>
        <path id="DejaVuSerif-30" d="M 2034 219 
Q 2513 219 2750 744 
Q 2988 1269 2988 2328 
Q 2988 3391 2750 3916 
Q 2513 4441 2034 4441 
Q 1556 4441 1318 3916 
Q 1081 3391 1081 2328 
Q 1081 1269 1318 744 
Q 1556 219 2034 219 
z
M 2034 -91 
Q 1275 -91 848 546 
Q 422 1184 422 2328 
Q 422 3475 848 4112 
Q 1275 4750 2034 4750 
Q 2797 4750 3222 4112 
Q 3647 3475 3647 2328 
Q 3647 1184 3222 546 
Q 2797 -91 2034 -91 
z
" transform="scale(0.015625)"/>
       </defs>
       <use xlink:href="#DejaVuSerif-30"/>
      </g>
     </g>
    </g>
    <g id="ytick_5">
     <g id="line2d_11">
      <g>
       <use xlink:href="#mcf213a8532" x="57.6" y="139.124017" style="fill: #ffffff; stroke: #ffffff; stroke-width: 0.8"/>
      </g>
     </g>
     <g id="text_12">
      <!-- 1 -->
      <g style="fill: #ffffff" transform="translate(40.42 145.202767) scale(0.16 -0.16)">
       <use xlink:href="#DejaVuSerif-31"/>
      </g>
     </g>
    </g>
    <g id="ytick_6">
     <g id="line2d_12">
      <g>
       <use xlink:href="#mcf213a8532" x="57.6" y="97.210672" style="fill: #ffffff; stroke: #ffffff; stroke-width: 0.8"/>
      </g>
     </g>
     <g id="text_13">
      <!-- 2 -->
      <g style="fill: #ffffff" transform="translate(40.42 103.289422) scale(0.16 -0.16)">
       <use xlink:href="#DejaVuSerif-32"/>
      </g>
     </g>
    </g>
    <g id="ytick_7">
     <g id="line2d_13">
      <g>
       <use xlink:href="#mcf213a8532" x="57.6" y="55.297327" style="fill: #ffffff; stroke: #ffffff; stroke-width: 0.8"/>
      </g>
     </g>
     <g id="text_14">
      <!-- 3 -->
      <g style="fill: #ffffff" transform="translate(40.42 61.376077) scale(0.16 -0.16)">
       <use xlink:href="#DejaVuSerif-33"/>
      </g>
     </g>
    </g>
    <g id="text_15">
     <!-- Residuals $\frac{L_{\nu}}{L_{\nu, ref}}$ -->
     <g style="fill: #ffffff" transform="translate(11.0125 245.228) rotate(-90) scale(0.2 -0.2)">
      <defs>
       <path id="DejaVuSerif-52" d="M 3066 2316 
Q 3284 2256 3442 2114 
Q 3600 1972 3725 1716 
L 4403 331 
L 4972 331 
L 4972 0 
L 3872 0 
L 3144 1484 
Q 2934 1916 2759 2042 
Q 2584 2169 2278 2169 
L 1581 2169 
L 1581 331 
L 2241 331 
L 2241 0 
L 353 0 
L 353 331 
L 947 331 
L 947 4331 
L 353 4331 
L 353 4666 
L 2719 4666 
Q 3400 4666 3770 4341 
Q 4141 4016 4141 3419 
Q 4141 2938 3870 2661 
Q 3600 2384 3066 2316 
z
M 1581 2503 
L 2503 2503 
Q 2975 2503 3200 2726 
Q 3425 2950 3425 3419 
Q 3425 3888 3200 4109 
Q 2975 4331 2503 4331 
L 1581 4331 
L 1581 2503 
z
" transform="scale(0.015625)"/>
       <path id="DejaVuSerif-65" d="M 3469 1600 
L 991 1600 
L 991 1575 
Q 991 903 1244 561 
Q 1497 219 1991 219 
Q 2369 219 2611 417 
Q 2853 616 2950 1006 
L 3413 1006 
Q 3275 459 2904 184 
Q 2534 -91 1931 -91 
Q 1203 -91 761 389 
Q 319 869 319 1663 
Q 319 2450 753 2931 
Q 1188 3413 1894 3413 
Q 2647 3413 3050 2948 
Q 3453 2484 3469 1600 
z
M 2791 1931 
Q 2772 2513 2545 2808 
Q 2319 3103 1894 3103 
Q 1497 3103 1269 2806 
Q 1041 2509 991 1931 
L 2791 1931 
z
" transform="scale(0.015625)"/>
       <path id="DejaVuSerif-73" d="M 359 184 
L 359 959 
L 691 959 
Q 703 588 923 403 
Q 1144 219 1575 219 
Q 1963 219 2166 364 
Q 2369 509 2369 788 
Q 2369 1006 2220 1140 
Q 2072 1275 1594 1428 
L 1178 1569 
Q 750 1706 558 1912 
Q 366 2119 366 2438 
Q 366 2894 700 3153 
Q 1034 3413 1625 3413 
Q 1888 3413 2178 3344 
Q 2469 3275 2778 3144 
L 2778 2419 
L 2447 2419 
Q 2434 2741 2221 2922 
Q 2009 3103 1644 3103 
Q 1281 3103 1095 2975 
Q 909 2847 909 2591 
Q 909 2381 1050 2254 
Q 1191 2128 1613 1997 
L 2069 1856 
Q 2541 1709 2748 1489 
Q 2956 1269 2956 922 
Q 2956 450 2595 179 
Q 2234 -91 1600 -91 
Q 1278 -91 972 -22 
Q 666 47 359 184 
z
" transform="scale(0.015625)"/>
       <path id="DejaVuSerif-69" d="M 622 4353 
Q 622 4497 726 4603 
Q 831 4709 978 4709 
Q 1122 4709 1226 4603 
Q 1331 4497 1331 4353 
Q 1331 4206 1228 4103 
Q 1125 4000 978 4000 
Q 831 4000 726 4103 
Q 622 4206 622 4353 
z
M 1356 331 
L 1900 331 
L 1900 0 
L 231 0 
L 231 331 
L 781 331 
L 781 2988 
L 231 2988 
L 231 3322 
L 1356 3322 
L 1356 331 
z
" transform="scale(0.015625)"/>
       <path id="DejaVuSerif-64" d="M 3359 331 
L 3909 331 
L 3909 0 
L 2784 0 
L 2784 519 
Q 2616 206 2355 57 
Q 2094 -91 1709 -91 
Q 1097 -91 708 395 
Q 319 881 319 1663 
Q 319 2444 706 2928 
Q 1094 3413 1709 3413 
Q 2094 3413 2355 3264 
Q 2616 3116 2784 2803 
L 2784 4531 
L 2241 4531 
L 2241 4863 
L 3359 4863 
L 3359 331 
z
M 2784 1497 
L 2784 1825 
Q 2784 2422 2554 2737 
Q 2325 3053 1888 3053 
Q 1444 3053 1217 2703 
Q 991 2353 991 1663 
Q 991 975 1217 622 
Q 1444 269 1888 269 
Q 2325 269 2554 583 
Q 2784 897 2784 1497 
z
" transform="scale(0.015625)"/>
       <path id="DejaVuSerif-75" d="M 2266 3322 
L 3341 3322 
L 3341 331 
L 3884 331 
L 3884 0 
L 2766 0 
L 2766 588 
Q 2606 256 2353 82 
Q 2100 -91 1766 -91 
Q 1213 -91 952 223 
Q 691 538 691 1209 
L 691 2988 
L 172 2988 
L 172 3322 
L 1269 3322 
L 1269 1388 
Q 1269 781 1417 556 
Q 1566 331 1947 331 
Q 2347 331 2556 625 
Q 2766 919 2766 1478 
L 2766 2988 
L 2266 2988 
L 2266 3322 
z
" transform="scale(0.015625)"/>
       <path id="DejaVuSerif-61" d="M 2547 1044 
L 2547 1747 
L 1806 1747 
Q 1378 1747 1168 1562 
Q 959 1378 959 997 
Q 959 650 1171 447 
Q 1384 244 1747 244 
Q 2106 244 2326 466 
Q 2547 688 2547 1044 
z
M 3122 2075 
L 3122 331 
L 3634 331 
L 3634 0 
L 2547 0 
L 2547 359 
Q 2356 128 2106 18 
Q 1856 -91 1522 -91 
Q 969 -91 644 203 
Q 319 497 319 997 
Q 319 1513 691 1797 
Q 1063 2081 1741 2081 
L 2547 2081 
L 2547 2309 
Q 2547 2688 2317 2895 
Q 2088 3103 1672 3103 
Q 1328 3103 1125 2947 
Q 922 2791 872 2484 
L 575 2484 
L 575 3156 
Q 875 3284 1158 3348 
Q 1441 3413 1709 3413 
Q 2400 3413 2761 3070 
Q 3122 2728 3122 2075 
z
" transform="scale(0.015625)"/>
       <path id="DejaVuSerif-6c" d="M 1313 331 
L 1856 331 
L 1856 0 
L 184 0 
L 184 331 
L 738 331 
L 738 4531 
L 184 4531 
L 184 4863 
L 1313 4863 
L 1313 331 
z
" transform="scale(0.015625)"/>
       <path id="DejaVuSerif-Italic-4c" d="M -97 0 
L -34 331 
L 559 331 
L 1338 4331 
L 744 4331 
L 809 4666 
L 2631 4666 
L 2566 4331 
L 1972 4331 
L 1206 384 
L 3338 384 
L 3488 1166 
L 3872 1166 
L 3647 0 
L -97 0 
z
" transform="scale(0.015625)"/>
       <path id="DejaVuSerif-2c" d="M 231 -622 
Q 525 -406 662 -114 
Q 800 178 800 594 
L 800 709 
L 1416 709 
Q 1391 175 1164 -208 
Q 938 -591 481 -872 
L 231 -622 
z
" transform="scale(0.015625)"/>
       <path id="DejaVuSerif-Italic-72" d="M 3375 3328 
L 3213 2497 
L 2881 2497 
Q 2891 2559 2891 2613 
Q 2891 2775 2816 2866 
Q 2719 2988 2484 2988 
Q 2059 2988 1775 2694 
Q 1491 2400 1384 1850 
L 1025 0 
L 450 0 
L 1031 2994 
L 481 2994 
L 544 3322 
L 1669 3322 
L 1556 2731 
Q 1791 3078 2089 3245 
Q 2388 3413 2769 3413 
Q 2909 3413 3059 3391 
Q 3209 3369 3375 3328 
z
" transform="scale(0.015625)"/>
       <path id="DejaVuSerif-Italic-65" d="M 938 1275 
Q 925 1156 925 1050 
Q 925 756 1031 563 
Q 1216 219 1709 219 
Q 2072 219 2250 328 
Q 2569 525 2644 778 
L 3066 778 
Q 2941 381 2475 103 
Q 2150 -91 1506 -91 
Q 863 -91 516 388 
Q 272 722 272 1206 
Q 272 1419 319 1659 
Q 472 2450 1000 2931 
Q 1528 3413 2278 3413 
Q 3500 3413 3500 2547 
Q 3500 1913 2859 1603 
Q 2206 1288 938 1275 
z
M 2541 1975 
Q 2891 2181 2891 2569 
Q 2891 3103 2181 3103 
Q 1763 3103 1472 2784 
Q 1181 2466 1003 1606 
Q 2006 1653 2541 1975 
z
" transform="scale(0.015625)"/>
       <path id="DejaVuSerif-Italic-66" d="M 3191 4078 
L 2888 4078 
Q 2900 4144 2900 4203 
Q 2900 4347 2825 4434 
Q 2719 4556 2472 4556 
Q 2150 4556 1984 4379 
Q 1819 4203 1731 3750 
L 1647 3322 
L 2575 3322 
L 2509 2988 
L 1581 2988 
L 963 -206 
Q 853 -763 509 -1047 
Q 166 -1331 -394 -1331 
L -356 -1025 
Q -28 -1025 131 -850 
Q 297 -663 388 -206 
L 1006 2988 
L 456 2988 
L 522 3322 
L 1072 3322 
L 1153 3738 
Q 1263 4297 1606 4578 
Q 1950 4863 2509 4863 
Q 2719 4863 2920 4825 
Q 3122 4788 3316 4709 
L 3191 4078 
z
" transform="scale(0.015625)"/>
      </defs>
      <use xlink:href="#DejaVuSerif-52" transform="translate(0 0.21375)"/>
      <use xlink:href="#DejaVuSerif-65" transform="translate(75.292969 0.21375)"/>
      <use xlink:href="#DejaVuSerif-73" transform="translate(134.472656 0.21375)"/>
      <use xlink:href="#DejaVuSerif-69" transform="translate(185.791016 0.21375)"/>
      <use xlink:href="#DejaVuSerif-64" transform="translate(217.773438 0.21375)"/>
      <use xlink:href="#DejaVuSerif-75" transform="translate(281.787109 0.21375)"/>
      <use xlink:href="#DejaVuSerif-61" transform="translate(346.191406 0.21375)"/>
      <use xlink:href="#DejaVuSerif-6c" transform="translate(405.810547 0.21375)"/>
      <use xlink:href="#DejaVuSerif-73" transform="translate(437.792969 0.21375)"/>
      <use xlink:href="#DejaVuSerif-20" transform="translate(489.111328 0.21375)"/>
      <use xlink:href="#DejaVuSerif-Italic-4c" transform="translate(568.898438 54.965625) scale(0.7)"/>
      <use xlink:href="#DejaVuSerif-Italic-3bd" transform="translate(615.382812 44.065313) scale(0.49)"/>
      <use xlink:href="#DejaVuSerif-Italic-4c" transform="translate(520.898438 -38.219063) scale(0.7)"/>
      <use xlink:href="#DejaVuSerif-Italic-3bd" transform="translate(567.382812 -49.119375) scale(0.49)"/>
      <use xlink:href="#DejaVuSerif-2c" transform="translate(597.17041 -49.119375) scale(0.49)"/>
      <use xlink:href="#DejaVuSerif-Italic-72" transform="translate(622.038867 -49.119375) scale(0.49)"/>
      <use xlink:href="#DejaVuSerif-Italic-65" transform="translate(645.462207 -49.119375) scale(0.49)"/>
      <use xlink:href="#DejaVuSerif-Italic-66" transform="translate(674.460254 -49.119375) scale(0.49)"/>
      <path d="M 520.898438 19.065313 
L 520.898438 25.315313 
L 694.412715 25.315313 
L 694.412715 19.065313 
L 520.898438 19.065313 
z
"/>
     </g>
    </g>
    <g id="text_16">
     <!-- 1e−5+1 -->
     <g style="fill: #ffffff" transform="translate(57.6 38.472) scale(0.16 -0.16)">
      <defs>
       <path id="DejaVuSerif-2b" d="M 2931 4013 
L 2931 2259 
L 4684 2259 
L 4684 1753 
L 2931 1753 
L 2931 0 
L 2431 0 
L 2431 1753 
L 678 1753 
L 678 2259 
L 2431 2259 
L 2431 4013 
L 2931 4013 
z
" transform="scale(0.015625)"/>
      </defs>
      <use xlink:href="#DejaVuSerif-31"/>
      <use xlink:href="#DejaVuSerif-65" x="63.623047"/>
      <use xlink:href="#DejaVuSerif-2212" x="122.802734"/>
      <use xlink:href="#DejaVuSerif-35" x="206.591797"/>
      <use xlink:href="#DejaVuSerif-2b" x="270.214844"/>
      <use xlink:href="#DejaVuSerif-31" x="354.003906"/>
     </g>
    </g>
   </g>
   <g id="line2d_14">
    <path d="M 73.832727 181.065484 
L 138.114327 181.194487 
L 151.425164 181.419439 
L 161.814109 181.811505 
L 169.605818 182.316283 
L 176.098909 182.958924 
L 181.293382 183.685781 
L 185.838545 184.534753 
L 190.059055 185.556571 
L 193.630255 186.643778 
L 196.8768 187.850362 
L 199.798691 189.149301 
L 202.720582 190.686427 
L 205.317818 192.285055 
L 207.915055 194.135057 
L 210.512291 196.271022 
L 213.109527 198.730279 
L 215.382109 201.178302 
L 217.654691 203.93118 
L 219.927273 207.015923 
L 222.199855 210.458327 
L 224.472436 214.281567 
L 226.745018 218.504417 
L 229.342255 223.835101 
L 231.939491 229.706579 
L 234.861382 236.934614 
L 238.107927 245.654466 
L 242.003782 256.81941 
L 248.821527 276.501649 
L 251.094109 282.42022 
L 253.042036 286.92253 
L 254.665309 290.125893 
L 255.963927 292.241218 
L 257.262545 293.88554 
L 258.236509 294.766767 
L 259.210473 295.311585 
L 259.859782 295.472125 
L 260.509091 295.459338 
L 261.1584 295.263574 
L 261.807709 294.875182 
L 262.457018 294.284559 
L 263.430982 292.998708 
L 264.404945 291.20522 
L 265.378909 288.874176 
L 266.352873 285.977611 
L 267.326836 282.490158 
L 268.625455 276.883502 
L 269.924073 270.146936 
L 271.222691 262.256032 
L 272.845964 250.764251 
L 274.469236 237.506632 
L 276.417164 219.427805 
L 278.689745 195.788796 
L 281.611636 162.702732 
L 286.1568 111.154714 
L 288.104727 91.682155 
L 289.728 77.78017 
L 291.026618 68.598755 
L 292.000582 63.018589 
L 292.974545 58.663798 
L 293.623855 56.480367 
L 294.273164 54.894594 
L 294.922473 53.920578 
L 295.247127 53.666183 
L 295.571782 53.568 
L 295.896436 53.626512 
L 296.221091 53.8419 
L 296.8704 54.74249 
L 297.519709 56.26502 
L 298.169018 58.3997 
L 299.142982 62.715625 
L 300.116945 68.303031 
L 301.090909 75.066115 
L 302.389527 85.703982 
L 304.0128 101.120028 
L 306.285382 125.24633 
L 310.181236 167.197574 
L 311.804509 182.62104 
L 313.103127 193.376885 
L 314.401745 202.44145 
L 315.375709 208.020111 
L 316.349673 212.502898 
L 317.323636 215.874645 
L 317.972945 217.51021 
L 318.622255 218.667116 
L 319.271564 219.360531 
L 319.920873 219.610272 
L 320.570182 219.44044 
L 321.219491 218.878991 
L 321.8688 217.95727 
L 322.842764 215.974678 
L 323.816727 213.383717 
L 325.115345 209.211674 
L 327.063273 202.06386 
L 329.985164 191.312752 
L 331.608436 186.198659 
L 332.907055 182.822586 
L 333.881018 180.763451 
L 334.854982 179.123716 
L 335.828945 177.897422 
L 336.802909 177.063452 
L 337.776873 176.587952 
L 338.750836 176.427103 
L 339.7248 176.53011 
L 340.698764 176.842245 
L 341.997382 177.487619 
L 345.243927 179.504845 
L 347.191855 180.534581 
L 348.815127 181.132528 
L 350.4384 181.470918 
L 352.061673 181.579223 
L 354.334255 181.46173 
L 361.476655 180.849144 
L 365.372509 180.889761 
L 372.514909 180.984388 
L 391.020218 180.95237 
L 398.487273 180.961439 
L 398.487273 180.961439 
" clip-path="url(#p998800009f)" style="fill: none; stroke: #a02a00; stroke-width: 3; stroke-linecap: square"/>
   </g>
   <g id="line2d_15">
    <path d="M 73.832727 181.057141 
L 139.7376 181.180047 
L 154.996364 181.420258 
L 165.709964 181.795952 
L 173.826327 182.292035 
L 180.319418 182.903478 
L 185.838545 183.64515 
L 190.383709 184.466874 
L 194.604218 185.454096 
L 198.175418 186.502076 
L 201.746618 187.790248 
L 204.993164 189.212218 
L 207.915055 190.733475 
L 210.836945 192.520237 
L 213.434182 194.362389 
L 216.031418 196.473005 
L 218.628655 198.88075 
L 221.225891 201.613293 
L 223.823127 204.695462 
L 226.420364 208.146807 
L 229.0176 211.978494 
L 231.614836 216.189533 
L 234.536727 221.357729 
L 237.783273 227.564471 
L 242.328436 236.790029 
L 247.522909 247.258738 
L 250.120145 251.989405 
L 252.068073 255.09876 
L 253.691345 257.293393 
L 254.989964 258.726957 
L 256.288582 259.822375 
L 257.262545 260.391837 
L 258.236509 260.720898 
L 259.210473 260.787213 
L 260.184436 260.568214 
L 261.1584 260.041342 
L 262.132364 259.184323 
L 263.106327 257.975487 
L 264.080291 256.394124 
L 265.054255 254.420897 
L 266.352873 251.150417 
L 267.651491 247.117557 
L 268.950109 242.29705 
L 270.248727 236.67565 
L 271.872 228.526197 
L 273.495273 219.169262 
L 275.4432 206.476756 
L 277.715782 189.990423 
L 281.286982 161.961993 
L 284.533527 136.862693 
L 286.481455 123.375869 
L 288.104727 113.697857 
L 289.403345 107.269588 
L 290.377309 103.336922 
L 291.351273 100.240153 
L 292.325236 98.033461 
L 292.974545 97.077416 
L 293.623855 96.543516 
L 294.273164 96.436801 
L 294.922473 96.758943 
L 295.571782 97.508134 
L 296.221091 98.679013 
L 296.8704 100.262628 
L 297.844364 103.383565 
L 298.818327 107.347116 
L 300.116945 113.812464 
L 301.415564 121.424951 
L 303.363491 134.420511 
L 309.531927 177.293437 
L 311.1552 186.339072 
L 312.453818 192.331563 
L 313.427782 196.020729 
L 314.401745 198.989345 
L 315.375709 201.230967 
L 316.025018 202.326841 
L 316.674327 203.112794 
L 317.323636 203.600191 
L 317.972945 203.803432 
L 318.622255 203.739665 
L 319.271564 203.428454 
L 319.920873 202.891429 
L 320.894836 201.71385 
L 321.8688 200.164638 
L 323.167418 197.671658 
L 325.44 192.706824 
L 328.037236 187.171864 
L 329.660509 184.258602 
L 330.959127 182.366599 
L 332.257745 180.903353 
L 333.231709 180.087793 
L 334.205673 179.501785 
L 335.179636 179.126006 
L 336.478255 178.907773 
L 337.776873 178.947969 
L 339.400145 179.247771 
L 342.646691 180.172538 
L 345.243927 180.800689 
L 347.516509 181.113481 
L 350.113745 181.215263 
L 354.334255 181.089046 
L 360.178036 180.969541 
L 398.487273 180.999063 
L 398.487273 180.999063 
" clip-path="url(#p998800009f)" style="fill: none; stroke: #ce4f01; stroke-width: 3; stroke-linecap: square"/>
   </g>
   <g id="line2d_16">
    <path d="M 73.832727 181.052043 
L 142.334836 181.172317 
L 158.892218 181.42253 
L 169.930473 181.800053 
L 178.046836 182.28764 
L 184.539927 182.888117 
L 190.059055 183.615479 
L 194.928873 184.48584 
L 199.149382 185.467969 
L 203.045236 186.612321 
L 206.616436 187.907373 
L 209.862982 189.328831 
L 212.784873 190.839629 
L 215.706764 192.600437 
L 218.628655 194.641274 
L 221.225891 196.713601 
L 223.823127 199.047276 
L 226.420364 201.655275 
L 229.342255 204.924295 
L 232.264145 208.54101 
L 235.510691 212.931034 
L 239.406545 218.596679 
L 247.522909 230.534861 
L 249.795491 233.45591 
L 251.743418 235.623048 
L 253.366691 237.112456 
L 254.665309 238.049502 
L 255.963927 238.721523 
L 256.937891 239.029146 
L 257.911855 239.150472 
L 258.885818 239.069114 
L 259.859782 238.768659 
L 260.833745 238.23285 
L 261.807709 237.445813 
L 262.781673 236.39231 
L 263.755636 235.058028 
L 265.054255 232.819845 
L 266.352873 230.033046 
L 267.651491 226.677911 
L 268.950109 222.743148 
L 270.573382 217.009162 
L 272.196655 210.393918 
L 274.144582 201.379668 
L 276.417164 189.61555 
L 279.663709 171.357805 
L 283.559564 149.645028 
L 285.507491 140.050706 
L 287.130764 133.222805 
L 288.429382 128.734697 
L 289.403345 126.023399 
L 290.377309 123.92512 
L 291.026618 122.885433 
L 291.675927 122.143146 
L 292.325236 121.704394 
L 292.974545 121.572938 
L 293.623855 121.750058 
L 294.273164 122.234459 
L 294.922473 123.022224 
L 295.571782 124.106781 
L 296.545745 126.269234 
L 297.519709 129.036145 
L 298.818327 133.569838 
L 300.116945 138.919992 
L 302.064873 148.054942 
L 307.908655 176.575993 
L 309.531927 183.005056 
L 310.830545 187.282114 
L 312.129164 190.69704 
L 313.103127 192.667895 
L 314.077091 194.13181 
L 315.051055 195.102508 
L 315.700364 195.488038 
L 316.349673 195.67621 
L 316.998982 195.679444 
L 317.648291 195.511844 
L 318.622255 194.974374 
L 319.596218 194.144462 
L 320.894836 192.68725 
L 322.842764 190.043151 
L 326.413964 185.089537 
L 328.037236 183.241198 
L 329.335855 182.051755 
L 330.634473 181.139586 
L 331.933091 180.499022 
L 333.231709 180.105955 
L 334.530327 179.922995 
L 336.1536 179.920632 
L 338.426182 180.175137 
L 344.269964 180.962753 
L 347.516509 181.10315 
L 353.035636 181.047777 
L 362.450618 181.014265 
L 398.487273 181.016892 
L 398.487273 181.016892 
" clip-path="url(#p998800009f)" style="fill: none; stroke: #e16904; stroke-width: 3; stroke-linecap: square"/>
   </g>
   <g id="line2d_17">
    <path d="M 73.832727 181.048618 
L 145.256727 181.167479 
L 162.463418 181.417224 
L 173.501673 181.781946 
L 181.942691 182.276681 
L 188.435782 182.867016 
L 193.954909 183.580704 
L 198.824727 184.432366 
L 203.045236 185.389976 
L 206.941091 186.500781 
L 210.512291 187.750946 
L 213.758836 189.11418 
L 217.005382 190.725484 
L 219.927273 192.413058 
L 222.849164 194.346298 
L 225.771055 196.540375 
L 228.692945 199.002406 
L 231.939491 202.045597 
L 235.510691 205.728372 
L 240.055855 210.772964 
L 246.224291 217.618806 
L 248.821527 220.182121 
L 250.769455 221.844915 
L 252.392727 222.998325 
L 254.016 223.887996 
L 255.314618 224.374444 
L 256.613236 224.630101 
L 257.911855 224.626031 
L 258.885818 224.434985 
L 259.859782 224.06923 
L 260.833745 223.516833 
L 261.807709 222.766319 
L 263.106327 221.438905 
L 264.404945 219.7172 
L 265.703564 217.582214 
L 267.002182 215.020187 
L 268.3008 212.023918 
L 269.924073 207.669941 
L 271.547345 202.661683 
L 273.495273 195.859444 
L 275.767855 187.018384 
L 279.339055 171.999088 
L 282.5856 158.599655 
L 284.533527 151.444353 
L 286.1568 146.348244 
L 287.455418 142.996359 
L 288.429382 140.970225 
L 289.403345 139.400921 
L 290.377309 138.315862 
L 291.026618 137.871463 
L 291.675927 137.654696 
L 292.325236 137.667305 
L 292.974545 137.909108 
L 293.623855 138.377943 
L 294.273164 139.069639 
L 295.247127 140.510975 
L 296.221091 142.410159 
L 297.519709 145.586226 
L 298.818327 149.390151 
L 300.4416 154.813876 
L 303.688145 166.694017 
L 305.960727 174.697546 
L 307.584 179.740674 
L 308.882618 183.196147 
L 310.181236 186.049987 
L 311.1552 187.766986 
L 312.129164 189.112705 
L 313.103127 190.090941 
L 314.077091 190.715329 
L 315.051055 191.008388 
L 316.025018 191.000291 
L 316.998982 190.727401 
L 317.972945 190.230646 
L 319.271564 189.295922 
L 321.219491 187.525019 
L 325.115345 183.824879 
L 326.738618 182.578457 
L 328.361891 181.614707 
L 329.985164 180.947247 
L 331.608436 180.553421 
L 333.231709 180.385355 
L 335.504291 180.41274 
L 340.049455 180.803762 
L 343.945309 181.028622 
L 348.815127 181.062894 
L 368.943709 181.025543 
L 398.487273 181.025489 
L 398.487273 181.025489 
" clip-path="url(#p998800009f)" style="fill: none; stroke: #f98811; stroke-width: 3; stroke-linecap: square"/>
   </g>
   <g id="line2d_18">
    <path d="M 73.832727 181.044328 
L 151.425164 181.160956 
L 169.605818 181.411231 
L 180.968727 181.77788 
L 189.409745 182.263973 
L 196.227491 182.87645 
L 201.746618 183.583167 
L 206.616436 184.418821 
L 211.1616 185.428078 
L 215.057455 186.507958 
L 218.953309 187.82013 
L 222.524509 189.251986 
L 226.095709 190.919419 
L 229.666909 192.826205 
L 233.562764 195.160193 
L 238.432582 198.35587 
L 245.899636 203.271184 
L 248.821527 204.899317 
L 251.094109 205.914859 
L 253.042036 206.544796 
L 254.665309 206.858577 
L 256.288582 206.945075 
L 257.911855 206.770531 
L 259.210473 206.420472 
L 260.509091 205.865547 
L 261.807709 205.090511 
L 263.106327 204.081863 
L 264.404945 202.828507 
L 266.028218 200.905937 
L 267.651491 198.582199 
L 269.274764 195.862757 
L 271.222691 192.106554 
L 273.495273 187.133604 
L 276.417164 180.085629 
L 281.286982 168.208911 
L 283.234909 164.057367 
L 284.858182 161.12209 
L 286.1568 159.209497 
L 287.455418 157.745364 
L 288.429382 156.968838 
L 289.403345 156.483472 
L 290.377309 156.297718 
L 291.351273 156.414418 
L 292.325236 156.830474 
L 293.2992 157.536674 
L 294.273164 158.517701 
L 295.571782 160.215762 
L 296.8704 162.298758 
L 298.493673 165.320756 
L 301.415564 171.375672 
L 304.337455 177.267757 
L 305.960727 180.097914 
L 307.259345 182.019678 
L 308.557964 183.590085 
L 309.856582 184.787008 
L 310.830545 185.437703 
L 311.804509 185.883114 
L 312.778473 186.135017 
L 314.077091 186.199023 
L 315.375709 185.998299 
L 316.998982 185.463037 
L 319.271564 184.395591 
L 323.492073 182.333035 
L 325.44 181.626196 
L 327.387927 181.143161 
L 329.335855 180.871138 
L 331.933091 180.759359 
L 335.828945 180.861677 
L 342.971345 181.041304 
L 361.801309 181.032742 
L 398.487273 181.032683 
L 398.487273 181.032683 
" clip-path="url(#p998800009f)" style="fill: none; stroke: #ffac2b; stroke-width: 3; stroke-linecap: square"/>
   </g>
   <g id="line2d_19">
    <path d="M 73.832727 181.041769 
L 157.918255 181.155835 
L 176.423564 181.398473 
L 188.111127 181.763507 
L 196.552145 182.235588 
L 203.369891 182.825378 
L 209.213673 183.544126 
L 214.408145 184.401134 
L 219.277964 185.434411 
L 223.823127 186.630046 
L 228.368291 188.06364 
L 233.238109 189.848846 
L 240.055855 192.628667 
L 245.574982 194.807116 
L 248.821527 195.86276 
L 251.418764 196.481735 
L 253.691345 196.793951 
L 255.639273 196.847344 
L 257.5872 196.665442 
L 259.210473 196.309009 
L 260.833745 195.74639 
L 262.457018 194.961375 
L 264.080291 193.941401 
L 265.703564 192.67892 
L 267.651491 190.842938 
L 269.599418 188.670531 
L 271.872 185.757711 
L 274.469236 182.049482 
L 280.962327 172.555192 
L 282.910255 170.190542 
L 284.533527 168.578661 
L 285.832145 167.576618 
L 287.130764 166.863076 
L 288.429382 166.459899 
L 289.403345 166.368873 
L 290.377309 166.460541 
L 291.351273 166.732304 
L 292.649891 167.363252 
L 293.948509 168.27724 
L 295.571782 169.7613 
L 297.519709 171.919265 
L 304.662109 180.296522 
L 306.285382 181.68762 
L 307.584 182.561305 
L 308.882618 183.211153 
L 310.181236 183.639833 
L 311.479855 183.861224 
L 313.103127 183.882731 
L 314.7264 183.677875 
L 316.998982 183.143943 
L 323.492073 181.457901 
L 326.089309 181.092551 
L 329.0112 180.922084 
L 333.231709 180.933984 
L 344.594618 181.040101 
L 398.487273 181.035267 
L 398.487273 181.035267 
" clip-path="url(#p998800009f)" style="fill: none; stroke: #ffcb58; stroke-width: 3; stroke-linecap: square"/>
   </g>
   <g id="line2d_20">
    <path d="M 73.832727 181.0389 
L 174.475636 181.150834 
L 193.630255 181.392499 
L 205.642473 181.755107 
L 214.7328 182.239688 
L 222.524509 182.866593 
L 230.316218 183.722446 
L 242.003782 185.287164 
L 248.172218 185.985007 
L 252.392727 186.237711 
L 255.639273 186.226145 
L 258.561164 186.01362 
L 261.483055 185.573319 
L 264.080291 184.970843 
L 267.002182 184.049673 
L 269.924073 182.890451 
L 273.819927 181.075891 
L 279.988364 178.177378 
L 282.5856 177.236127 
L 284.858182 176.672101 
L 286.806109 176.423209 
L 288.754036 176.408742 
L 290.701964 176.626829 
L 292.649891 177.055966 
L 295.247127 177.884759 
L 304.337455 181.121075 
L 306.610036 181.576147 
L 308.882618 181.816227 
L 311.479855 181.860039 
L 315.051055 181.657179 
L 323.492073 181.078064 
L 329.0112 181.005488 
L 398.487273 181.036912 
L 398.487273 181.036912 
" clip-path="url(#p998800009f)" style="fill: none; stroke: #fee28b; stroke-width: 3; stroke-linecap: square"/>
   </g>
   <g id="patch_3">
    <path d="M 57.6 307.584 
L 57.6 41.472 
" style="fill: none; stroke: #ffffff; stroke-width: 3; stroke-linejoin: miter; stroke-linecap: square"/>
   </g>
   <g id="patch_4">
    <path d="M 57.6 307.584 
L 414.72 307.584 
" style="fill: none; stroke: #ffffff; stroke-width: 3; stroke-linejoin: miter; stroke-linecap: square"/>
   </g>
   <g id="text_17">
    <!-- Luminosity residuals varyied w/ radial bins, reference of 1001 bins. Method 1 -->
    <g style="fill: #ffffff" transform="translate(-0.591562 20.3145) scale(0.12 -0.12)">
     <defs>
      <path id="DejaVuSerif-6d" d="M 3316 2675 
Q 3481 3041 3739 3227 
Q 3997 3413 4341 3413 
Q 4863 3413 5119 3089 
Q 5375 2766 5375 2113 
L 5375 331 
L 5894 331 
L 5894 0 
L 4300 0 
L 4300 331 
L 4800 331 
L 4800 2047 
Q 4800 2556 4650 2772 
Q 4500 2988 4153 2988 
Q 3769 2988 3567 2697 
Q 3366 2406 3366 1850 
L 3366 331 
L 3866 331 
L 3866 0 
L 2291 0 
L 2291 331 
L 2791 331 
L 2791 2069 
Q 2791 2566 2641 2777 
Q 2491 2988 2144 2988 
Q 1759 2988 1557 2697 
Q 1356 2406 1356 1850 
L 1356 331 
L 1856 331 
L 1856 0 
L 263 0 
L 263 331 
L 781 331 
L 781 2994 
L 231 2994 
L 231 3322 
L 1356 3322 
L 1356 2731 
Q 1516 3063 1762 3238 
Q 2009 3413 2322 3413 
Q 2709 3413 2968 3220 
Q 3228 3028 3316 2675 
z
" transform="scale(0.015625)"/>
      <path id="DejaVuSerif-6e" d="M 263 0 
L 263 331 
L 781 331 
L 781 2988 
L 231 2988 
L 231 3322 
L 1356 3322 
L 1356 2731 
Q 1516 3069 1770 3241 
Q 2025 3413 2363 3413 
Q 2913 3413 3172 3097 
Q 3431 2781 3431 2113 
L 3431 331 
L 3944 331 
L 3944 0 
L 2356 0 
L 2356 331 
L 2853 331 
L 2853 1931 
Q 2853 2541 2703 2767 
Q 2553 2994 2175 2994 
Q 1775 2994 1565 2701 
Q 1356 2409 1356 1850 
L 1356 331 
L 1856 331 
L 1856 0 
L 263 0 
z
" transform="scale(0.015625)"/>
      <path id="DejaVuSerif-74" d="M 691 2988 
L 184 2988 
L 184 3322 
L 691 3322 
L 691 4353 
L 1269 4353 
L 1269 3322 
L 2350 3322 
L 2350 2988 
L 1269 2988 
L 1269 878 
Q 1269 456 1350 337 
Q 1431 219 1650 219 
Q 1875 219 1978 351 
Q 2081 484 2088 781 
L 2522 781 
Q 2497 328 2275 118 
Q 2053 -91 1600 -91 
Q 1103 -91 897 129 
Q 691 350 691 878 
L 691 2988 
z
" transform="scale(0.015625)"/>
      <path id="DejaVuSerif-79" d="M 1381 -609 
L 1600 -56 
L 359 2988 
L -19 2988 
L -19 3322 
L 1509 3322 
L 1509 2988 
L 978 2988 
L 1913 703 
L 2847 2988 
L 2350 2988 
L 2350 3322 
L 3597 3322 
L 3597 2988 
L 3225 2988 
L 1703 -750 
Q 1547 -1138 1356 -1280 
Q 1166 -1422 819 -1422 
Q 672 -1422 517 -1397 
Q 363 -1372 206 -1325 
L 206 -691 
L 500 -691 
Q 519 -903 608 -995 
Q 697 -1088 884 -1088 
Q 1056 -1088 1161 -992 
Q 1266 -897 1381 -609 
z
" transform="scale(0.015625)"/>
      <path id="DejaVuSerif-72" d="M 3059 3328 
L 3059 2497 
L 2728 2497 
Q 2713 2744 2591 2866 
Q 2469 2988 2234 2988 
Q 1809 2988 1582 2694 
Q 1356 2400 1356 1850 
L 1356 331 
L 2022 331 
L 2022 0 
L 263 0 
L 263 331 
L 781 331 
L 781 2994 
L 231 2994 
L 231 3322 
L 1356 3322 
L 1356 2731 
Q 1525 3078 1790 3245 
Q 2056 3413 2438 3413 
Q 2578 3413 2733 3391 
Q 2888 3369 3059 3328 
z
" transform="scale(0.015625)"/>
      <path id="DejaVuSerif-76" d="M 1581 0 
L 359 2988 
L -19 2988 
L -19 3322 
L 1509 3322 
L 1509 2988 
L 978 2988 
L 1913 703 
L 2847 2988 
L 2350 2988 
L 2350 3322 
L 3597 3322 
L 3597 2988 
L 3225 2988 
L 2003 0 
L 1581 0 
z
" transform="scale(0.015625)"/>
      <path id="DejaVuSerif-77" d="M 3072 3322 
L 3922 728 
L 4672 2988 
L 4191 2988 
L 4191 3322 
L 5394 3322 
L 5394 2988 
L 5025 2988 
L 4038 0 
L 3559 0 
L 2741 2484 
L 1919 0 
L 1459 0 
L 475 2988 
L 103 2988 
L 103 3322 
L 1606 3322 
L 1606 2988 
L 1069 2988 
L 1813 728 
L 2669 3322 
L 3072 3322 
z
" transform="scale(0.015625)"/>
      <path id="DejaVuSerif-62" d="M 738 331 
L 738 4531 
L 184 4531 
L 184 4863 
L 1313 4863 
L 1313 2803 
Q 1481 3116 1742 3264 
Q 2003 3413 2388 3413 
Q 3000 3413 3387 2928 
Q 3775 2444 3775 1663 
Q 3775 881 3387 395 
Q 3000 -91 2388 -91 
Q 2003 -91 1742 57 
Q 1481 206 1313 519 
L 1313 0 
L 184 0 
L 184 331 
L 738 331 
z
M 1313 1497 
Q 1313 897 1542 583 
Q 1772 269 2209 269 
Q 2650 269 2876 622 
Q 3103 975 3103 1663 
Q 3103 2353 2876 2703 
Q 2650 3053 2209 3053 
Q 1772 3053 1542 2737 
Q 1313 2422 1313 1825 
L 1313 1497 
z
" transform="scale(0.015625)"/>
      <path id="DejaVuSerif-66" d="M 2753 4078 
L 2450 4078 
Q 2447 4313 2317 4434 
Q 2188 4556 1941 4556 
Q 1619 4556 1487 4379 
Q 1356 4203 1356 3750 
L 1356 3322 
L 2284 3322 
L 2284 2988 
L 1356 2988 
L 1356 331 
L 2094 331 
L 2094 0 
L 231 0 
L 231 331 
L 781 331 
L 781 2988 
L 231 2988 
L 231 3322 
L 781 3322 
L 781 3738 
Q 781 4294 1070 4578 
Q 1359 4863 1919 4863 
Q 2128 4863 2337 4825 
Q 2547 4788 2753 4709 
L 2753 4078 
z
" transform="scale(0.015625)"/>
      <path id="DejaVuSerif-63" d="M 3291 997 
Q 3169 466 2822 187 
Q 2475 -91 1925 -91 
Q 1200 -91 759 389 
Q 319 869 319 1663 
Q 319 2459 759 2936 
Q 1200 3413 1925 3413 
Q 2241 3413 2553 3339 
Q 2866 3266 3181 3116 
L 3181 2266 
L 2847 2266 
Q 2781 2703 2561 2903 
Q 2341 3103 1931 3103 
Q 1466 3103 1228 2742 
Q 991 2381 991 1663 
Q 991 944 1227 581 
Q 1463 219 1931 219 
Q 2303 219 2525 412 
Q 2747 606 2828 997 
L 3291 997 
z
" transform="scale(0.015625)"/>
      <path id="DejaVuSerif-2e" d="M 603 325 
Q 603 500 722 622 
Q 841 744 1019 744 
Q 1191 744 1312 622 
Q 1434 500 1434 325 
Q 1434 153 1312 31 
Q 1191 -91 1019 -91 
Q 841 -91 722 29 
Q 603 150 603 325 
z
" transform="scale(0.015625)"/>
      <path id="DejaVuSerif-4d" d="M 353 0 
L 353 331 
L 947 331 
L 947 4331 
L 319 4331 
L 319 4666 
L 1678 4666 
L 3316 1344 
L 4953 4666 
L 6228 4666 
L 6228 4331 
L 5606 4331 
L 5606 331 
L 6203 331 
L 6203 0 
L 4378 0 
L 4378 331 
L 4972 331 
L 4972 3938 
L 3372 684 
L 2931 684 
L 1331 3938 
L 1331 331 
L 1925 331 
L 1925 0 
L 353 0 
z
" transform="scale(0.015625)"/>
      <path id="DejaVuSerif-68" d="M 263 0 
L 263 331 
L 781 331 
L 781 4531 
L 231 4531 
L 231 4863 
L 1356 4863 
L 1356 2731 
Q 1516 3069 1770 3241 
Q 2025 3413 2363 3413 
Q 2913 3413 3172 3097 
Q 3431 2781 3431 2113 
L 3431 331 
L 3944 331 
L 3944 0 
L 2356 0 
L 2356 331 
L 2853 331 
L 2853 1931 
Q 2853 2541 2704 2764 
Q 2556 2988 2175 2988 
Q 1775 2988 1565 2697 
Q 1356 2406 1356 1850 
L 1356 331 
L 1856 331 
L 1856 0 
L 263 0 
z
" transform="scale(0.015625)"/>
     </defs>
     <use xlink:href="#DejaVuSerif-4c"/>
     <use xlink:href="#DejaVuSerif-75" x="66.40625"/>
     <use xlink:href="#DejaVuSerif-6d" x="130.810547"/>
     <use xlink:href="#DejaVuSerif-69" x="225.634766"/>
     <use xlink:href="#DejaVuSerif-6e" x="257.617188"/>
     <use xlink:href="#DejaVuSerif-6f" x="322.021484"/>
     <use xlink:href="#DejaVuSerif-73" x="382.226562"/>
     <use xlink:href="#DejaVuSerif-69" x="433.544922"/>
     <use xlink:href="#DejaVuSerif-74" x="465.527344"/>
     <use xlink:href="#DejaVuSerif-79" x="505.712891"/>
     <use xlink:href="#DejaVuSerif-20" x="562.207031"/>
     <use xlink:href="#DejaVuSerif-72" x="593.994141"/>
     <use xlink:href="#DejaVuSerif-65" x="641.796875"/>
     <use xlink:href="#DejaVuSerif-73" x="700.976562"/>
     <use xlink:href="#DejaVuSerif-69" x="752.294922"/>
     <use xlink:href="#DejaVuSerif-64" x="784.277344"/>
     <use xlink:href="#DejaVuSerif-75" x="848.291016"/>
     <use xlink:href="#DejaVuSerif-61" x="912.695312"/>
     <use xlink:href="#DejaVuSerif-6c" x="972.314453"/>
     <use xlink:href="#DejaVuSerif-73" x="1004.296875"/>
     <use xlink:href="#DejaVuSerif-20" x="1055.615234"/>
     <use xlink:href="#DejaVuSerif-76" x="1087.402344"/>
     <use xlink:href="#DejaVuSerif-61" x="1143.896484"/>
     <use xlink:href="#DejaVuSerif-72" x="1203.515625"/>
     <use xlink:href="#DejaVuSerif-79" x="1251.318359"/>
     <use xlink:href="#DejaVuSerif-69" x="1307.8125"/>
     <use xlink:href="#DejaVuSerif-65" x="1339.794922"/>
     <use xlink:href="#DejaVuSerif-64" x="1398.974609"/>
     <use xlink:href="#DejaVuSerif-20" x="1462.988281"/>
     <use xlink:href="#DejaVuSerif-77" x="1494.775391"/>
     <use xlink:href="#DejaVuSerif-2f" x="1580.371094"/>
     <use xlink:href="#DejaVuSerif-20" x="1614.0625"/>
     <use xlink:href="#DejaVuSerif-72" x="1645.849609"/>
     <use xlink:href="#DejaVuSerif-61" x="1693.652344"/>
     <use xlink:href="#DejaVuSerif-64" x="1753.271484"/>
     <use xlink:href="#DejaVuSerif-69" x="1817.285156"/>
     <use xlink:href="#DejaVuSerif-61" x="1849.267578"/>
     <use xlink:href="#DejaVuSerif-6c" x="1908.886719"/>
     <use xlink:href="#DejaVuSerif-20" x="1940.869141"/>
     <use xlink:href="#DejaVuSerif-62" x="1972.65625"/>
     <use xlink:href="#DejaVuSerif-69" x="2036.669922"/>
     <use xlink:href="#DejaVuSerif-6e" x="2068.652344"/>
     <use xlink:href="#DejaVuSerif-73" x="2133.056641"/>
     <use xlink:href="#DejaVuSerif-2c" x="2184.375"/>
     <use xlink:href="#DejaVuSerif-20" x="2216.162109"/>
     <use xlink:href="#DejaVuSerif-72" x="2247.949219"/>
     <use xlink:href="#DejaVuSerif-65" x="2295.751953"/>
     <use xlink:href="#DejaVuSerif-66" x="2354.931641"/>
     <use xlink:href="#DejaVuSerif-65" x="2391.943359"/>
     <use xlink:href="#DejaVuSerif-72" x="2451.123047"/>
     <use xlink:href="#DejaVuSerif-65" x="2498.925781"/>
     <use xlink:href="#DejaVuSerif-6e" x="2558.105469"/>
     <use xlink:href="#DejaVuSerif-63" x="2622.509766"/>
     <use xlink:href="#DejaVuSerif-65" x="2678.515625"/>
     <use xlink:href="#DejaVuSerif-20" x="2737.695312"/>
     <use xlink:href="#DejaVuSerif-6f" x="2769.482422"/>
     <use xlink:href="#DejaVuSerif-66" x="2829.6875"/>
     <use xlink:href="#DejaVuSerif-20" x="2866.699219"/>
     <use xlink:href="#DejaVuSerif-31" x="2898.486328"/>
     <use xlink:href="#DejaVuSerif-30" x="2962.109375"/>
     <use xlink:href="#DejaVuSerif-30" x="3025.732422"/>
     <use xlink:href="#DejaVuSerif-31" x="3089.355469"/>
     <use xlink:href="#DejaVuSerif-20" x="3152.978516"/>
     <use xlink:href="#DejaVuSerif-62" x="3184.765625"/>
     <use xlink:href="#DejaVuSerif-69" x="3248.779297"/>
     <use xlink:href="#DejaVuSerif-6e" x="3280.761719"/>
     <use xlink:href="#DejaVuSerif-73" x="3345.166016"/>
     <use xlink:href="#DejaVuSerif-2e" x="3396.484375"/>
     <use xlink:href="#DejaVuSerif-20" x="3428.271484"/>
     <use xlink:href="#DejaVuSerif-4d" x="3460.058594"/>
     <use xlink:href="#DejaVuSerif-65" x="3562.451172"/>
     <use xlink:href="#DejaVuSerif-74" x="3621.630859"/>
     <use xlink:href="#DejaVuSerif-68" x="3661.816406"/>
     <use xlink:href="#DejaVuSerif-6f" x="3726.220703"/>
     <use xlink:href="#DejaVuSerif-64" x="3786.425781"/>
     <use xlink:href="#DejaVuSerif-20" x="3850.439453"/>
     <use xlink:href="#DejaVuSerif-31" x="3882.226562"/>
    </g>
   </g>
  </g>
 </g>
 <defs>
  <clipPath id="p998800009f">
   <rect x="57.6" y="41.472" width="357.12" height="266.112"/>
  </clipPath>
 </defs>
</svg>
