<?xml version="1.0" encoding="utf-8" standalone="no"?>
<!DOCTYPE svg PUBLIC "-//W3C//DTD SVG 1.1//EN"
  "http://www.w3.org/Graphics/SVG/1.1/DTD/svg11.dtd">
<svg xmlns:xlink="http://www.w3.org/1999/xlink" width="460.8pt" height="345.6pt" viewBox="0 0 460.8 345.6" xmlns="http://www.w3.org/2000/svg" version="1.1">
 <metadata>
  <rdf:RDF xmlns:dc="http://purl.org/dc/elements/1.1/" xmlns:cc="http://creativecommons.org/ns#" xmlns:rdf="http://www.w3.org/1999/02/22-rdf-syntax-ns#">
   <cc:Work>
    <dc:type rdf:resource="http://purl.org/dc/dcmitype/StillImage"/>
    <dc:date>2023-12-08T23:51:55.067070</dc:date>
    <dc:format>image/svg+xml</dc:format>
    <dc:creator>
     <cc:Agent>
      <dc:title>Matplotlib v3.7.2, https://matplotlib.org/</dc:title>
     </cc:Agent>
    </dc:creator>
   </cc:Work>
  </rdf:RDF>
 </metadata>
 <defs>
  <style type="text/css">*{stroke-linejoin: round; stroke-linecap: butt}</style>
 </defs>
 <g id="figure_1">
  <g id="patch_1">
   <path d="M 0 345.6 
L 460.8 345.6 
L 460.8 0 
L 0 0 
L 0 345.6 
z
" style="fill: none"/>
  </g>
  <g id="axes_1">
   <g id="patch_2">
    <path d="M 57.6 307.584 
L 414.72 307.584 
L 414.72 41.472 
L 57.6 41.472 
L 57.6 307.584 
z
" style="fill: none"/>
   </g>
   <g id="matplotlib.axis_1">
    <g id="xtick_1">
     <g id="line2d_1">
      <defs>
       <path id="m7572df1811" d="M 0 0 
L 0 3.5 
" style="stroke: #000000; stroke-width: 0.8"/>
      </defs>
      <g>
       <use xlink:href="#m7572df1811" x="73.832727" y="307.584" style="stroke: #000000; stroke-width: 0.8"/>
      </g>
     </g>
     <g id="text_1">
      <!-- 14 -->
      <g style="fill: #ffffff" transform="translate(63.652727 326.7415) scale(0.16 -0.16)">
       <defs>
        <path id="DejaVuSerif-31" d="M 909 0 
L 909 331 
L 1722 331 
L 1722 4213 
L 781 3603 
L 781 4013 
L 1919 4750 
L 2350 4750 
L 2350 331 
L 3163 331 
L 3163 0 
L 909 0 
z
" transform="scale(0.015625)"/>
        <path id="DejaVuSerif-34" d="M 2234 1581 
L 2234 4063 
L 641 1581 
L 2234 1581 
z
M 3609 0 
L 1484 0 
L 1484 331 
L 2234 331 
L 2234 1247 
L 197 1247 
L 197 1588 
L 2241 4750 
L 2859 4750 
L 2859 1581 
L 3750 1581 
L 3750 1247 
L 2859 1247 
L 2859 331 
L 3609 331 
L 3609 0 
z
" transform="scale(0.015625)"/>
       </defs>
       <use xlink:href="#DejaVuSerif-31"/>
       <use xlink:href="#DejaVuSerif-34" x="63.623047"/>
      </g>
     </g>
    </g>
    <g id="xtick_2">
     <g id="line2d_2">
      <g>
       <use xlink:href="#m7572df1811" x="138.763636" y="307.584" style="stroke: #000000; stroke-width: 0.8"/>
      </g>
     </g>
     <g id="text_2">
      <!-- 15 -->
      <g style="fill: #ffffff" transform="translate(128.583636 326.7415) scale(0.16 -0.16)">
       <defs>
        <path id="DejaVuSerif-35" d="M 3219 4666 
L 3219 4153 
L 1081 4153 
L 1081 2816 
Q 1244 2928 1461 2984 
Q 1678 3041 1947 3041 
Q 2703 3041 3140 2622 
Q 3578 2203 3578 1478 
Q 3578 738 3136 323 
Q 2694 -91 1894 -91 
Q 1572 -91 1234 -12 
Q 897 66 544 225 
L 544 1131 
L 897 1131 
Q 925 688 1179 453 
Q 1434 219 1894 219 
Q 2388 219 2653 544 
Q 2919 869 2919 1478 
Q 2919 2084 2655 2407 
Q 2391 2731 1894 2731 
Q 1613 2731 1398 2631 
Q 1184 2531 1019 2322 
L 750 2322 
L 750 4666 
L 3219 4666 
z
" transform="scale(0.015625)"/>
       </defs>
       <use xlink:href="#DejaVuSerif-31"/>
       <use xlink:href="#DejaVuSerif-35" x="63.623047"/>
      </g>
     </g>
    </g>
    <g id="xtick_3">
     <g id="line2d_3">
      <g>
       <use xlink:href="#m7572df1811" x="203.694545" y="307.584" style="stroke: #000000; stroke-width: 0.8"/>
      </g>
     </g>
     <g id="text_3">
      <!-- 16 -->
      <g style="fill: #ffffff" transform="translate(193.514545 326.7415) scale(0.16 -0.16)">
       <defs>
        <path id="DejaVuSerif-36" d="M 2094 219 
Q 2534 219 2771 542 
Q 3009 866 3009 1472 
Q 3009 2078 2771 2401 
Q 2534 2725 2094 2725 
Q 1647 2725 1412 2412 
Q 1178 2100 1178 1509 
Q 1178 888 1415 553 
Q 1653 219 2094 219 
z
M 1075 2569 
Q 1288 2803 1556 2918 
Q 1825 3034 2163 3034 
Q 2859 3034 3264 2615 
Q 3669 2197 3669 1472 
Q 3669 763 3233 336 
Q 2797 -91 2069 -91 
Q 1278 -91 853 498 
Q 428 1088 428 2181 
Q 428 3406 931 4078 
Q 1434 4750 2350 4750 
Q 2597 4750 2869 4703 
Q 3141 4656 3425 4563 
L 3425 3794 
L 3072 3794 
Q 3034 4109 2831 4275 
Q 2628 4441 2284 4441 
Q 1678 4441 1381 3981 
Q 1084 3522 1075 2569 
z
" transform="scale(0.015625)"/>
       </defs>
       <use xlink:href="#DejaVuSerif-31"/>
       <use xlink:href="#DejaVuSerif-36" x="63.623047"/>
      </g>
     </g>
    </g>
    <g id="xtick_4">
     <g id="line2d_4">
      <g>
       <use xlink:href="#m7572df1811" x="268.625455" y="307.584" style="stroke: #000000; stroke-width: 0.8"/>
      </g>
     </g>
     <g id="text_4">
      <!-- 17 -->
      <g style="fill: #ffffff" transform="translate(258.445455 326.7415) scale(0.16 -0.16)">
       <defs>
        <path id="DejaVuSerif-37" d="M 3609 4347 
L 1784 0 
L 1319 0 
L 3059 4153 
L 903 4153 
L 903 3578 
L 538 3578 
L 538 4666 
L 3609 4666 
L 3609 4347 
z
" transform="scale(0.015625)"/>
       </defs>
       <use xlink:href="#DejaVuSerif-31"/>
       <use xlink:href="#DejaVuSerif-37" x="63.623047"/>
      </g>
     </g>
    </g>
    <g id="xtick_5">
     <g id="line2d_5">
      <g>
       <use xlink:href="#m7572df1811" x="333.556364" y="307.584" style="stroke: #000000; stroke-width: 0.8"/>
      </g>
     </g>
     <g id="text_5">
      <!-- 18 -->
      <g style="fill: #ffffff" transform="translate(323.376364 326.7415) scale(0.16 -0.16)">
       <defs>
        <path id="DejaVuSerif-38" d="M 2981 1275 
Q 2981 1775 2732 2051 
Q 2484 2328 2034 2328 
Q 1584 2328 1336 2051 
Q 1088 1775 1088 1275 
Q 1088 772 1336 495 
Q 1584 219 2034 219 
Q 2484 219 2732 495 
Q 2981 772 2981 1275 
z
M 2853 3541 
Q 2853 3966 2637 4203 
Q 2422 4441 2034 4441 
Q 1650 4441 1433 4203 
Q 1216 3966 1216 3541 
Q 1216 3113 1433 2875 
Q 1650 2638 2034 2638 
Q 2422 2638 2637 2875 
Q 2853 3113 2853 3541 
z
M 2516 2484 
Q 3047 2413 3344 2092 
Q 3641 1772 3641 1275 
Q 3641 619 3225 264 
Q 2809 -91 2034 -91 
Q 1263 -91 845 264 
Q 428 619 428 1275 
Q 428 1772 725 2092 
Q 1022 2413 1556 2484 
Q 1084 2569 832 2842 
Q 581 3116 581 3541 
Q 581 4103 968 4426 
Q 1356 4750 2034 4750 
Q 2713 4750 3100 4426 
Q 3488 4103 3488 3541 
Q 3488 3116 3236 2842 
Q 2984 2569 2516 2484 
z
" transform="scale(0.015625)"/>
       </defs>
       <use xlink:href="#DejaVuSerif-31"/>
       <use xlink:href="#DejaVuSerif-38" x="63.623047"/>
      </g>
     </g>
    </g>
    <g id="xtick_6">
     <g id="line2d_6">
      <g>
       <use xlink:href="#m7572df1811" x="398.487273" y="307.584" style="stroke: #000000; stroke-width: 0.8"/>
      </g>
     </g>
     <g id="text_6">
      <!-- 19 -->
      <g style="fill: #ffffff" transform="translate(388.307273 326.7415) scale(0.16 -0.16)">
       <defs>
        <path id="DejaVuSerif-39" d="M 2994 2091 
Q 2784 1856 2512 1740 
Q 2241 1625 1900 1625 
Q 1206 1625 804 2044 
Q 403 2463 403 3188 
Q 403 3897 839 4323 
Q 1275 4750 2003 4750 
Q 2794 4750 3217 4161 
Q 3641 3572 3641 2478 
Q 3641 1253 3137 581 
Q 2634 -91 1722 -91 
Q 1475 -91 1203 -44 
Q 931 3 647 97 
L 647 872 
L 997 872 
Q 1038 556 1241 387 
Q 1444 219 1784 219 
Q 2391 219 2687 676 
Q 2984 1134 2994 2091 
z
M 1978 4441 
Q 1534 4441 1298 4117 
Q 1063 3794 1063 3188 
Q 1063 2581 1298 2256 
Q 1534 1931 1978 1931 
Q 2422 1931 2658 2245 
Q 2894 2559 2894 3150 
Q 2894 3772 2656 4106 
Q 2419 4441 1978 4441 
z
" transform="scale(0.015625)"/>
       </defs>
       <use xlink:href="#DejaVuSerif-31"/>
       <use xlink:href="#DejaVuSerif-39" x="63.623047"/>
      </g>
     </g>
    </g>
    <g id="text_7">
     <!-- Log($\nu$ / $Hz$) -->
     <g style="fill: #ffffff" transform="translate(179.46 349.269) scale(0.2 -0.2)">
      <defs>
       <path id="DejaVuSerif-4c" d="M 353 0 
L 353 331 
L 947 331 
L 947 4331 
L 353 4331 
L 353 4666 
L 2175 4666 
L 2175 4331 
L 1581 4331 
L 1581 384 
L 3713 384 
L 3713 1166 
L 4097 1166 
L 4097 0 
L 353 0 
z
" transform="scale(0.015625)"/>
       <path id="DejaVuSerif-6f" d="M 1925 219 
Q 2388 219 2623 584 
Q 2859 950 2859 1663 
Q 2859 2375 2623 2739 
Q 2388 3103 1925 3103 
Q 1463 3103 1227 2739 
Q 991 2375 991 1663 
Q 991 950 1228 584 
Q 1466 219 1925 219 
z
M 1925 -91 
Q 1200 -91 759 389 
Q 319 869 319 1663 
Q 319 2456 758 2934 
Q 1197 3413 1925 3413 
Q 2653 3413 3092 2934 
Q 3531 2456 3531 1663 
Q 3531 869 3092 389 
Q 2653 -91 1925 -91 
z
" transform="scale(0.015625)"/>
       <path id="DejaVuSerif-67" d="M 3359 2988 
L 3359 72 
Q 3359 -644 2965 -1033 
Q 2572 -1422 1844 -1422 
Q 1516 -1422 1216 -1362 
Q 916 -1303 641 -1184 
L 641 -488 
L 941 -488 
Q 997 -813 1206 -963 
Q 1416 -1113 1806 -1113 
Q 2313 -1113 2548 -827 
Q 2784 -541 2784 72 
L 2784 519 
Q 2616 206 2355 57 
Q 2094 -91 1709 -91 
Q 1097 -91 708 395 
Q 319 881 319 1663 
Q 319 2444 706 2928 
Q 1094 3413 1709 3413 
Q 2094 3413 2355 3264 
Q 2616 3116 2784 2803 
L 2784 3322 
L 3909 3322 
L 3909 2988 
L 3359 2988 
z
M 2784 1825 
Q 2784 2422 2554 2737 
Q 2325 3053 1888 3053 
Q 1444 3053 1217 2703 
Q 991 2353 991 1663 
Q 991 975 1217 622 
Q 1444 269 1888 269 
Q 2325 269 2554 583 
Q 2784 897 2784 1497 
L 2784 1825 
z
" transform="scale(0.015625)"/>
       <path id="DejaVuSerif-28" d="M 2041 -997 
Q 1281 -656 893 83 
Q 506 822 506 1931 
Q 506 3044 893 3783 
Q 1281 4522 2041 4863 
L 2041 4556 
Q 1559 4225 1350 3623 
Q 1141 3022 1141 1931 
Q 1141 844 1350 242 
Q 1559 -359 2041 -691 
L 2041 -997 
z
" transform="scale(0.015625)"/>
       <path id="DejaVuSerif-Italic-3bd" d="M 1103 363 
Q 1516 513 1997 875 
Q 2291 1094 2691 1638 
Q 2950 1975 3034 2288 
Q 3116 2575 3025 2794 
Q 2906 3097 2691 3138 
L 2725 3322 
L 3075 3322 
Q 3400 3169 3584 2828 
Q 3728 2566 3666 2247 
Q 3622 2016 3494 1825 
Q 3400 1688 3116 1366 
Q 2738 950 2297 663 
Q 1494 138 1034 0 
L 456 0 
L 1041 2988 
L 491 2988 
L 553 3322 
L 1678 3322 
L 1103 363 
z
" transform="scale(0.015625)"/>
       <path id="DejaVuSerif-20" transform="scale(0.015625)"/>
       <path id="DejaVuSerif-2f" d="M 1656 4666 
L 2156 4666 
L 500 -594 
L 0 -594 
L 1656 4666 
z
" transform="scale(0.015625)"/>
       <path id="DejaVuSerif-Italic-48" d="M -97 0 
L -34 331 
L 559 331 
L 1338 4331 
L 744 4331 
L 809 4666 
L 2631 4666 
L 2566 4331 
L 1972 4331 
L 1659 2719 
L 4078 2719 
L 4391 4331 
L 3797 4331 
L 3863 4666 
L 5684 4666 
L 5619 4331 
L 5025 4331 
L 4247 331 
L 4841 331 
L 4778 0 
L 2956 0 
L 3019 331 
L 3616 331 
L 4003 2338 
L 1584 2338 
L 1194 331 
L 1788 331 
L 1725 0 
L -97 0 
z
" transform="scale(0.015625)"/>
       <path id="DejaVuSerif-Italic-7a" d="M 2550 3047 
Q 2888 3047 3216 3322 
L 3403 3322 
L 3353 3053 
L 1081 684 
Q 1113 675 1203 647 
Q 1309 613 1416 544 
L 1569 450 
Q 1863 272 2075 272 
Q 2484 272 2966 741 
L 2891 363 
Q 2356 -163 1950 -163 
Q 1703 -156 1356 59 
Q 1009 275 791 275 
Q 453 275 125 0 
L -63 0 
L -13 269 
L 2263 2634 
Q 2228 2647 2138 2675 
Q 2031 2709 1925 2778 
L 1772 2872 
Q 1478 3050 1266 3050 
Q 856 3050 375 2581 
L 450 2959 
Q 984 3484 1391 3484 
Q 1638 3478 1984 3262 
Q 2331 3047 2550 3047 
z
" transform="scale(0.015625)"/>
       <path id="DejaVuSerif-29" d="M 453 -997 
L 453 -691 
Q 934 -359 1145 242 
Q 1356 844 1356 1931 
Q 1356 3022 1145 3623 
Q 934 4225 453 4556 
L 453 4863 
Q 1216 4522 1603 3783 
Q 1991 3044 1991 1931 
Q 1991 822 1603 83 
Q 1216 -656 453 -997 
z
" transform="scale(0.015625)"/>
      </defs>
      <use xlink:href="#DejaVuSerif-4c" transform="translate(0 0.015625)"/>
      <use xlink:href="#DejaVuSerif-6f" transform="translate(66.40625 0.015625)"/>
      <use xlink:href="#DejaVuSerif-67" transform="translate(126.611328 0.015625)"/>
      <use xlink:href="#DejaVuSerif-28" transform="translate(190.625 0.015625)"/>
      <use xlink:href="#DejaVuSerif-Italic-3bd" transform="translate(229.638672 0.015625)"/>
      <use xlink:href="#DejaVuSerif-20" transform="translate(290.429688 0.015625)"/>
      <use xlink:href="#DejaVuSerif-2f" transform="translate(322.216797 0.015625)"/>
      <use xlink:href="#DejaVuSerif-20" transform="translate(355.908203 0.015625)"/>
      <use xlink:href="#DejaVuSerif-Italic-48" transform="translate(387.695312 0.015625)"/>
      <use xlink:href="#DejaVuSerif-Italic-7a" transform="translate(474.902344 0.015625)"/>
      <use xlink:href="#DejaVuSerif-29" transform="translate(527.587891 0.015625)"/>
     </g>
    </g>
   </g>
   <g id="matplotlib.axis_2">
    <g id="ytick_1">
     <g id="line2d_7">
      <defs>
       <path id="m89c2061c87" d="M 0 0 
L -3.5 0 
" style="stroke: #ffffff; stroke-width: 0.8"/>
      </defs>
      <g>
       <use xlink:href="#m89c2061c87" x="57.6" y="287.649905" style="fill: #ffffff; stroke: #ffffff; stroke-width: 0.8"/>
      </g>
     </g>
     <g id="text_8">
      <!-- 0 -->
      <g style="fill: #ffffff" transform="translate(40.42 293.728655) scale(0.16 -0.16)">
       <defs>
        <path id="DejaVuSerif-30" d="M 2034 219 
Q 2513 219 2750 744 
Q 2988 1269 2988 2328 
Q 2988 3391 2750 3916 
Q 2513 4441 2034 4441 
Q 1556 4441 1318 3916 
Q 1081 3391 1081 2328 
Q 1081 1269 1318 744 
Q 1556 219 2034 219 
z
M 2034 -91 
Q 1275 -91 848 546 
Q 422 1184 422 2328 
Q 422 3475 848 4112 
Q 1275 4750 2034 4750 
Q 2797 4750 3222 4112 
Q 3647 3475 3647 2328 
Q 3647 1184 3222 546 
Q 2797 -91 2034 -91 
z
" transform="scale(0.015625)"/>
       </defs>
       <use xlink:href="#DejaVuSerif-30"/>
      </g>
     </g>
    </g>
    <g id="ytick_2">
     <g id="line2d_8">
      <g>
       <use xlink:href="#m89c2061c87" x="57.6" y="228.250468" style="fill: #ffffff; stroke: #ffffff; stroke-width: 0.8"/>
      </g>
     </g>
     <g id="text_9">
      <!-- 2 -->
      <g style="fill: #ffffff" transform="translate(40.42 234.329218) scale(0.16 -0.16)">
       <defs>
        <path id="DejaVuSerif-32" d="M 819 3553 
L 469 3553 
L 469 4384 
Q 803 4563 1142 4656 
Q 1481 4750 1806 4750 
Q 2534 4750 2956 4397 
Q 3378 4044 3378 3438 
Q 3378 2753 2422 1800 
Q 2347 1728 2309 1691 
L 1131 513 
L 3078 513 
L 3078 1088 
L 3444 1088 
L 3444 0 
L 434 0 
L 434 341 
L 1850 1753 
Q 2319 2222 2519 2614 
Q 2719 3006 2719 3438 
Q 2719 3909 2473 4175 
Q 2228 4441 1797 4441 
Q 1350 4441 1106 4219 
Q 863 3997 819 3553 
z
" transform="scale(0.015625)"/>
       </defs>
       <use xlink:href="#DejaVuSerif-32"/>
      </g>
     </g>
    </g>
    <g id="ytick_3">
     <g id="line2d_9">
      <g>
       <use xlink:href="#m89c2061c87" x="57.6" y="168.85103" style="fill: #ffffff; stroke: #ffffff; stroke-width: 0.8"/>
      </g>
     </g>
     <g id="text_10">
      <!-- 4 -->
      <g style="fill: #ffffff" transform="translate(40.42 174.92978) scale(0.16 -0.16)">
       <use xlink:href="#DejaVuSerif-34"/>
      </g>
     </g>
    </g>
    <g id="ytick_4">
     <g id="line2d_10">
      <g>
       <use xlink:href="#m89c2061c87" x="57.6" y="109.451593" style="fill: #ffffff; stroke: #ffffff; stroke-width: 0.8"/>
      </g>
     </g>
     <g id="text_11">
      <!-- 6 -->
      <g style="fill: #ffffff" transform="translate(40.42 115.530343) scale(0.16 -0.16)">
       <use xlink:href="#DejaVuSerif-36"/>
      </g>
     </g>
    </g>
    <g id="ytick_5">
     <g id="line2d_11">
      <g>
       <use xlink:href="#m89c2061c87" x="57.6" y="50.052155" style="fill: #ffffff; stroke: #ffffff; stroke-width: 0.8"/>
      </g>
     </g>
     <g id="text_12">
      <!-- 8 -->
      <g style="fill: #ffffff" transform="translate(40.42 56.130905) scale(0.16 -0.16)">
       <use xlink:href="#DejaVuSerif-38"/>
      </g>
     </g>
    </g>
    <g id="text_13">
     <!-- Residuals $\frac{L_{\nu}}{L_{\nu, ref}}$ -->
     <g style="fill: #ffffff" transform="translate(24.42 245.228) rotate(-90) scale(0.2 -0.2)">
      <defs>
       <path id="DejaVuSerif-52" d="M 3066 2316 
Q 3284 2256 3442 2114 
Q 3600 1972 3725 1716 
L 4403 331 
L 4972 331 
L 4972 0 
L 3872 0 
L 3144 1484 
Q 2934 1916 2759 2042 
Q 2584 2169 2278 2169 
L 1581 2169 
L 1581 331 
L 2241 331 
L 2241 0 
L 353 0 
L 353 331 
L 947 331 
L 947 4331 
L 353 4331 
L 353 4666 
L 2719 4666 
Q 3400 4666 3770 4341 
Q 4141 4016 4141 3419 
Q 4141 2938 3870 2661 
Q 3600 2384 3066 2316 
z
M 1581 2503 
L 2503 2503 
Q 2975 2503 3200 2726 
Q 3425 2950 3425 3419 
Q 3425 3888 3200 4109 
Q 2975 4331 2503 4331 
L 1581 4331 
L 1581 2503 
z
" transform="scale(0.015625)"/>
       <path id="DejaVuSerif-65" d="M 3469 1600 
L 991 1600 
L 991 1575 
Q 991 903 1244 561 
Q 1497 219 1991 219 
Q 2369 219 2611 417 
Q 2853 616 2950 1006 
L 3413 1006 
Q 3275 459 2904 184 
Q 2534 -91 1931 -91 
Q 1203 -91 761 389 
Q 319 869 319 1663 
Q 319 2450 753 2931 
Q 1188 3413 1894 3413 
Q 2647 3413 3050 2948 
Q 3453 2484 3469 1600 
z
M 2791 1931 
Q 2772 2513 2545 2808 
Q 2319 3103 1894 3103 
Q 1497 3103 1269 2806 
Q 1041 2509 991 1931 
L 2791 1931 
z
" transform="scale(0.015625)"/>
       <path id="DejaVuSerif-73" d="M 359 184 
L 359 959 
L 691 959 
Q 703 588 923 403 
Q 1144 219 1575 219 
Q 1963 219 2166 364 
Q 2369 509 2369 788 
Q 2369 1006 2220 1140 
Q 2072 1275 1594 1428 
L 1178 1569 
Q 750 1706 558 1912 
Q 366 2119 366 2438 
Q 366 2894 700 3153 
Q 1034 3413 1625 3413 
Q 1888 3413 2178 3344 
Q 2469 3275 2778 3144 
L 2778 2419 
L 2447 2419 
Q 2434 2741 2221 2922 
Q 2009 3103 1644 3103 
Q 1281 3103 1095 2975 
Q 909 2847 909 2591 
Q 909 2381 1050 2254 
Q 1191 2128 1613 1997 
L 2069 1856 
Q 2541 1709 2748 1489 
Q 2956 1269 2956 922 
Q 2956 450 2595 179 
Q 2234 -91 1600 -91 
Q 1278 -91 972 -22 
Q 666 47 359 184 
z
" transform="scale(0.015625)"/>
       <path id="DejaVuSerif-69" d="M 622 4353 
Q 622 4497 726 4603 
Q 831 4709 978 4709 
Q 1122 4709 1226 4603 
Q 1331 4497 1331 4353 
Q 1331 4206 1228 4103 
Q 1125 4000 978 4000 
Q 831 4000 726 4103 
Q 622 4206 622 4353 
z
M 1356 331 
L 1900 331 
L 1900 0 
L 231 0 
L 231 331 
L 781 331 
L 781 2988 
L 231 2988 
L 231 3322 
L 1356 3322 
L 1356 331 
z
" transform="scale(0.015625)"/>
       <path id="DejaVuSerif-64" d="M 3359 331 
L 3909 331 
L 3909 0 
L 2784 0 
L 2784 519 
Q 2616 206 2355 57 
Q 2094 -91 1709 -91 
Q 1097 -91 708 395 
Q 319 881 319 1663 
Q 319 2444 706 2928 
Q 1094 3413 1709 3413 
Q 2094 3413 2355 3264 
Q 2616 3116 2784 2803 
L 2784 4531 
L 2241 4531 
L 2241 4863 
L 3359 4863 
L 3359 331 
z
M 2784 1497 
L 2784 1825 
Q 2784 2422 2554 2737 
Q 2325 3053 1888 3053 
Q 1444 3053 1217 2703 
Q 991 2353 991 1663 
Q 991 975 1217 622 
Q 1444 269 1888 269 
Q 2325 269 2554 583 
Q 2784 897 2784 1497 
z
" transform="scale(0.015625)"/>
       <path id="DejaVuSerif-75" d="M 2266 3322 
L 3341 3322 
L 3341 331 
L 3884 331 
L 3884 0 
L 2766 0 
L 2766 588 
Q 2606 256 2353 82 
Q 2100 -91 1766 -91 
Q 1213 -91 952 223 
Q 691 538 691 1209 
L 691 2988 
L 172 2988 
L 172 3322 
L 1269 3322 
L 1269 1388 
Q 1269 781 1417 556 
Q 1566 331 1947 331 
Q 2347 331 2556 625 
Q 2766 919 2766 1478 
L 2766 2988 
L 2266 2988 
L 2266 3322 
z
" transform="scale(0.015625)"/>
       <path id="DejaVuSerif-61" d="M 2547 1044 
L 2547 1747 
L 1806 1747 
Q 1378 1747 1168 1562 
Q 959 1378 959 997 
Q 959 650 1171 447 
Q 1384 244 1747 244 
Q 2106 244 2326 466 
Q 2547 688 2547 1044 
z
M 3122 2075 
L 3122 331 
L 3634 331 
L 3634 0 
L 2547 0 
L 2547 359 
Q 2356 128 2106 18 
Q 1856 -91 1522 -91 
Q 969 -91 644 203 
Q 319 497 319 997 
Q 319 1513 691 1797 
Q 1063 2081 1741 2081 
L 2547 2081 
L 2547 2309 
Q 2547 2688 2317 2895 
Q 2088 3103 1672 3103 
Q 1328 3103 1125 2947 
Q 922 2791 872 2484 
L 575 2484 
L 575 3156 
Q 875 3284 1158 3348 
Q 1441 3413 1709 3413 
Q 2400 3413 2761 3070 
Q 3122 2728 3122 2075 
z
" transform="scale(0.015625)"/>
       <path id="DejaVuSerif-6c" d="M 1313 331 
L 1856 331 
L 1856 0 
L 184 0 
L 184 331 
L 738 331 
L 738 4531 
L 184 4531 
L 184 4863 
L 1313 4863 
L 1313 331 
z
" transform="scale(0.015625)"/>
       <path id="DejaVuSerif-Italic-4c" d="M -97 0 
L -34 331 
L 559 331 
L 1338 4331 
L 744 4331 
L 809 4666 
L 2631 4666 
L 2566 4331 
L 1972 4331 
L 1206 384 
L 3338 384 
L 3488 1166 
L 3872 1166 
L 3647 0 
L -97 0 
z
" transform="scale(0.015625)"/>
       <path id="DejaVuSerif-2c" d="M 231 -622 
Q 525 -406 662 -114 
Q 800 178 800 594 
L 800 709 
L 1416 709 
Q 1391 175 1164 -208 
Q 938 -591 481 -872 
L 231 -622 
z
" transform="scale(0.015625)"/>
       <path id="DejaVuSerif-Italic-72" d="M 3375 3328 
L 3213 2497 
L 2881 2497 
Q 2891 2559 2891 2613 
Q 2891 2775 2816 2866 
Q 2719 2988 2484 2988 
Q 2059 2988 1775 2694 
Q 1491 2400 1384 1850 
L 1025 0 
L 450 0 
L 1031 2994 
L 481 2994 
L 544 3322 
L 1669 3322 
L 1556 2731 
Q 1791 3078 2089 3245 
Q 2388 3413 2769 3413 
Q 2909 3413 3059 3391 
Q 3209 3369 3375 3328 
z
" transform="scale(0.015625)"/>
       <path id="DejaVuSerif-Italic-65" d="M 938 1275 
Q 925 1156 925 1050 
Q 925 756 1031 563 
Q 1216 219 1709 219 
Q 2072 219 2250 328 
Q 2569 525 2644 778 
L 3066 778 
Q 2941 381 2475 103 
Q 2150 -91 1506 -91 
Q 863 -91 516 388 
Q 272 722 272 1206 
Q 272 1419 319 1659 
Q 472 2450 1000 2931 
Q 1528 3413 2278 3413 
Q 3500 3413 3500 2547 
Q 3500 1913 2859 1603 
Q 2206 1288 938 1275 
z
M 2541 1975 
Q 2891 2181 2891 2569 
Q 2891 3103 2181 3103 
Q 1763 3103 1472 2784 
Q 1181 2466 1003 1606 
Q 2006 1653 2541 1975 
z
" transform="scale(0.015625)"/>
       <path id="DejaVuSerif-Italic-66" d="M 3191 4078 
L 2888 4078 
Q 2900 4144 2900 4203 
Q 2900 4347 2825 4434 
Q 2719 4556 2472 4556 
Q 2150 4556 1984 4379 
Q 1819 4203 1731 3750 
L 1647 3322 
L 2575 3322 
L 2509 2988 
L 1581 2988 
L 963 -206 
Q 853 -763 509 -1047 
Q 166 -1331 -394 -1331 
L -356 -1025 
Q -28 -1025 131 -850 
Q 297 -663 388 -206 
L 1006 2988 
L 456 2988 
L 522 3322 
L 1072 3322 
L 1153 3738 
Q 1263 4297 1606 4578 
Q 1950 4863 2509 4863 
Q 2719 4863 2920 4825 
Q 3122 4788 3316 4709 
L 3191 4078 
z
" transform="scale(0.015625)"/>
      </defs>
      <use xlink:href="#DejaVuSerif-52" transform="translate(0 0.21375)"/>
      <use xlink:href="#DejaVuSerif-65" transform="translate(75.292969 0.21375)"/>
      <use xlink:href="#DejaVuSerif-73" transform="translate(134.472656 0.21375)"/>
      <use xlink:href="#DejaVuSerif-69" transform="translate(185.791016 0.21375)"/>
      <use xlink:href="#DejaVuSerif-64" transform="translate(217.773438 0.21375)"/>
      <use xlink:href="#DejaVuSerif-75" transform="translate(281.787109 0.21375)"/>
      <use xlink:href="#DejaVuSerif-61" transform="translate(346.191406 0.21375)"/>
      <use xlink:href="#DejaVuSerif-6c" transform="translate(405.810547 0.21375)"/>
      <use xlink:href="#DejaVuSerif-73" transform="translate(437.792969 0.21375)"/>
      <use xlink:href="#DejaVuSerif-20" transform="translate(489.111328 0.21375)"/>
      <use xlink:href="#DejaVuSerif-Italic-4c" transform="translate(568.898438 54.965625) scale(0.7)"/>
      <use xlink:href="#DejaVuSerif-Italic-3bd" transform="translate(615.382812 44.065313) scale(0.49)"/>
      <use xlink:href="#DejaVuSerif-Italic-4c" transform="translate(520.898438 -38.219063) scale(0.7)"/>
      <use xlink:href="#DejaVuSerif-Italic-3bd" transform="translate(567.382812 -49.119375) scale(0.49)"/>
      <use xlink:href="#DejaVuSerif-2c" transform="translate(597.17041 -49.119375) scale(0.49)"/>
      <use xlink:href="#DejaVuSerif-Italic-72" transform="translate(622.038867 -49.119375) scale(0.49)"/>
      <use xlink:href="#DejaVuSerif-Italic-65" transform="translate(645.462207 -49.119375) scale(0.49)"/>
      <use xlink:href="#DejaVuSerif-Italic-66" transform="translate(674.460254 -49.119375) scale(0.49)"/>
      <path d="M 520.898438 19.065313 
L 520.898438 25.315313 
L 694.412715 25.315313 
L 694.412715 19.065313 
L 520.898438 19.065313 
z
"/>
     </g>
    </g>
    <g id="text_14">
     <!-- 1e−6+1 -->
     <g style="fill: #ffffff" transform="translate(57.6 38.472) scale(0.16 -0.16)">
      <defs>
       <path id="DejaVuSerif-2212" d="M 678 2259 
L 4684 2259 
L 4684 1753 
L 678 1753 
L 678 2259 
z
" transform="scale(0.015625)"/>
       <path id="DejaVuSerif-2b" d="M 2931 4013 
L 2931 2259 
L 4684 2259 
L 4684 1753 
L 2931 1753 
L 2931 0 
L 2431 0 
L 2431 1753 
L 678 1753 
L 678 2259 
L 2431 2259 
L 2431 4013 
L 2931 4013 
z
" transform="scale(0.015625)"/>
      </defs>
      <use xlink:href="#DejaVuSerif-31"/>
      <use xlink:href="#DejaVuSerif-65" x="63.623047"/>
      <use xlink:href="#DejaVuSerif-2212" x="122.802734"/>
      <use xlink:href="#DejaVuSerif-36" x="206.591797"/>
      <use xlink:href="#DejaVuSerif-2b" x="270.214844"/>
      <use xlink:href="#DejaVuSerif-31" x="354.003906"/>
     </g>
    </g>
   </g>
   <g id="line2d_12">
    <path d="M 73.832727 295.488 
L 76.429964 290.404024 
L 79.0272 284.817665 
L 81.624436 278.684981 
L 84.221673 271.960954 
L 86.818909 264.600693 
L 89.416145 256.561181 
L 92.013382 247.80371 
L 94.610618 238.297166 
L 97.532509 226.683596 
L 100.4544 214.097392 
L 103.700945 199.020826 
L 107.272145 181.265787 
L 111.817309 157.411679 
L 119.284364 118.11869 
L 122.206255 104.006176 
L 124.478836 93.991037 
L 126.426764 86.239855 
L 128.374691 79.358861 
L 129.997964 74.334387 
L 131.621236 69.97122 
L 133.244509 66.263191 
L 134.867782 63.184297 
L 136.1664 61.145244 
L 137.465018 59.451857 
L 138.763636 58.070466 
L 140.062255 56.964584 
L 141.685527 55.912349 
L 143.3088 55.159652 
L 144.932073 54.639431 
L 146.88 54.239692 
L 149.477236 53.955445 
L 153.373091 53.800363 
L 162.138764 53.756656 
L 223.823127 53.606054 
L 243.951709 53.615954 
L 252.392727 53.834689 
L 258.885818 54.209517 
L 265.054255 54.788565 
L 272.196655 55.701382 
L 280.637673 56.755542 
L 284.533527 57.020536 
L 288.104727 57.044792 
L 291.675927 56.834911 
L 295.571782 56.368991 
L 302.389527 55.260496 
L 307.908655 54.475562 
L 312.453818 54.06758 
L 317.648291 53.848129 
L 325.764655 53.770437 
L 384.527127 53.763357 
L 398.487273 53.763357 
L 398.487273 53.763357 
" clip-path="url(#p402a9a369e)" style="fill: none; stroke: #a02a00; stroke-width: 3; stroke-linecap: square"/>
   </g>
   <g id="line2d_13">
    <path d="M 73.832727 292.658337 
L 76.754618 288.97557 
L 79.351855 285.357886 
L 81.949091 281.386942 
L 84.546327 277.033883 
L 87.143564 272.270053 
L 89.7408 267.068162 
L 92.338036 261.403907 
L 95.259927 254.455411 
L 98.181818 246.882889 
L 101.103709 238.690777 
L 104.350255 228.901261 
L 107.921455 217.411783 
L 113.115927 199.834405 
L 118.959709 180.172514 
L 121.8816 171.053887 
L 124.478836 163.67654 
L 126.751418 157.93786 
L 128.699345 153.627388 
L 130.322618 150.492412 
L 131.945891 147.780512 
L 133.569164 145.485103 
L 135.192436 143.587083 
L 136.815709 142.056335 
L 138.438982 140.854096 
L 140.062255 139.935919 
L 141.685527 139.254905 
L 143.633455 138.685813 
L 145.906036 138.27227 
L 148.827927 137.991571 
L 153.373091 137.819565 
L 179.345455 137.16432 
L 187.461818 136.669678 
L 193.954909 136.064887 
L 199.474036 135.339589 
L 204.343855 134.483116 
L 208.889018 133.450232 
L 212.784873 132.346871 
L 216.680727 131.008809 
L 220.251927 129.552443 
L 223.823127 127.862393 
L 227.718982 125.753948 
L 231.939491 123.197179 
L 243.951709 115.698293 
L 246.224291 114.630982 
L 248.172218 113.933243 
L 249.795491 113.545755 
L 251.418764 113.369397 
L 253.042036 113.437496 
L 254.340655 113.690215 
L 255.639273 114.136841 
L 256.937891 114.792606 
L 258.236509 115.671144 
L 259.535127 116.783888 
L 261.1584 118.516867 
L 262.781673 120.637446 
L 264.404945 123.142987 
L 266.352873 126.633846 
L 268.3008 130.596371 
L 270.898036 136.442584 
L 277.715782 152.167262 
L 279.339055 155.272824 
L 280.637673 157.391595 
L 281.936291 159.12017 
L 282.910255 160.129728 
L 283.884218 160.874253 
L 284.858182 161.341407 
L 285.832145 161.523985 
L 286.806109 161.420362 
L 287.780073 161.034798 
L 288.754036 160.377568 
L 289.728 159.464896 
L 291.026618 157.88929 
L 292.325236 155.965215 
L 294.273164 152.602575 
L 300.4416 141.458501 
L 302.064873 139.174848 
L 303.363491 137.690403 
L 304.662109 136.532728 
L 305.960727 135.702086 
L 307.259345 135.181183 
L 308.557964 134.937906 
L 309.856582 134.928989 
L 311.479855 135.170586 
L 313.752436 135.797195 
L 318.946909 137.339622 
L 321.219491 137.755554 
L 323.816727 137.999644 
L 327.063273 138.06715 
L 370.566982 137.963501 
L 398.487273 137.963501 
L 398.487273 137.963501 
" clip-path="url(#p402a9a369e)" style="fill: none; stroke: #ce4f01; stroke-width: 3; stroke-linecap: square"/>
   </g>
   <g id="line2d_14">
    <path d="M 73.832727 291.120695 
L 76.754618 288.56298 
L 79.676509 285.71955 
L 82.5984 282.562433 
L 85.520291 279.063084 
L 88.442182 275.193481 
L 91.364073 270.927754 
L 94.285964 266.24451 
L 97.207855 261.130003 
L 100.129745 255.582267 
L 103.376291 248.928916 
L 106.947491 241.080253 
L 111.492655 230.507119 
L 119.609018 211.540402 
L 122.530909 205.322438 
L 125.128145 200.337343 
L 127.400727 196.49516 
L 129.348655 193.634923 
L 131.296582 191.194461 
L 132.919855 189.481854 
L 134.543127 188.051062 
L 136.1664 186.88402 
L 137.789673 185.955932 
L 139.7376 185.115755 
L 141.685527 184.521214 
L 143.958109 184.063985 
L 146.88 183.72923 
L 151.100509 183.510372 
L 177.072873 182.583323 
L 183.890618 182.024351 
L 189.7344 181.329998 
L 194.604218 180.540515 
L 199.149382 179.575283 
L 203.045236 178.526485 
L 206.616436 177.346162 
L 209.862982 176.059079 
L 213.109527 174.537781 
L 216.356073 172.753617 
L 219.277964 170.902436 
L 222.199855 168.805573 
L 225.4464 166.183872 
L 228.692945 163.270777 
L 232.5888 159.458784 
L 242.328436 149.739447 
L 244.601018 147.873728 
L 246.548945 146.56225 
L 248.172218 145.733368 
L 249.470836 145.278631 
L 250.769455 145.037481 
L 252.068073 145.036434 
L 253.366691 145.301808 
L 254.665309 145.859131 
L 255.963927 146.732457 
L 257.262545 147.943566 
L 258.561164 149.511054 
L 259.859782 151.449333 
L 261.1584 153.767521 
L 262.781673 157.202848 
L 264.404945 161.223436 
L 266.352873 166.77078 
L 268.3008 173.002423 
L 270.898036 182.080052 
L 276.417164 201.654603 
L 278.365091 207.583284 
L 279.663709 210.962263 
L 280.962327 213.77244 
L 281.936291 215.457904 
L 282.910255 216.750387 
L 283.884218 217.628994 
L 284.533527 217.977874 
L 285.182836 218.134772 
L 285.832145 218.09947 
L 286.481455 217.873518 
L 287.130764 217.460264 
L 288.104727 216.500955 
L 289.078691 215.157089 
L 290.052655 213.462102 
L 291.351273 210.728284 
L 292.974545 206.716015 
L 295.571782 199.544081 
L 298.493673 191.597141 
L 300.116945 187.741114 
L 301.415564 185.103414 
L 302.714182 182.92661 
L 304.0128 181.238381 
L 304.986764 180.293266 
L 305.960727 179.612725 
L 306.934691 179.179173 
L 307.908655 178.968915 
L 308.882618 178.953555 
L 310.181236 179.181435 
L 311.804509 179.754671 
L 314.401745 180.993151 
L 317.323636 182.338514 
L 319.271564 183.01408 
L 321.219491 183.468562 
L 323.492073 183.749445 
L 326.413964 183.842215 
L 335.504291 183.705996 
L 357.905455 183.70176 
L 398.487273 183.701761 
L 398.487273 183.701761 
" clip-path="url(#p402a9a369e)" style="fill: none; stroke: #e16904; stroke-width: 3; stroke-linecap: square"/>
   </g>
   <g id="line2d_15">
    <path d="M 73.832727 290.193241 
L 77.079273 288.09248 
L 80.325818 285.729734 
L 83.572364 283.076671 
L 86.494255 280.416936 
L 89.416145 277.478536 
L 92.338036 274.243332 
L 95.259927 270.697172 
L 98.506473 266.38335 
L 101.753018 261.680589 
L 105.324218 256.09011 
L 109.544727 249.025164 
L 121.232291 229.121481 
L 123.829527 225.253812 
L 126.102109 222.216227 
L 128.374691 219.557635 
L 130.322618 217.605935 
L 132.270545 215.963808 
L 134.218473 214.624225 
L 136.1664 213.567219 
L 138.114327 212.76212 
L 140.386909 212.090344 
L 142.984145 211.595137 
L 145.906036 211.274687 
L 150.126545 211.049213 
L 174.150982 210.104457 
L 180.968727 209.516136 
L 186.487855 208.831974 
L 191.357673 208.014136 
L 195.578182 207.092245 
L 199.474036 206.019285 
L 203.045236 204.806538 
L 206.291782 203.477265 
L 209.538327 201.896169 
L 212.460218 200.227923 
L 215.382109 198.300415 
L 218.304 196.09043 
L 221.225891 193.580592 
L 224.147782 190.76364 
L 227.069673 187.647969 
L 230.316218 183.874219 
L 234.861382 178.212592 
L 240.380509 171.368888 
L 242.977745 168.507166 
L 244.925673 166.667333 
L 246.548945 165.409426 
L 247.847564 164.625191 
L 249.146182 164.072269 
L 250.4448 163.782803 
L 251.418764 163.758096 
L 252.392727 163.91339 
L 253.366691 164.261974 
L 254.340655 164.816668 
L 255.314618 165.589598 
L 256.288582 166.591967 
L 257.5872 168.302458 
L 258.885818 170.457985 
L 260.184436 173.072115 
L 261.483055 176.151079 
L 263.106327 180.648648 
L 264.7296 185.840089 
L 266.677527 192.903687 
L 268.950109 202.084949 
L 272.845964 219.05935 
L 275.767855 231.398163 
L 277.715782 238.671351 
L 279.339055 243.794666 
L 280.637673 247.120586 
L 281.611636 249.101134 
L 282.5856 250.605301 
L 283.559564 251.609543 
L 284.208873 251.993828 
L 284.858182 252.147573 
L 285.507491 252.071068 
L 286.1568 251.766736 
L 286.806109 251.239152 
L 287.780073 250.044485 
L 288.754036 248.394721 
L 289.728 246.331548 
L 291.026618 243.026622 
L 292.649891 238.207832 
L 295.571782 228.57284 
L 298.169018 220.266248 
L 299.792291 215.741961 
L 301.090909 212.663133 
L 302.389527 210.13577 
L 303.363491 208.620738 
L 304.337455 207.432362 
L 305.311418 206.56024 
L 306.285382 205.98509 
L 307.259345 205.680157 
L 308.233309 205.61286 
L 309.207273 205.74657 
L 310.505891 206.170303 
L 312.129164 206.96485 
L 317.972945 210.093555 
L 319.920873 210.754158 
L 321.8688 211.164354 
L 324.141382 211.387952 
L 327.063273 211.429536 
L 345.893236 211.280368 
L 398.487273 211.280458 
L 398.487273 211.280458 
" clip-path="url(#p402a9a369e)" style="fill: none; stroke: #f98811; stroke-width: 3; stroke-linecap: square"/>
   </g>
   <g id="line2d_16">
    <path d="M 73.832727 289.591103 
L 77.403927 287.810944 
L 80.975127 285.785434 
L 84.546327 283.485584 
L 87.792873 281.132211 
L 91.039418 278.507464 
L 94.285964 275.594147 
L 97.532509 272.381303 
L 100.779055 268.868098 
L 104.350255 264.674207 
L 108.570764 259.340435 
L 115.713164 249.842099 
L 120.258327 243.998659 
L 123.180218 240.567532 
L 125.777455 237.841479 
L 128.050036 235.759302 
L 130.322618 233.9893 
L 132.270545 232.728253 
L 134.218473 231.698325 
L 136.491055 230.767898 
L 138.763636 230.092702 
L 141.360873 229.572423 
L 144.282764 229.218403 
L 148.503273 228.957467 
L 159.866182 228.606789 
L 169.281164 228.175048 
L 176.423564 227.642388 
L 182.592 226.960979 
L 187.786473 226.160051 
L 192.331636 225.229188 
L 196.227491 224.211527 
L 199.798691 223.057748 
L 203.045236 221.78844 
L 206.291782 220.271807 
L 209.213673 218.662877 
L 212.135564 216.79191 
L 215.057455 214.629618 
L 217.654691 212.441616 
L 220.251927 209.988205 
L 223.173818 206.901624 
L 226.095709 203.474103 
L 229.342255 199.300737 
L 233.238109 193.907675 
L 240.380509 183.924006 
L 242.653091 181.122342 
L 244.601018 179.045604 
L 246.224291 177.623837 
L 247.522909 176.7357 
L 248.821527 176.107227 
L 250.120145 175.774484 
L 251.094109 175.740852 
L 252.068073 175.909189 
L 253.042036 176.294341 
L 254.016 176.910601 
L 254.989964 177.771462 
L 255.963927 178.88935 
L 257.262545 180.798576 
L 258.561164 183.205651 
L 259.859782 186.125259 
L 261.1584 189.563806 
L 262.781673 194.585418 
L 264.404945 200.379349 
L 266.352873 208.258038 
L 268.625455 218.490259 
L 272.521309 237.381383 
L 275.4432 251.090896 
L 277.391127 259.162413 
L 279.0144 264.843492 
L 280.313018 268.529501 
L 281.286982 270.723929 
L 282.260945 272.390647 
L 282.910255 273.195666 
L 283.559564 273.749604 
L 284.208873 274.04957 
L 284.858182 274.094921 
L 285.507491 273.887337 
L 286.1568 273.430857 
L 286.806109 272.731896 
L 287.780073 271.248583 
L 288.754036 269.279026 
L 290.052655 265.984094 
L 291.351273 262.058191 
L 293.2992 255.355809 
L 298.169018 238.070378 
L 299.792291 233.261307 
L 301.090909 230.029437 
L 302.389527 227.411311 
L 303.363491 225.864858 
L 304.337455 224.672223 
L 305.311418 223.818643 
L 306.285382 223.280223 
L 307.259345 223.025576 
L 308.233309 223.017662 
L 309.207273 223.215749 
L 310.505891 223.726924 
L 312.129164 224.623976 
L 316.998982 227.52603 
L 318.946909 228.348537 
L 320.894836 228.894841 
L 322.842764 229.198245 
L 325.115345 229.330828 
L 329.0112 229.29325 
L 338.101527 229.176747 
L 398.487273 229.180081 
L 398.487273 229.180081 
" clip-path="url(#p402a9a369e)" style="fill: none; stroke: #ffac2b; stroke-width: 3; stroke-linecap: square"/>
   </g>
   <g id="patch_3">
    <path d="M 57.6 307.584 
L 57.6 41.472 
" style="fill: none; stroke: #ffffff; stroke-width: 3; stroke-linejoin: miter; stroke-linecap: square"/>
   </g>
   <g id="patch_4">
    <path d="M 57.6 307.584 
L 414.72 307.584 
" style="fill: none; stroke: #ffffff; stroke-width: 3; stroke-linejoin: miter; stroke-linecap: square"/>
   </g>
   <g id="text_15">
    <!-- Luminosity residuals varyied w/ radial bins, reference of 1001 bins. Method 2 -->
    <g style="fill: #ffffff" transform="translate(-0.591562 20.3145) scale(0.12 -0.12)">
     <defs>
      <path id="DejaVuSerif-6d" d="M 3316 2675 
Q 3481 3041 3739 3227 
Q 3997 3413 4341 3413 
Q 4863 3413 5119 3089 
Q 5375 2766 5375 2113 
L 5375 331 
L 5894 331 
L 5894 0 
L 4300 0 
L 4300 331 
L 4800 331 
L 4800 2047 
Q 4800 2556 4650 2772 
Q 4500 2988 4153 2988 
Q 3769 2988 3567 2697 
Q 3366 2406 3366 1850 
L 3366 331 
L 3866 331 
L 3866 0 
L 2291 0 
L 2291 331 
L 2791 331 
L 2791 2069 
Q 2791 2566 2641 2777 
Q 2491 2988 2144 2988 
Q 1759 2988 1557 2697 
Q 1356 2406 1356 1850 
L 1356 331 
L 1856 331 
L 1856 0 
L 263 0 
L 263 331 
L 781 331 
L 781 2994 
L 231 2994 
L 231 3322 
L 1356 3322 
L 1356 2731 
Q 1516 3063 1762 3238 
Q 2009 3413 2322 3413 
Q 2709 3413 2968 3220 
Q 3228 3028 3316 2675 
z
" transform="scale(0.015625)"/>
      <path id="DejaVuSerif-6e" d="M 263 0 
L 263 331 
L 781 331 
L 781 2988 
L 231 2988 
L 231 3322 
L 1356 3322 
L 1356 2731 
Q 1516 3069 1770 3241 
Q 2025 3413 2363 3413 
Q 2913 3413 3172 3097 
Q 3431 2781 3431 2113 
L 3431 331 
L 3944 331 
L 3944 0 
L 2356 0 
L 2356 331 
L 2853 331 
L 2853 1931 
Q 2853 2541 2703 2767 
Q 2553 2994 2175 2994 
Q 1775 2994 1565 2701 
Q 1356 2409 1356 1850 
L 1356 331 
L 1856 331 
L 1856 0 
L 263 0 
z
" transform="scale(0.015625)"/>
      <path id="DejaVuSerif-74" d="M 691 2988 
L 184 2988 
L 184 3322 
L 691 3322 
L 691 4353 
L 1269 4353 
L 1269 3322 
L 2350 3322 
L 2350 2988 
L 1269 2988 
L 1269 878 
Q 1269 456 1350 337 
Q 1431 219 1650 219 
Q 1875 219 1978 351 
Q 2081 484 2088 781 
L 2522 781 
Q 2497 328 2275 118 
Q 2053 -91 1600 -91 
Q 1103 -91 897 129 
Q 691 350 691 878 
L 691 2988 
z
" transform="scale(0.015625)"/>
      <path id="DejaVuSerif-79" d="M 1381 -609 
L 1600 -56 
L 359 2988 
L -19 2988 
L -19 3322 
L 1509 3322 
L 1509 2988 
L 978 2988 
L 1913 703 
L 2847 2988 
L 2350 2988 
L 2350 3322 
L 3597 3322 
L 3597 2988 
L 3225 2988 
L 1703 -750 
Q 1547 -1138 1356 -1280 
Q 1166 -1422 819 -1422 
Q 672 -1422 517 -1397 
Q 363 -1372 206 -1325 
L 206 -691 
L 500 -691 
Q 519 -903 608 -995 
Q 697 -1088 884 -1088 
Q 1056 -1088 1161 -992 
Q 1266 -897 1381 -609 
z
" transform="scale(0.015625)"/>
      <path id="DejaVuSerif-72" d="M 3059 3328 
L 3059 2497 
L 2728 2497 
Q 2713 2744 2591 2866 
Q 2469 2988 2234 2988 
Q 1809 2988 1582 2694 
Q 1356 2400 1356 1850 
L 1356 331 
L 2022 331 
L 2022 0 
L 263 0 
L 263 331 
L 781 331 
L 781 2994 
L 231 2994 
L 231 3322 
L 1356 3322 
L 1356 2731 
Q 1525 3078 1790 3245 
Q 2056 3413 2438 3413 
Q 2578 3413 2733 3391 
Q 2888 3369 3059 3328 
z
" transform="scale(0.015625)"/>
      <path id="DejaVuSerif-76" d="M 1581 0 
L 359 2988 
L -19 2988 
L -19 3322 
L 1509 3322 
L 1509 2988 
L 978 2988 
L 1913 703 
L 2847 2988 
L 2350 2988 
L 2350 3322 
L 3597 3322 
L 3597 2988 
L 3225 2988 
L 2003 0 
L 1581 0 
z
" transform="scale(0.015625)"/>
      <path id="DejaVuSerif-77" d="M 3072 3322 
L 3922 728 
L 4672 2988 
L 4191 2988 
L 4191 3322 
L 5394 3322 
L 5394 2988 
L 5025 2988 
L 4038 0 
L 3559 0 
L 2741 2484 
L 1919 0 
L 1459 0 
L 475 2988 
L 103 2988 
L 103 3322 
L 1606 3322 
L 1606 2988 
L 1069 2988 
L 1813 728 
L 2669 3322 
L 3072 3322 
z
" transform="scale(0.015625)"/>
      <path id="DejaVuSerif-62" d="M 738 331 
L 738 4531 
L 184 4531 
L 184 4863 
L 1313 4863 
L 1313 2803 
Q 1481 3116 1742 3264 
Q 2003 3413 2388 3413 
Q 3000 3413 3387 2928 
Q 3775 2444 3775 1663 
Q 3775 881 3387 395 
Q 3000 -91 2388 -91 
Q 2003 -91 1742 57 
Q 1481 206 1313 519 
L 1313 0 
L 184 0 
L 184 331 
L 738 331 
z
M 1313 1497 
Q 1313 897 1542 583 
Q 1772 269 2209 269 
Q 2650 269 2876 622 
Q 3103 975 3103 1663 
Q 3103 2353 2876 2703 
Q 2650 3053 2209 3053 
Q 1772 3053 1542 2737 
Q 1313 2422 1313 1825 
L 1313 1497 
z
" transform="scale(0.015625)"/>
      <path id="DejaVuSerif-66" d="M 2753 4078 
L 2450 4078 
Q 2447 4313 2317 4434 
Q 2188 4556 1941 4556 
Q 1619 4556 1487 4379 
Q 1356 4203 1356 3750 
L 1356 3322 
L 2284 3322 
L 2284 2988 
L 1356 2988 
L 1356 331 
L 2094 331 
L 2094 0 
L 231 0 
L 231 331 
L 781 331 
L 781 2988 
L 231 2988 
L 231 3322 
L 781 3322 
L 781 3738 
Q 781 4294 1070 4578 
Q 1359 4863 1919 4863 
Q 2128 4863 2337 4825 
Q 2547 4788 2753 4709 
L 2753 4078 
z
" transform="scale(0.015625)"/>
      <path id="DejaVuSerif-63" d="M 3291 997 
Q 3169 466 2822 187 
Q 2475 -91 1925 -91 
Q 1200 -91 759 389 
Q 319 869 319 1663 
Q 319 2459 759 2936 
Q 1200 3413 1925 3413 
Q 2241 3413 2553 3339 
Q 2866 3266 3181 3116 
L 3181 2266 
L 2847 2266 
Q 2781 2703 2561 2903 
Q 2341 3103 1931 3103 
Q 1466 3103 1228 2742 
Q 991 2381 991 1663 
Q 991 944 1227 581 
Q 1463 219 1931 219 
Q 2303 219 2525 412 
Q 2747 606 2828 997 
L 3291 997 
z
" transform="scale(0.015625)"/>
      <path id="DejaVuSerif-2e" d="M 603 325 
Q 603 500 722 622 
Q 841 744 1019 744 
Q 1191 744 1312 622 
Q 1434 500 1434 325 
Q 1434 153 1312 31 
Q 1191 -91 1019 -91 
Q 841 -91 722 29 
Q 603 150 603 325 
z
" transform="scale(0.015625)"/>
      <path id="DejaVuSerif-4d" d="M 353 0 
L 353 331 
L 947 331 
L 947 4331 
L 319 4331 
L 319 4666 
L 1678 4666 
L 3316 1344 
L 4953 4666 
L 6228 4666 
L 6228 4331 
L 5606 4331 
L 5606 331 
L 6203 331 
L 6203 0 
L 4378 0 
L 4378 331 
L 4972 331 
L 4972 3938 
L 3372 684 
L 2931 684 
L 1331 3938 
L 1331 331 
L 1925 331 
L 1925 0 
L 353 0 
z
" transform="scale(0.015625)"/>
      <path id="DejaVuSerif-68" d="M 263 0 
L 263 331 
L 781 331 
L 781 4531 
L 231 4531 
L 231 4863 
L 1356 4863 
L 1356 2731 
Q 1516 3069 1770 3241 
Q 2025 3413 2363 3413 
Q 2913 3413 3172 3097 
Q 3431 2781 3431 2113 
L 3431 331 
L 3944 331 
L 3944 0 
L 2356 0 
L 2356 331 
L 2853 331 
L 2853 1931 
Q 2853 2541 2704 2764 
Q 2556 2988 2175 2988 
Q 1775 2988 1565 2697 
Q 1356 2406 1356 1850 
L 1356 331 
L 1856 331 
L 1856 0 
L 263 0 
z
" transform="scale(0.015625)"/>
     </defs>
     <use xlink:href="#DejaVuSerif-4c"/>
     <use xlink:href="#DejaVuSerif-75" x="66.40625"/>
     <use xlink:href="#DejaVuSerif-6d" x="130.810547"/>
     <use xlink:href="#DejaVuSerif-69" x="225.634766"/>
     <use xlink:href="#DejaVuSerif-6e" x="257.617188"/>
     <use xlink:href="#DejaVuSerif-6f" x="322.021484"/>
     <use xlink:href="#DejaVuSerif-73" x="382.226562"/>
     <use xlink:href="#DejaVuSerif-69" x="433.544922"/>
     <use xlink:href="#DejaVuSerif-74" x="465.527344"/>
     <use xlink:href="#DejaVuSerif-79" x="505.712891"/>
     <use xlink:href="#DejaVuSerif-20" x="562.207031"/>
     <use xlink:href="#DejaVuSerif-72" x="593.994141"/>
     <use xlink:href="#DejaVuSerif-65" x="641.796875"/>
     <use xlink:href="#DejaVuSerif-73" x="700.976562"/>
     <use xlink:href="#DejaVuSerif-69" x="752.294922"/>
     <use xlink:href="#DejaVuSerif-64" x="784.277344"/>
     <use xlink:href="#DejaVuSerif-75" x="848.291016"/>
     <use xlink:href="#DejaVuSerif-61" x="912.695312"/>
     <use xlink:href="#DejaVuSerif-6c" x="972.314453"/>
     <use xlink:href="#DejaVuSerif-73" x="1004.296875"/>
     <use xlink:href="#DejaVuSerif-20" x="1055.615234"/>
     <use xlink:href="#DejaVuSerif-76" x="1087.402344"/>
     <use xlink:href="#DejaVuSerif-61" x="1143.896484"/>
     <use xlink:href="#DejaVuSerif-72" x="1203.515625"/>
     <use xlink:href="#DejaVuSerif-79" x="1251.318359"/>
     <use xlink:href="#DejaVuSerif-69" x="1307.8125"/>
     <use xlink:href="#DejaVuSerif-65" x="1339.794922"/>
     <use xlink:href="#DejaVuSerif-64" x="1398.974609"/>
     <use xlink:href="#DejaVuSerif-20" x="1462.988281"/>
     <use xlink:href="#DejaVuSerif-77" x="1494.775391"/>
     <use xlink:href="#DejaVuSerif-2f" x="1580.371094"/>
     <use xlink:href="#DejaVuSerif-20" x="1614.0625"/>
     <use xlink:href="#DejaVuSerif-72" x="1645.849609"/>
     <use xlink:href="#DejaVuSerif-61" x="1693.652344"/>
     <use xlink:href="#DejaVuSerif-64" x="1753.271484"/>
     <use xlink:href="#DejaVuSerif-69" x="1817.285156"/>
     <use xlink:href="#DejaVuSerif-61" x="1849.267578"/>
     <use xlink:href="#DejaVuSerif-6c" x="1908.886719"/>
     <use xlink:href="#DejaVuSerif-20" x="1940.869141"/>
     <use xlink:href="#DejaVuSerif-62" x="1972.65625"/>
     <use xlink:href="#DejaVuSerif-69" x="2036.669922"/>
     <use xlink:href="#DejaVuSerif-6e" x="2068.652344"/>
     <use xlink:href="#DejaVuSerif-73" x="2133.056641"/>
     <use xlink:href="#DejaVuSerif-2c" x="2184.375"/>
     <use xlink:href="#DejaVuSerif-20" x="2216.162109"/>
     <use xlink:href="#DejaVuSerif-72" x="2247.949219"/>
     <use xlink:href="#DejaVuSerif-65" x="2295.751953"/>
     <use xlink:href="#DejaVuSerif-66" x="2354.931641"/>
     <use xlink:href="#DejaVuSerif-65" x="2391.943359"/>
     <use xlink:href="#DejaVuSerif-72" x="2451.123047"/>
     <use xlink:href="#DejaVuSerif-65" x="2498.925781"/>
     <use xlink:href="#DejaVuSerif-6e" x="2558.105469"/>
     <use xlink:href="#DejaVuSerif-63" x="2622.509766"/>
     <use xlink:href="#DejaVuSerif-65" x="2678.515625"/>
     <use xlink:href="#DejaVuSerif-20" x="2737.695312"/>
     <use xlink:href="#DejaVuSerif-6f" x="2769.482422"/>
     <use xlink:href="#DejaVuSerif-66" x="2829.6875"/>
     <use xlink:href="#DejaVuSerif-20" x="2866.699219"/>
     <use xlink:href="#DejaVuSerif-31" x="2898.486328"/>
     <use xlink:href="#DejaVuSerif-30" x="2962.109375"/>
     <use xlink:href="#DejaVuSerif-30" x="3025.732422"/>
     <use xlink:href="#DejaVuSerif-31" x="3089.355469"/>
     <use xlink:href="#DejaVuSerif-20" x="3152.978516"/>
     <use xlink:href="#DejaVuSerif-62" x="3184.765625"/>
     <use xlink:href="#DejaVuSerif-69" x="3248.779297"/>
     <use xlink:href="#DejaVuSerif-6e" x="3280.761719"/>
     <use xlink:href="#DejaVuSerif-73" x="3345.166016"/>
     <use xlink:href="#DejaVuSerif-2e" x="3396.484375"/>
     <use xlink:href="#DejaVuSerif-20" x="3428.271484"/>
     <use xlink:href="#DejaVuSerif-4d" x="3460.058594"/>
     <use xlink:href="#DejaVuSerif-65" x="3562.451172"/>
     <use xlink:href="#DejaVuSerif-74" x="3621.630859"/>
     <use xlink:href="#DejaVuSerif-68" x="3661.816406"/>
     <use xlink:href="#DejaVuSerif-6f" x="3726.220703"/>
     <use xlink:href="#DejaVuSerif-64" x="3786.425781"/>
     <use xlink:href="#DejaVuSerif-20" x="3850.439453"/>
     <use xlink:href="#DejaVuSerif-32" x="3882.226562"/>
    </g>
   </g>
  </g>
 </g>
 <defs>
  <clipPath id="p402a9a369e">
   <rect x="57.6" y="41.472" width="357.12" height="266.112"/>
  </clipPath>
 </defs>
</svg>
