<?xml version="1.0" encoding="utf-8" standalone="no"?>
<!DOCTYPE svg PUBLIC "-//W3C//DTD SVG 1.1//EN"
  "http://www.w3.org/Graphics/SVG/1.1/DTD/svg11.dtd">
<svg xmlns:xlink="http://www.w3.org/1999/xlink" width="460.8pt" height="345.6pt" viewBox="0 0 460.8 345.6" xmlns="http://www.w3.org/2000/svg" version="1.1">
 <metadata>
  <rdf:RDF xmlns:dc="http://purl.org/dc/elements/1.1/" xmlns:cc="http://creativecommons.org/ns#" xmlns:rdf="http://www.w3.org/1999/02/22-rdf-syntax-ns#">
   <cc:Work>
    <dc:type rdf:resource="http://purl.org/dc/dcmitype/StillImage"/>
    <dc:date>2023-12-08T23:50:09.327022</dc:date>
    <dc:format>image/svg+xml</dc:format>
    <dc:creator>
     <cc:Agent>
      <dc:title>Matplotlib v3.7.2, https://matplotlib.org/</dc:title>
     </cc:Agent>
    </dc:creator>
   </cc:Work>
  </rdf:RDF>
 </metadata>
 <defs>
  <style type="text/css">*{stroke-linejoin: round; stroke-linecap: butt}</style>
 </defs>
 <g id="figure_1">
  <g id="patch_1">
   <path d="M 0 345.6 
L 460.8 345.6 
L 460.8 0 
L 0 0 
L 0 345.6 
z
" style="fill: none"/>
  </g>
  <g id="axes_1">
   <g id="patch_2">
    <path d="M 57.6 307.584 
L 414.72 307.584 
L 414.72 41.472 
L 57.6 41.472 
L 57.6 307.584 
z
" style="fill: none"/>
   </g>
   <g id="matplotlib.axis_1">
    <g id="xtick_1">
     <g id="line2d_1">
      <defs>
       <path id="m726cb3d282" d="M 0 0 
L 0 3.5 
" style="stroke: #000000; stroke-width: 0.8"/>
      </defs>
      <g>
       <use xlink:href="#m726cb3d282" x="73.832727" y="307.584" style="stroke: #000000; stroke-width: 0.8"/>
      </g>
     </g>
     <g id="text_1">
      <!-- 14 -->
      <g style="fill: #ffffff" transform="translate(63.652727 326.7415) scale(0.16 -0.16)">
       <defs>
        <path id="DejaVuSerif-31" d="M 909 0 
L 909 331 
L 1722 331 
L 1722 4213 
L 781 3603 
L 781 4013 
L 1919 4750 
L 2350 4750 
L 2350 331 
L 3163 331 
L 3163 0 
L 909 0 
z
" transform="scale(0.015625)"/>
        <path id="DejaVuSerif-34" d="M 2234 1581 
L 2234 4063 
L 641 1581 
L 2234 1581 
z
M 3609 0 
L 1484 0 
L 1484 331 
L 2234 331 
L 2234 1247 
L 197 1247 
L 197 1588 
L 2241 4750 
L 2859 4750 
L 2859 1581 
L 3750 1581 
L 3750 1247 
L 2859 1247 
L 2859 331 
L 3609 331 
L 3609 0 
z
" transform="scale(0.015625)"/>
       </defs>
       <use xlink:href="#DejaVuSerif-31"/>
       <use xlink:href="#DejaVuSerif-34" x="63.623047"/>
      </g>
     </g>
    </g>
    <g id="xtick_2">
     <g id="line2d_2">
      <g>
       <use xlink:href="#m726cb3d282" x="138.763636" y="307.584" style="stroke: #000000; stroke-width: 0.8"/>
      </g>
     </g>
     <g id="text_2">
      <!-- 15 -->
      <g style="fill: #ffffff" transform="translate(128.583636 326.7415) scale(0.16 -0.16)">
       <defs>
        <path id="DejaVuSerif-35" d="M 3219 4666 
L 3219 4153 
L 1081 4153 
L 1081 2816 
Q 1244 2928 1461 2984 
Q 1678 3041 1947 3041 
Q 2703 3041 3140 2622 
Q 3578 2203 3578 1478 
Q 3578 738 3136 323 
Q 2694 -91 1894 -91 
Q 1572 -91 1234 -12 
Q 897 66 544 225 
L 544 1131 
L 897 1131 
Q 925 688 1179 453 
Q 1434 219 1894 219 
Q 2388 219 2653 544 
Q 2919 869 2919 1478 
Q 2919 2084 2655 2407 
Q 2391 2731 1894 2731 
Q 1613 2731 1398 2631 
Q 1184 2531 1019 2322 
L 750 2322 
L 750 4666 
L 3219 4666 
z
" transform="scale(0.015625)"/>
       </defs>
       <use xlink:href="#DejaVuSerif-31"/>
       <use xlink:href="#DejaVuSerif-35" x="63.623047"/>
      </g>
     </g>
    </g>
    <g id="xtick_3">
     <g id="line2d_3">
      <g>
       <use xlink:href="#m726cb3d282" x="203.694545" y="307.584" style="stroke: #000000; stroke-width: 0.8"/>
      </g>
     </g>
     <g id="text_3">
      <!-- 16 -->
      <g style="fill: #ffffff" transform="translate(193.514545 326.7415) scale(0.16 -0.16)">
       <defs>
        <path id="DejaVuSerif-36" d="M 2094 219 
Q 2534 219 2771 542 
Q 3009 866 3009 1472 
Q 3009 2078 2771 2401 
Q 2534 2725 2094 2725 
Q 1647 2725 1412 2412 
Q 1178 2100 1178 1509 
Q 1178 888 1415 553 
Q 1653 219 2094 219 
z
M 1075 2569 
Q 1288 2803 1556 2918 
Q 1825 3034 2163 3034 
Q 2859 3034 3264 2615 
Q 3669 2197 3669 1472 
Q 3669 763 3233 336 
Q 2797 -91 2069 -91 
Q 1278 -91 853 498 
Q 428 1088 428 2181 
Q 428 3406 931 4078 
Q 1434 4750 2350 4750 
Q 2597 4750 2869 4703 
Q 3141 4656 3425 4563 
L 3425 3794 
L 3072 3794 
Q 3034 4109 2831 4275 
Q 2628 4441 2284 4441 
Q 1678 4441 1381 3981 
Q 1084 3522 1075 2569 
z
" transform="scale(0.015625)"/>
       </defs>
       <use xlink:href="#DejaVuSerif-31"/>
       <use xlink:href="#DejaVuSerif-36" x="63.623047"/>
      </g>
     </g>
    </g>
    <g id="xtick_4">
     <g id="line2d_4">
      <g>
       <use xlink:href="#m726cb3d282" x="268.625455" y="307.584" style="stroke: #000000; stroke-width: 0.8"/>
      </g>
     </g>
     <g id="text_4">
      <!-- 17 -->
      <g style="fill: #ffffff" transform="translate(258.445455 326.7415) scale(0.16 -0.16)">
       <defs>
        <path id="DejaVuSerif-37" d="M 3609 4347 
L 1784 0 
L 1319 0 
L 3059 4153 
L 903 4153 
L 903 3578 
L 538 3578 
L 538 4666 
L 3609 4666 
L 3609 4347 
z
" transform="scale(0.015625)"/>
       </defs>
       <use xlink:href="#DejaVuSerif-31"/>
       <use xlink:href="#DejaVuSerif-37" x="63.623047"/>
      </g>
     </g>
    </g>
    <g id="xtick_5">
     <g id="line2d_5">
      <g>
       <use xlink:href="#m726cb3d282" x="333.556364" y="307.584" style="stroke: #000000; stroke-width: 0.8"/>
      </g>
     </g>
     <g id="text_5">
      <!-- 18 -->
      <g style="fill: #ffffff" transform="translate(323.376364 326.7415) scale(0.16 -0.16)">
       <defs>
        <path id="DejaVuSerif-38" d="M 2981 1275 
Q 2981 1775 2732 2051 
Q 2484 2328 2034 2328 
Q 1584 2328 1336 2051 
Q 1088 1775 1088 1275 
Q 1088 772 1336 495 
Q 1584 219 2034 219 
Q 2484 219 2732 495 
Q 2981 772 2981 1275 
z
M 2853 3541 
Q 2853 3966 2637 4203 
Q 2422 4441 2034 4441 
Q 1650 4441 1433 4203 
Q 1216 3966 1216 3541 
Q 1216 3113 1433 2875 
Q 1650 2638 2034 2638 
Q 2422 2638 2637 2875 
Q 2853 3113 2853 3541 
z
M 2516 2484 
Q 3047 2413 3344 2092 
Q 3641 1772 3641 1275 
Q 3641 619 3225 264 
Q 2809 -91 2034 -91 
Q 1263 -91 845 264 
Q 428 619 428 1275 
Q 428 1772 725 2092 
Q 1022 2413 1556 2484 
Q 1084 2569 832 2842 
Q 581 3116 581 3541 
Q 581 4103 968 4426 
Q 1356 4750 2034 4750 
Q 2713 4750 3100 4426 
Q 3488 4103 3488 3541 
Q 3488 3116 3236 2842 
Q 2984 2569 2516 2484 
z
" transform="scale(0.015625)"/>
       </defs>
       <use xlink:href="#DejaVuSerif-31"/>
       <use xlink:href="#DejaVuSerif-38" x="63.623047"/>
      </g>
     </g>
    </g>
    <g id="xtick_6">
     <g id="line2d_6">
      <g>
       <use xlink:href="#m726cb3d282" x="398.487273" y="307.584" style="stroke: #000000; stroke-width: 0.8"/>
      </g>
     </g>
     <g id="text_6">
      <!-- 19 -->
      <g style="fill: #ffffff" transform="translate(388.307273 326.7415) scale(0.16 -0.16)">
       <defs>
        <path id="DejaVuSerif-39" d="M 2994 2091 
Q 2784 1856 2512 1740 
Q 2241 1625 1900 1625 
Q 1206 1625 804 2044 
Q 403 2463 403 3188 
Q 403 3897 839 4323 
Q 1275 4750 2003 4750 
Q 2794 4750 3217 4161 
Q 3641 3572 3641 2478 
Q 3641 1253 3137 581 
Q 2634 -91 1722 -91 
Q 1475 -91 1203 -44 
Q 931 3 647 97 
L 647 872 
L 997 872 
Q 1038 556 1241 387 
Q 1444 219 1784 219 
Q 2391 219 2687 676 
Q 2984 1134 2994 2091 
z
M 1978 4441 
Q 1534 4441 1298 4117 
Q 1063 3794 1063 3188 
Q 1063 2581 1298 2256 
Q 1534 1931 1978 1931 
Q 2422 1931 2658 2245 
Q 2894 2559 2894 3150 
Q 2894 3772 2656 4106 
Q 2419 4441 1978 4441 
z
" transform="scale(0.015625)"/>
       </defs>
       <use xlink:href="#DejaVuSerif-31"/>
       <use xlink:href="#DejaVuSerif-39" x="63.623047"/>
      </g>
     </g>
    </g>
    <g id="text_7">
     <!-- Log($\nu$ / $Hz$) -->
     <g style="fill: #ffffff" transform="translate(179.46 349.269) scale(0.2 -0.2)">
      <defs>
       <path id="DejaVuSerif-4c" d="M 353 0 
L 353 331 
L 947 331 
L 947 4331 
L 353 4331 
L 353 4666 
L 2175 4666 
L 2175 4331 
L 1581 4331 
L 1581 384 
L 3713 384 
L 3713 1166 
L 4097 1166 
L 4097 0 
L 353 0 
z
" transform="scale(0.015625)"/>
       <path id="DejaVuSerif-6f" d="M 1925 219 
Q 2388 219 2623 584 
Q 2859 950 2859 1663 
Q 2859 2375 2623 2739 
Q 2388 3103 1925 3103 
Q 1463 3103 1227 2739 
Q 991 2375 991 1663 
Q 991 950 1228 584 
Q 1466 219 1925 219 
z
M 1925 -91 
Q 1200 -91 759 389 
Q 319 869 319 1663 
Q 319 2456 758 2934 
Q 1197 3413 1925 3413 
Q 2653 3413 3092 2934 
Q 3531 2456 3531 1663 
Q 3531 869 3092 389 
Q 2653 -91 1925 -91 
z
" transform="scale(0.015625)"/>
       <path id="DejaVuSerif-67" d="M 3359 2988 
L 3359 72 
Q 3359 -644 2965 -1033 
Q 2572 -1422 1844 -1422 
Q 1516 -1422 1216 -1362 
Q 916 -1303 641 -1184 
L 641 -488 
L 941 -488 
Q 997 -813 1206 -963 
Q 1416 -1113 1806 -1113 
Q 2313 -1113 2548 -827 
Q 2784 -541 2784 72 
L 2784 519 
Q 2616 206 2355 57 
Q 2094 -91 1709 -91 
Q 1097 -91 708 395 
Q 319 881 319 1663 
Q 319 2444 706 2928 
Q 1094 3413 1709 3413 
Q 2094 3413 2355 3264 
Q 2616 3116 2784 2803 
L 2784 3322 
L 3909 3322 
L 3909 2988 
L 3359 2988 
z
M 2784 1825 
Q 2784 2422 2554 2737 
Q 2325 3053 1888 3053 
Q 1444 3053 1217 2703 
Q 991 2353 991 1663 
Q 991 975 1217 622 
Q 1444 269 1888 269 
Q 2325 269 2554 583 
Q 2784 897 2784 1497 
L 2784 1825 
z
" transform="scale(0.015625)"/>
       <path id="DejaVuSerif-28" d="M 2041 -997 
Q 1281 -656 893 83 
Q 506 822 506 1931 
Q 506 3044 893 3783 
Q 1281 4522 2041 4863 
L 2041 4556 
Q 1559 4225 1350 3623 
Q 1141 3022 1141 1931 
Q 1141 844 1350 242 
Q 1559 -359 2041 -691 
L 2041 -997 
z
" transform="scale(0.015625)"/>
       <path id="DejaVuSerif-Italic-3bd" d="M 1103 363 
Q 1516 513 1997 875 
Q 2291 1094 2691 1638 
Q 2950 1975 3034 2288 
Q 3116 2575 3025 2794 
Q 2906 3097 2691 3138 
L 2725 3322 
L 3075 3322 
Q 3400 3169 3584 2828 
Q 3728 2566 3666 2247 
Q 3622 2016 3494 1825 
Q 3400 1688 3116 1366 
Q 2738 950 2297 663 
Q 1494 138 1034 0 
L 456 0 
L 1041 2988 
L 491 2988 
L 553 3322 
L 1678 3322 
L 1103 363 
z
" transform="scale(0.015625)"/>
       <path id="DejaVuSerif-20" transform="scale(0.015625)"/>
       <path id="DejaVuSerif-2f" d="M 1656 4666 
L 2156 4666 
L 500 -594 
L 0 -594 
L 1656 4666 
z
" transform="scale(0.015625)"/>
       <path id="DejaVuSerif-Italic-48" d="M -97 0 
L -34 331 
L 559 331 
L 1338 4331 
L 744 4331 
L 809 4666 
L 2631 4666 
L 2566 4331 
L 1972 4331 
L 1659 2719 
L 4078 2719 
L 4391 4331 
L 3797 4331 
L 3863 4666 
L 5684 4666 
L 5619 4331 
L 5025 4331 
L 4247 331 
L 4841 331 
L 4778 0 
L 2956 0 
L 3019 331 
L 3616 331 
L 4003 2338 
L 1584 2338 
L 1194 331 
L 1788 331 
L 1725 0 
L -97 0 
z
" transform="scale(0.015625)"/>
       <path id="DejaVuSerif-Italic-7a" d="M 2550 3047 
Q 2888 3047 3216 3322 
L 3403 3322 
L 3353 3053 
L 1081 684 
Q 1113 675 1203 647 
Q 1309 613 1416 544 
L 1569 450 
Q 1863 272 2075 272 
Q 2484 272 2966 741 
L 2891 363 
Q 2356 -163 1950 -163 
Q 1703 -156 1356 59 
Q 1009 275 791 275 
Q 453 275 125 0 
L -63 0 
L -13 269 
L 2263 2634 
Q 2228 2647 2138 2675 
Q 2031 2709 1925 2778 
L 1772 2872 
Q 1478 3050 1266 3050 
Q 856 3050 375 2581 
L 450 2959 
Q 984 3484 1391 3484 
Q 1638 3478 1984 3262 
Q 2331 3047 2550 3047 
z
" transform="scale(0.015625)"/>
       <path id="DejaVuSerif-29" d="M 453 -997 
L 453 -691 
Q 934 -359 1145 242 
Q 1356 844 1356 1931 
Q 1356 3022 1145 3623 
Q 934 4225 453 4556 
L 453 4863 
Q 1216 4522 1603 3783 
Q 1991 3044 1991 1931 
Q 1991 822 1603 83 
Q 1216 -656 453 -997 
z
" transform="scale(0.015625)"/>
      </defs>
      <use xlink:href="#DejaVuSerif-4c" transform="translate(0 0.015625)"/>
      <use xlink:href="#DejaVuSerif-6f" transform="translate(66.40625 0.015625)"/>
      <use xlink:href="#DejaVuSerif-67" transform="translate(126.611328 0.015625)"/>
      <use xlink:href="#DejaVuSerif-28" transform="translate(190.625 0.015625)"/>
      <use xlink:href="#DejaVuSerif-Italic-3bd" transform="translate(229.638672 0.015625)"/>
      <use xlink:href="#DejaVuSerif-20" transform="translate(290.429688 0.015625)"/>
      <use xlink:href="#DejaVuSerif-2f" transform="translate(322.216797 0.015625)"/>
      <use xlink:href="#DejaVuSerif-20" transform="translate(355.908203 0.015625)"/>
      <use xlink:href="#DejaVuSerif-Italic-48" transform="translate(387.695312 0.015625)"/>
      <use xlink:href="#DejaVuSerif-Italic-7a" transform="translate(474.902344 0.015625)"/>
      <use xlink:href="#DejaVuSerif-29" transform="translate(527.587891 0.015625)"/>
     </g>
    </g>
   </g>
   <g id="matplotlib.axis_2">
    <g id="ytick_1">
     <g id="line2d_7">
      <defs>
       <path id="m4a1e5a91ff" d="M 0 0 
L -3.5 0 
" style="stroke: #ffffff; stroke-width: 0.8"/>
      </defs>
      <g>
       <use xlink:href="#m4a1e5a91ff" x="57.6" y="249.241064" style="fill: #ffffff; stroke: #ffffff; stroke-width: 0.8"/>
      </g>
     </g>
     <g id="text_8">
      <!-- −1 -->
      <g style="fill: #ffffff" transform="translate(27.0125 255.319814) scale(0.16 -0.16)">
       <defs>
        <path id="DejaVuSerif-2212" d="M 678 2259 
L 4684 2259 
L 4684 1753 
L 678 1753 
L 678 2259 
z
" transform="scale(0.015625)"/>
       </defs>
       <use xlink:href="#DejaVuSerif-2212"/>
       <use xlink:href="#DejaVuSerif-31" x="83.789062"/>
      </g>
     </g>
    </g>
    <g id="ytick_2">
     <g id="line2d_8">
      <g>
       <use xlink:href="#m4a1e5a91ff" x="57.6" y="190.523414" style="fill: #ffffff; stroke: #ffffff; stroke-width: 0.8"/>
      </g>
     </g>
     <g id="text_9">
      <!-- 0 -->
      <g style="fill: #ffffff" transform="translate(40.42 196.602164) scale(0.16 -0.16)">
       <defs>
        <path id="DejaVuSerif-30" d="M 2034 219 
Q 2513 219 2750 744 
Q 2988 1269 2988 2328 
Q 2988 3391 2750 3916 
Q 2513 4441 2034 4441 
Q 1556 4441 1318 3916 
Q 1081 3391 1081 2328 
Q 1081 1269 1318 744 
Q 1556 219 2034 219 
z
M 2034 -91 
Q 1275 -91 848 546 
Q 422 1184 422 2328 
Q 422 3475 848 4112 
Q 1275 4750 2034 4750 
Q 2797 4750 3222 4112 
Q 3647 3475 3647 2328 
Q 3647 1184 3222 546 
Q 2797 -91 2034 -91 
z
" transform="scale(0.015625)"/>
       </defs>
       <use xlink:href="#DejaVuSerif-30"/>
      </g>
     </g>
    </g>
    <g id="ytick_3">
     <g id="line2d_9">
      <g>
       <use xlink:href="#m4a1e5a91ff" x="57.6" y="131.805765" style="fill: #ffffff; stroke: #ffffff; stroke-width: 0.8"/>
      </g>
     </g>
     <g id="text_10">
      <!-- 1 -->
      <g style="fill: #ffffff" transform="translate(40.42 137.884515) scale(0.16 -0.16)">
       <use xlink:href="#DejaVuSerif-31"/>
      </g>
     </g>
    </g>
    <g id="ytick_4">
     <g id="line2d_10">
      <g>
       <use xlink:href="#m4a1e5a91ff" x="57.6" y="73.088116" style="fill: #ffffff; stroke: #ffffff; stroke-width: 0.8"/>
      </g>
     </g>
     <g id="text_11">
      <!-- 2 -->
      <g style="fill: #ffffff" transform="translate(40.42 79.166866) scale(0.16 -0.16)">
       <defs>
        <path id="DejaVuSerif-32" d="M 819 3553 
L 469 3553 
L 469 4384 
Q 803 4563 1142 4656 
Q 1481 4750 1806 4750 
Q 2534 4750 2956 4397 
Q 3378 4044 3378 3438 
Q 3378 2753 2422 1800 
Q 2347 1728 2309 1691 
L 1131 513 
L 3078 513 
L 3078 1088 
L 3444 1088 
L 3444 0 
L 434 0 
L 434 341 
L 1850 1753 
Q 2319 2222 2519 2614 
Q 2719 3006 2719 3438 
Q 2719 3909 2473 4175 
Q 2228 4441 1797 4441 
Q 1350 4441 1106 4219 
Q 863 3997 819 3553 
z
" transform="scale(0.015625)"/>
       </defs>
       <use xlink:href="#DejaVuSerif-32"/>
      </g>
     </g>
    </g>
    <g id="text_12">
     <!-- Residuals $\frac{L_{\nu}}{L_{\nu, ref}}$ -->
     <g style="fill: #ffffff" transform="translate(11.0125 245.228) rotate(-90) scale(0.2 -0.2)">
      <defs>
       <path id="DejaVuSerif-52" d="M 3066 2316 
Q 3284 2256 3442 2114 
Q 3600 1972 3725 1716 
L 4403 331 
L 4972 331 
L 4972 0 
L 3872 0 
L 3144 1484 
Q 2934 1916 2759 2042 
Q 2584 2169 2278 2169 
L 1581 2169 
L 1581 331 
L 2241 331 
L 2241 0 
L 353 0 
L 353 331 
L 947 331 
L 947 4331 
L 353 4331 
L 353 4666 
L 2719 4666 
Q 3400 4666 3770 4341 
Q 4141 4016 4141 3419 
Q 4141 2938 3870 2661 
Q 3600 2384 3066 2316 
z
M 1581 2503 
L 2503 2503 
Q 2975 2503 3200 2726 
Q 3425 2950 3425 3419 
Q 3425 3888 3200 4109 
Q 2975 4331 2503 4331 
L 1581 4331 
L 1581 2503 
z
" transform="scale(0.015625)"/>
       <path id="DejaVuSerif-65" d="M 3469 1600 
L 991 1600 
L 991 1575 
Q 991 903 1244 561 
Q 1497 219 1991 219 
Q 2369 219 2611 417 
Q 2853 616 2950 1006 
L 3413 1006 
Q 3275 459 2904 184 
Q 2534 -91 1931 -91 
Q 1203 -91 761 389 
Q 319 869 319 1663 
Q 319 2450 753 2931 
Q 1188 3413 1894 3413 
Q 2647 3413 3050 2948 
Q 3453 2484 3469 1600 
z
M 2791 1931 
Q 2772 2513 2545 2808 
Q 2319 3103 1894 3103 
Q 1497 3103 1269 2806 
Q 1041 2509 991 1931 
L 2791 1931 
z
" transform="scale(0.015625)"/>
       <path id="DejaVuSerif-73" d="M 359 184 
L 359 959 
L 691 959 
Q 703 588 923 403 
Q 1144 219 1575 219 
Q 1963 219 2166 364 
Q 2369 509 2369 788 
Q 2369 1006 2220 1140 
Q 2072 1275 1594 1428 
L 1178 1569 
Q 750 1706 558 1912 
Q 366 2119 366 2438 
Q 366 2894 700 3153 
Q 1034 3413 1625 3413 
Q 1888 3413 2178 3344 
Q 2469 3275 2778 3144 
L 2778 2419 
L 2447 2419 
Q 2434 2741 2221 2922 
Q 2009 3103 1644 3103 
Q 1281 3103 1095 2975 
Q 909 2847 909 2591 
Q 909 2381 1050 2254 
Q 1191 2128 1613 1997 
L 2069 1856 
Q 2541 1709 2748 1489 
Q 2956 1269 2956 922 
Q 2956 450 2595 179 
Q 2234 -91 1600 -91 
Q 1278 -91 972 -22 
Q 666 47 359 184 
z
" transform="scale(0.015625)"/>
       <path id="DejaVuSerif-69" d="M 622 4353 
Q 622 4497 726 4603 
Q 831 4709 978 4709 
Q 1122 4709 1226 4603 
Q 1331 4497 1331 4353 
Q 1331 4206 1228 4103 
Q 1125 4000 978 4000 
Q 831 4000 726 4103 
Q 622 4206 622 4353 
z
M 1356 331 
L 1900 331 
L 1900 0 
L 231 0 
L 231 331 
L 781 331 
L 781 2988 
L 231 2988 
L 231 3322 
L 1356 3322 
L 1356 331 
z
" transform="scale(0.015625)"/>
       <path id="DejaVuSerif-64" d="M 3359 331 
L 3909 331 
L 3909 0 
L 2784 0 
L 2784 519 
Q 2616 206 2355 57 
Q 2094 -91 1709 -91 
Q 1097 -91 708 395 
Q 319 881 319 1663 
Q 319 2444 706 2928 
Q 1094 3413 1709 3413 
Q 2094 3413 2355 3264 
Q 2616 3116 2784 2803 
L 2784 4531 
L 2241 4531 
L 2241 4863 
L 3359 4863 
L 3359 331 
z
M 2784 1497 
L 2784 1825 
Q 2784 2422 2554 2737 
Q 2325 3053 1888 3053 
Q 1444 3053 1217 2703 
Q 991 2353 991 1663 
Q 991 975 1217 622 
Q 1444 269 1888 269 
Q 2325 269 2554 583 
Q 2784 897 2784 1497 
z
" transform="scale(0.015625)"/>
       <path id="DejaVuSerif-75" d="M 2266 3322 
L 3341 3322 
L 3341 331 
L 3884 331 
L 3884 0 
L 2766 0 
L 2766 588 
Q 2606 256 2353 82 
Q 2100 -91 1766 -91 
Q 1213 -91 952 223 
Q 691 538 691 1209 
L 691 2988 
L 172 2988 
L 172 3322 
L 1269 3322 
L 1269 1388 
Q 1269 781 1417 556 
Q 1566 331 1947 331 
Q 2347 331 2556 625 
Q 2766 919 2766 1478 
L 2766 2988 
L 2266 2988 
L 2266 3322 
z
" transform="scale(0.015625)"/>
       <path id="DejaVuSerif-61" d="M 2547 1044 
L 2547 1747 
L 1806 1747 
Q 1378 1747 1168 1562 
Q 959 1378 959 997 
Q 959 650 1171 447 
Q 1384 244 1747 244 
Q 2106 244 2326 466 
Q 2547 688 2547 1044 
z
M 3122 2075 
L 3122 331 
L 3634 331 
L 3634 0 
L 2547 0 
L 2547 359 
Q 2356 128 2106 18 
Q 1856 -91 1522 -91 
Q 969 -91 644 203 
Q 319 497 319 997 
Q 319 1513 691 1797 
Q 1063 2081 1741 2081 
L 2547 2081 
L 2547 2309 
Q 2547 2688 2317 2895 
Q 2088 3103 1672 3103 
Q 1328 3103 1125 2947 
Q 922 2791 872 2484 
L 575 2484 
L 575 3156 
Q 875 3284 1158 3348 
Q 1441 3413 1709 3413 
Q 2400 3413 2761 3070 
Q 3122 2728 3122 2075 
z
" transform="scale(0.015625)"/>
       <path id="DejaVuSerif-6c" d="M 1313 331 
L 1856 331 
L 1856 0 
L 184 0 
L 184 331 
L 738 331 
L 738 4531 
L 184 4531 
L 184 4863 
L 1313 4863 
L 1313 331 
z
" transform="scale(0.015625)"/>
       <path id="DejaVuSerif-Italic-4c" d="M -97 0 
L -34 331 
L 559 331 
L 1338 4331 
L 744 4331 
L 809 4666 
L 2631 4666 
L 2566 4331 
L 1972 4331 
L 1206 384 
L 3338 384 
L 3488 1166 
L 3872 1166 
L 3647 0 
L -97 0 
z
" transform="scale(0.015625)"/>
       <path id="DejaVuSerif-2c" d="M 231 -622 
Q 525 -406 662 -114 
Q 800 178 800 594 
L 800 709 
L 1416 709 
Q 1391 175 1164 -208 
Q 938 -591 481 -872 
L 231 -622 
z
" transform="scale(0.015625)"/>
       <path id="DejaVuSerif-Italic-72" d="M 3375 3328 
L 3213 2497 
L 2881 2497 
Q 2891 2559 2891 2613 
Q 2891 2775 2816 2866 
Q 2719 2988 2484 2988 
Q 2059 2988 1775 2694 
Q 1491 2400 1384 1850 
L 1025 0 
L 450 0 
L 1031 2994 
L 481 2994 
L 544 3322 
L 1669 3322 
L 1556 2731 
Q 1791 3078 2089 3245 
Q 2388 3413 2769 3413 
Q 2909 3413 3059 3391 
Q 3209 3369 3375 3328 
z
" transform="scale(0.015625)"/>
       <path id="DejaVuSerif-Italic-65" d="M 938 1275 
Q 925 1156 925 1050 
Q 925 756 1031 563 
Q 1216 219 1709 219 
Q 2072 219 2250 328 
Q 2569 525 2644 778 
L 3066 778 
Q 2941 381 2475 103 
Q 2150 -91 1506 -91 
Q 863 -91 516 388 
Q 272 722 272 1206 
Q 272 1419 319 1659 
Q 472 2450 1000 2931 
Q 1528 3413 2278 3413 
Q 3500 3413 3500 2547 
Q 3500 1913 2859 1603 
Q 2206 1288 938 1275 
z
M 2541 1975 
Q 2891 2181 2891 2569 
Q 2891 3103 2181 3103 
Q 1763 3103 1472 2784 
Q 1181 2466 1003 1606 
Q 2006 1653 2541 1975 
z
" transform="scale(0.015625)"/>
       <path id="DejaVuSerif-Italic-66" d="M 3191 4078 
L 2888 4078 
Q 2900 4144 2900 4203 
Q 2900 4347 2825 4434 
Q 2719 4556 2472 4556 
Q 2150 4556 1984 4379 
Q 1819 4203 1731 3750 
L 1647 3322 
L 2575 3322 
L 2509 2988 
L 1581 2988 
L 963 -206 
Q 853 -763 509 -1047 
Q 166 -1331 -394 -1331 
L -356 -1025 
Q -28 -1025 131 -850 
Q 297 -663 388 -206 
L 1006 2988 
L 456 2988 
L 522 3322 
L 1072 3322 
L 1153 3738 
Q 1263 4297 1606 4578 
Q 1950 4863 2509 4863 
Q 2719 4863 2920 4825 
Q 3122 4788 3316 4709 
L 3191 4078 
z
" transform="scale(0.015625)"/>
      </defs>
      <use xlink:href="#DejaVuSerif-52" transform="translate(0 0.21375)"/>
      <use xlink:href="#DejaVuSerif-65" transform="translate(75.292969 0.21375)"/>
      <use xlink:href="#DejaVuSerif-73" transform="translate(134.472656 0.21375)"/>
      <use xlink:href="#DejaVuSerif-69" transform="translate(185.791016 0.21375)"/>
      <use xlink:href="#DejaVuSerif-64" transform="translate(217.773438 0.21375)"/>
      <use xlink:href="#DejaVuSerif-75" transform="translate(281.787109 0.21375)"/>
      <use xlink:href="#DejaVuSerif-61" transform="translate(346.191406 0.21375)"/>
      <use xlink:href="#DejaVuSerif-6c" transform="translate(405.810547 0.21375)"/>
      <use xlink:href="#DejaVuSerif-73" transform="translate(437.792969 0.21375)"/>
      <use xlink:href="#DejaVuSerif-20" transform="translate(489.111328 0.21375)"/>
      <use xlink:href="#DejaVuSerif-Italic-4c" transform="translate(568.898438 54.965625) scale(0.7)"/>
      <use xlink:href="#DejaVuSerif-Italic-3bd" transform="translate(615.382812 44.065313) scale(0.49)"/>
      <use xlink:href="#DejaVuSerif-Italic-4c" transform="translate(520.898438 -38.219063) scale(0.7)"/>
      <use xlink:href="#DejaVuSerif-Italic-3bd" transform="translate(567.382812 -49.119375) scale(0.49)"/>
      <use xlink:href="#DejaVuSerif-2c" transform="translate(597.17041 -49.119375) scale(0.49)"/>
      <use xlink:href="#DejaVuSerif-Italic-72" transform="translate(622.038867 -49.119375) scale(0.49)"/>
      <use xlink:href="#DejaVuSerif-Italic-65" transform="translate(645.462207 -49.119375) scale(0.49)"/>
      <use xlink:href="#DejaVuSerif-Italic-66" transform="translate(674.460254 -49.119375) scale(0.49)"/>
      <path d="M 520.898438 19.065313 
L 520.898438 25.315313 
L 694.412715 25.315313 
L 694.412715 19.065313 
L 520.898438 19.065313 
z
"/>
     </g>
    </g>
    <g id="text_13">
     <!-- 1e−6+1 -->
     <g style="fill: #ffffff" transform="translate(57.6 38.472) scale(0.16 -0.16)">
      <defs>
       <path id="DejaVuSerif-2b" d="M 2931 4013 
L 2931 2259 
L 4684 2259 
L 4684 1753 
L 2931 1753 
L 2931 0 
L 2431 0 
L 2431 1753 
L 678 1753 
L 678 2259 
L 2431 2259 
L 2431 4013 
L 2931 4013 
z
" transform="scale(0.015625)"/>
      </defs>
      <use xlink:href="#DejaVuSerif-31"/>
      <use xlink:href="#DejaVuSerif-65" x="63.623047"/>
      <use xlink:href="#DejaVuSerif-2212" x="122.802734"/>
      <use xlink:href="#DejaVuSerif-36" x="206.591797"/>
      <use xlink:href="#DejaVuSerif-2b" x="270.214844"/>
      <use xlink:href="#DejaVuSerif-31" x="354.003906"/>
     </g>
    </g>
   </g>
   <g id="line2d_11">
    <path d="M 73.832727 190.487098 
L 127.076073 190.356226 
L 143.3088 190.102361 
L 154.0224 189.725309 
L 162.138764 189.226991 
L 168.631855 188.612915 
L 174.150982 187.867806 
L 178.696145 187.041492 
L 182.916655 186.047159 
L 186.487855 184.989234 
L 189.7344 183.81499 
L 192.980945 182.396318 
L 195.902836 180.871038 
L 198.500073 179.284021 
L 201.097309 177.44637 
L 203.694545 175.323032 
L 206.291782 172.87597 
L 208.564364 170.437494 
L 210.836945 167.692243 
L 213.109527 164.612249 
L 215.382109 161.170734 
L 217.654691 157.343711 
L 219.927273 153.11209 
L 222.524509 147.766236 
L 225.121745 141.877959 
L 228.043636 134.640405 
L 231.290182 125.950947 
L 236.809309 110.347266 
L 240.380509 100.562616 
L 242.653091 94.93686 
L 244.276364 91.394724 
L 245.899636 88.383483 
L 247.198255 86.442606 
L 248.172218 85.305022 
L 249.146182 84.473158 
L 250.120145 83.977205 
L 250.769455 83.848138 
L 251.418764 83.890738 
L 252.068073 84.113821 
L 252.717382 84.526052 
L 253.366691 85.135882 
L 254.340655 86.438932 
L 255.314618 88.231015 
L 256.288582 90.535974 
L 257.262545 93.374803 
L 258.561164 98.020034 
L 259.859782 103.674633 
L 261.1584 110.352035 
L 262.781673 120.126068 
L 264.404945 131.425897 
L 266.352873 146.818907 
L 268.625455 166.845269 
L 272.196655 200.791493 
L 275.4432 230.868096 
L 277.391127 246.783766 
L 279.0144 258.016509 
L 280.313018 265.329976 
L 281.286982 269.703166 
L 282.260945 273.046102 
L 282.910255 274.676679 
L 283.559564 275.816496 
L 284.208873 276.459702 
L 284.533527 276.594446 
L 284.858182 276.604849 
L 285.182836 276.49144 
L 285.832145 275.896763 
L 286.481455 274.820478 
L 287.130764 273.277284 
L 288.104727 270.130359 
L 289.078691 266.060538 
L 290.377309 259.380335 
L 292.000582 249.436326 
L 294.273164 233.740718 
L 297.519709 211.23 
L 299.142982 201.337972 
L 300.4416 194.525845 
L 301.740218 188.863128 
L 302.714182 185.42077 
L 303.688145 182.677278 
L 304.662109 180.617108 
L 305.636073 179.204994 
L 306.285382 178.598451 
L 306.934691 178.238077 
L 307.584 178.10273 
L 308.233309 178.169581 
L 308.882618 178.41463 
L 309.856582 179.062311 
L 311.1552 180.31927 
L 313.103127 182.669928 
L 316.025018 186.227808 
L 317.648291 187.847678 
L 318.946909 188.875655 
L 320.245527 189.657029 
L 321.544145 190.208382 
L 323.167418 190.623588 
L 324.790691 190.808346 
L 327.063273 190.830624 
L 340.698764 190.522181 
L 398.487273 190.527511 
L 398.487273 190.527511 
" clip-path="url(#pf590b78b76)" style="fill: none; stroke: #a02a00; stroke-width: 3; stroke-linecap: square"/>
   </g>
   <g id="line2d_12">
    <path d="M 73.832727 190.4812 
L 125.128145 190.347598 
L 141.036218 190.094962 
L 151.749818 189.712609 
L 159.866182 189.206557 
L 166.359273 188.582876 
L 171.8784 187.826023 
L 176.423564 186.98649 
L 180.644073 185.975888 
L 184.215273 184.900131 
L 187.461818 183.70537 
L 190.708364 182.260778 
L 193.630255 180.706121 
L 196.227491 179.086742 
L 198.824727 177.209173 
L 201.421964 175.036236 
L 203.694545 172.860609 
L 205.967127 170.398206 
L 208.239709 167.61807 
L 210.512291 164.488347 
L 212.784873 160.977232 
L 215.057455 157.054315 
L 217.330036 152.692428 
L 219.602618 147.870063 
L 222.199855 141.779131 
L 224.797091 135.072146 
L 227.718982 126.83198 
L 230.965527 116.94619 
L 236.809309 98.188735 
L 240.055855 88.156805 
L 242.328436 81.819333 
L 243.951709 77.848345 
L 245.574982 74.494264 
L 246.8736 72.353399 
L 247.847564 71.115473 
L 248.821527 70.230346 
L 249.470836 69.853149 
L 250.120145 69.658095 
L 250.769455 69.655266 
L 251.418764 69.854631 
L 252.068073 70.265984 
L 252.717382 70.898883 
L 253.366691 71.762574 
L 254.340655 73.510117 
L 255.314618 75.824673 
L 256.288582 78.73115 
L 257.262545 82.250782 
L 258.561164 87.92577 
L 259.859782 94.74529 
L 261.1584 102.714716 
L 262.781673 114.263876 
L 264.404945 127.485865 
L 266.352873 145.318429 
L 268.625455 168.254831 
L 276.092509 245.642147 
L 277.715782 259.325695 
L 279.0144 268.589081 
L 280.313018 276.084988 
L 281.286982 280.42305 
L 282.260945 283.587131 
L 282.910255 285.021838 
L 283.559564 285.907631 
L 283.884218 286.143716 
L 284.208873 286.242027 
L 284.533527 286.203029 
L 284.858182 286.027506 
L 285.507491 285.271606 
L 286.1568 283.986955 
L 286.806109 282.191225 
L 287.780073 278.590099 
L 288.754036 273.986967 
L 290.052655 266.496909 
L 291.675927 255.431987 
L 293.948509 238.091078 
L 297.195055 213.394693 
L 298.818327 202.591011 
L 300.116945 195.164453 
L 301.415564 188.99652 
L 302.389527 185.247267 
L 303.363491 182.256711 
L 304.337455 180.006086 
L 305.311418 178.455784 
L 305.960727 177.783622 
L 306.610036 177.376888 
L 307.259345 177.212682 
L 307.908655 177.266378 
L 308.557964 177.512167 
L 309.531927 178.183112 
L 310.505891 179.137431 
L 312.129164 181.125929 
L 316.025018 186.167972 
L 317.648291 187.836866 
L 318.946909 188.88544 
L 320.245527 189.675872 
L 321.544145 190.22887 
L 323.167418 190.640664 
L 324.790691 190.820013 
L 327.063273 190.835755 
L 340.049455 190.521488 
L 398.487273 190.527672 
L 398.487273 190.527672 
" clip-path="url(#pf590b78b76)" style="fill: none; stroke: #ce4f01; stroke-width: 3; stroke-linecap: square"/>
   </g>
   <g id="line2d_13">
    <path d="M 73.832727 190.4776 
L 123.829527 190.344665 
L 139.7376 190.092297 
L 150.4512 189.708601 
L 158.567564 189.200219 
L 165.060655 188.573608 
L 170.255127 187.865141 
L 174.800291 187.037667 
L 179.0208 186.041369 
L 182.592 184.980527 
L 185.838545 183.801896 
L 189.085091 182.376121 
L 192.006982 180.84079 
L 194.604218 179.240441 
L 197.201455 177.383429 
L 199.798691 175.232128 
L 202.071273 173.075711 
L 204.343855 170.631921 
L 206.616436 167.868595 
L 208.889018 164.75217 
L 211.1616 161.248483 
L 213.434182 157.323954 
L 215.706764 152.947226 
L 217.979345 148.091384 
L 220.251927 142.736841 
L 222.849164 135.99632 
L 225.4464 128.606053 
L 228.368291 119.578191 
L 231.939491 107.731733 
L 240.055855 80.393081 
L 242.328436 73.754097 
L 243.951709 69.639945 
L 245.250327 66.838137 
L 246.548945 64.55856 
L 247.522909 63.241881 
L 248.496873 62.302115 
L 249.146182 61.902966 
L 249.795491 61.698274 
L 250.4448 61.698736 
L 251.094109 61.914913 
L 251.743418 62.357168 
L 252.392727 63.035592 
L 253.042036 63.959934 
L 254.016 65.827806 
L 254.989964 68.299097 
L 255.963927 71.399788 
L 256.937891 75.151873 
L 258.236509 81.196917 
L 259.535127 88.454982 
L 260.833745 96.929888 
L 262.457018 109.200182 
L 264.080291 123.233381 
L 266.028218 142.138758 
L 268.3008 166.423451 
L 275.4432 245.02077 
L 277.066473 259.887244 
L 278.365091 270.088463 
L 279.663709 278.494105 
L 280.637673 283.483969 
L 281.611636 287.264114 
L 282.260945 289.085421 
L 282.910255 290.33561 
L 283.559564 291.009783 
L 283.884218 291.130714 
L 284.208873 291.108109 
L 284.533527 290.942801 
L 285.182836 290.189061 
L 285.832145 288.882746 
L 286.481455 287.042315 
L 287.455418 283.333038 
L 288.429382 278.575837 
L 289.728 270.816607 
L 291.351273 259.329637 
L 293.623855 241.284336 
L 296.8704 215.485211 
L 298.493673 204.143327 
L 299.792291 196.312636 
L 301.090909 189.773967 
L 302.064873 185.773005 
L 303.038836 182.555982 
L 304.0128 180.10584 
L 304.986764 178.384031 
L 305.636073 177.613323 
L 306.285382 177.120656 
L 306.934691 176.882971 
L 307.584 176.875369 
L 308.233309 177.071652 
L 309.207273 177.689339 
L 310.181236 178.613728 
L 311.479855 180.170634 
L 316.674327 186.880492 
L 317.972945 188.130043 
L 319.271564 189.115544 
L 320.570182 189.843661 
L 321.8688 190.340817 
L 323.492073 190.696858 
L 325.44 190.84764 
L 328.361891 190.784909 
L 335.828945 190.531601 
L 349.464436 190.527871 
L 398.487273 190.52773 
L 398.487273 190.52773 
" clip-path="url(#pf590b78b76)" style="fill: none; stroke: #e16904; stroke-width: 3; stroke-linecap: square"/>
   </g>
   <g id="line2d_14">
    <path d="M 73.832727 190.475214 
L 123.180218 190.341293 
L 139.088291 190.086575 
L 149.801891 189.698415 
L 157.918255 189.183812 
L 164.411345 188.549501 
L 169.605818 187.832323 
L 174.150982 186.994651 
L 178.371491 185.986021 
L 181.942691 184.911963 
L 185.189236 183.718523 
L 188.111127 182.431661 
L 191.033018 180.905614 
L 193.630255 179.314373 
L 196.227491 177.467151 
L 198.824727 175.326075 
L 201.097309 173.178629 
L 203.369891 170.743372 
L 205.642473 167.987493 
L 207.915055 164.87651 
L 210.187636 161.374999 
L 212.460218 157.447674 
L 214.7328 153.060923 
L 217.005382 148.184906 
L 219.277964 142.796317 
L 221.550545 136.881907 
L 224.147782 129.481061 
L 226.745018 121.429357 
L 229.991564 110.57515 
L 234.536727 94.463048 
L 238.757236 79.682893 
L 241.029818 72.406985 
L 242.977745 66.889557 
L 244.601018 62.99205 
L 245.899636 60.447036 
L 246.8736 58.928726 
L 247.847564 57.786356 
L 248.821527 57.057527 
L 249.470836 56.819979 
L 250.120145 56.794024 
L 250.769455 56.990586 
L 251.418764 57.420381 
L 252.068073 58.093842 
L 252.717382 59.021042 
L 253.691345 60.908538 
L 254.665309 63.418697 
L 255.639273 66.578337 
L 256.613236 70.41015 
L 257.911855 76.594733 
L 259.210473 84.031032 
L 260.509091 92.723075 
L 262.132364 105.318762 
L 263.755636 119.735025 
L 265.703564 139.170299 
L 267.976145 164.156521 
L 275.4432 248.51854 
L 277.066473 263.512832 
L 278.365091 273.713516 
L 279.663709 282.030114 
L 280.637673 286.898833 
L 281.611636 290.515523 
L 282.260945 292.206743 
L 282.910255 293.311871 
L 283.559564 293.827818 
L 283.884218 293.865297 
L 284.208873 293.756679 
L 284.533527 293.503052 
L 285.182836 292.566796 
L 285.832145 291.07188 
L 286.481455 289.038885 
L 287.455418 285.037924 
L 288.429382 279.991737 
L 289.728 271.862435 
L 291.351273 259.955765 
L 293.948509 238.728003 
L 296.8704 215.231432 
L 298.493673 203.800381 
L 299.792291 195.943181 
L 301.090909 189.409397 
L 302.064873 185.42766 
L 303.038836 182.239326 
L 304.0128 179.824074 
L 304.986764 178.140437 
L 305.636073 177.39575 
L 306.285382 176.928822 
L 306.934691 176.716072 
L 307.584 176.732173 
L 308.233309 176.950598 
L 309.207273 177.598071 
L 310.181236 178.547754 
L 311.479855 180.13127 
L 316.674327 186.883683 
L 317.972945 188.134471 
L 319.271564 189.119804 
L 320.570182 189.847096 
L 321.8688 190.343259 
L 323.492073 190.698218 
L 325.44 190.848157 
L 328.361891 190.784944 
L 335.828945 190.53162 
L 349.464436 190.527896 
L 398.487273 190.527755 
L 398.487273 190.527755 
" clip-path="url(#pf590b78b76)" style="fill: none; stroke: #f98811; stroke-width: 3; stroke-linecap: square"/>
   </g>
   <g id="line2d_15">
    <path d="M 73.832727 190.473538 
L 122.855564 190.337926 
L 138.763636 190.079745 
L 149.152582 189.701943 
L 157.268945 189.189653 
L 163.762036 188.558144 
L 168.956509 187.844127 
L 173.501673 187.010118 
L 177.722182 186.00584 
L 181.293382 184.936322 
L 184.539927 183.747792 
L 187.461818 182.466044 
L 190.383709 180.945793 
L 192.980945 179.360259 
L 195.578182 177.519193 
L 198.175418 175.384582 
L 200.448 173.24285 
L 202.720582 170.813087 
L 204.993164 168.062091 
L 207.265745 164.954829 
L 209.538327 161.455112 
L 211.810909 157.526616 
L 214.083491 153.13435 
L 216.356073 148.246676 
L 218.628655 142.837992 
L 220.901236 136.892175 
L 223.498473 129.437046 
L 226.095709 121.305351 
L 229.0176 111.439723 
L 232.913455 97.441272 
L 238.757236 76.386206 
L 241.029818 68.995348 
L 242.977745 63.423219 
L 244.601018 59.51777 
L 245.899636 56.994656 
L 246.8736 55.510847 
L 247.847564 54.419521 
L 248.496873 53.929 
L 249.146182 53.64139 
L 249.795491 53.568 
L 250.4448 53.72 
L 251.094109 54.10835 
L 251.743418 54.743729 
L 252.392727 55.636459 
L 253.366691 57.47955 
L 254.340655 59.954785 
L 255.314618 63.089775 
L 256.288582 66.907976 
L 257.5872 73.092852 
L 258.885818 80.552023 
L 260.184436 89.291035 
L 261.807709 101.981406 
L 263.430982 116.534491 
L 265.378909 136.192218 
L 267.651491 161.521018 
L 275.4432 250.88578 
L 277.066473 265.901641 
L 278.365091 276.052716 
L 279.663709 284.264451 
L 280.637673 289.021947 
L 281.611636 292.503191 
L 282.260945 294.092572 
L 282.910255 295.088095 
L 283.234909 295.362406 
L 283.559564 295.488 
L 283.884218 295.465475 
L 284.208873 295.295762 
L 284.858182 294.520168 
L 285.507491 293.175329 
L 286.1568 291.28062 
L 287.130764 287.462473 
L 288.104727 282.566417 
L 289.403345 274.581234 
L 291.026618 262.757397 
L 293.2992 244.165729 
L 296.545745 217.505279 
L 298.169018 205.726962 
L 299.467636 197.55661 
L 300.766255 190.69413 
L 301.740218 186.464733 
L 302.714182 183.034617 
L 303.688145 180.389182 
L 304.662109 178.492039 
L 305.311418 177.616421 
L 305.960727 177.028915 
L 306.610036 176.706771 
L 307.259345 176.625275 
L 307.908655 176.758299 
L 308.557964 177.07884 
L 309.531927 177.851445 
L 310.830545 179.285175 
L 312.778473 181.896195 
L 315.375709 185.388384 
L 316.998982 187.223227 
L 318.2976 188.408157 
L 319.596218 189.3269 
L 320.894836 189.99273 
L 322.193455 190.436386 
L 323.816727 190.741076 
L 325.764655 190.853217 
L 329.0112 190.753134 
L 335.504291 190.534886 
L 347.191855 190.527862 
L 398.487273 190.527767 
L 398.487273 190.527767 
" clip-path="url(#pf590b78b76)" style="fill: none; stroke: #ffac2b; stroke-width: 3; stroke-linecap: square"/>
   </g>
   <g id="patch_3">
    <path d="M 57.6 307.584 
L 57.6 41.472 
" style="fill: none; stroke: #ffffff; stroke-width: 3; stroke-linejoin: miter; stroke-linecap: square"/>
   </g>
   <g id="patch_4">
    <path d="M 57.6 307.584 
L 414.72 307.584 
" style="fill: none; stroke: #ffffff; stroke-width: 3; stroke-linejoin: miter; stroke-linecap: square"/>
   </g>
   <g id="text_14">
    <!-- Luminosity residuals varyied w/ radial bins, reference of 1001 bins. Method 1 -->
    <g style="fill: #ffffff" transform="translate(-0.591562 20.3145) scale(0.12 -0.12)">
     <defs>
      <path id="DejaVuSerif-6d" d="M 3316 2675 
Q 3481 3041 3739 3227 
Q 3997 3413 4341 3413 
Q 4863 3413 5119 3089 
Q 5375 2766 5375 2113 
L 5375 331 
L 5894 331 
L 5894 0 
L 4300 0 
L 4300 331 
L 4800 331 
L 4800 2047 
Q 4800 2556 4650 2772 
Q 4500 2988 4153 2988 
Q 3769 2988 3567 2697 
Q 3366 2406 3366 1850 
L 3366 331 
L 3866 331 
L 3866 0 
L 2291 0 
L 2291 331 
L 2791 331 
L 2791 2069 
Q 2791 2566 2641 2777 
Q 2491 2988 2144 2988 
Q 1759 2988 1557 2697 
Q 1356 2406 1356 1850 
L 1356 331 
L 1856 331 
L 1856 0 
L 263 0 
L 263 331 
L 781 331 
L 781 2994 
L 231 2994 
L 231 3322 
L 1356 3322 
L 1356 2731 
Q 1516 3063 1762 3238 
Q 2009 3413 2322 3413 
Q 2709 3413 2968 3220 
Q 3228 3028 3316 2675 
z
" transform="scale(0.015625)"/>
      <path id="DejaVuSerif-6e" d="M 263 0 
L 263 331 
L 781 331 
L 781 2988 
L 231 2988 
L 231 3322 
L 1356 3322 
L 1356 2731 
Q 1516 3069 1770 3241 
Q 2025 3413 2363 3413 
Q 2913 3413 3172 3097 
Q 3431 2781 3431 2113 
L 3431 331 
L 3944 331 
L 3944 0 
L 2356 0 
L 2356 331 
L 2853 331 
L 2853 1931 
Q 2853 2541 2703 2767 
Q 2553 2994 2175 2994 
Q 1775 2994 1565 2701 
Q 1356 2409 1356 1850 
L 1356 331 
L 1856 331 
L 1856 0 
L 263 0 
z
" transform="scale(0.015625)"/>
      <path id="DejaVuSerif-74" d="M 691 2988 
L 184 2988 
L 184 3322 
L 691 3322 
L 691 4353 
L 1269 4353 
L 1269 3322 
L 2350 3322 
L 2350 2988 
L 1269 2988 
L 1269 878 
Q 1269 456 1350 337 
Q 1431 219 1650 219 
Q 1875 219 1978 351 
Q 2081 484 2088 781 
L 2522 781 
Q 2497 328 2275 118 
Q 2053 -91 1600 -91 
Q 1103 -91 897 129 
Q 691 350 691 878 
L 691 2988 
z
" transform="scale(0.015625)"/>
      <path id="DejaVuSerif-79" d="M 1381 -609 
L 1600 -56 
L 359 2988 
L -19 2988 
L -19 3322 
L 1509 3322 
L 1509 2988 
L 978 2988 
L 1913 703 
L 2847 2988 
L 2350 2988 
L 2350 3322 
L 3597 3322 
L 3597 2988 
L 3225 2988 
L 1703 -750 
Q 1547 -1138 1356 -1280 
Q 1166 -1422 819 -1422 
Q 672 -1422 517 -1397 
Q 363 -1372 206 -1325 
L 206 -691 
L 500 -691 
Q 519 -903 608 -995 
Q 697 -1088 884 -1088 
Q 1056 -1088 1161 -992 
Q 1266 -897 1381 -609 
z
" transform="scale(0.015625)"/>
      <path id="DejaVuSerif-72" d="M 3059 3328 
L 3059 2497 
L 2728 2497 
Q 2713 2744 2591 2866 
Q 2469 2988 2234 2988 
Q 1809 2988 1582 2694 
Q 1356 2400 1356 1850 
L 1356 331 
L 2022 331 
L 2022 0 
L 263 0 
L 263 331 
L 781 331 
L 781 2994 
L 231 2994 
L 231 3322 
L 1356 3322 
L 1356 2731 
Q 1525 3078 1790 3245 
Q 2056 3413 2438 3413 
Q 2578 3413 2733 3391 
Q 2888 3369 3059 3328 
z
" transform="scale(0.015625)"/>
      <path id="DejaVuSerif-76" d="M 1581 0 
L 359 2988 
L -19 2988 
L -19 3322 
L 1509 3322 
L 1509 2988 
L 978 2988 
L 1913 703 
L 2847 2988 
L 2350 2988 
L 2350 3322 
L 3597 3322 
L 3597 2988 
L 3225 2988 
L 2003 0 
L 1581 0 
z
" transform="scale(0.015625)"/>
      <path id="DejaVuSerif-77" d="M 3072 3322 
L 3922 728 
L 4672 2988 
L 4191 2988 
L 4191 3322 
L 5394 3322 
L 5394 2988 
L 5025 2988 
L 4038 0 
L 3559 0 
L 2741 2484 
L 1919 0 
L 1459 0 
L 475 2988 
L 103 2988 
L 103 3322 
L 1606 3322 
L 1606 2988 
L 1069 2988 
L 1813 728 
L 2669 3322 
L 3072 3322 
z
" transform="scale(0.015625)"/>
      <path id="DejaVuSerif-62" d="M 738 331 
L 738 4531 
L 184 4531 
L 184 4863 
L 1313 4863 
L 1313 2803 
Q 1481 3116 1742 3264 
Q 2003 3413 2388 3413 
Q 3000 3413 3387 2928 
Q 3775 2444 3775 1663 
Q 3775 881 3387 395 
Q 3000 -91 2388 -91 
Q 2003 -91 1742 57 
Q 1481 206 1313 519 
L 1313 0 
L 184 0 
L 184 331 
L 738 331 
z
M 1313 1497 
Q 1313 897 1542 583 
Q 1772 269 2209 269 
Q 2650 269 2876 622 
Q 3103 975 3103 1663 
Q 3103 2353 2876 2703 
Q 2650 3053 2209 3053 
Q 1772 3053 1542 2737 
Q 1313 2422 1313 1825 
L 1313 1497 
z
" transform="scale(0.015625)"/>
      <path id="DejaVuSerif-66" d="M 2753 4078 
L 2450 4078 
Q 2447 4313 2317 4434 
Q 2188 4556 1941 4556 
Q 1619 4556 1487 4379 
Q 1356 4203 1356 3750 
L 1356 3322 
L 2284 3322 
L 2284 2988 
L 1356 2988 
L 1356 331 
L 2094 331 
L 2094 0 
L 231 0 
L 231 331 
L 781 331 
L 781 2988 
L 231 2988 
L 231 3322 
L 781 3322 
L 781 3738 
Q 781 4294 1070 4578 
Q 1359 4863 1919 4863 
Q 2128 4863 2337 4825 
Q 2547 4788 2753 4709 
L 2753 4078 
z
" transform="scale(0.015625)"/>
      <path id="DejaVuSerif-63" d="M 3291 997 
Q 3169 466 2822 187 
Q 2475 -91 1925 -91 
Q 1200 -91 759 389 
Q 319 869 319 1663 
Q 319 2459 759 2936 
Q 1200 3413 1925 3413 
Q 2241 3413 2553 3339 
Q 2866 3266 3181 3116 
L 3181 2266 
L 2847 2266 
Q 2781 2703 2561 2903 
Q 2341 3103 1931 3103 
Q 1466 3103 1228 2742 
Q 991 2381 991 1663 
Q 991 944 1227 581 
Q 1463 219 1931 219 
Q 2303 219 2525 412 
Q 2747 606 2828 997 
L 3291 997 
z
" transform="scale(0.015625)"/>
      <path id="DejaVuSerif-2e" d="M 603 325 
Q 603 500 722 622 
Q 841 744 1019 744 
Q 1191 744 1312 622 
Q 1434 500 1434 325 
Q 1434 153 1312 31 
Q 1191 -91 1019 -91 
Q 841 -91 722 29 
Q 603 150 603 325 
z
" transform="scale(0.015625)"/>
      <path id="DejaVuSerif-4d" d="M 353 0 
L 353 331 
L 947 331 
L 947 4331 
L 319 4331 
L 319 4666 
L 1678 4666 
L 3316 1344 
L 4953 4666 
L 6228 4666 
L 6228 4331 
L 5606 4331 
L 5606 331 
L 6203 331 
L 6203 0 
L 4378 0 
L 4378 331 
L 4972 331 
L 4972 3938 
L 3372 684 
L 2931 684 
L 1331 3938 
L 1331 331 
L 1925 331 
L 1925 0 
L 353 0 
z
" transform="scale(0.015625)"/>
      <path id="DejaVuSerif-68" d="M 263 0 
L 263 331 
L 781 331 
L 781 4531 
L 231 4531 
L 231 4863 
L 1356 4863 
L 1356 2731 
Q 1516 3069 1770 3241 
Q 2025 3413 2363 3413 
Q 2913 3413 3172 3097 
Q 3431 2781 3431 2113 
L 3431 331 
L 3944 331 
L 3944 0 
L 2356 0 
L 2356 331 
L 2853 331 
L 2853 1931 
Q 2853 2541 2704 2764 
Q 2556 2988 2175 2988 
Q 1775 2988 1565 2697 
Q 1356 2406 1356 1850 
L 1356 331 
L 1856 331 
L 1856 0 
L 263 0 
z
" transform="scale(0.015625)"/>
     </defs>
     <use xlink:href="#DejaVuSerif-4c"/>
     <use xlink:href="#DejaVuSerif-75" x="66.40625"/>
     <use xlink:href="#DejaVuSerif-6d" x="130.810547"/>
     <use xlink:href="#DejaVuSerif-69" x="225.634766"/>
     <use xlink:href="#DejaVuSerif-6e" x="257.617188"/>
     <use xlink:href="#DejaVuSerif-6f" x="322.021484"/>
     <use xlink:href="#DejaVuSerif-73" x="382.226562"/>
     <use xlink:href="#DejaVuSerif-69" x="433.544922"/>
     <use xlink:href="#DejaVuSerif-74" x="465.527344"/>
     <use xlink:href="#DejaVuSerif-79" x="505.712891"/>
     <use xlink:href="#DejaVuSerif-20" x="562.207031"/>
     <use xlink:href="#DejaVuSerif-72" x="593.994141"/>
     <use xlink:href="#DejaVuSerif-65" x="641.796875"/>
     <use xlink:href="#DejaVuSerif-73" x="700.976562"/>
     <use xlink:href="#DejaVuSerif-69" x="752.294922"/>
     <use xlink:href="#DejaVuSerif-64" x="784.277344"/>
     <use xlink:href="#DejaVuSerif-75" x="848.291016"/>
     <use xlink:href="#DejaVuSerif-61" x="912.695312"/>
     <use xlink:href="#DejaVuSerif-6c" x="972.314453"/>
     <use xlink:href="#DejaVuSerif-73" x="1004.296875"/>
     <use xlink:href="#DejaVuSerif-20" x="1055.615234"/>
     <use xlink:href="#DejaVuSerif-76" x="1087.402344"/>
     <use xlink:href="#DejaVuSerif-61" x="1143.896484"/>
     <use xlink:href="#DejaVuSerif-72" x="1203.515625"/>
     <use xlink:href="#DejaVuSerif-79" x="1251.318359"/>
     <use xlink:href="#DejaVuSerif-69" x="1307.8125"/>
     <use xlink:href="#DejaVuSerif-65" x="1339.794922"/>
     <use xlink:href="#DejaVuSerif-64" x="1398.974609"/>
     <use xlink:href="#DejaVuSerif-20" x="1462.988281"/>
     <use xlink:href="#DejaVuSerif-77" x="1494.775391"/>
     <use xlink:href="#DejaVuSerif-2f" x="1580.371094"/>
     <use xlink:href="#DejaVuSerif-20" x="1614.0625"/>
     <use xlink:href="#DejaVuSerif-72" x="1645.849609"/>
     <use xlink:href="#DejaVuSerif-61" x="1693.652344"/>
     <use xlink:href="#DejaVuSerif-64" x="1753.271484"/>
     <use xlink:href="#DejaVuSerif-69" x="1817.285156"/>
     <use xlink:href="#DejaVuSerif-61" x="1849.267578"/>
     <use xlink:href="#DejaVuSerif-6c" x="1908.886719"/>
     <use xlink:href="#DejaVuSerif-20" x="1940.869141"/>
     <use xlink:href="#DejaVuSerif-62" x="1972.65625"/>
     <use xlink:href="#DejaVuSerif-69" x="2036.669922"/>
     <use xlink:href="#DejaVuSerif-6e" x="2068.652344"/>
     <use xlink:href="#DejaVuSerif-73" x="2133.056641"/>
     <use xlink:href="#DejaVuSerif-2c" x="2184.375"/>
     <use xlink:href="#DejaVuSerif-20" x="2216.162109"/>
     <use xlink:href="#DejaVuSerif-72" x="2247.949219"/>
     <use xlink:href="#DejaVuSerif-65" x="2295.751953"/>
     <use xlink:href="#DejaVuSerif-66" x="2354.931641"/>
     <use xlink:href="#DejaVuSerif-65" x="2391.943359"/>
     <use xlink:href="#DejaVuSerif-72" x="2451.123047"/>
     <use xlink:href="#DejaVuSerif-65" x="2498.925781"/>
     <use xlink:href="#DejaVuSerif-6e" x="2558.105469"/>
     <use xlink:href="#DejaVuSerif-63" x="2622.509766"/>
     <use xlink:href="#DejaVuSerif-65" x="2678.515625"/>
     <use xlink:href="#DejaVuSerif-20" x="2737.695312"/>
     <use xlink:href="#DejaVuSerif-6f" x="2769.482422"/>
     <use xlink:href="#DejaVuSerif-66" x="2829.6875"/>
     <use xlink:href="#DejaVuSerif-20" x="2866.699219"/>
     <use xlink:href="#DejaVuSerif-31" x="2898.486328"/>
     <use xlink:href="#DejaVuSerif-30" x="2962.109375"/>
     <use xlink:href="#DejaVuSerif-30" x="3025.732422"/>
     <use xlink:href="#DejaVuSerif-31" x="3089.355469"/>
     <use xlink:href="#DejaVuSerif-20" x="3152.978516"/>
     <use xlink:href="#DejaVuSerif-62" x="3184.765625"/>
     <use xlink:href="#DejaVuSerif-69" x="3248.779297"/>
     <use xlink:href="#DejaVuSerif-6e" x="3280.761719"/>
     <use xlink:href="#DejaVuSerif-73" x="3345.166016"/>
     <use xlink:href="#DejaVuSerif-2e" x="3396.484375"/>
     <use xlink:href="#DejaVuSerif-20" x="3428.271484"/>
     <use xlink:href="#DejaVuSerif-4d" x="3460.058594"/>
     <use xlink:href="#DejaVuSerif-65" x="3562.451172"/>
     <use xlink:href="#DejaVuSerif-74" x="3621.630859"/>
     <use xlink:href="#DejaVuSerif-68" x="3661.816406"/>
     <use xlink:href="#DejaVuSerif-6f" x="3726.220703"/>
     <use xlink:href="#DejaVuSerif-64" x="3786.425781"/>
     <use xlink:href="#DejaVuSerif-20" x="3850.439453"/>
     <use xlink:href="#DejaVuSerif-31" x="3882.226562"/>
    </g>
   </g>
  </g>
 </g>
 <defs>
  <clipPath id="pf590b78b76">
   <rect x="57.6" y="41.472" width="357.12" height="266.112"/>
  </clipPath>
 </defs>
</svg>
